<svg class="main-svg" xmlns="http://www.w3.org/2000/svg" xmlns:xlink="http://www.w3.org/1999/xlink" width="700" height="450" style="" viewBox="0 0 700 450"><rect x="0" y="0" width="700" height="450" style="fill: rgb(255, 255, 255); fill-opacity: 1;"/><defs id="defs-c6c991"><g class="clips"><clipPath id="clipc6c991xyplot" class="plotclip"><rect width="464" height="330"/></clipPath><clipPath class="axesclip" id="clipc6c991x"><rect x="60" y="0" width="464" height="450"/></clipPath><clipPath class="axesclip" id="clipc6c991y"><rect x="0" y="60" width="700" height="330"/></clipPath><clipPath class="axesclip" id="clipc6c991xy"><rect x="60" y="60" width="464" height="330"/></clipPath></g><g class="gradients"/></defs><g class="bglayer"/><g class="layer-below"><g class="imagelayer"/><g class="shapelayer"/></g><g class="cartesianlayer"><g class="subplot xy"><g class="layer-subplot"><g class="shapelayer"/><g class="imagelayer"/></g><g class="gridlayer"><g class="x"><path class="xgrid crisp" transform="translate(152.43,0)" d="M0,60v330" style="stroke: rgb(238, 238, 238); stroke-opacity: 1; stroke-width: 1px;"/><path class="xgrid crisp" transform="translate(245.32,0)" d="M0,60v330" style="stroke: rgb(238, 238, 238); stroke-opacity: 1; stroke-width: 1px;"/><path class="xgrid crisp" transform="translate(338.21,0)" d="M0,60v330" style="stroke: rgb(238, 238, 238); stroke-opacity: 1; stroke-width: 1px;"/><path class="xgrid crisp" transform="translate(431.11,0)" d="M0,60v330" style="stroke: rgb(238, 238, 238); stroke-opacity: 1; stroke-width: 1px;"/></g><g class="y"><path class="ygrid crisp" transform="translate(0,385.64)" d="M60,0h464" style="stroke: rgb(238, 238, 238); stroke-opacity: 1; stroke-width: 1px;"/><path class="ygrid crisp" transform="translate(0,337.84)" d="M60,0h464" style="stroke: rgb(238, 238, 238); stroke-opacity: 1; stroke-width: 1px;"/><path class="ygrid crisp" transform="translate(0,290.05)" d="M60,0h464" style="stroke: rgb(238, 238, 238); stroke-opacity: 1; stroke-width: 1px;"/><path class="ygrid crisp" transform="translate(0,242.25)" d="M60,0h464" style="stroke: rgb(238, 238, 238); stroke-opacity: 1; stroke-width: 1px;"/><path class="ygrid crisp" transform="translate(0,194.46)" d="M60,0h464" style="stroke: rgb(238, 238, 238); stroke-opacity: 1; stroke-width: 1px;"/><path class="ygrid crisp" transform="translate(0,146.66)" d="M60,0h464" style="stroke: rgb(238, 238, 238); stroke-opacity: 1; stroke-width: 1px;"/><path class="ygrid crisp" transform="translate(0,98.87)" d="M60,0h464" style="stroke: rgb(238, 238, 238); stroke-opacity: 1; stroke-width: 1px;"/></g></g><g class="zerolinelayer"/><path class="xlines-below"/><path class="ylines-below"/><g class="overlines-below"/><g class="xaxislayer-below"/><g class="yaxislayer-below"/><g class="overaxes-below"/><g class="plot" transform="translate(60, 60)" clip-path="url('#clipc6c991xyplot')"><g class="scatterlayer mlayer"><g class="trace scatter tracec61be9" style="stroke-miterlimit: 2; opacity: 1;"><g class="fills"/><g class="errorbars"/><g class="lines"><path class="js-line" d="M0,288.93L1.39,252.32L1.86,251.84L2.79,236.36L3.25,234.45L4.64,213.89L5.11,217.72L6.5,208.45L6.97,213.13L8.36,197.74L8.82,200.61L9.29,197.64L9.75,201.28L10.68,190L11.15,195.16L11.61,182.06L12.08,185.98L12.54,187.61L13.01,183.69L13.47,187.61L14.86,172.98L15.33,180.92L15.79,178.43L16.26,171.64L16.72,173.84L17.19,167.34L17.65,173.17L18.11,164.28L18.58,166L19.04,159.79L19.97,170.5L20.44,165.14L21.37,164.19L21.83,158.74L22.29,160.17L22.76,155.01L23.69,153.19L24.15,156.54L24.62,147.65L25.08,154.05L25.55,154.63L26.01,146.6L26.47,150.33L26.94,146.31L27.4,145.26L27.87,148.13L29.26,142.58L29.73,146.5L30.19,147.46L30.65,143.44L31.58,137.42L32.05,140.96L32.51,134.94L32.98,136.85L33.44,137.23L33.91,136.66L34.37,137.23L34.83,131.97L35.76,142.2L36.23,131.88L36.69,136.28L37.16,132.45L37.62,132.64L38.09,139.24L39.02,127.19L39.48,135.32L39.94,126.81L40.41,127.86L40.87,126.72L41.34,135.51L41.8,125.28L42.27,126.91L42.73,125.38L43.2,124.33L43.66,127.67L44.59,118.69L45.05,125L45.52,126.14L45.98,124.33L46.45,118.69L46.91,123.08L47.38,122.51L47.84,116.49L48.3,118.11L48.77,125.09L50.16,111.8L50.63,118.88L51.09,118.5L51.56,115.72L52.02,110.94L52.48,113.81L52.95,109.61L53.41,120.41L53.88,116.3L54.34,121.65L54.81,114.29L55.27,117.35L55.74,114.58L56.66,111.61L57.13,117.63L57.59,118.11L58.06,114.96L58.52,109.13L58.99,109.61L59.45,116.68L59.92,115.72L60.38,110.18L60.84,112.57L61.31,111.13L61.77,112.86L62.24,109.61L62.7,110.56L63.17,112.09L63.63,102.63L64.1,105.21L64.56,108.74L65.03,108.27L65.49,106.45L65.95,105.21L66.42,106.83L66.88,106.07L67.35,110.75L67.81,109.22L68.28,101.77L68.74,111.8L69.21,102.05L69.67,108.08L70.13,104.92L70.6,101.86L71.99,111.13L72.46,98.9L73.39,109.41L73.85,107.12L74.31,106.64L74.78,98.23L75.24,103.39L75.71,100.91L76.17,104.06L76.64,95.46L77.1,106.93L77.57,96.7L78.49,100.33L78.96,96.99L79.42,96.6L79.89,102.44L80.35,99.86L80.82,102.05L81.28,99.86L81.75,107.31L82.67,91.73L83.14,97.56L84.07,97.08L84.53,101.86L85,94.79L85.46,108.27L86.39,92.21L86.85,96.7L87.32,98.42L87.78,97.66L88.25,90.58L89.18,98.42L89.64,98.33L90.11,95.84L90.57,102.15L91.04,93.93L91.5,100.24L91.96,92.02L92.43,92.21L92.89,91.25L93.36,95.65L93.82,88.48L94.29,100.81L94.75,91.63L95.68,99.28L96.14,95.74L96.61,95.46L97.07,97.47L98,90.1L98.47,89.05L98.93,91.83L99.4,88.67L99.86,94.41L100.32,92.11L100.79,87.24L101.25,97.47L101.72,91.63L102.18,91.83L102.65,92.4L103.11,99.76L104.5,88.58L104.97,90.1L105.43,98.61L105.9,91.73L106.36,93.74L106.83,86.76L107.76,91.06L108.22,88.19L108.68,88.1L109.15,94.22L109.61,85.13L110.08,90.3L110.54,94.31L111.01,89.24L111.47,90.87L111.94,91.25L112.86,83.51L113.33,94.5L113.79,83.41L114.26,92.59L114.72,91.54L115.19,84.18L115.65,83.41L116.12,93.26L116.58,83.03L117.05,89.15L117.51,86.95L117.97,86.76L118.44,88.29L118.9,86.28L119.37,93.74L119.83,77.87L120.3,88.38L120.76,81.6L121.23,85.8L121.69,86.85L122.15,90.97L123.55,81.5L124.01,83.7L124.94,91.16L125.41,84.27L125.87,82.27L126.33,87.43L126.8,81.88L127.26,87.05L127.73,82.17L128.19,85.33L129.59,83.22L130.05,86.09L130.51,78.63L130.98,88.58L131.91,79.3L132.37,83.13L132.84,84.08L133.3,76.82L134.23,81.98L134.69,82.08L135.62,78.25L136.09,80.16L137.02,77.3L137.48,81.6L137.95,80.74L138.41,82.46L138.87,79.97L139.34,82.74L139.8,77.1L140.27,82.84L140.73,83.03L141.2,81.98L141.66,75.96L142.13,80.45L142.59,83.89L143.06,77.3L143.52,79.78L143.98,87.43L144.45,79.4L144.91,83.22L145.38,78.73L145.84,81.98L146.31,78.44L147.7,77.2L148.16,78.92L148.63,74.33L149.09,79.02L149.56,75.86L150.02,82.65L150.49,76.34L150.95,89.44L151.42,77.68L151.88,79.4L152.34,80.55L152.81,84.08L153.27,73.19L154.2,77.3L154.67,75.67L155.13,76.82L155.6,73.85L156.06,73.85L156.52,80.74L156.99,79.88L157.45,76.82L157.92,79.21L158.38,74.81L159.78,79.02L160.24,77.1L160.7,80.35L161.17,75.77L161.63,75.57L162.1,79.97L162.56,74.33L163.03,77.96L163.49,81.98L163.96,75.1L164.88,73.38L165.35,81.79L165.81,74.43L166.28,74.91L166.74,83.89L168.14,72.8L168.6,73.95L169.07,76.34L169.53,71.94L169.99,78.92L170.46,72.71L171.39,77.87L171.85,75.1L172.32,78.63L172.78,75.19L173.25,73.09L173.71,74.24L174.17,74.91L174.64,72.42L175.1,73.66L175.57,74.52L176.03,68.88L176.5,73.09L176.96,68.69L177.43,78.16L177.89,77.3L178.35,71.85L179.28,73.85L179.75,76.63L180.21,70.89L180.68,74.43L181.14,66.02L181.61,68.5L182.07,73.09L182.53,71.94L183,74.71L183.46,73.28L183.93,74.05L184.39,73.66L184.86,68.21L185.32,72.04L185.79,72.8L186.25,69.65L186.71,79.88L187.18,74.05L187.64,72.13L188.57,67.93L189.04,72.99L189.5,77.3L189.97,72.99L190.43,71.37L190.89,73.28L191.36,74.24L191.82,70.22L192.29,73.66L192.75,70.89L193.22,75.48L193.68,67.93L194.15,73.28L194.61,70.22L195.08,66.3L196.93,78.63L197.4,71.66L198.33,73.57L198.79,71.56L199.26,69.94L199.72,72.04L200.18,70.32L200.65,72.04L201.11,72.32L201.58,73.76L202.97,69.84L203.44,75.38L204.36,68.21L204.83,69.84L205.29,74.43L205.76,72.32L206.22,72.13L206.69,70.13L207.15,72.42L207.62,70.6L208.08,78.83L208.54,67.74L209.01,74.14L209.47,68.02L209.94,71.56L210.4,70.03L210.87,79.78L211.8,72.23L212.26,75.29L213.19,70.6L213.65,71.27L214.12,73.09L214.58,80.83L215.51,64.2L215.98,67.83L216.44,71.56L216.9,70.13L217.37,71.27L217.83,71.08L218.3,64.2L218.76,64.87L219.23,74.05L220.62,73.09L221.09,69.55L221.55,68.98L222.01,71.94L222.94,64.1L223.41,68.31L223.87,72.61L224.34,71.08L224.8,68.98L225.27,69.07L225.73,72.71L226.19,69.55L226.66,74.14L227.12,68.12L227.59,71.18L228.05,70.89L228.52,68.98L228.98,77.58L229.91,70.03L230.37,70.13L230.84,73.76L231.77,68.6L232.23,70.6L232.7,74.33L233.16,69.07L233.63,67.74L234.09,73.19L235.02,69.94L235.48,69.84L236.41,77.87L236.88,69.94L237.34,61.43L237.81,62.48L238.27,62.1L238.73,59.9L239.2,64.2L240.13,69.84L240.59,56.93L241.06,65.73L241.52,63.34L241.99,60.47L242.91,55.31L243.38,59.32L243.84,64.49L244.31,55.79L245.24,68.79L245.7,64.39L246.17,59.52L246.63,61.14L247.1,64.39L247.56,59.9L248.02,64.96L249.42,57.99L249.88,62.48L250.81,58.56L251.28,62.67L251.74,62.57L252.2,58.27L253.13,61.33L253.6,60.09L254.06,55.12L254.53,57.6L254.99,58.46L255.46,62.48L255.92,55.79L256.38,54.07L256.85,58.85L257.31,60.85L257.78,57.89L258.24,60.18L258.71,55.88L259.17,63.72L259.64,58.18L260.1,62.29L260.56,58.56L261.03,56.07L261.49,59.42L261.96,60.85L262.42,58.08L262.89,63.63L263.35,55.02L263.82,57.89L264.28,55.21L264.74,65.63L265.21,60.66L265.67,62L266.14,53.49L266.6,59.42L267.07,53.02L267.53,56.17L268,59.71L268.46,58.56L268.92,59.61L269.39,60.76L269.85,57.8L270.32,58.66L270.78,53.4L271.25,59.23L271.71,58.66L272.18,57.8L272.64,65.16L273.11,57.7L273.57,65.16L274.03,52.63L274.96,64.49L275.43,54.64L276.82,58.27L277.29,63.53L277.75,57.32L278.21,57.41L278.68,60.18L279.14,55.69L279.61,60.95L280.07,56.55L280.54,61.14L281,53.78L281.47,58.94L281.93,61.24L282.39,51.49L283.79,58.85L284.25,57.6L285.18,64.68L285.65,56.36L286.11,56.93L286.57,59.42L287.04,55.41L287.5,58.18L287.97,58.08L288.43,64.39L289.83,54.93L290.29,55.79L290.75,63.05L291.22,62.57L291.68,57.22L292.15,62.48L292.61,55.79L293.54,63.05L294.01,57.13L294.47,56.93L294.93,60.18L295.4,59.9L295.86,56.65L296.33,52.44L296.79,58.18L297.26,53.78L297.72,57.22L298.19,59.04L298.65,58.08L299.12,57.32L299.58,57.8L300.04,59.42L300.51,56.65L300.97,57.51L301.44,55.88L302.37,57.7L302.83,55.02L303.3,54.64L303.76,59.61L304.22,63.53L304.69,54.93L305.62,59.04L306.08,57.41L306.55,60.09L307.01,59.13L307.48,55.98L307.94,55.69L308.4,56.74L309.33,62.19L309.8,55.41L310.73,60.38L311.19,58.46L311.66,57.89L312.12,59.99L313.05,54.45L313.51,58.46L313.98,57.32L314.44,60.38L314.91,56.55L315.37,59.32L315.84,51.49L316.3,59.04L316.76,60.47L317.23,54.64L318.16,56.65L318.62,52.16L319.09,57.89L319.55,57.7L320.02,55.79L320.94,58.18L321.41,52.82L322.34,60.09L322.8,55.31L323.27,62L323.73,61.62L324.2,53.21L324.66,55.5L325.13,55.21L325.59,51.2L326.52,59.99L326.98,58.08L327.45,61.43L327.91,61.33L328.38,57.6L328.84,53.59L329.31,57.7L330.7,55.6L331.16,57.99L331.63,59.71L332.09,53.21L333.02,59.9L333.49,53.11L334.41,56.65L334.88,55.69L335.81,58.18L336.27,54.45L336.74,57.8L337.2,56.46L337.67,55.31L338.13,58.56L338.59,55.41L339.06,55.88L339.52,57.6L339.99,49.48L340.45,51.87L340.92,54.93L341.38,55.41L341.85,58.85L342.31,56.55L342.77,61.14L343.24,61.81L343.7,57.7L344.17,53.49L344.63,54.26L345.1,56.84L345.56,56.84L346.03,54.93L346.49,55.02L346.95,58.66L348.35,53.49L348.81,59.32L349.28,60.57L349.74,55.98L350.21,56.74L350.67,53.4L351.14,56.74L351.6,55.5L352.06,56.17L352.53,58.66L352.99,54.35L353.46,53.88L353.92,56.07L354.85,54.55L355.32,51.87L355.78,56.74L356.24,49.48L357.17,55.21L357.64,55.88L358.1,58.94L358.57,55.69L359.03,56.36L359.5,53.59L359.96,51.29L360.42,53.59L360.89,51.68L361.35,57.51L362.75,54.35L363.21,56.36L363.68,54.83L364.14,56.17L364.6,56.84L365.07,54.83L365.53,51.1L366,54.64L366.46,54.93L366.93,53.21L367.39,47.09L367.86,58.27L368.32,50.82L368.78,57.51L369.25,52.63L369.71,58.08L370.64,51.01L371.11,51.87L371.57,54.45L372.04,55.6L372.5,54.26L372.96,53.3L373.43,55.12L374.36,52.25L374.82,51.77L375.29,50.63L375.75,55.02L376.22,52.25L376.68,55.31L377.61,52.82L378.07,54.35L379,56.65L379.47,52.54L379.93,52.16L380.4,55.79L380.86,49.38L381.33,52.82L381.79,54.74L382.25,54.74L382.72,50.53L383.18,51.87L383.65,55.6L384.11,49.29L384.58,55.98L385.51,54.07L385.97,56.74L386.43,53.68L386.9,54.26L387.36,52.92L387.83,51.29L388.29,54.74L388.76,52.54L389.22,54.64L389.69,52.06L390.15,52.73L390.61,58.66L391.08,51.87L391.54,54.45L392.01,56.74L392.47,57.89L392.94,55.41L394.33,50.15L394.79,50.34L395.26,54.35L395.72,53.78L396.19,54.64L397.12,53.68L397.58,57.6L398.05,59.61L398.51,51.87L398.97,56.84L399.44,50.72L399.9,57.51L400.37,53.68L400.83,52.92L401.76,55.02L402.23,50.43L402.69,58.46L403.16,52.44L404.08,52.63L404.55,51.87L405.01,50.72L405.48,50.91L405.94,53.4L406.41,50.72L406.87,56.84L407.34,51.49L407.8,54.16L408.26,52.54L408.73,55.02L409.19,52.06L410.12,57.51L410.59,57.03L411.05,50.53L411.98,57.03L412.44,54.26L412.91,50.05L413.37,53.59L413.84,55.02L414.3,49.48L414.77,56.07L415.23,52.73L415.7,55.5L417.09,53.3L417.55,57.41L418.02,52.06L418.48,53.21L418.95,53.68L419.41,61.62L419.88,49.77L420.8,57.22L421.27,50.05L421.73,54.26L422.2,53.88L422.66,52.82L423.59,57.7L424.06,51.77L424.52,48.81L424.98,53.21L425.91,57.22L426.38,55.6L426.84,49.96L427.31,51.2L427.77,51.87L428.24,54.93L428.7,53.02L429.17,51.77L430.09,56.93L430.56,51.68L431.02,49.57L431.49,56.36L432.42,57.32L432.88,55.02L433.35,54.83L433.81,56.84L434.27,53.59L434.74,54.64L435.2,57.13L436.13,52.06L436.6,54.35L437.06,54.83L437.53,53.78L437.99,53.97L438.45,52.25L438.92,55.88L439.38,55.5L439.85,54.35L440.31,52.82L440.78,57.99L441.24,54.26L441.71,54.64L442.17,57.6L443.1,50.82L443.56,51.2L444.03,55.5L444.49,55.21L444.96,55.6L445.42,59.8L445.89,54.55L446.35,50.24L446.81,53.3L447.28,51.49L447.74,53.11L448.21,52.54L448.67,53.3L449.14,53.49L449.6,61.71L450.07,51.87L450.53,58.75L450.99,53.49L451.46,58.94L452.85,49.29L453.32,54.93L454.25,53.3L454.71,55.21L456.1,49.19L456.57,54.45L457.03,53.59L457.5,54.45L457.96,52.73L458.43,53.59L458.89,61.05L459.36,49.96L459.82,56.65L460.28,56.27L461.68,49.57L462.14,52.35L462.61,55.6L463.07,54.07L463.54,55.41L464,50.72" style="vector-effect: non-scaling-stroke; fill: none; stroke: rgb(31, 119, 180); stroke-opacity: 1; stroke-width: 2px; opacity: 1;"/></g><g class="points"/><g class="text"/></g><g class="trace scatter trace5e8b1d" style="stroke-miterlimit: 2; opacity: 1;"><g class="fills"/><g class="errorbars"/><g class="lines"><path class="js-line" d="M0,313.5L1.39,248.5L1.86,249.93L2.79,240.18L3.25,228.52L3.72,227.56L4.18,217.62L4.64,217.62L5.11,218.48L6.97,200.51L7.43,200.32L7.9,193.72L8.36,198.89L9.75,182.06L10.22,180.63L10.68,182.83L11.15,173.17L11.61,173.65L12.08,171.07L12.54,172.7L13.01,171.55L14.4,160.17L14.86,160.84L15.33,161.32L17.65,148.89L18.11,148.13L18.58,142.78L19.04,150.52L19.97,143.25L20.44,146.03L21.83,135.61L22.29,138.09L23.22,137.42L23.69,132.64L24.62,131.88L25.08,135.32L26.01,126.43L26.47,126.62L26.94,127.58L27.4,128.91L27.87,121.84L28.8,117.54L29.26,124.9L29.73,126.72L30.19,126.52L30.65,125.38L31.58,113.81L32.05,124.8L32.51,114.96L32.98,120.88L33.44,118.5L34.37,115.91L34.83,119.07L35.76,112L36.23,116.3L38.55,108.17L39.02,116.39L40.41,103.58L40.87,108.27L41.8,112.57L42.27,99.38L43.2,110.75L43.66,106.45L44.12,109.99L44.59,102.91L45.05,110.08L45.52,98.42L45.98,107.6L46.45,101.77L46.91,106.36L47.38,101.67L48.3,99.86L48.77,100.52L49.23,102.15L49.7,105.78L50.16,101.96L50.63,94.31L51.09,103.3L52.02,94.12L52.48,94.41L52.95,96.03L53.88,97.85L54.34,101.96L54.81,96.6L55.27,101.77L56.2,92.69L56.66,95.55L57.13,94.31L57.59,96.32L58.52,89.82L58.99,96.6L59.45,88L59.92,92.88L60.38,94.6L61.31,88.1L61.77,89.15L62.24,95.55L62.7,96.32L63.17,88.1L63.63,83.7L64.1,93.74L65.49,88.96L65.95,90.97L66.42,93.64L66.88,89.44L67.35,83.89L67.81,89.24L68.28,83.99L68.74,88.19L69.21,81.5L69.67,85.42L70.13,86.38L70.6,83.99L71.06,85.9L71.53,89.05L71.99,80.83L72.46,83.51L72.92,82.36L73.39,78.63L73.85,81.31L74.31,77.96L74.78,78.06L75.24,86.76L75.71,81.98L76.17,82.46L76.64,81.12L77.57,86.09L78.03,83.89L78.96,74.71L79.42,77.1L79.89,77.01L80.82,85.9L81.28,81.98L82.21,76.34L82.67,78.16L83.14,78.16L83.6,79.49L84.07,75.1L84.53,76.15L85,78.54L85.46,78.44L85.93,75.29L86.39,81.98L86.85,77.1L87.32,78.35L87.78,71.46L89.18,78.25L89.64,73.57L90.11,73.28L90.57,68.12L91.04,76.05L91.5,72.13L91.96,73.76L92.43,70.7L92.89,71.46L93.36,73.85L93.82,68.5L94.29,72.61L95.22,69.94L95.68,73.38L96.14,68.79L96.61,72.99L97.07,68.31L97.54,70.7L98,75.57L98.93,65.92L99.4,70.7L100.32,71.27L100.79,58.56L101.72,73.76L102.18,69.27L102.65,65.82L103.11,67.16L103.58,67.16L104.04,64.49L104.5,70.51L104.97,63.43L105.43,71.08L105.9,66.4L106.36,73.57L107.29,66.78L107.76,65.73L108.22,65.06L108.68,71.56L110.08,61.43L110.54,66.11L111.01,66.49L111.47,70.41L111.94,63.15L112.4,63.72L112.86,67.74L113.79,65.25L114.26,61.71L114.72,62.19L115.19,69.07L116.12,61.91L116.58,63.91L117.51,67.35L117.97,59.61L118.44,60.85L118.9,60.66L119.37,59.61L119.83,62.86L120.3,59.71L120.76,60.18L121.23,61.91L121.69,56.74L122.15,61.71L122.62,69.46L123.08,56.07L123.55,55.69L124.01,68.88L124.48,60.85L124.94,63.24L125.41,61.81L125.87,58.08L126.33,58.75L126.8,66.69L127.26,57.8L127.73,60.76L128.19,59.13L129.12,56.36L129.59,59.8L130.51,55.02L130.98,56.27L131.44,57.03L131.91,56.93L132.37,59.52L132.84,59.32L133.3,56.17L134.69,58.75L135.16,56.65L135.62,55.12L136.09,59.32L136.55,57.13L137.02,59.71L137.95,51.2L138.41,61.24L139.8,50.53L140.27,55.5L140.73,54.26L141.2,58.75L142.59,54.64L143.06,60.18L143.52,58.85L143.98,52.44L144.45,62.67L144.91,52.35L145.38,58.94L145.84,53.49L146.77,58.85L147.24,54.35L148.16,61.43L148.63,60.38L149.09,51.01L149.56,54.07L150.02,52.06L150.49,53.49L150.95,57.8L151.42,51.87L151.88,53.68L152.34,59.04L153.27,49.38L153.74,53.49L154.2,55.6L154.67,53.78L155.6,59.32L156.06,54.45L156.52,49.57L156.99,55.21L157.45,57.89L157.92,54.16L158.38,50.05L158.85,58.85L159.31,53.11L159.78,57.13L160.24,57.51L160.7,52.54L161.17,49.48L161.63,54.35L162.1,55.79L162.56,47.76L163.49,54.64L163.96,52.44L164.42,54.45L164.88,46.9L166.28,57.22L166.74,52.06L167.21,50.72L167.67,55.12L168.14,51.77L168.6,54.26L169.07,51.1L169.53,54.64L170.46,48.33L170.92,50.43L171.39,49.1L171.85,43.65L172.78,52.35L173.25,53.88L173.71,54.35L174.17,56.74L175.1,50.43L175.57,50.72L176.03,51.39L176.5,45.85L176.96,50.05L177.43,48.52L177.89,45.46L179.28,53.11L179.75,52.92L180.21,51.77L180.68,52.44L181.14,48.52L182.07,50.53L182.53,49.29L183.46,52.82L183.93,52.73L184.39,46.9L184.86,48.04L185.32,52.63L185.79,43.93L186.25,49.38L187.18,53.68L187.64,51.29L188.11,49.19L188.57,51.49L189.5,51.1L189.97,49.57L190.43,45.75L190.89,49.77L191.36,49.29L191.82,55.5L192.75,47.47L193.22,50.82L193.68,53.4L194.15,50.63L195.08,53.21L195.54,50.24L196,55.02L196.47,48.43L196.93,49.19L197.4,46.04L197.86,41.93L198.33,49.29L198.79,48.14L199.26,48.43L199.72,44.99L200.18,44.6L200.65,47.66L201.11,50.53L201.58,47.18L202.04,43.74L202.51,49L202.97,48.33L203.44,44.51L203.9,45.66L204.36,51.96L204.83,47.28L205.29,47.76L205.76,46.8L206.22,45.08L206.69,50.82L207.15,52.92L207.62,47.95L208.08,47.09L208.54,44.03L209.94,50.63L210.4,47.57L210.87,47.18L211.33,44.89L211.8,49.86L212.26,45.56L212.72,50.72L213.19,48.52L213.65,41.35L214.58,46.52L215.05,44.22L215.51,51.87L215.98,45.08L216.44,44.13L216.9,46.52L217.37,48.71L217.83,54.64L219.23,43.65L219.69,48.33L220.16,48.71L220.62,45.94L221.09,47.47L221.55,44.99L222.01,48.91L222.48,46.13L222.94,46.04L223.41,48.62L223.87,49.48L224.34,48.14L225.27,48.91L225.73,44.7L226.19,48.81L226.66,41.74L228.05,49.77L228.52,47.95L229.91,42.79L230.37,47.66L230.84,49.77L231.3,49L231.77,47.09L232.7,38.29L233.16,48.24L233.63,42.69L234.09,50.43L234.55,42.88L235.02,49.48L235.48,48.52L235.95,51.77L237.34,32.65L237.81,34.57L238.27,41.64L238.73,34.95L239.2,32.27L239.66,37.53L240.13,29.98L240.59,35.04L241.99,29.12L242.45,30.55L243.38,36L243.84,30.55L244.77,33.71L245.24,36.67L245.7,27.78L246.17,34.09L246.63,28.54L247.1,34.57L247.56,34.18L248.02,35.43L248.49,29.4L248.95,31.03L249.42,36L250.35,32.56L250.81,34.18L251.28,28.26L251.74,29.5L252.2,33.42L252.67,26.44L253.13,33.04L253.6,29.79L254.06,34.38L254.99,30.46L255.46,34.66L256.38,28.54L256.85,29.4L257.31,27.01L257.78,26.44L258.24,33.23L258.71,27.3L259.17,32.94L259.64,29.79L260.1,33.71L260.56,33.23L261.03,26.25L261.49,24.53L261.96,32.46L262.42,30.65L262.89,32.08L263.35,33.61L263.82,28.64L264.28,31.99L264.74,28.16L265.21,28.74L265.67,28.07L266.14,34.28L266.6,28.54L267.07,25.68L267.53,32.08L268.46,28.93L268.92,29.02L269.85,27.49L270.32,29.31L270.78,34.38L271.25,29.79L272.64,35.43L273.11,33.04L273.57,28.64L274.03,31.89L275.43,24.91L275.89,29.4L276.36,28.35L276.82,29.02L277.29,31.51L277.75,32.85L278.21,30.17L278.68,33.42L279.14,30.27L279.61,25.96L280.07,29.6L280.54,30.74L281,28.26L281.47,32.08L281.93,30.27L282.39,31.51L282.86,26.15L283.32,31.89L283.79,34.18L284.25,26.63L284.72,27.59L285.18,31.41L285.65,25.49L286.11,25.96L286.57,33.13L287.04,26.35L287.5,29.6L287.97,30.93L288.43,26.44L288.9,29.5L289.36,31.51L289.83,30.17L290.75,26.54L291.22,26.92L291.68,32.75L292.15,30.27L292.61,34.38L293.54,24.43L294.01,29.5L294.47,29.21L294.93,29.98L295.86,28.16L296.33,29.4L296.79,29.31L297.26,26.82L297.72,32.37L298.19,30.17L298.65,28.93L299.12,28.74L299.58,24.63L300.04,29.4L300.51,27.01L300.97,30.36L301.44,30.93L301.9,26.25L302.37,28.93L302.83,28.74L303.3,25.68L303.76,25.77L304.22,30.84L305.15,21.66L305.62,29.88L306.55,26.06L307.01,27.3L307.48,33.9L307.94,26.54L308.87,33.04L309.33,27.59L310.26,29.31L310.73,25.87L311.66,23.96L312.12,27.78L312.58,24.43L313.05,29.88L313.51,25.2L313.98,29.4L314.44,31.22L314.91,28.64L315.37,26.63L315.84,29.79L316.3,23.86L316.76,27.01L317.23,28.45L317.69,23.86L318.16,27.11L318.62,25.29L319.09,26.25L319.55,28.54L321.41,28.16L321.87,28.93L322.34,29.79L322.8,25.68L323.27,25.49L323.73,27.78L324.2,24.72L324.66,25.68L325.13,26.82L325.59,26.44L326.05,29.12L326.52,33.52L326.98,27.49L327.91,24.53L328.38,28.26L328.84,24.05L329.31,28.07L329.77,34.38L330.23,29.5L330.7,24.63L331.16,29.5L331.63,29.21L332.09,26.25L332.56,22.14L333.02,27.11L333.49,30.27L333.95,27.01L334.88,25.39L335.34,25.68L336.27,28.64L336.74,27.11L337.2,30.07L337.67,29.21L338.13,26.82L338.59,25.2L339.06,29.69L339.52,25.68L339.99,27.68L340.45,27.59L340.92,25.68L341.38,30.55L342.77,23.67L343.24,24.91L343.7,26.63L344.17,24.05L344.63,23.1L345.1,27.59L345.56,29.5L346.03,25.58L346.49,26.63L346.95,23.76L347.88,31.03L348.35,25.77L348.81,29.69L349.28,25.96L349.74,26.73L350.21,21.28L350.67,28.35L351.14,24.15L351.6,30.55L352.53,28.35L352.99,21.28L353.92,23.67L354.39,23.19L354.85,22.71L356.24,25.68L356.71,25.77L357.64,22.81L358.1,25.96L359.03,24.15L359.5,25.58L360.42,21.18L360.89,22.52L362.75,25.29L363.21,22.62L363.68,19.56L364.14,20.9L364.6,27.01L365.07,21.18L365.53,26.06L366.46,25.1L366.93,27.59L367.39,27.01L367.86,20.13L368.78,25.39L369.25,22.24L369.71,26.06L370.18,25.49L370.64,21.09L371.11,18.51L371.57,23.48L372.5,20.32L372.96,31.99L374.36,18.7L374.82,25.77L375.29,26.82L375.75,23.38L376.22,22.33L376.68,27.88L378.07,22.43L378.54,26.92L379.47,23.19L379.93,25.58L380.4,19.46L380.86,26.06L381.33,18.89L381.79,20.04L382.25,24.24L383.18,22.52L383.65,22.24L384.11,23.38L384.58,22.33L385.51,26.15L385.97,22.24L386.43,19.27L386.9,20.8L387.36,19.85L387.83,25.2L388.29,20.9L388.76,23.38L389.22,22.62L389.69,22.62L390.15,21.09L390.61,24.43L391.08,22.04L391.54,27.49L392.01,27.3L392.47,16.5L393.87,26.73L394.33,22.71L395.26,20.8L395.72,28.93L396.19,20.8L396.65,23.67L397.12,19.94L398.05,23.57L398.51,20.42L399.44,25.29L399.9,24.63L400.37,22.14L400.83,22.52L401.3,25.29L401.76,23.76L402.23,18.32L402.69,24.05L403.16,21.66L403.62,21.76L404.08,20.99L404.55,24.72L405.48,19.37L405.94,26.54L406.41,23.86L406.87,25.77L407.34,22.14L407.8,22.24L408.26,25.87L408.73,26.92L409.19,22.81L409.66,19.37L410.12,22.62L410.59,22.14L411.05,23.29L411.52,22.14L411.98,24.43L412.44,25.39L412.91,19.94L413.37,22.04L413.84,20.9L414.3,22.62L414.77,28.16L415.23,26.44L415.7,23.96L416.62,22.43L417.09,26.92L417.55,24.82L418.02,27.11L418.48,18.41L418.95,18.79L419.41,21.95L419.88,21.85L420.34,26.06L420.8,21.09L421.27,24.91L421.73,25.58L422.2,21.57L423.13,24.91L423.59,23.67L424.52,21.76L424.98,23.29L425.45,25.87L425.91,22.52L426.38,20.71L426.84,21.95L427.31,21.47L427.77,19.46L428.7,23.38L429.17,23.19L429.63,21.47L430.09,23.76L431.95,23.86L432.42,18.79L433.35,21.76L433.81,20.8L435.2,26.35L435.67,19.18L436.13,23L436.6,21.28L437.06,21.85L437.53,25.1L437.99,22.81L438.45,23.29L438.92,20.9L439.85,23.86L440.31,22.33L440.78,24.82L441.24,20.13L441.71,23.67L442.17,21.47L442.63,20.13L443.1,26.44L443.56,22.9L444.03,17.55L444.96,25.96L445.42,26.06L446.35,19.08L446.81,25.1L447.74,18.13L448.21,21.57L449.14,24.24L449.6,22.71L450.07,25.68L450.53,22.04L450.99,25.87L451.46,22.52L451.92,24.53L452.39,23.86L452.85,21.18L453.78,22.9L454.25,22.24L454.71,24.15L455.18,17.17L457.5,26.54L457.96,24.72L458.43,25.87L458.89,25.01L460.28,19.08L460.75,20.42L461.21,26.35L461.68,24.63L462.14,27.4L463.07,22.71L463.54,23.76L464,22.24" style="vector-effect: non-scaling-stroke; fill: none; stroke: rgb(255, 127, 14); stroke-opacity: 1; stroke-width: 2px; opacity: 1;"/></g><g class="points"/><g class="text"/></g></g></g><g class="overplot"/><path class="xlines-above crisp" d="M0,0" style="fill: none;"/><path class="ylines-above crisp" d="M0,0" style="fill: none;"/><g class="overlines-above"/><g class="xaxislayer-above"><g class="xtick"><text text-anchor="middle" x="0" y="403" transform="translate(152.43,0)" style="font-family: 'Open Sans', verdana, arial, sans-serif; font-size: 12px; fill: rgb(68, 68, 68); fill-opacity: 1; white-space: pre;">20</text></g><g class="xtick"><text text-anchor="middle" x="0" y="403" transform="translate(245.32,0)" style="font-family: 'Open Sans', verdana, arial, sans-serif; font-size: 12px; fill: rgb(68, 68, 68); fill-opacity: 1; white-space: pre;">40</text></g><g class="xtick"><text text-anchor="middle" x="0" y="403" transform="translate(338.21,0)" style="font-family: 'Open Sans', verdana, arial, sans-serif; font-size: 12px; fill: rgb(68, 68, 68); fill-opacity: 1; white-space: pre;">60</text></g><g class="xtick"><text text-anchor="middle" x="0" y="403" transform="translate(431.11,0)" style="font-family: 'Open Sans', verdana, arial, sans-serif; font-size: 12px; fill: rgb(68, 68, 68); fill-opacity: 1; white-space: pre;">80</text></g><g class="xtick"><text text-anchor="middle" x="0" y="403" transform="translate(524,0)" style="font-family: 'Open Sans', verdana, arial, sans-serif; font-size: 12px; fill: rgb(68, 68, 68); fill-opacity: 1; white-space: pre;">100</text></g></g><g class="yaxislayer-above"><g class="ytick"><text text-anchor="end" x="59" y="4.199999999999999" transform="translate(0,385.64)" style="font-family: 'Open Sans', verdana, arial, sans-serif; font-size: 12px; fill: rgb(68, 68, 68); fill-opacity: 1; white-space: pre;">20</text></g><g class="ytick"><text text-anchor="end" x="59" y="4.199999999999999" transform="translate(0,337.84)" style="font-family: 'Open Sans', verdana, arial, sans-serif; font-size: 12px; fill: rgb(68, 68, 68); fill-opacity: 1; white-space: pre;">30</text></g><g class="ytick"><text text-anchor="end" x="59" y="4.199999999999999" transform="translate(0,290.05)" style="font-family: 'Open Sans', verdana, arial, sans-serif; font-size: 12px; fill: rgb(68, 68, 68); fill-opacity: 1; white-space: pre;">40</text></g><g class="ytick"><text text-anchor="end" x="59" y="4.199999999999999" transform="translate(0,242.25)" style="font-family: 'Open Sans', verdana, arial, sans-serif; font-size: 12px; fill: rgb(68, 68, 68); fill-opacity: 1; white-space: pre;">50</text></g><g class="ytick"><text text-anchor="end" x="59" y="4.199999999999999" transform="translate(0,194.46)" style="font-family: 'Open Sans', verdana, arial, sans-serif; font-size: 12px; fill: rgb(68, 68, 68); fill-opacity: 1; white-space: pre;">60</text></g><g class="ytick"><text text-anchor="end" x="59" y="4.199999999999999" transform="translate(0,146.66)" style="font-family: 'Open Sans', verdana, arial, sans-serif; font-size: 12px; fill: rgb(68, 68, 68); fill-opacity: 1; white-space: pre;">70</text></g><g class="ytick"><text text-anchor="end" x="59" y="4.199999999999999" transform="translate(0,98.87)" style="font-family: 'Open Sans', verdana, arial, sans-serif; font-size: 12px; fill: rgb(68, 68, 68); fill-opacity: 1; white-space: pre;">80</text></g></g><g class="overaxes-above"/></g></g><g class="polarlayer"/><g class="ternarylayer"/><g class="geolayer"/><g class="funnelarealayer"/><g class="pielayer"/><g class="treemaplayer"/><g class="sunburstlayer"/><g class="glimages"/><defs id="topdefs-c6c991"><g class="clips"/><clipPath id="legendc6c991"><rect width="155" height="48" x="0" y="0"/></clipPath></defs><g class="layer-above"><g class="imagelayer"/><g class="shapelayer"/></g><g class="infolayer"><g class="legend" pointer-events="all" transform="translate(533.28, 60)"><rect class="bg" shape-rendering="crispEdges" width="155" height="48" x="0" y="0" style="stroke: rgb(68, 68, 68); stroke-opacity: 1; fill: rgb(255, 255, 255); fill-opacity: 1; stroke-width: 0px;"/><g class="scrollbox" transform="translate(0, 0)" clip-path="url('#legendc6c991')"><g class="groups"><g class="traces" transform="translate(0, 14.5)" style="opacity: 1;"><text class="legendtext user-select-none" text-anchor="start" x="40" y="4.680000000000001" style="font-family: 'Open Sans', verdana, arial, sans-serif; font-size: 12px; fill: rgb(68, 68, 68); fill-opacity: 1; white-space: pre;">0_nin_gc_xnornet</text><g class="layers" style="opacity: 1;"><g class="legendfill"/><g class="legendlines"><path class="js-line" d="M5,0h30" style="fill: none; stroke: rgb(31, 119, 180); stroke-opacity: 1; stroke-width: 2px;"/></g><g class="legendsymbols"><g class="legendpoints"/></g></g><rect class="legendtoggle" pointer-events="all" x="0" y="-9.5" width="149.578125" height="19" style="cursor: pointer; fill: rgb(0, 0, 0); fill-opacity: 0;"/></g><g class="traces" transform="translate(0, 33.5)" style="opacity: 1;"><text class="legendtext user-select-none" text-anchor="start" x="40" y="4.680000000000001" style="font-family: 'Open Sans', verdana, arial, sans-serif; font-size: 12px; fill: rgb(68, 68, 68); fill-opacity: 1; white-space: pre;">1_nin_xnornet</text><g class="layers" style="opacity: 1;"><g class="legendfill"/><g class="legendlines"><path class="js-line" d="M5,0h30" style="fill: none; stroke: rgb(255, 127, 14); stroke-opacity: 1; stroke-width: 2px;"/></g><g class="legendsymbols"><g class="legendpoints"/></g></g><rect class="legendtoggle" pointer-events="all" x="0" y="-9.5" width="149.578125" height="19" style="cursor: pointer; fill: rgb(0, 0, 0); fill-opacity: 0;"/></g></g></g><rect class="scrollbar" rx="20" ry="3" width="0" height="0" x="0" y="0" style="fill: rgb(128, 139, 164); fill-opacity: 1;"/></g><g class="g-gtitle"><text class="gtitle" x="350" y="30" text-anchor="middle" dy="0em" style="font-family: 'Open Sans', verdana, arial, sans-serif; font-size: 17px; fill: rgb(68, 68, 68); opacity: 1; font-weight: normal; white-space: pre;">train_top1</text></g><g class="g-xtitle"/><g class="g-ytitle"/></g></svg>