<svg class="main-svg" xmlns="http://www.w3.org/2000/svg" xmlns:xlink="http://www.w3.org/1999/xlink" width="700" height="450" style="" viewBox="0 0 700 450"><rect x="0" y="0" width="700" height="450" style="fill: rgb(255, 255, 255); fill-opacity: 1;"/><defs id="defs-f247f1"><g class="clips"><clipPath id="clipf247f1xyplot" class="plotclip"><rect width="377" height="330"/></clipPath><clipPath class="axesclip" id="clipf247f1x"><rect x="60" y="0" width="377" height="450"/></clipPath><clipPath class="axesclip" id="clipf247f1y"><rect x="0" y="60" width="700" height="330"/></clipPath><clipPath class="axesclip" id="clipf247f1xy"><rect x="60" y="60" width="377" height="330"/></clipPath></g><g class="gradients"/></defs><g class="bglayer"/><g class="layer-below"><g class="imagelayer"/><g class="shapelayer"/></g><g class="cartesianlayer"><g class="subplot xy"><g class="layer-subplot"><g class="shapelayer"/><g class="imagelayer"/></g><g class="gridlayer"><g class="x"><path class="xgrid crisp" transform="translate(154.11,0)" d="M0,60v330" style="stroke: rgb(238, 238, 238); stroke-opacity: 1; stroke-width: 1px;"/><path class="xgrid crisp" transform="translate(248.41,0)" d="M0,60v330" style="stroke: rgb(238, 238, 238); stroke-opacity: 1; stroke-width: 1px;"/><path class="xgrid crisp" transform="translate(342.7,0)" d="M0,60v330" style="stroke: rgb(238, 238, 238); stroke-opacity: 1; stroke-width: 1px;"/></g><g class="y"><path class="ygrid crisp" transform="translate(0,341.84)" d="M60,0h377" style="stroke: rgb(238, 238, 238); stroke-opacity: 1; stroke-width: 1px;"/><path class="ygrid crisp" transform="translate(0,275.47)" d="M60,0h377" style="stroke: rgb(238, 238, 238); stroke-opacity: 1; stroke-width: 1px;"/><path class="ygrid crisp" transform="translate(0,209.1)" d="M60,0h377" style="stroke: rgb(238, 238, 238); stroke-opacity: 1; stroke-width: 1px;"/><path class="ygrid crisp" transform="translate(0,142.74)" d="M60,0h377" style="stroke: rgb(238, 238, 238); stroke-opacity: 1; stroke-width: 1px;"/><path class="ygrid crisp" transform="translate(0,76.37)" d="M60,0h377" style="stroke: rgb(238, 238, 238); stroke-opacity: 1; stroke-width: 1px;"/></g></g><g class="zerolinelayer"/><path class="xlines-below"/><path class="ylines-below"/><g class="overlines-below"/><g class="xaxislayer-below"/><g class="yaxislayer-below"/><g class="overaxes-below"/><g class="plot" transform="translate(60, 60)" clip-path="url('#clipf247f1xyplot')"><g class="scatterlayer mlayer"><g class="trace scatter tracec18de3" style="stroke-miterlimit: 2; opacity: 1;"><g class="fills"/><g class="errorbars"/><g class="lines"><path class="js-line" d="M0,273.08L1.13,177.98L1.32,178.17L1.51,166.1L3.21,122.09L3.39,122.89L3.58,121.83L3.77,114.19L4.53,105.04L4.71,99.2L4.9,99.2L5.09,104.44L6.41,91.96L6.6,91.36L6.98,93.49L7.73,84.66L7.92,87.38L8.68,79.48L8.86,80.08L9.05,79.42L9.24,83.8L9.62,75.37L9.81,77.63L10.18,74.84L10.37,79.15L10.56,78.16L11.13,73.18L11.32,82.4L11.69,73.84L12.26,75.83L12.45,74.11L13.39,67.47L13.58,67.4L13.77,70.92L13.96,66.41L14.33,68.8L14.52,67.27L14.71,71.45L14.9,64.02L15.09,65.94L15.28,62.83L15.46,68L16.03,64.62L16.22,61.03L16.97,75.77L17.16,62.89L17.54,69.2L17.73,67.94L17.92,64.02L18.11,63.69L18.29,66.08L18.86,60.17L19.24,62.69L19.43,61.5L19.61,61.83L19.8,59.57L20.18,62.16L20.37,61.76L20.56,57.85L20.75,57.18L20.93,60.1L21.12,53.93L21.5,60.24L21.69,58.18L21.88,62.56L22.44,57.25L22.63,75.44L23.57,59.37L23.76,60.9L23.95,61.5L24.14,59.18L24.33,63.22L24.52,57.25L24.71,53.6L24.89,59.44L25.46,58.78L25.65,57.71L25.84,56.06L26.03,59.84L26.21,61.3L26.78,52.6L26.97,55.72L27.16,54.99L27.35,58.31L27.91,57.65L28.1,55.59L28.29,76.43L28.85,63.29L29.04,59.64L29.42,61.5L29.61,55.99L29.8,60.9L30.18,54L30.36,57.32L30.55,56.98L30.74,59.64L31.12,56.59L31.31,55.26L31.68,59.51L31.87,57.85L32.06,51.54L33,57.12L33.19,56.06L33.38,56.52L33.57,54.53L33.76,56.79L33.95,80.21L34.7,60.57L34.89,63.29L35.08,61.63L35.64,59.51L35.83,55.19L36.78,60.44L36.96,56.59L37.15,56.45L37.34,57.85L37.53,59.97L37.72,50.02L38.66,58.05L38.85,55.79L39.04,56.45L39.23,54.13L39.42,54.66L39.6,82.27L40.55,61.23L40.74,62.29L40.92,63.22L41.11,62.1L41.3,57.85L41.49,56.39L41.68,58.84L41.87,60.9L42.43,57.52L42.81,57.71L43,56.39L43.19,62.03L43.38,54.93L43.57,57.38L43.75,55.19L44.13,54.99L44.32,59.18L44.51,56.92L44.7,55.06L45.07,58.64L45.26,94.09L46.02,66.61L46.21,67.34L46.39,60.83L46.58,64.42L47.15,62.76L47.34,57.65L47.9,56.25L48.09,60.7L48.28,60.04L48.66,61.1L48.85,58.91L49.03,54.06L49.22,59.64L49.6,57.12L49.79,61.1L50.73,55.26L50.92,101.45L51.86,67.07L52.05,67.47L52.24,68.93L52.43,64.42L52.62,70.33L52.81,60.83L53.18,64.48L53.37,64.35L53.56,64.95L53.75,59.97L53.94,64.55L54.5,62.23L54.69,58.78L54.88,63.36L55.26,57.91L55.45,62.43L55.64,60.44L55.82,61.7L56.2,61.03L56.39,59.24L56.58,101.78L57.14,71.79L57.33,69.26L57.52,72.25L57.71,68.93L58.09,70.72L58.28,67.74L58.46,64.02L59.03,66.74L59.22,65.61L60.16,67.4L60.35,62.96L60.54,59.18L61.1,60.83L61.29,64.55L61.48,64.29L61.67,62.1L61.86,62.89L62.05,61.63L62.24,91.36L62.99,68.47L63.18,72.91L63.37,71.72L63.74,73.51L64.31,65.61L64.5,71.92L65.25,63.02L65.44,66.48L65.63,67.87L66.57,62.96L66.76,63.49L66.95,63.89L67.14,66.54L67.33,67.47L67.52,62.49L67.71,68.6L67.89,111.01L68.84,71.79L69.03,73.38L69.4,71.39L69.59,74.64L69.78,68.33L70.35,72.71L70.53,69.99L70.72,69.4L70.91,69.99L71.1,67.07L71.29,69.66L71.67,68.67L71.85,65.61L72.8,69.73L72.99,64.02L73.36,68.6L73.55,118.71L74.12,82.4L74.49,84.4L74.68,81.67L75.44,73.98L75.63,76.83L75.81,76.9L76,75.57L76.57,79.68L76.76,73.64L77.14,75.57L77.32,70.19L77.89,74.44L78.08,66.21L78.83,72.78L79.02,70.99L79.21,106.63L79.96,79.15L80.15,80.48L80.34,83.13L81.47,71.92L81.66,76.03L81.85,76.03L82.04,73.25L82.42,77.36L82.6,71.52L82.79,74.04L82.98,71.06L83.17,70.06L83.36,74.17L83.74,68.53L84.11,70.59L84.3,70.59L84.87,88.31L85.06,76.7L85.24,76.23L85.43,78.29L85.62,76.9L85.81,73.44L86.19,73.38L86.38,77.03L86.56,75.63L86.75,69.59L87.51,74.9L87.7,73.31L88.26,71.72L88.45,74.51L89.39,66.61L89.58,70.92L89.77,71.12L89.96,67.54L90.34,69.46L90.53,77.29L91.47,66.21L91.66,68L92.22,74.04L92.41,65.88L92.79,65.15L93.35,69.86L93.54,68.27L93.92,69.93L94.3,63.95L94.49,66.08L95.05,66.48L95.24,63.56L96.18,73.38L96.37,66.08L96.75,68.67L96.94,65.94L97.13,64.35L97.31,70.06L97.88,65.88L98.07,60.04L98.63,67.74L99.01,66.94L99.2,65.61L99.39,66.01L99.58,64.09L99.77,64.68L99.95,60.97L100.14,61.3L100.33,65.15L100.71,68.27L100.9,67.4L101.09,63.75L101.65,61.83L101.84,65.88L102.03,64.22L102.41,63.02L102.78,65.88L102.97,62.29L103.16,65.61L103.54,64.82L103.73,60.97L103.92,59.77L104.1,60.04L104.29,62.83L104.48,66.54L104.67,59.91L105.05,63.69L105.24,61.5L105.42,65.55L105.61,58.84L105.8,61.96L105.99,60.44L107.12,63.42L107.31,60.04L107.5,57.52L107.69,62.63L108.06,59.64L108.25,61.1L108.44,62.43L108.63,60.04L108.82,62.03L109.01,59.57L109.2,63.36L109.57,57.78L109.76,58.58L110.14,57.05L110.7,61.96L110.89,60.5L111.08,60.37L111.27,58.45L111.46,55.59L111.65,61.83L111.84,56.79L112.03,61.76L112.21,56.12L112.78,59.57L112.97,61.23L113.35,56.39L113.72,58.18L113.91,56.92L114.29,60.17L114.48,59.18L114.67,54.6L115.42,60.44L115.61,57.85L115.8,55.13L115.99,59.24L116.36,57.78L116.55,59.57L117.12,53.33L117.31,56.19L117.49,57.38L117.68,57.25L117.87,59.04L118.81,51.87L119,55.79L119.19,58.98L119.57,52.87L119.76,55.39L119.95,59.04L120.51,56.72L120.7,53.93L120.89,51.68L121.27,56.06L121.45,55.13L121.64,53.2L121.83,58.98L122.96,51.54L123.15,55.26L123.34,55.13L123.53,56.19L123.72,57.85L123.91,56.45L124.1,54.53L124.28,55.39L124.47,49.62L124.85,57.58L125.23,54.93L125.42,53.93L125.6,54.93L125.79,53.27L125.98,52.27L126.17,53.73L126.36,53.53L126.55,50.48L127.3,56.65L127.49,54.2L127.68,57.58L128.06,52.87L128.24,52.67L128.62,55.19L128.81,51.41L129.56,56.12L129.75,50.61L130.7,54.2L130.88,55.59L131.45,56.65L131.64,48.82L131.83,54.53L132.2,50.61L132.77,51.41L132.96,54.4L133.9,48.42L134.09,51.87L134.66,53.93L134.84,53.2L135.03,51.41L135.41,55.66L135.6,51.21L135.79,49.82L135.98,52.8L136.35,51.41L136.54,49.29L137.3,54.53L137.49,49.35L137.67,45.3L138.05,53.47L138.24,50.15L138.62,48.89L139.18,53.4L139.37,51.21L140.13,49.68L140.31,50.48L140.69,48.36L140.88,52.74L141.07,47.83L141.63,51.87L141.82,48.36L142.39,52.41L142.58,50.41L142.77,50.02L143.14,50.68L143.33,46.1L143.71,45.7L144.09,52.47L144.27,47.49L145.03,53.2L145.22,46.3L145.41,46.3L145.59,50.68L145.78,46.63L146.16,52.34L146.35,50.55L146.73,49.42L146.91,52.34L147.1,46.43L147.86,50.35L148.05,48.49L148.42,51.81L148.61,50.15L148.8,48.36L148.99,46.5L149.18,48.62L149.37,48.29L149.56,49.95L149.74,45.9L150.12,48.82L150.31,51.28L150.88,46.96L151.25,48.62L151.44,48.69L151.63,49.22L151.82,48.09L152.2,48.95L152.38,49.02L152.57,51.54L152.76,45.97L152.95,44.44L153.7,49.68L153.89,48.69L154.08,47.83L154.27,48.09L154.46,52.14L154.84,47.16L155.21,51.94L155.4,50.81L155.78,45.97L155.97,49.09L156.16,50.95L156.53,43.98L156.72,45.04L156.91,50.55L157.1,46.63L157.66,47.43L157.85,52.01L158.8,44.84L158.98,46.9L159.17,46.96L159.36,49.82L159.74,45.57L159.93,48.49L160.12,50.68L160.68,45.9L160.87,47.89L161.06,48.09L161.25,46.17L161.63,48.56L161.81,46.96L162,47.03L162.19,43.11L162.57,46.63L162.76,46.9L162.95,48.22L163.51,47.1L163.7,47.83L164.27,43.64L164.45,46.76L164.64,48.42L165.21,49.09L165.4,46.57L165.59,49.95L165.96,43.38L166.53,44.11L166.72,44.91L167.28,42.45L167.47,48.03L167.66,47.16L167.85,42.52L168.41,43.64L168.6,47.69L168.79,47.76L168.98,46.37L169.36,46.96L169.55,42.72L169.73,39.26L170.11,44.77L170.3,44.97L170.68,44.51L170.87,48.82L171.06,46.76L171.24,45.97L171.43,47.1L171.62,44.24L171.81,43.25L172.19,43.84L172.38,47.3L172.75,47.69L172.94,45.3L173.13,47.83L173.32,47.3L173.51,44.51L173.88,40.26L174.07,45.57L174.26,45.37L174.45,44.64L174.64,46.37L174.83,46.1L175.02,45.7L175.2,48.16L175.39,41.92L175.58,40.66L176.52,48.76L176.71,46.63L177.09,49.68L177.47,42.58L177.66,47.23L178.41,42.58L178.6,45.1L178.79,47.1L178.98,46.9L179.16,41.85L179.35,41.12L179.54,43.58L179.92,42.98L180.11,44.51L180.3,42.32L180.67,47.56L180.86,45.04L181.05,41.39L181.24,40.66L181.43,46.76L181.62,42.25L182.18,45.3L182.37,44.57L182.56,46.9L182.75,45.3L182.94,41.06L183.69,46.23L183.88,43.31L184.07,43.91L184.26,46.43L184.45,42.85L184.82,44.84L185.01,42.25L185.77,44.37L185.95,46.7L187.09,41.52L187.27,44.71L187.65,44.91L188.03,43.38L188.22,43.58L188.41,45.5L188.78,40.06L189.16,41.85L189.35,45.17L189.54,41.45L189.73,45.37L190.1,42.65L190.29,44.44L191.42,28.65L191.61,31.37L192.55,27.45L192.74,27.72L192.93,28.65L193.5,27.25L193.87,27.52L194.06,29.44L195.01,25.66L195.2,27.65L196.14,24.46L196.33,25.53L196.52,26.59L196.89,24.73L197.08,24.4L197.84,25.99L198.02,24.86L198.21,23.8L198.4,25.86L198.59,24.13L198.78,25.26L198.97,24.53L199.16,25.46L199.34,26.26L199.72,24L200.1,24.33L200.29,24.86L200.48,25.19L200.66,22.61L201.61,25.19L201.8,23.34L202.17,22.87L202.55,24.07L202.74,23L202.93,24.07L203.3,23.93L203.49,22.74L203.87,22.21L204.06,22.61L204.25,23.47L204.62,23.8L205.19,22.61L205.38,22.81L206.32,21.74L206.51,22.41L206.7,23.87L206.89,21.88L207.27,23.47L207.45,21.01L208.77,23.2L208.96,22.94L209.15,22.47L209.34,22.74L209.53,21.41L209.72,20.55L209.91,22.07L210.09,21.81L210.28,21.94L210.47,22.87L211.04,22.41L211.23,21.41L211.6,22.01L212.17,21.28L212.36,22.21L212.73,21.54L212.92,23.07L213.11,20.68L213.68,21.88L213.87,21.08L214.05,20.95L214.24,22.21L214.43,21.21L214.62,22.54L215,21.61L215.19,21.74L215.94,20.95L216.13,21.54L216.51,20.08L216.69,22.07L217.64,19.82L217.83,20.81L218.02,21.54L218.58,21.28L218.77,20.88L220.66,19.69L220.84,20.28L221.03,21.01L221.41,21.15L221.79,20.28L221.98,20.75L222.35,19.62L222.73,19.82L222.92,20.28L223.11,19.35L223.48,21.15L223.67,19.55L223.86,20.61L224.24,20.48L224.43,20.95L224.62,19.35L224.99,21.08L225.37,20.35L225.56,19.88L225.75,19.15L225.94,19.95L226.12,20.81L226.5,19.42L226.88,19.88L227.07,20.55L228.39,18.89L228.58,20.42L228.95,19.22L229.14,20.22L229.33,19.02L229.9,20.02L230.09,19.82L230.27,20.35L230.46,19.42L230.65,19.82L230.84,19.62L231.59,20.61L231.78,19.75L232.16,19.95L232.35,19.29L232.54,19.42L232.73,21.01L233.48,19.02L233.67,20.08L234.42,18.89L234.61,20.42L235.37,18.36L235.55,19.49L236.31,19.62L236.5,19.15L237.25,21.41L237.44,19.22L237.63,19.69L238.01,19.09L238.19,18.82L238.38,18.56L238.57,18.76L238.76,19.75L239.14,20.28L239.33,19.09L239.51,18.42L239.7,19.69L240.08,19.15L240.27,18.96L240.46,19.55L241.02,19.15L241.21,19.29L241.59,18.42L241.97,20.02L242.16,19.49L242.91,19.55L243.1,19.55L243.48,18.69L243.85,19.55L244.04,19.49L244.23,18.36L244.61,19.55L244.8,19.55L244.98,19.02L245.55,19.29L245.74,19.42L246.68,18.82L246.87,19.55L247.44,18.82L247.62,19.69L248.57,18.96L248.76,19.35L248.94,18.82L249.51,19.22L249.7,19.42L250.26,19.95L250.64,18.76L250.83,18.82L251.4,18.56L251.58,19.02L251.77,19.42L252.9,18.56L253.09,19.09L253.28,19.88L253.47,18.82L253.66,19.22L253.85,18.69L254.41,18.69L254.6,18.96L254.79,18.89L255.17,19.15L255.36,18.56L255.55,18.16L256.11,18.96L256.3,18.76L256.49,17.83L258.19,19.82L258.37,18.16L258.94,19.42L259.13,17.96L259.69,19.29L259.88,18.82L260.07,19.09L260.26,19.02L260.45,18.03L261.01,18.96L261.2,18.89L261.39,18.76L261.77,19.55L262.15,18.76L262.33,18.56L262.9,18.76L263.09,19.55L264.03,18.23L264.22,18.62L264.97,19.29L265.16,19.22L266.48,17.89L266.67,18.76L267.62,18.49L267.8,18.09L268.75,18.56L268.94,18.16L269.12,19.29L269.69,18.42L269.88,18.56L270.82,18.09L271.01,18.89L271.76,18.76L271.95,17.76L272.9,19.22L273.08,19.22L274.59,18.29L274.78,19.42L275.54,17.56L275.72,18.42L276.48,18.89L276.67,18.62L276.86,18.09L277.23,18.96L277.61,18.42L277.8,18.16L277.99,18.09L278.18,18.89L278.37,18.29L278.93,18.69L279.12,18.96L279.31,17.96L279.87,18.82L280.06,18.56L281.19,18.82L281.38,19.15L282.14,17.76L282.33,18.82L282.51,19.02L282.7,18.76L282.89,18.16L284.21,18.56L284.4,18.62L284.59,19.09L284.78,18.23L284.97,17.83L285.91,18.16L286.1,17.36L287.42,17.89L287.61,17.56L288.36,17.3L288.55,17.56L289.87,17.5L290.06,17.56L291,17.03L291.19,17.3L292.13,17.43L292.32,17.56L292.89,17.03L293.26,17.5L293.45,17.5L294.21,16.9L294.4,17.3L295.9,17.3L296.09,17.03L297.22,17.36L297.41,16.57L297.6,17.43L298.17,17.16L298.36,17.3L299.49,17.43L299.68,17.63L300.43,16.9L300.62,17.23L300.81,17.5L301,16.96L301.56,17.3L301.75,17.16L301.94,17.96L302.13,16.83L302.51,17.16L302.69,16.83L303.83,17.3L304.01,16.7L304.58,17.69L304.77,16.83L304.96,16.63L305.52,17.43L305.9,17.16L306.09,17.16L308.35,16.96L308.54,17.1L309.29,16.9L309.48,17.1L309.67,17.3L310.61,16.83L310.8,16.96L310.99,16.9L311.18,17.63L312.12,16.77L312.31,17.16L313.07,16.83L313.26,17.03L313.44,16.9L314.2,16.7L314.39,17.23L315.9,16.83L316.08,17.23L316.27,16.57L316.84,17.1L317.03,16.83L317.78,17.5L317.97,17.16L318.54,16.83L318.72,17.16L318.91,16.9L319.86,17.1L320.04,17.23L321.74,16.77L321.93,17.16L323.25,17.16L323.44,16.77L324.57,17.03L324.76,16.7L325.7,16.9L325.89,16.83L326.83,16.96L327.02,16.9L327.21,16.57L327.78,17.03L327.97,16.96L329.1,16.9L329.29,16.96L330.61,16.83L330.79,16.7L331.17,17.16L331.55,16.77L331.74,16.83L338.15,16.83L338.34,17.5L339.28,16.77L339.47,16.83L339.66,17.23L340.22,16.83L340.41,16.57L341.54,17.03L341.73,16.77L343.05,16.77L343.24,16.7L343.81,17.1L344,17.1L345.13,16.7L345.32,16.9L346.26,16.77L346.45,17.03L347.39,16.77L347.58,17.1L348.52,16.7L348.71,16.77L350.03,16.77L350.22,16.83L350.97,16.9L351.16,16.83L352.29,16.7L352.48,16.5L353.61,17.03L353.8,16.57L354.75,17.16L354.93,16.63L356.07,16.96L356.25,16.83L357.01,16.77L357.2,16.9L357.95,16.57L358.14,16.96L371.53,16.83L371.72,16.5L372.85,16.9L373.04,16.57L373.23,17.3L373.79,16.57L373.98,16.77L377,16.63" style="vector-effect: non-scaling-stroke; fill: none; stroke: rgb(31, 119, 180); stroke-opacity: 1; stroke-width: 2px; opacity: 1;"/></g><g class="points"/><g class="text"/></g><g class="trace scatter tracede0242" style="stroke-miterlimit: 2; opacity: 1;"><g class="fills"/><g class="errorbars"/><g class="lines"><path class="js-line" d="M0,273.08L1.13,177.98L1.32,178.17L1.51,166.1L3.21,122.09L3.39,122.89L3.58,121.83L3.77,114.19L4.53,105.04L4.71,99.2L4.9,99.2L5.09,104.44L5.47,96.81L5.66,117.38L6.79,92.23L6.98,97.47L7.73,84.86L7.92,87.38L8.11,83.93L8.3,86.65L8.49,82.01L8.68,83.47L8.86,81.81L9.24,85.72L9.43,76.63L9.81,79.22L10,74.84L10.37,80.41L10.75,75.7L10.94,77.36L11.13,75.37L11.32,111.61L12.26,80.68L12.45,77.82L12.82,77.56L13.01,75.77L13.39,74.71L13.58,72.38L13.77,73.31L13.96,71.92L14.33,72.52L14.52,70.66L14.71,74.31L14.9,68L15.09,68.86L15.28,67.87L15.65,71.65L15.84,68.73L16.03,67.74L16.41,69.2L16.6,65.81L16.78,68L16.97,155.61L17.73,79.88L17.92,80.15L18.11,76.1L18.48,77.82L18.67,74.57L19.43,71.59L19.61,73.51L20.56,66.54L20.75,68.2L21.12,64.68L21.31,65.48L21.5,68.6L21.69,67.47L21.88,70.99L22.44,64.88L22.63,261.8L23.76,111.27L23.95,107.69L24.71,88.84L24.89,93.16L25.08,91.36L26.4,79.09L26.59,81.28L26.78,76.43L27.35,79.82L27.53,77.56L27.72,81.08L28.1,78.75L28.29,303.41L29.99,189.26L30.18,180.96L31.68,147.71L31.87,148.44L32.44,133.44L32.63,134.5L32.82,139.68L33.76,130.32L33.95,300.56L35.08,218.86L35.27,205.58L35.46,207.18L35.64,198.88L36.21,191.58L36.4,180.76L37.53,164.77L37.72,166.16L38.1,155.68L38.47,155.94L38.66,158.46L39.23,147.84L39.42,148.04L39.6,239.1L40.55,160.19L40.74,161.65L40.92,164.37L41.11,157.73L41.3,150.5L41.49,153.02L41.68,150.23L41.87,151.29L42.06,147.45L42.43,150.63L42.81,144.46L43,145.79L44.51,136.69L44.7,140.28L45.07,130.79L45.26,274.21L46.39,172.67L46.58,169.48L48.28,148.31L48.47,154.75L49.41,142.87L49.6,148.57L50.35,140.28L50.73,140.81L50.92,247.2L52.05,176.91L52.24,172.53L52.99,154.48L53.37,158.53L53.56,158.06L54.13,145.26L54.69,146.65L54.88,147.38L56.01,137.62L56.2,138.88L56.39,135.17L56.58,252.37L57.71,156.8L57.9,158.33L58.84,141.94L59.03,144.66L59.22,145.99L59.41,139.55L59.97,142.87L60.16,141.41L61.1,131.72L61.29,136.69L61.67,131.25L62.05,134.44L62.24,211.82L62.99,141.8L63.18,143.26L63.37,137.82L63.56,138.15L63.74,135.76L63.93,137.82L64.12,128.73L64.69,135.96L65.07,134.77L65.25,131.38L66.95,120.63L67.14,128.4L67.52,120.5L67.71,123.62L67.89,161.52L68.84,122.49L69.03,127.07L69.59,128.33L69.78,121.36L69.97,121.89L70.16,123.35L70.35,124.55L70.53,121.36L70.72,119.64L70.91,123.35L71.1,118.97L71.29,118.97L71.48,118.18L72.04,114.99L72.23,117.58L72.42,118.58L73.17,112.73L73.36,115.06L73.55,137.82L74.12,117.85L74.49,119.04L74.68,117.38L75.63,110.88L76,111.21L76.19,114.73L76.57,117.18L77.32,106.5L77.51,114.13L78.08,104.04L78.46,104.7L78.64,109.15L78.83,112.67L79.02,105.57L79.21,141.41L80.15,112L80.34,115.12L81.47,104.64L81.66,108.35L81.85,104.9L82.23,106.7L82.42,110.08L83.17,102.05L83.36,107.89L83.74,100.52L84.11,105.5L84.3,104.64L84.87,112.2L85.06,105.23L85.24,101.58L85.81,102.31L86,108.16L86.75,98.53L86.94,102.31L87.7,97.14L88.07,97.34L88.26,98.73L88.45,100.06L88.64,97.27L88.83,97.4L89.02,96.94L89.21,99.06L89.39,97.6L89.58,102.51L90.15,93.75L90.34,97.54L90.53,101.39L91.47,93.09L91.66,97.07L91.85,97.4L92.03,95.81L92.22,98.2L92.6,95.35L92.79,93.62L92.98,96.28L93.17,93.49L93.35,95.88L93.54,92.09L94.11,96.47L94.3,88.71L94.49,95.35L95.05,94.75L95.24,88.58L95.62,93.62L96.18,93.16L96.37,90.77L96.75,86.98L96.94,87.51L97.13,93.75L97.31,94.28L97.5,93.75L97.69,90.7L98.07,86.52L98.45,89.31L98.63,92.36L99.2,89.84L99.39,92.96L99.95,83.47L100.14,86.39L100.33,89.77L100.52,87.18L100.71,92.23L101.09,89.57L101.28,92.69L101.84,84.59L102.03,87.58L102.22,85.66L102.6,87.91L102.97,86.19L103.16,85.66L103.35,85.79L103.54,89.84L104.1,82.87L104.29,85.39L104.48,87.45L105.05,87.65L105.24,82.27L105.42,89.77L106.18,82.07L106.37,86.12L106.74,80.74L106.93,87.05L107.12,84.93L107.31,81.74L107.5,81.34L107.69,84.26L107.88,81.94L108.06,84.4L108.25,83.8L108.44,85.99L109.38,79.02L109.57,82.27L109.76,84.26L109.95,80.81L110.14,81.34L110.33,80.68L110.52,79.62L110.7,83.53L111.46,77.82L111.84,77.96L112.03,79.82L112.4,79.35L112.59,80.88L112.78,81.28L112.97,79.75L113.16,75.44L113.35,81.21L113.53,75.97L113.72,79.95L113.91,80.15L114.1,82.87L115.04,78.02L115.23,83.67L115.8,74.71L116.17,75.7L116.36,78.82L116.55,78.02L116.74,79.88L116.93,75.5L117.12,73.98L117.31,77.63L117.49,77.63L117.87,82.07L118.06,78.69L118.25,75.9L118.44,78.42L118.63,78.22L118.81,71.92L119.38,78.02L119.57,75.17L119.76,75.3L120.32,79.28L120.51,77.29L120.7,70.99L121.83,78.89L122.02,72.85L122.21,75.9L122.77,74.37L122.96,70.33L123.91,77.82L124.1,76.23L124.28,70.92L124.85,75.57L125.04,73.51L125.23,73.64L125.42,71.12L125.6,74.71L125.79,71.06L125.98,73.58L126.17,70.99L126.55,70.79L126.92,73.38L127.11,71.39L127.49,73.38L127.68,71.65L127.87,72.38L128.06,70.19L128.24,68.73L129,75.7L129.19,72.45L129.38,71.45L129.56,71.79L129.75,70.33L130.13,68.86L130.7,72.98L130.88,69.86L131.26,73.64L131.45,71.92L131.64,68.13L132.02,65.15L132.39,70.52L132.58,68.07L132.77,67.67L132.96,72.52L133.15,71.98L133.34,65.68L133.71,69.66L133.9,65.81L134.09,65.61L134.84,72.18L135.03,70.46L135.22,67.14L135.41,71.39L135.79,64.48L135.98,66.61L136.35,64.88L136.54,70.06L136.73,68.93L136.92,69.06L137.11,70.33L137.3,67.6L137.49,66.81L137.67,66.54L137.86,64.68L138.05,68.6L138.43,65.35L138.62,64.22L138.81,72.38L139.37,66.01L139.56,68.67L139.75,63.69L140.31,66.08L140.5,67.54L140.88,67.8L141.63,64.88L141.82,65.68L142.2,62.03L142.39,70.52L143.52,63.49L143.71,64.15L143.9,61.83L144.09,70.06L144.46,63.02L144.84,65.08L145.03,67.27L145.22,62.23L145.78,64.15L145.97,65.41L146.16,67.07L146.54,64.55L146.73,60.64L147.29,66.28L147.48,65.08L147.67,62.03L148.05,66.54L148.61,64.88L148.8,65.21L149.74,59.37L149.93,66.08L150.88,60.17L151.06,61.5L151.63,64.55L151.82,61.23L152.2,64.48L152.57,61.9L152.76,62.96L152.95,57.91L153.52,59.97L153.7,62.69L153.89,64.09L154.08,58.31L154.46,63.89L154.84,59.24L155.02,60.24L155.21,63.49L155.59,59.97L155.78,60.64L155.97,62.23L156.34,62.36L156.53,58.31L156.72,61.1L156.91,65.41L157.1,60.37L157.66,62.63L157.85,63.02L158.8,57.65L158.98,60.64L159.55,63.02L159.74,59.64L160.12,63.22L160.31,57.71L160.49,60.5L161.06,60.17L161.25,58.11L161.63,62.56L162,61.76L162.19,56.72L162.38,61.83L162.95,60.44L163.13,59.64L163.32,61.5L163.51,58.58L163.7,60.64L163.89,57.05L164.08,57.78L164.27,55.99L164.45,60.97L164.64,61.03L164.83,58.84L165.02,60.57L165.21,57.05L165.4,59.71L165.59,58.84L165.96,56.85L166.15,58.18L166.34,61.5L166.53,56.59L166.72,61.56L167.09,59.84L167.28,56.92L167.66,60.44L167.85,53.07L168.23,61.96L168.6,57.71L168.79,57.12L169.17,62.1L169.36,58.05L169.55,54.99L170.3,59.51L170.49,58.25L170.68,56.72L171.06,60.17L171.24,56.59L171.43,57.25L171.62,56.12L171.81,55.86L172,57.58L172.19,57.32L172.38,60.5L172.94,56.06L173.13,58.31L173.32,56.85L173.51,56.92L173.7,55.33L173.88,54.99L174.07,55.19L174.26,57.58L174.45,55.59L174.83,58.25L175.02,57.78L175.39,53.53L175.77,54.33L175.96,56.06L176.15,55.33L176.34,57.91L176.52,57.91L176.71,57.05L177.09,61.9L177.28,53.4L177.47,54.33L177.66,57.58L178.41,53.33L178.6,55.46L179.35,52.47L179.54,55.06L179.92,56.79L180.11,52.47L180.3,56.19L180.67,57.32L180.86,54.99L181.05,51.41L181.43,57.98L181.99,56.12L182.18,56.39L182.56,58.25L182.75,54.66L182.94,50.35L183.5,56.85L183.69,56.59L183.88,53.8L184.07,52.54L184.26,57.05L185.2,52.21L185.39,54.93L185.58,55.13L185.77,50.81L186.52,57.45L186.71,53.87L186.9,50.88L187.27,54.33L187.46,55.39L187.65,52.47L188.03,56.45L188.22,55.06L188.41,56.06L189.16,50.28L189.35,51.81L189.54,51.54L189.73,58.25L191.42,39.13L191.61,41.59L192.55,36.28L192.74,40.53L193.12,35.42L193.5,37.01L193.69,38L193.87,37.41L194.06,38L194.25,34.35L195.2,37.94L195.38,34.35L195.76,38.4L195.95,35.35L196.14,32.76L196.7,35.08L196.89,33.89L197.08,33.42L197.27,33.82L197.46,35.42L197.84,35.42L198.02,34.15L198.4,35.08L198.59,32.16L198.78,33.62L198.97,34.09L200.1,32.36L200.29,34.62L201.04,32.49L201.23,33.36L201.42,32.63L201.61,34.95L201.8,31.5L202.36,33.29L202.55,33.22L203.3,31.9L203.49,33.16L203.68,31.5L204.25,32.49L204.44,32.23L205,31.5L205.19,33.76L205.57,30.7L206.13,31.83L206.32,31.1L206.7,31.83L206.89,31.43L207.08,30.84L207.45,30.3L207.64,31.9L208.21,30.57L208.4,33.42L209.53,29.51L209.72,30.44L209.91,30.7L210.28,30.17L210.47,31.76L210.66,30.04L210.85,32.16L211.23,28.65L211.41,30.57L211.6,32.1L211.79,29.18L212.36,30.7L212.55,30.5L212.92,30.97L213.11,29.57L213.3,30.04L213.49,31.1L213.68,29.51L214.05,31.3L214.24,31.83L215,28.11L215.37,29.38L215.56,30.04L215.75,29.97L215.94,28.18L216.32,30.9L216.69,30.17L216.88,27.92L217.07,29.51L217.64,28.18L217.83,28.51L218.39,29.31L218.58,30.37L219.34,27.78L219.52,28.31L219.71,28.25L220.09,28.18L220.28,30.3L220.47,29.84L220.66,26.79L221.22,28.98L221.41,27.45L221.6,27.58L222.16,29.77L222.35,29.57L222.54,27.05L222.73,26.79L222.92,27.85L223.11,27.38L223.3,30.11L223.67,28.11L224.24,28.45L224.43,28.78L224.8,27.52L224.99,29.71L225.18,28.98L225.56,29.18L225.94,26.72L226.12,28.31L226.31,29.04L226.5,27.72L226.69,28.31L226.88,27.52L227.07,29.11L227.63,28.78L227.82,27.19L228.58,30.04L228.76,28.58L228.95,28.18L229.52,27.25L229.71,28.51L230.09,26.19L230.46,27.38L230.65,28.71L231.22,26.85L231.41,28.71L231.59,28.45L231.97,27.45L232.16,26.92L232.35,27.98L232.73,26.59L232.91,26.46L233.1,27.19L233.48,25.86L233.67,26.65L233.86,26.12L234.05,24.73L234.23,28.51L234.42,26.85L234.61,28.31L235.55,25.73L235.74,26.39L235.93,25.46L236.31,26.06L236.5,26.65L236.87,28.18L237.06,25.59L237.63,25.26L237.82,27.98L238.01,26.26L238.19,26.65L238.38,24.93L238.76,26.92L239.14,26.59L239.33,26.12L239.7,25.26L239.89,25.39L240.08,26.32L240.83,26.06L241.02,27.58L241.59,24.27L241.78,26.59L241.97,26.52L242.16,27.58L242.34,25.92L242.91,26.12L243.1,26.32L243.48,24.73L243.66,26.46L243.85,24.86L244.04,26.39L244.23,25.13L244.42,27.32L244.8,25.73L244.98,26.65L245.17,24.93L245.55,27.72L245.74,26.59L245.93,25.99L246.12,24.66L246.68,24.93L246.87,26.19L247.06,26.99L247.25,25.46L247.62,26.26L247.81,26.79L248.19,26.06L248.38,26.85L248.57,24.86L248.94,26.12L249.51,25.73L249.7,25.86L249.89,25.39L250.08,26.26L250.26,27.05L250.83,24.13L251.21,25L251.4,25.39L251.58,25.79L251.77,25.33L251.96,24.13L252.53,25.53L252.72,25.39L252.9,24.73L253.09,23.8L253.28,25.73L253.47,25.66L253.66,25.99L253.85,26.32L254.04,24.33L254.41,25.99L254.79,24.93L254.98,24.66L255.73,26.32L255.92,24.13L256.49,23.73L256.87,25.59L257.05,24.8L257.24,26.19L257.43,24.53L257.81,25.53L258,25.66L258.19,26.46L258.37,23.73L259.13,25.92L259.32,24.93L259.51,23.4L259.88,25.99L260.26,23.8L260.45,24.8L260.64,25.73L260.83,23.87L261.01,24.66L261.2,24.46L261.58,24.07L261.96,26.06L262.15,23.87L262.9,25.66L263.09,25.26L263.28,24.6L263.65,25.33L263.84,24.46L264.03,23.87L264.41,24.86L264.6,24.2L264.79,23.67L265.35,25.59L265.73,24.6L265.92,24.6L266.11,23L266.3,24.73L266.48,23.93L266.67,25.33L266.86,24.53L267.24,25.06L267.43,25.59L267.8,22.81L268.18,23.47L268.37,24.73L268.56,24.53L268.94,25L269.12,25.33L269.31,25.99L269.5,24.86L269.69,23.34L270.44,24.66L270.63,24.46L270.82,22.61L271.2,24.66L271.76,24.13L271.95,24.07L272.33,25.79L272.52,24.46L272.71,24.73L272.9,23.8L273.08,23.4L273.65,24.53L273.84,24.33L274.03,23.14L274.22,22.74L274.4,24.07L274.59,24.13L274.78,24.07L274.97,25.19L275.16,25.19L275.35,22.94L275.54,22.34L275.72,23.87L275.91,24.53L277.23,23.54L277.42,24.46L278.37,23.07L278.55,24.2L279.12,23.34L279.31,24.07L279.5,22.07L279.87,24.86L280.25,24.6L280.44,24.13L280.63,24.86L280.82,24.6L281.01,23.2L281.19,22.94L281.38,23.47L281.57,24L281.95,23L282.33,23.8L282.51,24.86L283.08,21.94L283.27,22.81L283.46,24.53L283.83,23.27L284.21,24.53L284.4,24.27L284.59,26.46L284.97,22.21L285.15,22.27L286.1,21.81L286.29,21.28L286.66,20.55L286.85,21.88L287.04,21.74L287.61,22.21L288.17,20.75L288.36,21.08L289.3,20.55L289.49,20.75L289.68,21.68L289.87,19.95L290.25,21.08L290.44,20.48L290.62,20.08L290.81,21.68L291.76,19.95L291.94,21.21L292.32,19.75L292.89,19.88L293.08,20.28L293.45,21.21L293.83,19.75L294.02,19.95L294.58,20.61L294.77,20.22L294.96,19.95L295.15,20.55L295.53,20.15L295.72,19.42L295.9,21.01L296.47,20.02L296.66,20.55L296.85,19.22L297.22,19.62L297.41,20.88L297.6,20.81L297.79,19.69L299.11,19.62L299.3,20.55L299.49,21.21L299.68,20.08L299.86,19.49L300.43,21.28L300.81,20.35L301,19.42L301.19,19.42L301.37,20.28L301.75,20.22L301.94,19.49L302.51,19.55L302.69,20.22L303.64,19.22L303.83,19.22L304.01,19.09L304.2,20.15L304.96,19.49L305.15,20.22L305.71,18.49L305.9,20.68L306.28,20.61L306.47,19.55L307.03,19.29L307.22,20.61L307.97,18.29L308.35,18.96L308.54,19.09L308.73,20.81L309.29,19.49L309.48,19.29L310.24,20.42L310.43,20.08L310.61,19.15L310.99,20.02L311.37,19.55L311.56,19.49L312.12,19.22L312.31,19.42L312.5,19.88L313.63,18.76L313.82,19.22L314.01,19.75L314.2,18.62L314.76,18.82L314.95,19.42L315.9,18.96L316.08,19.82L316.65,18.56L316.84,19.42L317.4,19.49L317.59,19.69L317.78,19.82L318.35,18.76L318.54,20.22L318.91,19.75L319.1,18.96L319.86,20.68L320.04,19.49L320.61,18.76L320.8,20.02L321.74,18.82L321.93,18.62L322.12,20.22L322.68,19.09L322.87,19.69L324.01,18.76L324.19,19.49L325.14,19.55L325.33,18.96L325.51,20.22L325.89,19.15L326.08,18.69L326.46,18.56L326.83,19.75L327.02,19.02L327.21,18.69L327.59,19.49L327.78,19.69L327.97,20.35L328.15,18.56L328.34,18.96L328.53,18.69L328.91,19.49L329.29,18.62L329.47,18.89L329.85,19.82L330.04,18.89L330.23,18.49L331.36,19.29L331.55,18.62L331.93,19.55L332.3,19.02L332.49,18.56L333.62,19.62L333.81,19.42L334,18.82L334.38,19.69L334.57,19.02L334.75,18.09L334.94,19.82L335.51,19.69L335.7,18.76L336.08,18.29L336.45,19.49L336.64,18.56L337.02,19.29L337.21,18.56L337.4,19.95L337.58,19.82L337.77,18.56L338.15,18.29L338.53,19.42L338.72,18.56L338.9,19.62L339.47,18.96L339.66,18.82L339.85,19.95L340.41,19.09L340.6,18.89L342.11,19.95L342.3,18.42L343.43,19.09L343.62,19.42L344.37,19.15L344.56,19.75L345.5,18.23L345.69,19.22L346.45,18.56L346.64,19.29L347.58,18.69L347.77,19.29L348.52,19.62L348.71,18.89L348.9,18.49L349.09,19.55L349.47,19.02L349.65,19.09L349.84,18.36L350.22,18.96L350.41,19.35L350.6,19.35L350.79,18.49L351.54,19.09L351.73,18.23L352.48,18.89L352.67,18.16L353.43,19.42L353.61,18.16L353.99,19.62L354.37,18.89L354.56,18.89L355.5,19.22L355.69,19.42L356.63,18.09L356.82,18.96L357.57,18.82L357.76,18.09L357.95,19.62L358.52,18.89L358.71,18.42L359.08,18.16L359.46,19.22L359.65,18.96L359.84,18.42L360.03,18.49L360.22,17.76L360.4,19.22L360.78,17.36L360.97,18.62L361.16,18.76L361.54,18.29L361.91,19.02L362.1,18.76L362.48,18.29L363.04,19.09L363.23,18.62L363.8,18.96L364.18,18.03L364.36,18.29L364.93,19.15L365.31,18.56L365.5,18.82L365.68,19.15L365.87,18.23L366.06,18.09L367,19.35L367.19,19.22L367.38,18.69L368.89,18.62L369.08,18.23L369.27,17.96L369.46,18.42L369.64,19.02L370.4,18.16L370.59,19.09L370.78,18.49L371.34,18.82L371.53,19.22L372.1,18.56L372.29,19.22L372.47,19.29L373.98,18.76L374.17,17.89L374.36,18.96L374.93,18.49L375.11,18.82L375.49,19.42L376.25,18.36L376.43,18.36L376.62,19.02L377,18.16" style="vector-effect: non-scaling-stroke; fill: none; stroke: rgb(255, 127, 14); stroke-opacity: 1; stroke-width: 2px; opacity: 1;"/></g><g class="points"/><g class="text"/></g><g class="trace scatter trace2a46d2" style="stroke-miterlimit: 2; opacity: 1;"><g class="fills"/><g class="errorbars"/><g class="lines"><path class="js-line" d="M0,273.08L1.13,177.98L1.32,178.17L1.51,166.1L3.21,122.09L3.39,122.89L3.58,121.83L3.77,114.19L4.53,105.04L4.71,99.2L4.9,99.2L5.09,104.44L5.47,96.81L5.66,155.68L6.6,98.47L6.79,96.87L6.98,99.06L7.17,94.55L7.36,95.74L7.54,91.5L8.11,85.72L8.49,87.05L8.68,84.73L8.86,82.74L9.05,83.33L9.24,87.45L10,78.22L10.18,78.82L10.37,82.34L11.13,76.23L11.32,207.91L12.26,98.8L12.45,95.35L12.64,95.01L12.82,90.57L13.96,80.35L14.52,81.34L14.71,83.6L15.28,75.24L15.46,80.08L15.65,77.96L16.03,79.75L16.22,72.85L16.78,74.37L16.97,278.26L18.11,198.81L18.29,189.26L19.61,149.04L19.8,149.7L21.12,128.46L21.31,131.38L21.5,130.26L21.69,122.69L21.88,126.14L22.07,117.45L22.25,119.7L22.44,116.85L22.63,298.37L23.2,253.44L23.39,245.01L23.57,244.94L23.76,236.11L25.65,195.76L25.84,196.62L26.03,196.62L27.53,170.34L27.72,174.32L28.1,167.75L28.29,290.93L29.61,218.06L29.8,219.72L30.74,206.45L31.31,206.71L31.5,206.58L33,187.47L33.19,188.46L33.76,176.12L33.95,268.44L35.08,208.31L35.27,205.45L38.1,162.11L38.28,163.17L38.47,163.64L38.66,164.97L38.85,162.11L39.04,162.71L39.23,154.61L39.42,154.75L39.6,278.86L40.74,194.3L40.92,191.25L42.25,166.16L42.43,168.42L43.75,156.6L43.94,154.48L44.32,154.41L44.89,157.4L45.07,151.16L45.26,271.69L45.83,217.6L46.02,207.64L47.15,174.06L47.34,176.65L47.53,173.99L48.28,161.52L48.47,163.31L48.66,162.84L49.22,150.43L49.6,154.08L49.79,154.28L49.98,153.62L50.17,154.48L50.35,148.04L50.54,151.76L50.73,147.45L50.92,270.76L51.86,204.59L52.05,199.28L53.18,166.76L53.37,171.14L53.56,175.98L53.94,155.21L54.5,162.05L54.69,153.49L54.88,158.79L55.07,148.37L55.26,155.28L55.45,148.57L55.64,149.04L55.82,152.09L56.39,144.99L56.58,244.61L57.52,168.62L57.71,162.38L58.09,164.24L58.46,152.49L58.84,152.75L59.03,156.14L59.22,155.41L59.41,146.58L59.97,153.22L60.16,149.24L60.35,145.59L60.54,149.44L60.73,146.12L60.92,141.47L61.1,141.87L61.29,144.99L61.48,145.99L61.67,138.22L62.05,145.39L62.24,233.66L63.37,157.14L63.56,158.26L64.5,147.38L64.69,150.63L65.63,144.19L65.82,145.52L66.95,134.7L67.14,142.67L67.33,142.14L67.52,134.24L67.71,139.61L67.89,226.56L68.84,165.03L69.03,162.78L69.97,153.75L70.16,152.62L70.72,143.26L71.1,145.92L71.29,146.58L72.61,140.94L72.8,139.48L72.99,142.53L73.17,134.5L73.36,139.95L73.55,212.02L74.31,160.06L74.49,166.49L74.68,154.88L74.87,154.95L75.06,151.63L75.25,151.83L75.44,150.1L76.38,145.12L76.57,146.12L77.7,137.95L77.89,141.61L78.27,133.57L78.64,134.44L78.83,139.81L79.02,131.65L79.21,172.33L80.15,141.94L80.34,145.52L81.47,130.12L81.66,135.9L81.85,136.16L82.04,134.57L82.42,135.76L82.6,130.26L82.79,135.37L82.98,128.93L83.17,130.39L83.36,130.32L83.74,127L84.3,127.53L84.49,128.07L84.68,126.87L84.87,176.58L85.81,141.27L86,141.54L86.75,130.92L87.13,133.71L87.32,133.97L88.07,123.82L88.26,128.07L88.45,126.27L88.64,129.86L88.83,125.74L89.02,120.83L89.21,129.86L89.39,119.11L89.77,121.56L89.96,119.64L90.15,119.04L90.34,120.1L90.53,152.56L91.47,125.15L91.66,127.87L92.03,128.99L92.79,118.71L93.17,119.04L93.35,121.36L93.73,120.83L94.11,125.88L94.3,120.04L94.49,121.1L94.67,119.24L94.86,118.64L95.05,120.57L95.24,113.6L95.62,120.57L95.81,117.98L95.99,112.47L96.18,191.98L96.75,127.8L96.94,124.68L97.13,127.27L97.31,122.82L97.69,124.95L97.88,119.37L98.07,119.37L98.26,118.24L98.63,119.44L99.2,115.06L99.39,117.51L99.58,112.8L99.77,117.91L100.14,113.8L100.33,116.92L100.71,118.64L101.09,112.14L101.28,116.78L101.46,110.01L101.65,110.35L101.84,149.9L102.6,119.77L102.78,124.08L102.97,117.11L103.16,117.51L103.35,115.12L103.54,122.16L103.92,113.13L104.1,111.87L104.29,111.41L104.48,117.11L105.24,111.27L105.42,115.52L105.61,109.68L106.18,110.54L106.37,112.8L106.74,105.57L106.93,109.15L107.12,110.68L107.31,106.7L107.5,160.92L108.44,117.45L108.63,116.32L108.82,116.38L109.01,111.61L109.2,111.61L109.38,110.54L109.57,110.54L109.76,113.86L110.7,105.83L110.89,111.21L111.46,103.11L111.84,106.1L112.03,103.77L112.4,101.92L112.59,108.29L112.97,106.76L113.16,127.53L113.53,108.69L114.1,110.28L114.29,109.22L115.04,105.04L115.23,105.3L115.42,106.23L115.61,106.03L115.8,100.85L115.99,105.17L116.17,99.79L116.55,104.11L116.74,104.5L117.12,97.01L117.31,100.66L117.49,103.58L118.06,100.52L118.25,99.73L118.63,103.11L118.81,118.97L119.57,104.31L119.76,108.09L119.95,106.63L120.89,100.26L121.08,103.58L121.45,98.4L121.64,100.66L121.83,106.1L122.77,97.74L122.96,96.14L123.72,99.66L124.1,99.2L124.28,94.82L124.47,120.23L125.04,103.97L125.23,101.45L125.6,103.31L125.79,102.91L125.98,96.94L126.74,102.85L126.92,97.2L127.3,101.12L127.49,98.8L127.68,96.54L127.87,98.66L128.06,95.68L128.43,98.6L128.62,97.8L129,96.54L129.19,99.79L129.75,94.02L129.94,94.48L130.13,108.29L131.07,97.01L131.26,102.25L132.02,92.09L132.2,94.22L132.39,97.01L132.96,97.27L133.34,90.7L133.52,91.3L133.71,93.22L134.09,91.56L134.28,95.01L134.47,92.82L134.84,94.22L135.03,95.55L135.41,96.14L135.6,89.37L135.79,110.08L136.73,93.09L136.92,95.81L137.67,91.63L137.86,93.29L138.05,94.15L138.62,89.37L138.81,95.28L139.75,87.71L139.94,88.78L140.31,90.3L140.5,86.12L140.88,92.82L141.07,87.45L141.26,87.38L141.45,95.94L142.01,89.9L142.2,89.24L142.58,90.97L142.77,85.66L142.95,94.22L143.71,85.66L143.9,87.18L144.09,91.1L144.84,84.66L145.03,87.71L145.22,84.13L145.41,89.77L145.78,86.92L145.97,87.58L146.16,87.45L146.35,86.12L146.54,86.65L146.73,84L146.91,83.8L147.1,89.97L147.67,82.94L147.86,87.38L148.05,88.78L148.24,84.73L148.42,84.59L148.8,88.78L148.99,81.34L149.37,84.59L149.74,82.34L149.93,83.8L150.31,85.92L150.69,83.86L150.88,80.21L151.44,86.39L151.63,81.47L151.82,81.61L152.01,81.81L152.2,80.41L152.76,85.13L152.95,78.55L153.89,84.59L154.08,76.7L154.46,85.46L154.84,80.21L155.02,80.88L155.21,83.93L155.59,79.68L155.78,78.16L155.97,81.81L156.34,80.61L156.53,77.29L156.91,82.94L157.1,78.36L157.29,77.69L157.85,83.4L158.04,80.68L158.23,78.42L158.42,79.68L158.61,77.63L158.8,73.44L159.36,80.88L159.55,77.29L159.74,73.98L160.12,82.74L160.49,78.29L160.68,75.37L161.63,79.55L161.81,77.89L162,78.62L162.19,73.64L162.38,80.35L162.95,76.56L163.13,73.71L164.08,80.08L164.27,74.64L164.64,81.28L164.83,77.43L165.02,74.44L165.59,78.16L165.77,72.91L165.96,72.98L166.15,75.63L166.34,75.83L166.53,72.52L166.72,79.48L166.91,71.25L167.28,74.71L167.47,77.56L167.85,70.79L168.23,73.25L168.41,73.05L168.98,72.38L169.17,73.11L170.3,76.63L170.49,73.71L170.68,75.57L171.06,74.04L171.24,72.58L171.43,76.17L171.81,71.32L172,74.64L172.19,73.91L172.38,74.11L172.56,72.32L172.75,76.17L172.94,71.39L173.13,73.31L173.32,72.25L173.51,74.17L173.7,70.06L174.07,72.58L174.26,71.98L174.45,70.06L174.64,72.65L174.83,73.84L175.02,73.44L175.2,70.99L175.39,76.5L175.96,73.25L176.15,72.45L176.34,74.64L176.71,70.52L176.9,71.25L177.09,75.63L177.47,69.53L177.66,69.2L178.41,73.05L178.6,70.79L178.79,71.25L179.16,70.52L179.35,66.01L179.92,71.12L180.11,66.67L180.3,68.6L180.48,69L180.67,72.58L181.24,65.75L181.62,66.54L181.8,69.93L182.18,66.41L182.56,73.38L182.75,66.94L182.94,65.21L183.13,68.27L183.31,68.93L183.5,71.65L184.07,69.46L184.26,67.8L184.63,71.19L184.82,69.13L185.2,68L185.39,67.21L185.77,65.08L185.95,69.86L186.14,70.13L186.33,66.48L186.71,76.1L187.09,69.53L187.27,70.92L187.46,71.39L187.65,67.87L188.22,70.52L188.41,69.46L188.59,66.28L188.78,64.02L188.97,68.53L189.35,66.14L189.54,65.41L189.91,70.52L190.29,66.21L190.48,59.31L191.42,50.02L191.61,53.27L191.8,53.4L191.99,51.01L192.18,49.42L192.37,56.06L193.31,49.68L193.5,52.41L194.25,46.96L194.63,47.23L194.82,49.29L195.01,50.41L195.2,49.62L195.38,46.3L195.76,50.41L195.95,48.76L196.14,44.84L196.33,43.51L196.52,48.95L197.27,45.1L197.46,50.08L198.21,44.24L198.4,46.57L198.59,45.83L199.34,48.56L199.53,46.57L199.91,44.84L200.1,45.24L200.29,42.45L200.85,46.76L201.23,46.23L201.42,46.7L201.61,46.37L201.8,42.72L201.98,46.43L202.55,45.9L202.74,43.38L202.93,44.64L203.12,44.18L203.3,40.86L204.44,46.96L204.62,44.97L205.19,42.58L205.57,43.11L205.76,43.11L205.94,43.51L206.13,42.38L206.32,41.59L206.7,44.84L206.89,43.78L207.08,43.18L207.45,41.52L207.64,42.52L207.83,42.72L208.02,42.18L208.21,44.18L208.4,44.64L208.59,41.79L208.96,43.38L209.15,43.31L209.34,40.33L210.09,43.58L210.28,39.8L210.47,44.24L211.04,42.45L211.23,39.8L211.41,42.65L211.98,42.32L212.17,41.06L212.92,41.99L213.11,38.87L213.68,42.65L214.05,42.12L214.24,40.53L214.43,40.86L214.62,39.66L215.19,41.59L215.37,38.27L216.13,42.72L216.32,42.38L216.51,40.39L216.69,41.19L216.88,38.73L217.07,39.2L217.26,39.8L217.45,38.73L217.83,39.2L218.02,39.66L218.58,40.33L218.77,38.34L219.15,39.86L219.52,39.46L219.71,38.93L220.09,41.39L220.47,41.26L220.66,39.86L220.84,38.34L221.22,39.33L221.41,41.06L221.79,38.53L222.16,39.07L222.35,39.6L223.11,36.88L223.3,40.06L224.43,37.21L224.62,38L225.18,37.14L225.37,42.25L225.56,40.59L225.75,38.14L226.12,39.53L226.69,36.88L226.88,40.13L227.82,35.68L228.01,38L228.95,36.88L229.14,37.94L229.33,36.74L229.52,39.6L229.71,37.21L229.9,39.2L230.46,33.62L230.65,39.26L230.84,36.21L231.41,36.68L231.59,38.14L232.16,36.01L232.35,34.55L232.91,37.54L233.29,36.74L233.48,36.08L233.67,35.81L233.86,37.07L234.42,34.88L234.61,36.74L235.37,33.62L235.55,37.34L235.93,34.22L236.12,35.42L236.31,37.54L236.5,37.27L236.69,35.42L237.06,34.42L237.25,38.6L237.44,38.14L237.63,35.42L238.57,36.21L238.76,35.35L238.95,34.82L239.14,36.81L240.27,33.69L240.46,34.88L240.83,34.02L241.02,37.54L241.21,37.07L241.4,31.43L241.97,36.28L242.34,35.55L242.53,36.08L242.91,34.35L243.1,36.21L243.29,35.81L244.23,32.63L244.42,35.35L244.98,35.75L245.17,34.09L245.36,36.15L246.12,33.42L246.3,34.02L246.49,35.42L247.44,32.69L247.62,35.02L248.19,33.09L248.38,35.22L249.32,33.82L249.51,34.35L249.7,34.75L249.89,34.35L250.08,32.43L250.26,35.75L250.64,32.76L250.83,31.7L251.02,31.76L251.21,33.95L251.4,32.23L251.58,34.82L251.96,33.42L252.15,34.88L252.9,31.17L253.09,33.16L253.28,34.55L253.66,32.43L253.85,34.88L254.23,31.03L254.6,32.36L254.79,32.43L255.36,32.16L255.73,34.09L255.92,31.63L256.49,30.84L256.68,33.69L256.87,32.16L257.05,31.7L257.24,34.49L257.62,32.43L258,32.56L258.19,34.42L258.37,30.37L258.94,32.43L259.13,31.7L259.51,35.28L259.69,31.7L259.88,32.1L260.26,30.77L260.45,31.57L260.64,32.3L260.83,34.22L261.39,33.42L261.58,33.95L261.77,33.62L261.96,34.42L262.15,29.38L263.09,34.22L263.28,32.69L263.47,33.42L263.65,32.1L263.84,31.1L264.03,30.11L264.22,32.36L264.41,32.16L264.6,32.76L264.79,29.64L264.97,31.96L265.54,31.1L265.73,31.23L265.92,31.43L266.11,30.5L266.86,33.16L267.05,31.63L267.24,32.1L267.43,34.82L268.37,29.04L268.56,32.23L268.75,30.57L268.94,33.29L269.12,31.96L269.31,32.83L269.5,34.29L269.69,28.98L269.88,28.98L270.07,30.5L270.63,33.69L270.82,31.17L271.01,29.97L271.58,30.24L271.76,30.77L272.14,30.17L272.33,30.84L272.52,31.83L273.08,32.23L273.46,30.7L273.65,31.57L274.03,29.51L274.22,29.84L274.4,31.96L274.78,31.76L274.97,32.76L275.16,32.76L275.35,28.45L275.54,28.45L275.72,30.37L275.91,32.76L276.29,30.57L276.48,30.11L276.86,32.16L277.05,29.57L277.42,32.89L277.8,29.84L277.99,31.1L278.18,33.22L278.37,29.71L278.74,31.5L278.93,31.43L279.5,27.65L279.69,30.64L279.87,30.97L280.25,30.44L280.63,32.83L280.82,29.04L281.38,28.78L281.57,29.38L281.95,30.3L282.14,30.77L282.51,32.03L282.7,31.7L282.89,30.57L283.27,29.84L283.46,30.37L283.65,30.97L284.02,29.64L284.21,31.1L284.4,31.63L285.53,25.92L285.72,27.05L285.91,25.73L286.47,25.92L286.66,26.12L286.85,26.19L287.04,25.46L287.23,24.4L287.42,26.19L287.61,24.8L287.79,25.99L288.17,25.06L288.36,25.73L288.55,23.93L288.93,23.8L289.3,26.06L289.49,25.73L289.68,25.73L289.87,25.92L290.06,24.73L290.44,24.4L290.81,25.39L291,22.94L291.38,25.66L291.94,25L292.13,22.94L292.32,25.39L292.89,23.27L293.08,24.2L293.45,24.66L293.64,23.73L293.83,24.4L294.02,24.66L294.58,23.07L294.77,24.2L294.96,24.53L295.34,23.14L295.9,23.27L296.09,23.47L296.28,24.53L296.47,23.14L296.66,24L296.85,23.4L297.79,23.8L297.98,23.4L298.54,22.74L298.73,24.4L298.92,24L299.11,23L300.43,24.53L300.62,23.34L300.81,24.2L301,22.47L301.19,22.94L301.37,23.14L301.75,24.33L301.94,23.87L302.13,23.14L302.32,22.27L302.51,23.4L302.69,23.4L302.88,23.6L303.07,23.87L303.26,23L303.45,22.81L304.39,24.46L304.58,22.47L305.52,23.8L305.71,22.07L306.65,24.8L306.84,22.61L307.79,23.6L307.97,21.28L308.54,23.4L308.73,22.47L308.92,21.81L309.29,23.6L309.67,22.94L309.86,22.87L310.24,24.07L310.43,21.88L311.18,23.67L311.37,22.34L311.56,23.2L312.12,22.54L312.31,22.27L312.88,22.41L313.07,22.94L313.44,22.27L313.82,23.2L314.01,22.14L314.2,21.88L314.39,23.4L314.76,22.01L315.14,22.67L315.33,23.34L316.08,22.47L316.27,23.67L316.65,21.61L317.03,22.41L317.22,23.14L317.4,21.68L317.78,23.4L317.97,23.27L318.91,21.34L319.1,22.54L319.29,21.34L319.48,22.61L319.86,22.21L320.04,23L320.23,23.34L320.42,22.34L320.61,21.68L320.99,21.21L321.55,23.2L321.74,21.61L321.93,21.28L322.12,22.61L322.31,23.8L322.68,21.61L322.87,21.61L323.44,21.15L323.82,23.47L324.01,22.27L324.19,21.61L324.38,22.61L324.76,21.81L324.95,22.34L325.51,22.67L325.7,21.61L326.65,21.48L326.83,22.14L327.21,21.41L327.59,22.41L327.78,21.68L328.15,21.54L328.53,23.2L328.72,22.01L329.1,21.61L329.47,22.94L329.66,22.41L329.85,23.34L330.23,21.54L330.42,21.88L330.79,22.54L330.98,21.81L331.17,22.21L331.36,21.08L331.55,23.2L331.93,21.61L332.11,21.94L332.3,21.34L332.87,22.01L333.06,22.21L333.43,22.87L334.19,21.01L334.38,22.87L334.75,21.94L335.13,22.14L335.32,22.67L335.7,21.41L335.89,23.07L336.26,21.54L336.45,22.67L336.64,21.34L337.21,22.27L337.4,22.81L338.15,20.88L338.34,22.27L339.09,22.21L339.28,22.81L340.41,21.61L340.6,22.61L341.17,21.08L341.36,21.41L341.54,22.61L341.73,21.01L342.3,22.27L342.49,21.41L343.24,21.28L343.43,21.74L343.81,21.15L344,22.87L344.18,20.55L344.37,20.22L344.56,22.41L344.75,20.68L345.32,21.88L345.5,22.14L346.07,22.34L346.26,21.01L347.01,22.14L347.2,21.61L347.39,21.28L348.52,21.74L348.71,21.08L349.28,22.21L349.47,20.28L350.03,22.61L350.22,21.34L350.41,20.55L350.97,22.14L351.16,21.61L351.35,21.01L351.54,22.14L352.11,21.21L352.29,21.88L352.67,20.95L353.05,21.68L353.24,21.61L353.61,21.28L353.8,21.54L353.99,23L354.75,20.15L354.93,21.94L355.31,20.95L355.69,22.01L355.88,21.41L356.44,20.68L356.82,22.34L357.01,21.34L357.39,22.01L357.95,20.95L358.14,21.61L358.71,22.27L358.89,20.88L359.27,22.61L359.46,20.75L359.65,20.95L360.03,21.94L360.22,21.81L360.4,20.81L360.59,21.74L360.78,20.28L360.97,21.28L361.16,20.75L361.72,21.68L361.91,20.15L362.67,21.48L362.86,20.22L363.8,21.81L363.99,20.02L364.18,20.02L364.36,21.48L364.74,21.01L364.93,20.22L365.31,21.34L365.68,21.01L365.87,20.22L366.63,20.95L366.82,19.95L367.76,21.15L367.95,21.54L368.32,21.81L368.89,20.42L369.08,20.55L369.46,20.95L369.64,22.34L369.83,22.27L370.02,20.75L370.96,21.74L371.15,20.68L371.53,21.48L371.91,20.15L372.1,21.15L372.29,21.21L372.47,22.21L372.66,20.68L373.23,21.94L373.42,21.08L373.98,20.68L374.17,21.01L374.36,21.01L374.93,20.28L375.11,21.28L375.49,20.68L375.87,21.61L376.06,19.88L376.62,22.94L376.81,21.15L377,20.55" style="vector-effect: non-scaling-stroke; fill: none; stroke: rgb(44, 160, 44); stroke-opacity: 1; stroke-width: 2px; opacity: 1;"/></g><g class="points"/><g class="text"/></g><g class="trace scatter trace64013c" style="stroke-miterlimit: 2; opacity: 1;"><g class="fills"/><g class="errorbars"/><g class="lines"><path class="js-line" d="M0,273.08L1.13,177.98L1.32,178.17L1.51,166.1L3.21,122.09L3.39,122.89L3.58,121.83L3.77,114.19L4.53,105.04L4.71,99.2L4.9,99.2L5.09,104.44L5.47,96.81L5.66,220.19L6.6,107.69L6.79,106.1L6.98,105.83L7.17,100.59L7.36,100.72L7.54,97.6L8.11,90.5L8.49,90.97L8.68,87.58L8.86,86.92L9.05,88.24L9.24,90.1L10,80.48L10.18,83.6L10.37,84.73L10.56,83.93L10.75,80.88L10.94,82.8L11.13,79.88L11.32,287.02L12.64,159.26L12.82,151.36L15.28,110.74L15.46,114.92L16.6,99.86L16.78,103.58L16.97,313.5L17.54,282.9L17.73,276L19.24,243.02L19.43,239.23L19.8,235.18L19.99,226.29L20.18,231.8L20.56,221.31L20.75,217.6L22.44,192.44L22.63,290.34L23.76,239.63L23.95,239.9L25.08,219.32L25.27,217L26.59,203.33L26.78,206.12L26.97,207.44L28.1,193.44L28.29,286.02L29.61,247.53L29.8,244.87L29.99,245.07L30.18,240.23L33.76,187.73L33.95,294.78L35.08,231.8L35.27,227.15L36.02,218.26L36.21,223.64L37.34,204.32L37.53,205.19L37.72,205.45L37.91,199.94L38.1,199.94L38.28,196.16L38.47,196.82L38.66,194.37L39.23,185.61L39.42,187.66L39.6,279.39L40.74,223.11L40.92,220.65L42.06,195.43L42.25,194.3L42.43,197.89L42.62,189.06L42.81,185.74L43.19,184.15L43.38,182.22L45.07,164.9L45.26,282.97L46.21,220.58L46.39,214.68L46.58,216.14L46.77,214.28L46.96,214.54L47.15,208.64L49.6,172.67L49.79,177.51L50.73,163.84L50.92,279.19L51.86,224.77L52.05,222.64L53.18,193.84L53.37,199.21L53.56,196.29L54.69,177.25L54.88,179.44L55.45,167.75L55.82,169.75L56.01,167.09L56.39,161.58L56.58,273.75L57.71,206.18L57.9,200.54L58.65,184.74L58.84,178.11L59.03,184.08L59.41,175.92L59.6,174.19L59.78,174.72L59.97,178.37L60.35,165.23L60.92,166.49L61.1,166.63L61.67,161.05L62.05,163.44L62.24,261.6L63.74,187.73L63.93,186.14L65.07,168.68L65.25,167.82L65.44,167.62L65.63,165.3L66.95,150.03L67.14,158.6L67.52,147.18L67.71,151.96L67.89,261.73L69.03,196.16L69.21,187.33L69.59,186.2L69.78,180.83L70.72,168.75L70.91,168.88L72.42,159.86L72.61,160.65L73.36,151.16L73.55,243.55L74.68,176.51L74.87,175.52L75.81,165.9L76,165.83L76.19,167.56L76.38,164.1L76.57,161.71L76.76,163.04L76.95,157.6L77.14,161.98L77.32,156.8L77.51,157.53L77.7,156.47L77.89,157.14L78.08,153.55L78.46,149.37L78.64,155.54L78.83,153.88L79.02,151.29L79.21,235.85L80.15,174.52L80.34,177.71L81.47,159.59L81.66,161.52L81.85,159.92L82.04,162.05L82.23,163.64L82.6,156.01L83.17,157.47L83.36,156.67L83.55,156.87L83.74,147.51L84.49,156.47L84.68,150.17L84.87,244.14L85.43,193.84L85.62,189.92L86.75,168.75L86.94,168.62L87.13,171.21L87.32,166.43L87.51,160.12L87.88,163.17L88.07,156.67L88.45,160.12L88.64,157L88.83,156.01L89.02,158.33L89.21,153.88L89.39,150.1L89.58,157L89.77,147.91L89.96,148.57L90.15,148.04L90.34,147.84L90.53,239.57L91.47,178.37L91.66,175.19L92.6,166.03L92.79,159.26L93.17,158L93.54,161.78L93.73,160.92L93.92,159.86L94.11,162.25L94.3,153.49L94.67,157.67L94.86,156.67L95.05,147.45L95.24,146.32L95.43,157.73L95.99,152.16L96.18,219.46L96.94,173L97.13,176.32L97.31,174.06L97.5,173.99L97.69,167.16L98.82,156.34L99.01,155.74L99.2,154.02L99.39,158.46L99.58,149.64L99.95,147.64L100.33,153.49L100.52,150.83L100.9,149.97L101.09,144.79L101.28,148.64L101.65,142.73L101.84,204.32L102.6,163.97L102.78,166.49L102.97,163.04L104.1,154.28L104.29,150.63L104.67,155.81L104.86,151.43L105.05,149.97L105.42,151.1L105.61,146.52L105.8,148.97L105.99,148.51L106.74,141.14L106.93,145.32L107.12,143.66L107.31,144.19L107.5,200.08L108.44,162.44L108.63,157.2L108.82,159.33L109.01,152.09L109.2,155.81L109.38,148.04L109.76,153.68L109.95,149.37L110.14,149.57L110.33,148.18L110.52,143.66L110.7,152.29L110.89,146.85L111.08,148.51L112.21,138.22L112.4,141.21L112.59,140.74L112.78,144.26L112.97,142.87L113.16,210.43L113.91,155.21L114.1,165.17L114.29,158.66L114.48,159.66L114.67,157.4L114.85,157.87L115.04,148.64L115.42,151.63L115.61,149.64L115.8,146.32L115.99,146.52L116.17,148.97L116.36,150.17L116.55,144.53L116.74,147.91L116.93,140.28L117.12,136.96L117.49,146.65L117.87,144.79L118.06,139.02L118.63,135.57L118.81,185.14L119.57,147.64L119.76,154.02L119.95,143.8L120.13,150.43L120.7,146.98L120.89,144.46L121.08,145.79L121.27,141.61L121.45,144.66L121.83,138.82L122.02,139.22L122.4,139.81L122.59,142.47L123.91,133.38L124.1,133.31L124.28,136.3L124.47,189.72L125.42,146.12L125.6,145.52L125.98,135.57L126.17,141.74L126.36,144.26L127.3,135.96L127.49,134.7L128.06,131.65L128.24,132.25L128.43,134.44L128.62,135.3L128.81,131.92L129,139.68L129.38,131.85L129.56,129.39L129.75,128.66L129.94,130.06L130.13,208.9L131.07,145.72L131.26,145.59L132.02,136.3L132.2,137.89L132.39,136.49L132.58,139.22L132.77,133.57L132.96,137.95L133.15,131.52L133.34,134.24L133.52,127.4L133.71,132.91L133.9,126.74L134.09,126.94L134.28,132.11L134.47,133.77L134.66,126.41L135.41,130.26L135.6,122.03L135.79,190.85L136.35,147.51L136.54,145.52L138.24,129.33L138.43,128.99L138.81,129.59L138.99,124.02L139.18,124.35L139.37,128.99L140.31,121.1L140.5,120.63L140.69,119.97L140.88,127L141.07,114L141.26,121.23L141.45,166.03L142.2,128.93L142.39,130.85L142.58,128.73L142.95,131.65L143.52,118.71L143.9,119.7L144.09,124.88L144.84,115.46L145.03,117.65L145.22,116.32L145.59,119.11L145.78,117.45L145.97,116.12L146.16,118.11L146.35,114.92L146.54,116.98L146.73,111.87L146.91,114.53L147.1,161.78L147.67,124.02L148.05,126.21L148.24,121.76L148.61,124.48L148.99,114.26L149.18,116.92L149.37,115.85L149.74,113.46L149.93,115.92L150.31,116.38L150.69,110.74L150.88,114.13L151.25,112.87L151.44,114.13L152.57,107.16L152.76,130.12L153.52,115.26L153.7,116.12L153.89,118.91L154.08,106.83L154.65,111.61L154.84,110.21L155.02,109.42L155.21,112.6L155.59,104.37L155.97,106.03L156.16,108.22L156.53,107.03L156.72,103.91L156.91,109.15L157.48,107.49L157.66,103.58L158.42,115.59L158.61,107.62L158.8,105.7L159.36,108.75L159.55,107.56L159.74,99.26L160.12,108.95L160.49,102.65L160.68,101.58L160.87,102.12L161.06,101.78L161.25,95.61L161.81,103.84L162,101.25L162.19,99.79L162.38,105.1L162.57,97.87L162.95,100.32L163.13,98L163.32,100.52L163.89,98.27L164.08,129.26L165.02,101.19L165.21,102.38L165.4,102.05L165.59,99.99L165.77,98.53L165.96,100.52L166.15,99.26L166.34,101.78L166.91,96.87L167.09,98.6L167.28,98.66L167.47,100.39L167.66,99.26L167.85,95.94L168.23,98.8L168.41,95.88L168.6,98.66L168.79,92.82L169.73,102.85L169.92,96.74L170.3,100.85L170.68,97.8L170.87,95.01L171.06,93.95L171.24,95.81L171.43,97.6L171.81,92.43L172,96.81L172.19,92.36L172.38,97.67L172.75,96.28L172.94,95.01L173.13,96.01L173.32,92.96L173.7,90.9L174.26,95.74L174.45,88.44L175.39,94.88L175.58,93.95L175.96,90.7L176.15,91.7L176.34,94.09L176.52,94.82L176.71,90.37L176.9,89.37L177.09,94.09L177.47,86.72L177.84,90.43L178.03,91.83L178.41,88.71L178.6,89.9L178.79,92.03L179.73,85.99L179.92,89.51L180.11,86.05L180.48,87.91L180.67,90.83L180.86,89.64L181.05,98L181.43,98.66L181.8,88.18L181.99,88.97L182.37,88.64L182.56,91.36L182.75,86.32L182.94,82.54L183.13,88.51L183.31,85.26L183.5,91.5L183.88,86.52L184.26,88.38L184.45,88.44L184.63,84.93L185.2,86.12L185.39,88.38L185.77,80.48L186.14,84.73L186.33,84.66L186.52,84.13L186.71,130.72L187.65,93.42L187.84,92.76L188.78,84.93L188.97,88.38L189.35,83.67L189.73,85.86L189.91,84.73L190.1,87.18L190.29,85.26L190.48,74.24L191.42,68.73L191.61,70.52L191.8,71.32L191.99,66.48L192.18,67.8L192.37,100.52L193.31,75.77L193.5,77.36L193.87,75.57L194.06,77.43L194.25,69.46L195.01,76.63L195.2,74.57L195.38,70.72L195.57,69.99L195.76,72.91L195.95,72.52L196.14,69.46L196.33,69.73L196.52,72.05L197.27,67.8L197.46,69.33L197.65,70.06L197.84,69.66L198.02,80.08L198.97,72.78L199.16,72.58L199.53,72.65L199.72,69.66L199.91,71.72L200.1,68.8L200.48,70.99L200.66,69L200.85,72.45L201.23,68.33L201.42,69.86L201.61,70.19L201.8,64.35L202.36,66.74L202.55,70.19L203.49,63.29L203.68,78.09L204.62,68.33L204.81,70.26L205.57,67.67L205.76,69.73L206.51,64.35L206.7,68.86L207.45,63.89L207.64,65.21L207.83,68.4L208.4,64.15L208.77,65.21L208.96,66.74L209.15,64.48L209.34,91.36L210.28,71.39L210.47,75.97L211.23,65.68L211.41,68.27L211.6,73.31L212.17,66.87L212.36,67.21L212.55,68.67L212.73,68.47L212.92,68.67L213.11,65.35L213.49,67.6L213.87,66.34L214.05,65.28L214.43,64.48L215,73.98L215.19,70.99L215.37,68.73L215.56,67.6L215.75,69.4L216.13,68.2L216.32,68.93L216.88,63.95L217.07,64.62L217.26,66.94L217.45,63.42L217.83,64.95L218.02,67.67L218.77,60.9L218.96,63.95L219.15,63.42L219.34,63.75L219.52,66.34L219.9,61.17L220.09,63.75L220.28,64.88L220.47,62.89L220.66,67.87L220.84,66.01L221.03,65.02L221.79,60.24L221.98,60.44L222.16,63.62L222.35,65.35L222.54,62.03L222.73,62.63L222.92,57.25L223.48,63.56L223.67,60.1L223.86,60.9L224.05,64.48L224.24,59.37L224.43,62.29L224.62,59.84L225.18,59.64L225.56,65.48L225.75,60.37L225.94,57.12L226.12,60.44L226.31,66.81L227.63,58.18L227.82,58.78L228.39,61.5L228.58,60.9L228.76,58.71L228.95,58.71L229.14,60.17L229.33,60.57L229.52,59.31L229.71,58.64L229.9,59.04L230.09,56.65L230.27,60.04L230.84,59.64L231.03,60.17L231.22,56.59L231.41,61.9L231.78,57.91L231.97,62.56L232.16,62.69L232.35,61.17L232.54,62.76L232.73,59.91L232.91,60.5L233.1,57.32L233.48,61.56L233.86,59.51L234.05,58.25L234.61,61.5L234.8,58.05L234.99,61.23L235.37,56.52L235.55,59.24L235.74,56.72L236.5,59.91L236.87,59.31L237.06,59.18L237.25,60.3L237.44,58.51L237.63,57.12L237.82,59.04L238.01,56.92L238.38,57.38L238.57,54.99L238.76,58.98L239.33,55.72L239.51,57.52L239.89,54.46L240.08,56.92L240.27,57.52L240.46,55.59L240.65,55.13L240.83,56.39L241.02,57.85L241.21,59.37L241.4,53.27L241.59,52.87L241.78,57.78L242.53,54.46L242.91,55.72L243.1,56.92L243.66,53.6L243.85,57.52L244.23,54.93L244.42,55.46L244.61,58.64L244.98,58.84L245.17,54.2L245.36,55.86L245.55,57.05L245.74,53.14L246.3,54.66L246.49,54.66L246.68,55.19L246.87,53.87L247.06,54.93L247.25,53.67L247.44,50.61L247.81,54.99L248,55.86L248.19,52.54L248.38,56.65L248.57,55.79L248.76,57.12L249.51,52.74L249.7,54.93L249.89,52.07L250.26,57.58L250.45,54.53L250.64,55.52L251.21,52.14L251.4,55.26L251.58,53.8L251.77,52.6L251.96,53.33L252.15,55.99L252.34,55.59L252.53,55.86L252.72,53.4L252.9,51.21L253.28,52.94L253.47,55.59L254.04,50.68L254.23,51.94L254.41,56.59L254.98,53.87L255.17,49.29L255.73,57.98L255.92,51.21L256.11,54L256.49,51.61L256.68,49.95L257.62,53.53L257.81,53.8L258.37,49.09L258.75,50.15L258.94,51.87L259.13,51.61L259.32,53.2L260.07,50.48L260.26,51.41L260.45,50.28L260.64,54.33L261.01,54.66L261.2,49.15L261.58,50.88L261.77,51.48L261.96,53.47L262.15,50.02L262.33,51.34L262.52,51.34L262.71,53.53L262.9,48.82L263.09,51.54L263.28,49.68L263.47,51.41L263.65,49.49L263.84,50.61L264.03,48.36L264.41,48.22L264.6,48.89L265.73,51.87L265.92,50.95L266.11,48.69L266.3,52.34L266.48,49.82L266.67,51.48L266.86,51.87L267.05,49.35L267.43,53.67L267.62,47.3L267.8,47.23L267.99,46.96L268.18,48.89L268.37,48.36L268.56,50.75L268.75,48.89L269.31,49.42L269.5,53.2L269.69,47.36L270.26,47.83L270.44,52.01L270.63,47.83L271.01,48.49L271.2,52.01L271.95,45.83L272.14,48.36L272.33,50.48L272.9,48.95L273.08,49.75L273.46,45.1L273.65,50.61L274.03,45.64L274.4,48.09L274.59,49.49L274.78,52.54L275.16,51.08L275.35,45.97L275.54,45.83L275.72,47.89L275.91,46.7L276.1,48.29L276.29,47.63L276.48,49.02L276.67,46.7L277.05,47.63L277.23,53L277.8,45.77L277.99,46.9L278.18,49.75L279.12,44.51L279.31,46.63L279.5,45.97L279.69,47.56L279.87,47.3L280.06,48.42L280.44,47.1L280.63,48.82L280.82,48.56L281.38,45.97L281.57,47.16L281.76,47.63L281.95,46.76L282.14,47.96L282.51,47.69L282.7,49.95L283.27,45.04L283.46,47.43L283.65,45.7L283.83,48.82L284.4,47.69L284.59,47.96L285.53,39.66L285.72,43.25L286.66,37.74L286.85,39L287.42,38.27L287.61,40.79L287.98,38.2L288.55,38.73L288.74,39L288.93,39.33L289.12,37.8L289.68,39L289.87,38.6L290.06,38L290.25,38.2L290.44,37.61L290.62,37.14L290.81,37.01L291,37.47L291.19,38.07L291.38,37.8L291.57,38.6L291.76,38.6L291.94,39.33L292.13,37.8L292.32,37.67L292.89,35.08L293.26,36.34L293.45,36.34L294.02,38.67L294.4,37.41L294.58,36.01L294.96,38.67L295.34,36.74L295.53,37.41L295.72,39.26L295.9,37.27L296.09,35.15L296.28,38L296.47,34.75L296.85,36.15L297.04,34.82L297.41,37.61L297.98,37.07L298.17,36.15L298.36,36.34L298.54,34.95L298.73,35.48L298.92,34.49L299.11,33.89L299.68,38.4L300.05,37.8L300.24,37.07L300.43,37.47L300.62,34.62L301,34.49L301.56,37.47L301.75,35.75L301.94,36.34L302.13,35.08L302.32,34.69L302.51,37.54L302.88,35.22L303.07,33.56L303.26,36.15L303.83,34.55L304.01,34.35L304.2,34.75L304.39,37.14L305.33,34.29L305.52,36.28L306.09,34.35L306.28,34.49L306.47,36.08L306.84,35.42L307.03,34.95L307.22,35.08L307.41,32.49L307.6,36.21L308.16,34.02L308.35,33.42L309.29,36.15L309.48,33.22L310.05,36.01L310.43,35.02L310.61,33.82L311.18,36.41L311.37,33.56L311.93,36.41L312.12,33.62L312.31,33.82L312.5,35.61L313.07,35.22L313.26,33.56L313.63,35.61L314.01,35.02L314.2,33.56L314.58,33.16L314.76,35.28L315.33,33.56L315.52,34.35L315.71,35.75L316.27,32.96L316.46,33.29L316.65,33.56L317.22,36.15L317.4,35.95L317.59,34.15L317.78,36.94L318.16,34.95L318.35,34.22L318.54,34.55L318.72,33.29L319.1,32.63L319.48,34.35L319.67,33.49L319.86,34.62L320.42,33.56L320.61,33.09L320.8,34.69L321.18,33.42L321.36,31.9L322.12,34.15L322.31,33.82L322.5,33.29L322.68,32.83L323.06,33.49L323.25,35.15L323.63,32.83L323.82,34.82L324.57,33.56L324.76,33.89L324.95,33.76L325.51,32.03L325.7,34.62L325.89,31.7L326.46,32.89L326.65,31.63L326.83,31.5L327.02,34.75L327.4,32.23L327.78,33.09L327.97,33.62L328.15,33.62L328.34,31.1L328.53,33.69L329.1,33.29L329.29,31.9L329.47,35.02L329.85,32.56L330.04,31.83L330.23,31.83L330.42,33.09L330.61,31.83L330.98,33.62L331.17,32.03L331.36,32.56L331.74,33.62L331.93,30.84L332.87,34.15L333.06,33.36L333.43,32.16L333.62,34.62L334.57,31.1L334.75,32.23L334.94,34.35L335.51,30.44L335.89,31.57L336.08,31.83L336.45,34.62L336.83,33.89L337.02,33.22L337.21,34.62L337.4,32.83L337.58,30.7L338.15,30.44L338.72,34.29L338.9,29.51L339.85,34.55L340.04,32.63L340.41,30.24L340.6,33.62L340.79,31.9L340.98,32.23L341.17,32.89L341.36,30.5L342.11,33.42L342.3,32.49L342.49,32.43L342.68,31.1L343.62,33.16L343.81,31.3L344,30.77L344.18,31.76L344.37,33.62L344.94,30.7L345.13,33.22L345.32,32.83L345.5,33.42L345.69,32.49L345.88,32.56L346.07,31.57L346.26,32.03L346.45,30.04L346.82,32.3L347.39,31.76L347.58,31.83L347.77,32.3L347.96,31.1L348.15,30.84L348.9,32.69L349.09,28.91L350.22,32.1L350.41,30.84L350.6,29.18L350.79,33.49L350.97,32.3L351.16,32.49L351.54,32.89L351.73,29.57L351.92,32.03L352.11,33.69L352.29,30.44L352.48,32.56L352.67,31.57L353.05,32.23L353.43,30.04L353.61,31.3L353.99,31.83L354.18,30.5L355.31,32.16L355.5,32.49L356.07,30.84L356.25,31.37L356.44,33.29L356.63,30.7L357.2,32.49L357.39,31.7L357.76,32.16L357.95,29.91L358.14,32.3L358.71,30.17L358.89,30.84L359.08,30.9L359.27,30.84L359.46,32.16L359.84,29.11L360.03,29.38L360.22,32.23L360.59,30.04L360.78,30.57L360.97,32.49L361.35,29.84L361.91,30.11L362.1,31.63L362.86,30.44L363.04,31.3L363.23,32.16L363.42,29.44L363.99,29.71L364.18,29.71L364.55,32.03L364.74,29.18L364.93,31.7L365.12,29.44L365.31,31.37L365.68,29.18L365.87,30.9L366.06,29.97L366.25,28.71L366.82,29.44L367,30.77L367.19,30.97L367.38,30.17L367.57,32.1L368.51,29.04L368.7,30.17L369.08,29.51L369.46,31.63L369.64,31.17L369.83,28.51L370.4,29.71L370.59,28.51L371.34,30.7L371.53,29.38L371.72,30.97L371.91,28.11L372.1,28.71L372.29,29.24L372.47,30.7L372.66,27.72L372.85,30.57L373.04,28.91L373.23,31.17L373.79,30.24L373.98,30.57L374.17,31.9L374.55,30.04L374.74,30.57L375.49,28.45L375.68,30.64L376.25,27.78L376.43,29.91L376.62,30.84L376.81,31.23L377,28.98" style="vector-effect: non-scaling-stroke; fill: none; stroke: rgb(214, 39, 40); stroke-opacity: 1; stroke-width: 2px; opacity: 1;"/></g><g class="points"/><g class="text"/></g><g class="trace scatter trace399490" style="stroke-miterlimit: 2; opacity: 1;"><g class="fills"/><g class="errorbars"/><g class="lines"><path class="js-line" d="M0,273.08L1.13,177.98L1.32,178.17L1.51,166.1L3.21,122.09L3.39,122.89L3.58,121.83L3.77,114.19L4.53,105.04L4.71,99.2L4.9,99.2L5.09,104.44L5.47,96.81L5.66,267.24L6.79,137.82L6.98,136.63L8.11,107.49L8.3,110.81L9.62,92.82L9.81,95.35L10.75,90.17L10.94,91.63L11.13,89.04L11.32,310.45L13.39,254.23L13.58,252.71L13.96,242.95L14.14,244.48L14.33,248.26L15.28,237.71L15.46,237.51L16.78,213.75L16.97,293.79L18.11,264.45L18.29,266.25L19.05,256.75L19.24,257.22L19.43,252.31L19.61,250.85L19.8,251.64L19.99,242.68L20.37,245.67L20.56,242.02L20.75,243.15L20.93,240.69L21.31,238.3L21.5,243.81L22.25,230.87L22.44,235.72L22.63,290.34L23.76,262.66L23.95,259.61L25.84,239.5L26.03,241.69L26.21,244.34L27.16,229.54L27.53,231L27.72,228.95L27.91,229.28L28.1,227.95L28.29,294.72L28.85,267.37L29.04,264.39L30.36,244.21L30.55,241.49L31.31,234.06L31.5,229.08L31.87,224.9L32.06,220.58L32.63,214.21L32.82,221.58L33.76,206.45L33.95,286.49L35.08,258.61L35.27,254.83L36.21,244.87L36.4,247.73L37.53,235.38L37.72,239.83L38.66,227.88L38.85,232L39.04,233.86L39.23,229.28L39.42,231.34L39.6,284.23L40.55,259.14L40.74,259.21L42.06,240.16L42.25,238.04L42.43,246.4L42.81,232.73L43,236.51L43.19,236.31L43.38,231.47L44.51,219.92L44.7,226.36L45.07,220.32L45.26,279.98L46.39,250.98L46.58,245.6L50.35,198.15L50.54,202.27L50.73,201.4L50.92,280.91L51.49,256.29L51.67,257.82L52.99,227.02L53.18,227.22L53.37,234.06L54.32,216.6L54.5,216.73L54.69,214.54L54.88,215.34L55.07,208.97L55.26,213.55L55.45,202.66L55.64,206.05L55.82,201.67L56.2,198.08L56.39,199.94L56.58,285.36L57.71,250.72L57.9,255.69L58.84,228.22L59.03,231.53L59.22,232.13L59.78,220.32L60.16,221.25L60.35,222.51L60.54,221.58L60.73,213.62L60.92,210.3L61.1,216.73L61.48,212.95L61.67,215.61L62.05,213.81L62.24,287.35L63.56,242.49L63.74,239.3L64.12,236.98L64.31,231.34L64.5,237.24L64.88,227.55L65.07,227.09L66.95,208.11L67.14,214.54L67.71,199.15L67.89,284.17L69.03,244.28L69.21,242.15L70.16,226.69L70.35,226.69L71.29,218.53L71.48,217.33L72.61,203.2L72.8,206.51L73.36,202.2L73.55,277.06L74.49,239.17L74.68,234.32L76.19,215.67L76.38,215.81L76.57,216.87L76.76,209.7L77.14,209.5L77.32,210.69L77.51,208.57L77.89,209.96L78.46,194.24L78.64,199.08L78.83,200.74L79.02,195.16L79.21,279.92L79.78,251.51L79.96,249.52L81.1,227.82L81.28,222.64L81.47,222.57L81.66,219.52L82.04,217.07L82.23,213.42L82.42,219.46L82.6,213.02L82.79,213.15L82.98,211.29L83.17,210.36L83.36,211.03L83.55,205.65L84.11,206.91L84.3,200.67L84.49,201.54L84.68,199.01L84.87,288.74L86,239.43L86.19,232.86L86.56,231.73L86.75,226.36L87.13,226.56L87.88,219.06L88.07,220.85L88.26,210.23L88.64,218.26L89.02,215.41L89.21,217.33L89.39,207.51L89.96,207.71L90.15,210.69L90.34,205.25L90.53,274.34L91.66,231.27L91.85,227.22L92.98,214.28L93.17,215.67L93.35,217.27L93.73,209.57L93.92,214.41L94.11,215.08L95.24,197.69L95.43,203.79L95.62,199.01L95.99,199.74L96.18,274.08L97.13,228.28L97.31,225.63L98.26,213.02L98.45,213.35L98.63,210.83L100.14,199.81L100.33,200.67L100.71,202.2L101.09,196.56L101.28,196.62L101.46,196.43L101.65,192.11L101.84,275.67L102.6,231.34L102.78,232.66L102.97,226.76L103.35,227.62L103.54,224.03L103.92,224.63L104.1,216.93L104.48,217.33L104.67,222.51L105.61,212.09L105.8,209.63L105.99,210.36L106.18,209.1L106.37,209.77L106.56,209.17L107.31,203.46L107.5,265.12L108.44,222.91L108.63,222.18L109.76,208.17L109.95,212.29L110.52,210.3L110.7,206.98L112.4,198.95L112.59,199.68L112.78,195.83L112.97,200.34L113.16,246.27L113.91,217.6L114.1,218.86L114.29,209.23L114.48,214.15L114.85,210.89L115.04,206.38L115.23,206.65L115.42,205.32L116.74,195.16L116.93,195.36L117.12,191.85L117.31,199.68L117.49,193.84L117.68,196.49L117.87,197.75L118.06,194.3L118.25,191.91L118.44,187.2L118.63,194.63L118.81,232.93L119.57,205.45L119.76,209.3L119.95,206.38L120.89,196.69L121.08,199.41L121.27,199.81L121.45,198.48L121.64,197.55L122.77,188.2L122.96,188.06L124.28,180.43L124.47,224.5L125.42,196.76L125.6,196.43L125.98,190.45L126.17,195.76L126.36,195.03L126.55,186.4L127.11,186.93L127.3,188.33L128.06,183.42L128.24,184.55L128.43,186.4L128.81,187.2L129.56,180.03L129.75,180.76L129.94,174.13L130.13,221.11L131.07,192.05L131.26,194.9L132.02,182.55L132.2,188.46L133.15,178.04L133.34,181.89L133.9,170.28L134.28,174.46L134.47,177.58L135.41,167.95L135.6,169.88L135.79,229.74L136.35,194.1L136.54,194.24L137.49,181.16L137.86,183.55L138.05,184.88L138.62,178.44L138.81,181.29L138.99,180.96L139.75,172.6L139.94,177.11L140.13,173.79L140.69,176.38L140.88,178.37L141.26,173.06L141.45,226.69L142.39,183.35L142.58,183.48L143.52,173.26L143.71,182.09L144.46,170.14L144.65,171.87L144.84,170.28L145.03,169.61L145.22,163.71L145.41,170.34L145.97,166.29L146.16,170.01L146.73,158.79L146.91,164.24L147.1,230.21L148.24,185.81L148.42,189.06L149.37,176.58L149.56,179.77L150.69,169.55L150.88,175.12L151.63,165.17L151.82,167.82L152.01,168.55L152.57,162.25L152.76,219.92L153.7,184.41L153.89,186.47L154.65,171.87L154.84,172.13L155.02,174.46L155.21,175.39L155.4,165.83L155.78,167.82L155.97,166.56L156.16,165.76L156.34,162.31L156.72,165.63L156.91,167.22L157.29,157.47L157.66,158.79L157.85,160.85L158.04,155.01L158.23,155.41L158.42,209.23L158.98,173.99L159.36,179.97L159.55,174.99L159.93,169.55L160.31,170.74L160.49,171.47L161.25,160.19L161.44,163.37L161.63,164.24L161.81,164.44L162,156.21L162.38,161.85L162.95,160.39L163.13,154.68L163.51,157.27L163.7,155.48L163.89,152.09L164.08,204.06L164.64,178.04L164.83,170.01L166.53,153.95L166.72,157.93L166.91,151.63L167.47,156.41L167.66,153.75L168.04,154.35L168.79,143.66L168.98,148.31L169.17,148.91L169.36,143.99L169.55,144.19L169.73,192.11L170.49,156.27L170.68,156.94L170.87,153.95L171.81,145.52L172,151.69L172.56,141.14L172.94,145.65L173.13,146.58L173.7,133.31L174.07,137.16L174.26,138.35L174.45,129.39L174.83,138.55L175.02,135.7L175.2,136.89L175.39,180.5L175.96,155.01L176.15,147.38L176.34,151.89L176.71,143.66L176.9,143.6L177.09,147.38L177.47,142.27L177.66,145.59L177.84,142.8L178.22,138.75L178.6,140.68L178.79,140.54L179.16,134.44L179.73,134.77L179.92,136.23L180.67,132.05L180.86,133.51L181.05,167.95L181.62,143.07L181.8,137.03L181.99,140.08L182.37,134.17L182.56,135.3L182.75,134.77L182.94,129.26L183.13,128.86L183.31,131.38L184.26,125.08L184.45,125.94L184.63,126.74L184.82,126.27L185.01,122.96L185.2,124.68L185.58,123.35L185.77,122.96L186.14,119.24L186.52,119.64L186.71,189.86L187.65,138.62L187.84,131.98L188.41,136.56L188.59,127.73L189.54,123.15L189.73,128.46L190.86,106.1L191.23,108.55L191.42,111.34L191.99,104.97L192.18,105.04L192.37,161.71L193.31,122.36L193.5,119.64L195.57,109.08L195.76,112.67L196.14,107.96L196.52,111.27L196.7,110.68L197.08,106.7L197.46,109.02L197.65,110.41L197.84,104.84L198.02,134.24L198.78,110.08L198.97,119.11L199.72,109.02L199.91,109.48L200.1,108.29L200.29,108.42L200.48,110.21L200.85,111.94L201.04,106.83L201.23,106.16L201.42,108.82L201.61,110.21L201.8,104.31L202.17,108.62L202.55,106.83L202.74,103.64L202.93,104.9L203.12,103.84L203.3,100.85L203.49,100.39L203.68,126.47L204.62,108.75L204.81,107.69L205.57,109.42L205.76,108.09L206.51,99.53L206.7,106.3L206.89,107.82L207.08,103.71L207.27,102.85L207.64,102.58L207.83,105.9L208.02,102.51L208.21,102.65L208.4,104.37L208.96,105.63L209.15,102.45L209.34,114.06L209.91,106.56L210.09,103.18L210.28,101.19L210.47,104.5L210.66,101.58L210.85,104.04L211.04,105.7L211.23,100.52L211.41,99.46L211.6,103.51L211.98,103.91L212.36,99.2L212.55,103.51L212.73,103.18L212.92,100.52L213.3,99.53L213.49,101.32L213.68,98.53L214.24,99L214.43,98.8L214.62,99.2L214.81,98.27L215,106.89L215.94,98.93L216.13,100.19L216.32,98.86L216.69,101.45L216.88,96.81L217.07,98.33L217.64,97.2L217.83,96.87L218.2,101.32L218.58,97.27L218.77,96.28L219.15,95.61L219.52,98.73L219.71,92.16L219.9,92.96L220.09,98.13L220.47,97.01L220.66,108.29L221.79,92.56L221.98,95.15L222.35,98.73L222.73,98.33L222.92,96.08L223.3,97.07L223.48,95.94L223.67,98.4L223.86,94.02L224.24,96.47L224.43,96.01L224.8,90.7L224.99,94.95L225.18,97.01L225.37,97.07L225.56,95.61L226.12,92.49L226.31,110.21L227.07,94.48L227.26,100.19L227.82,93.22L228.2,95.41L228.39,95.74L228.76,97.47L228.95,92.76L229.33,95.61L229.52,92.82L229.71,90.1L229.9,95.81L230.46,90.63L230.65,91.96L230.84,92.09L231.03,94.15L231.22,91.43L231.59,95.81L231.78,91.63L231.97,98.8L232.73,92.62L232.91,94.42L233.1,96.08L233.48,92.82L233.67,93.29L233.86,96.21L234.8,91.76L234.99,92.09L235.18,94.62L235.37,91.1L235.55,88.58L236.5,93.29L236.69,88.64L237.63,94.62L237.82,94.88L238.38,89.17L238.57,89.64L238.76,91.36L239.14,94.95L239.33,88.31L240.08,91.96L240.27,87.05L241.21,92.36L241.4,88.05L241.59,83.27L241.78,89.31L242.16,87.12L242.34,92.03L242.53,85.52L243.1,89.04L243.29,94.02L244.23,86.59L244.42,89.84L244.61,89.64L244.8,90.04L244.98,92.49L245.36,83.47L245.74,89.11L245.93,86.72L246.49,86.59L246.87,90.83L247.06,84.99L247.25,83.07L247.62,85.52L247.81,87.91L248,88.58L248.19,84.93L248.94,93.42L249.13,89.24L249.32,86.39L249.7,89.37L249.89,86.78L250.08,86.78L250.26,91.5L250.64,85.86L250.83,83.33L251.02,89.7L251.58,87.12L251.77,88.78L251.96,89.17L252.15,87.05L252.34,86.72L252.53,84.53L252.72,88.18L252.9,82.74L253.09,83.6L253.28,82.47L253.47,87.85L254.04,85.86L254.23,83.07L254.6,92.03L254.79,85.86L254.98,84.26L255.17,82.8L255.36,84.86L255.55,86.92L255.73,90.57L255.92,86.52L256.11,86.65L256.3,84.66L256.49,81.67L256.87,84.79L257.05,82.94L257.24,88.84L257.43,80.28L258,85.26L258.19,84L258.56,79.88L258.94,82.54L259.13,84.73L259.32,87.25L259.69,82.27L259.88,80.35L260.26,90.43L260.64,85.32L260.83,81.74L261.01,88.31L261.2,81.21L261.58,82.74L261.77,85.99L262.52,79.75L262.71,84.46L263.28,82.67L263.47,85.99L264.22,80.55L264.41,81.81L264.6,82.94L265.16,83.86L265.35,81.28L265.54,85.52L265.92,85.79L266.48,78.22L266.67,82.67L267.05,79.28L267.24,83.27L267.62,82.54L267.8,79.88L267.99,82.21L268.37,78.62L268.56,81.54L268.75,81.28L268.94,82.4L269.31,80.61L269.5,82.14L269.69,78.36L270.44,83.73L270.63,81.08L270.82,80.94L271.01,78.02L271.39,78.49L271.58,82.87L271.95,77.36L272.14,83.67L272.33,82.21L272.52,84.53L272.71,78.16L273.27,81.61L273.46,80.35L274.22,77.23L274.4,79.55L274.59,77.56L274.97,79.22L275.16,80.88L275.54,72.78L275.72,80.94L276.1,81.08L276.67,77.16L276.86,78.36L277.05,76.7L277.23,83.4L277.99,76.03L278.18,80.28L278.37,80.01L278.74,78.75L278.93,80.15L279.31,73.84L279.69,75.5L279.87,76.96L280.06,76.36L280.25,78.49L280.44,79.35L280.63,78.62L280.82,75.5L281.38,77.82L281.57,72.78L282.33,79.55L282.51,74.84L282.7,75.5L282.89,82.54L283.27,74.57L283.83,76.76L284.02,74.31L284.21,77.49L284.59,77.09L284.78,73.91L285.53,68.33L285.72,71.25L286.1,68.8L286.29,65.68L286.47,71.52L287.04,68.13L287.23,67.54L287.42,67.21L287.61,70.86L287.79,67.74L288.17,71.12L288.36,69.93L288.55,71.12L289.49,67.01L289.68,67.67L290.62,64.55L290.81,66.61L291.76,64.68L291.94,69.99L292.51,64.02L292.89,64.82L293.08,64.88L293.26,64.95L293.45,67.8L293.83,62.43L294.02,65.48L294.21,68.13L294.58,63.89L294.77,65.75L294.96,69.66L295.15,64.55L295.72,66.34L295.9,68.4L296.09,62.03L296.66,65.81L296.85,65.61L297.04,63.82L297.41,66.21L297.6,65.81L298.17,66.28L298.54,63.02L298.73,65.28L299.3,62.03L299.49,66.41L299.86,68.13L300.05,67.94L300.24,66.67L300.43,67.47L300.62,64.35L300.81,65.75L301,62.56L301.19,64.22L301.37,62.76L302.13,66.61L302.32,61.96L302.88,67.07L303.07,63.75L303.26,63.16L303.45,61.37L303.64,63.95L303.83,62.83L304.01,64.15L304.2,63.49L304.39,65.28L304.58,64.35L304.77,61.23L305.52,72.38L305.71,64.15L306.28,65.81L306.47,65.41L306.65,64.29L307.41,63.22L307.6,63.29L307.79,63.56L307.97,64.02L308.16,60.9L309.29,66.08L309.48,62.96L309.67,61.83L309.86,63.62L310.05,65.35L310.99,63.16L311.18,67.27L311.93,62.36L312.12,65.21L313.07,60.37L313.26,61.1L313.44,64.62L314.01,61.23L314.2,58.84L314.39,65.21L314.95,61.1L315.14,60.97L315.33,60.9L315.52,59.84L316.08,65.68L316.27,64.22L316.46,60.17L316.65,59.51L316.84,66.01L317.4,61.76L317.78,63.22L317.97,62.63L318.35,63.56L318.54,62.49L318.72,65.02L319.1,61.5L319.29,63.82L319.48,62.43L319.67,60.3L319.86,63.49L320.04,62.49L320.23,64.29L320.99,60.24L321.18,61.3L321.55,64.82L321.74,60.83L321.93,60.9L322.5,64.82L322.68,64.02L322.87,59.51L323.25,63.56L323.63,61.9L323.82,60.37L324.19,63.62L324.57,63.42L324.76,61.76L325.14,57.71L325.33,62.96L325.51,64.48L325.7,60.5L326.08,63.36L326.27,58.58L327.02,63.95L327.21,59.04L328.15,66.21L328.34,62.96L328.53,59.57L328.91,64.35L329.1,64.15L329.47,65.15L330.23,58.31L330.61,58.78L330.79,60.83L330.98,61.43L331.17,59.71L331.36,60.1L331.55,62.43L331.93,58.45L332.11,59.31L332.49,58.78L333.25,63.22L333.43,57.52L334.19,64.29L334.38,60.1L334.57,62.83L334.75,58.98L335.13,60.9L335.32,61.96L335.51,61.5L335.7,56.06L336.45,62.89L336.64,59.11L337.02,62.76L337.4,60.77L337.58,58.38L338.15,57.78L338.72,62.56L338.9,62.69L339.09,59.77L339.47,65.02L339.66,60.17L339.85,61.63L340.04,63.22L340.22,60.83L340.41,59.71L340.98,58.51L341.17,63.29L341.36,59.31L341.54,59.18L341.73,59.97L341.92,60.1L342.11,62.63L342.86,57.71L343.24,58.25L343.43,61.1L343.62,61.63L343.81,57.38L344.75,61.76L344.94,58.78L345.69,62.23L345.88,61.7L346.26,58.84L346.64,60.7L346.82,60.7L347.01,62.49L347.2,60.17L347.39,57.78L348.15,60.57L348.33,59.18L348.52,59.04L348.71,59.31L348.9,57.71L349.84,60.37L350.03,57.98L350.22,56.52L350.41,58.51L350.6,60.44L350.79,62.63L351.16,59.64L351.35,61.83L351.54,60.83L351.73,61.43L351.92,60.04L352.11,59.97L352.29,60.17L352.48,58.78L352.86,56.52L353.05,59.04L353.24,62.36L353.61,58.45L353.8,59.84L353.99,63.36L354.37,57.45L354.93,57.91L355.12,60.1L355.5,58.11L355.88,58.31L356.07,58.31L356.44,62.43L356.82,61.56L357.01,58.78L357.39,60.77L357.76,60.24L357.95,58.58L358.14,60.64L358.52,56.98L358.71,56.06L359.27,59.57L359.46,59.31L359.65,57.98L360.03,56.65L360.22,59.91L360.59,59.04L360.78,58.64L361.16,58.84L361.35,56.19L362.1,61.83L362.29,59.77L362.48,57.38L363.42,60.44L363.61,58.18L363.8,59.37L363.99,57.38L364.18,58.05L364.36,58.11L364.74,57.25L364.93,58.31L365.12,58.91L365.31,58.71L365.5,57.25L365.68,57.98L365.87,54.86L366.06,54.79L366.25,56.79L366.63,58.18L366.82,56.19L367.19,55.26L367.57,61.23L367.76,60.64L367.95,58.71L368.14,54.73L368.32,60.17L368.7,58.51L368.89,57.78L369.46,57.38L369.64,61.9L369.83,56.39L370.4,59.31L370.59,57.65L370.78,57.58L370.96,59.37L371.15,56.85L371.53,58.45L371.72,54.86L372.66,56.92L372.85,57.38L373.04,57.38L373.23,59.51L373.42,63.16L373.79,59.11L373.98,57.78L374.55,59.77L374.74,57.25L374.93,60.44L375.11,57.18L375.49,57.25L375.68,55.59L376.06,55.26L376.62,57.12L376.81,57.85L377,56.45" style="vector-effect: non-scaling-stroke; fill: none; stroke: rgb(148, 103, 189); stroke-opacity: 1; stroke-width: 2px; opacity: 1;"/></g><g class="points"/><g class="text"/></g></g></g><g class="overplot"/><path class="xlines-above crisp" d="M0,0" style="fill: none;"/><path class="ylines-above crisp" d="M0,0" style="fill: none;"/><g class="overlines-above"/><g class="xaxislayer-above"><g class="xtick"><text text-anchor="middle" x="0" y="403" transform="translate(154.11,0)" style="font-family: 'Open Sans', verdana, arial, sans-serif; font-size: 12px; fill: rgb(68, 68, 68); fill-opacity: 1; white-space: pre;">50</text></g><g class="xtick"><text text-anchor="middle" x="0" y="403" transform="translate(248.41,0)" style="font-family: 'Open Sans', verdana, arial, sans-serif; font-size: 12px; fill: rgb(68, 68, 68); fill-opacity: 1; white-space: pre;">100</text></g><g class="xtick"><text text-anchor="middle" x="0" y="403" transform="translate(342.7,0)" style="font-family: 'Open Sans', verdana, arial, sans-serif; font-size: 12px; fill: rgb(68, 68, 68); fill-opacity: 1; white-space: pre;">150</text></g><g class="xtick"><text text-anchor="middle" x="0" y="403" transform="translate(437,0)" style="font-family: 'Open Sans', verdana, arial, sans-serif; font-size: 12px; fill: rgb(68, 68, 68); fill-opacity: 1; white-space: pre;">200</text></g></g><g class="yaxislayer-above"><g class="ytick"><text text-anchor="end" x="59" y="4.199999999999999" transform="translate(0,341.84)" style="font-family: 'Open Sans', verdana, arial, sans-serif; font-size: 12px; fill: rgb(68, 68, 68); fill-opacity: 1; white-space: pre;">20</text></g><g class="ytick"><text text-anchor="end" x="59" y="4.199999999999999" transform="translate(0,275.47)" style="font-family: 'Open Sans', verdana, arial, sans-serif; font-size: 12px; fill: rgb(68, 68, 68); fill-opacity: 1; white-space: pre;">40</text></g><g class="ytick"><text text-anchor="end" x="59" y="4.199999999999999" transform="translate(0,209.1)" style="font-family: 'Open Sans', verdana, arial, sans-serif; font-size: 12px; fill: rgb(68, 68, 68); fill-opacity: 1; white-space: pre;">60</text></g><g class="ytick"><text text-anchor="end" x="59" y="4.199999999999999" transform="translate(0,142.74)" style="font-family: 'Open Sans', verdana, arial, sans-serif; font-size: 12px; fill: rgb(68, 68, 68); fill-opacity: 1; white-space: pre;">80</text></g><g class="ytick"><text text-anchor="end" x="59" y="4.199999999999999" transform="translate(0,76.37)" style="font-family: 'Open Sans', verdana, arial, sans-serif; font-size: 12px; fill: rgb(68, 68, 68); fill-opacity: 1; white-space: pre;">100</text></g></g><g class="overaxes-above"/></g></g><g class="polarlayer"/><g class="ternarylayer"/><g class="geolayer"/><g class="funnelarealayer"/><g class="pielayer"/><g class="treemaplayer"/><g class="sunburstlayer"/><g class="glimages"/><defs id="topdefs-f247f1"><g class="clips"/><clipPath id="legendf247f1"><rect width="243" height="105" x="0" y="0"/></clipPath></defs><g class="layer-above"><g class="imagelayer"/><g class="shapelayer"/></g><g class="infolayer"><g class="legend" pointer-events="all" transform="translate(444.54, 60)"><rect class="bg" shape-rendering="crispEdges" width="243" height="105" x="0" y="0" style="stroke: rgb(68, 68, 68); stroke-opacity: 1; fill: rgb(255, 255, 255); fill-opacity: 1; stroke-width: 0px;"/><g class="scrollbox" transform="translate(0, 0)" clip-path="url('#legendf247f1')"><g class="groups"><g class="traces" transform="translate(0, 14.5)" style="opacity: 1;"><text class="legendtext user-select-none" text-anchor="start" x="40" y="4.680000000000001" style="font-family: 'Open Sans', verdana, arial, sans-serif; font-size: 12px; fill: rgb(68, 68, 68); fill-opacity: 1; white-space: pre;">0_vgg16_bn_cifar_sfp_prune0.1</text><g class="layers" style="opacity: 1;"><g class="legendfill"/><g class="legendlines"><path class="js-line" d="M5,0h30" style="fill: none; stroke: rgb(31, 119, 180); stroke-opacity: 1; stroke-width: 2px;"/></g><g class="legendsymbols"><g class="legendpoints"/></g></g><rect class="legendtoggle" pointer-events="all" x="0" y="-9.5" width="237.125" height="19" style="cursor: pointer; fill: rgb(0, 0, 0); fill-opacity: 0;"/></g><g class="traces" transform="translate(0, 33.5)" style="opacity: 1;"><text class="legendtext user-select-none" text-anchor="start" x="40" y="4.680000000000001" style="font-family: 'Open Sans', verdana, arial, sans-serif; font-size: 12px; fill: rgb(68, 68, 68); fill-opacity: 1; white-space: pre;">1_vgg16_bn_cifar_sfp_prune0.2</text><g class="layers" style="opacity: 1;"><g class="legendfill"/><g class="legendlines"><path class="js-line" d="M5,0h30" style="fill: none; stroke: rgb(255, 127, 14); stroke-opacity: 1; stroke-width: 2px;"/></g><g class="legendsymbols"><g class="legendpoints"/></g></g><rect class="legendtoggle" pointer-events="all" x="0" y="-9.5" width="237.125" height="19" style="cursor: pointer; fill: rgb(0, 0, 0); fill-opacity: 0;"/></g><g class="traces" transform="translate(0, 52.5)" style="opacity: 1;"><text class="legendtext user-select-none" text-anchor="start" x="40" y="4.680000000000001" style="font-family: 'Open Sans', verdana, arial, sans-serif; font-size: 12px; fill: rgb(68, 68, 68); fill-opacity: 1; white-space: pre;">2_vgg16_bn_cifar_sfp_prune0.3</text><g class="layers" style="opacity: 1;"><g class="legendfill"/><g class="legendlines"><path class="js-line" d="M5,0h30" style="fill: none; stroke: rgb(44, 160, 44); stroke-opacity: 1; stroke-width: 2px;"/></g><g class="legendsymbols"><g class="legendpoints"/></g></g><rect class="legendtoggle" pointer-events="all" x="0" y="-9.5" width="237.125" height="19" style="cursor: pointer; fill: rgb(0, 0, 0); fill-opacity: 0;"/></g><g class="traces" transform="translate(0, 71.5)" style="opacity: 1;"><text class="legendtext user-select-none" text-anchor="start" x="40" y="4.680000000000001" style="font-family: 'Open Sans', verdana, arial, sans-serif; font-size: 12px; fill: rgb(68, 68, 68); fill-opacity: 1; white-space: pre;">3_vgg16_bn_cifar_sfp_prune0.4</text><g class="layers" style="opacity: 1;"><g class="legendfill"/><g class="legendlines"><path class="js-line" d="M5,0h30" style="fill: none; stroke: rgb(214, 39, 40); stroke-opacity: 1; stroke-width: 2px;"/></g><g class="legendsymbols"><g class="legendpoints"/></g></g><rect class="legendtoggle" pointer-events="all" x="0" y="-9.5" width="237.125" height="19" style="cursor: pointer; fill: rgb(0, 0, 0); fill-opacity: 0;"/></g><g class="traces" transform="translate(0, 90.5)" style="opacity: 1;"><text class="legendtext user-select-none" text-anchor="start" x="40" y="4.680000000000001" style="font-family: 'Open Sans', verdana, arial, sans-serif; font-size: 12px; fill: rgb(68, 68, 68); fill-opacity: 1; white-space: pre;">4_vgg16_bn_cifar_sfp_prune0.5</text><g class="layers" style="opacity: 1;"><g class="legendfill"/><g class="legendlines"><path class="js-line" d="M5,0h30" style="fill: none; stroke: rgb(148, 103, 189); stroke-opacity: 1; stroke-width: 2px;"/></g><g class="legendsymbols"><g class="legendpoints"/></g></g><rect class="legendtoggle" pointer-events="all" x="0" y="-9.5" width="237.125" height="19" style="cursor: pointer; fill: rgb(0, 0, 0); fill-opacity: 0;"/></g></g></g><rect class="scrollbar" rx="20" ry="3" width="0" height="0" x="0" y="0" style="fill: rgb(128, 139, 164); fill-opacity: 1;"/></g><g class="g-gtitle"><text class="gtitle" x="350" y="30" text-anchor="middle" dy="0em" style="font-family: 'Open Sans', verdana, arial, sans-serif; font-size: 17px; fill: rgb(68, 68, 68); opacity: 1; font-weight: normal; white-space: pre;">train_top1</text></g><g class="g-xtitle"/><g class="g-ytitle"/></g></svg>