<svg class="main-svg" xmlns="http://www.w3.org/2000/svg" xmlns:xlink="http://www.w3.org/1999/xlink" width="700" height="450" style="" viewBox="0 0 700 450"><rect x="0" y="0" width="700" height="450" style="fill: rgb(255, 255, 255); fill-opacity: 1;"/><defs id="defs-e2b7e1"><g class="clips"><clipPath id="clipe2b7e1xyplot" class="plotclip"><rect width="289" height="330"/></clipPath><clipPath class="axesclip" id="clipe2b7e1x"><rect x="60" y="0" width="289" height="450"/></clipPath><clipPath class="axesclip" id="clipe2b7e1y"><rect x="0" y="60" width="700" height="330"/></clipPath><clipPath class="axesclip" id="clipe2b7e1xy"><rect x="60" y="60" width="289" height="330"/></clipPath></g><g class="gradients"/></defs><g class="bglayer"/><g class="layer-below"><g class="imagelayer"/><g class="shapelayer"/></g><g class="cartesianlayer"><g class="subplot xy"><g class="layer-subplot"><g class="shapelayer"/><g class="imagelayer"/></g><g class="gridlayer"><g class="x"><path class="xgrid crisp" transform="translate(117.57,0)" d="M0,60v330" style="stroke: rgb(238, 238, 238); stroke-opacity: 1; stroke-width: 1px;"/><path class="xgrid crisp" transform="translate(175.43,0)" d="M0,60v330" style="stroke: rgb(238, 238, 238); stroke-opacity: 1; stroke-width: 1px;"/><path class="xgrid crisp" transform="translate(233.28,0)" d="M0,60v330" style="stroke: rgb(238, 238, 238); stroke-opacity: 1; stroke-width: 1px;"/><path class="xgrid crisp" transform="translate(291.14,0)" d="M0,60v330" style="stroke: rgb(238, 238, 238); stroke-opacity: 1; stroke-width: 1px;"/></g><g class="y"><path class="ygrid crisp" transform="translate(0,368.9)" d="M60,0h289" style="stroke: rgb(238, 238, 238); stroke-opacity: 1; stroke-width: 1px;"/><path class="ygrid crisp" transform="translate(0,331.82)" d="M60,0h289" style="stroke: rgb(238, 238, 238); stroke-opacity: 1; stroke-width: 1px;"/><path class="ygrid crisp" transform="translate(0,294.74)" d="M60,0h289" style="stroke: rgb(238, 238, 238); stroke-opacity: 1; stroke-width: 1px;"/><path class="ygrid crisp" transform="translate(0,257.66999999999996)" d="M60,0h289" style="stroke: rgb(238, 238, 238); stroke-opacity: 1; stroke-width: 1px;"/><path class="ygrid crisp" transform="translate(0,220.59)" d="M60,0h289" style="stroke: rgb(238, 238, 238); stroke-opacity: 1; stroke-width: 1px;"/><path class="ygrid crisp" transform="translate(0,183.51)" d="M60,0h289" style="stroke: rgb(238, 238, 238); stroke-opacity: 1; stroke-width: 1px;"/><path class="ygrid crisp" transform="translate(0,146.43)" d="M60,0h289" style="stroke: rgb(238, 238, 238); stroke-opacity: 1; stroke-width: 1px;"/><path class="ygrid crisp" transform="translate(0,109.35)" d="M60,0h289" style="stroke: rgb(238, 238, 238); stroke-opacity: 1; stroke-width: 1px;"/><path class="ygrid crisp" transform="translate(0,72.27)" d="M60,0h289" style="stroke: rgb(238, 238, 238); stroke-opacity: 1; stroke-width: 1px;"/></g></g><g class="zerolinelayer"/><path class="xlines-below"/><path class="ylines-below"/><g class="overlines-below"/><g class="xaxislayer-below"/><g class="yaxislayer-below"/><g class="overaxes-below"/><g class="plot" transform="translate(60, 60)" clip-path="url('#clipe2b7e1xyplot')"><g class="scatterlayer mlayer"><g class="trace scatter trace8877ea" style="stroke-miterlimit: 2; opacity: 1;"><g class="fills"/><g class="errorbars"/><g class="lines"><path class="js-line" d="M0,280.2L1.45,203.15L1.74,197.44L4.05,158.96L4.34,159.85L4.63,156.29L5.79,143.98L6.08,141.01L6.94,140.79L7.23,138.79L8.39,135.52L8.68,126.25L9.26,129.22L9.55,128.7L9.84,125.44L10.13,125.36L10.41,126.92L11.28,117.65L11.57,119.8L11.86,119.36L12.15,118.61L12.44,122.25L13.6,108.31L13.89,112.39L14.18,112.46L14.46,110.31L14.75,117.06L15.04,110.01L15.33,112.61L15.62,113.13L15.91,111.42L16.2,101.63L16.49,111.72L16.78,104.52L17.07,105.34L17.65,97.7L17.94,103.71L18.23,99.93L18.51,103.56L18.8,104.97L19.67,96.07L19.96,102.08L21.12,94.74L21.41,101.11L21.7,100.52L21.99,95.11L22.28,93.18L22.56,96.52L22.85,91.55L23.43,92.81L23.72,93.25L24.01,91.4L24.3,97.55L25.17,86.65L25.46,89.47L25.75,93.4L26.33,82.94L26.61,87.02L26.9,90.29L27.19,92.59L27.77,91.99L28.06,88.43L28.35,88.36L28.64,89.25L28.93,80.13L29.22,89.25L29.51,86.28L30.38,82.5L30.66,89.25L31.53,82.94L32.11,83.54L32.4,83.61L33.27,80.65L33.56,81.83L33.85,85.61L34.14,82.5L34.43,81.02L34.71,79.16L35,79.46L35.29,80.79L35.58,79.61L35.87,82.87L36.16,78.42L36.45,79.53L36.74,82.57L37.32,78.57L37.61,74.27L37.9,81.09L38.48,78.35L38.76,78.12L39.05,79.31L39.34,75.16L39.92,82.2L40.21,76.05L40.5,73.82L40.79,80.05L41.08,75.23L41.37,80.79L41.66,80.79L42.81,72.49L43.1,74.27L43.68,74.05L43.97,75.9L44.26,75.6L44.55,77.83L44.84,72.93L45.13,72.04L45.42,72.41L45.71,76.2L46,75.46L46.29,68.41L46.58,69.82L46.86,76.12L47.44,72.41L47.73,73.08L48.02,74.86L48.31,74.64L48.6,73.23L49.18,66.48L49.47,69.97L49.76,69.08L50.34,76.05L50.63,70.71L51.78,73.53L52.07,72.27L52.65,69.15L52.94,72.04L53.23,72.04L53.52,70.49L53.81,68.41L54.1,69.52L54.39,70.49L54.96,68.04L55.54,68.63L55.83,71.9L56.12,72.41L56.41,66.41L57.57,72.79L57.86,69.08L58.44,66.48L58.73,68.11L59.3,68.93L59.59,65.37L59.88,67.22L60.46,71.15L60.75,67L61.04,68.86L61.33,66.41L61.62,66.56L61.91,68.93L62.49,68.63L62.78,64.18L63.07,70.12L63.35,68.34L63.64,64.41L63.93,65.74L64.51,65.15L64.8,65.37L65.09,68.41L65.38,61.96L66.25,70.78L66.54,60.99L67.12,67L67.69,66.7L67.98,67.08L68.27,68.63L68.56,66.48L68.85,63.96L69.14,61.07L69.43,66.56L69.72,59.66L70.3,62.92L70.59,62.4L71.45,65.89L71.74,65L72.03,65.22L72.61,62.03L72.9,65.59L73.19,62.63L73.77,62.7L74.06,62.55L74.35,62.7L74.64,61.44L74.93,63.52L75.22,60.85L75.5,63.29L75.79,58.7L76.37,67.37L76.66,62.48L76.95,61.96L77.82,65.89L78.11,57.51L78.98,65.81L79.27,62.03L79.55,62.7L79.84,61.29L80.13,60.77L80.42,61.66L80.71,62.33L81,57.21L81.29,58.47L81.58,63.89L82.74,59.51L83.03,60.62L83.32,65.67L83.6,62.55L83.89,57.06L84.18,56.84L84.47,60.55L84.76,58.47L85.05,61.96L85.63,60.7L85.92,62.7L86.21,62.33L86.5,58.7L87.08,57.43L87.37,59.51L88.23,60.1L88.52,65.37L90.26,53.58L90.55,57.58L91.42,59.44L91.7,58.55L92.28,61.81L92.57,59.73L92.86,55.73L93.15,57.81L93.44,58.32L93.73,56.32L94.02,62.33L94.6,56.1L94.89,63.14L95.75,55.8L96.04,58.77L96.62,57.29L96.91,59.29L97.49,56.69L97.78,59.36L98.65,56.99L98.94,58.32L99.23,55.95L99.52,56.99L99.8,58.92L100.38,56.32L100.67,57.58L100.96,57.06L101.25,54.02L101.54,58.32L101.83,56.4L102.12,55.43L102.41,58.03L102.99,54.91L103.28,59.51L103.57,59.36L103.85,56.62L104.14,57.66L104.43,56.32L104.72,53.36L105.01,59.21L105.59,59.07L105.88,58.4L106.17,52.91L106.46,57.81L106.75,57.95L107.04,51.58L107.33,55.43L107.62,57.58L107.9,55.14L108.19,58.47L108.48,56.69L108.77,56.92L109.06,58.99L109.93,52.99L110.22,54.54L110.51,57.43L110.8,52.02L111.67,57.58L111.95,57.36L112.24,56.84L112.53,61.88L113.11,50.46L113.4,56.62L113.69,55.43L113.98,54.1L114.27,56.54L114.56,56.84L114.85,55.95L115.14,60.48L115.43,59.29L115.72,51.65L117.45,58.62L117.74,53.95L118.03,54.62L118.32,57.58L118.61,51.35L118.9,56.25L119.19,55.21L119.77,52.24L120.06,55.88L120.34,55.58L120.63,56.54L120.92,57.66L121.21,54.69L121.5,53.58L121.79,53.8L122.08,56.54L122.37,53.5L122.95,54.77L123.24,52.39L123.82,54.84L124.11,54.62L124.39,54.25L124.68,51.28L124.97,55.06L125.26,55.51L125.84,53.95L126.13,57.43L126.42,53.88L127,55.58L127.29,53.13L127.58,54.32L127.87,53.43L128.16,52.39L128.73,58.32L129.02,57.58L129.31,53.88L129.6,55.36L129.89,54.77L130.18,51.58L130.47,52.24L130.76,55.14L131.05,51.87L131.63,53.06L131.92,53.8L132.21,59.88L132.49,58.32L132.78,54.91L133.07,48.09L133.65,51.72L133.94,51.43L134.52,56.99L134.81,54.25L135.1,57.36L135.39,56.32L135.68,59.36L136.26,50.61L136.54,54.02L136.83,55.43L137.41,49.28L137.7,50.76L137.99,53.65L138.28,51.21L138.57,53.95L138.86,51.65L139.15,51.65L139.44,50.17L139.73,51.21L140.02,53.58L140.59,52.24L140.88,54.32L141.75,49.8L142.04,51.72L142.33,51.06L142.62,52.54L142.91,52.24L143.2,50.54L143.78,56.62L144.07,51.5L144.36,52.1L144.64,49.8L145.51,54.02L145.8,53.65L146.09,49.06L146.96,53.58L147.25,52.84L148.41,36.74L148.69,37.41L149.56,34.67L149.85,34.37L150.14,34.74L150.43,32.07L151.01,33.41L151.3,31.55L151.59,34.45L151.88,32.89L152.17,32L152.46,33.04L152.74,31.48L153.03,30.52L153.32,30.66L153.61,29.7L153.9,32.22L154.19,30.44L154.48,30.66L154.77,30.59L155.06,31.33L155.35,30.14L155.93,30.52L156.22,30.81L157.37,28.37L157.66,30.07L157.95,28.74L158.24,29.4L158.53,30.22L158.82,30.52L159.11,29.48L159.69,30.44L159.98,28.66L160.56,27.7L160.84,27.85L161.13,28.81L161.42,29.26L161.71,32L162.29,27.77L162.58,29.4L162.87,28.22L163.16,29.03L163.45,27.85L163.74,27.25L164.32,30.29L164.61,27.48L165.47,25.62L165.76,26.66L166.63,29.26L166.92,28.14L167.21,28.96L167.5,28.81L167.79,26.36L168.08,25.62L168.37,26.81L168.66,28.66L169.23,29.85L169.52,26.81L170.1,27.92L170.39,27.03L171.26,24.88L171.55,26.73L171.84,27.7L172.13,25.25L172.42,28.22L172.71,26.29L172.99,25.99L173.28,28.22L173.57,25.32L173.86,26.73L174.15,27.92L174.44,25.32L174.73,28.51L175.02,26.44L175.31,26.44L175.6,23.92L175.89,27.03L176.18,26.73L177.05,25.7L177.33,25.99L177.62,25.1L177.91,25.84L178.2,26.88L178.49,26.96L178.78,26.14L179.07,26.29L179.36,25.7L179.65,24.06L180.52,25.99L180.81,25.84L181.1,24.29L181.38,25.92L181.67,27.48L182.25,23.25L182.83,23.77L183.12,23.84L183.41,25.99L183.99,24.88L184.28,24.29L185.15,25.18L185.43,24.51L185.72,24.21L186.3,26.59L186.59,23.17L187.17,25.1L187.46,24.51L187.75,24.21L188.04,23.1L188.62,23.47L188.91,23.69L189.2,22.66L189.48,23.92L189.77,24.88L190.64,26.59L190.93,23.03L191.51,24.43L191.8,23.17L192.09,23.32L192.38,26.07L193.25,22.8L193.53,23.47L193.82,23.1L194.11,24.21L194.4,22.43L194.69,23.32L194.98,23.92L195.27,22.58L195.56,24.66L195.85,25.55L196.14,22.88L196.72,23.32L197.01,23.32L197.87,21.77L198.16,23.47L198.74,22.95L199.03,24.43L199.61,21.99L200.19,22.28L200.48,23.47L201.35,21.91L201.63,23.1L201.92,21.32L202.5,21.77L202.79,23.1L203.08,21.25L203.37,22.8L203.66,22.43L203.95,21.02L204.24,21.99L204.53,23.1L204.82,25.03L205.11,24.43L205.4,22.28L205.97,21.25L206.26,23.17L207.13,21.62L207.42,22.88L207.71,23.69L208,23.03L208.29,20.73L208.87,22.51L209.45,22.28L209.73,22.58L210.02,21.91L210.31,23.17L211.47,20.88L211.76,21.91L212.92,22.8L213.21,21.84L214.36,20.65L214.65,21.32L215.52,21.91L215.81,22.8L217.26,20.95L217.55,21.91L217.83,21.91L218.12,20.58L218.41,20.36L218.7,22.21L218.99,20.8L219.28,22.43L219.57,21.99L219.86,22.06L220.15,20.88L221.02,18.72L221.31,20.43L221.88,21.17L222.17,19.32L223.04,19.76L223.33,19.99L223.91,18.87L224.2,19.1L224.49,19.99L225.65,17.91L225.93,18.95L226.22,19.02L226.51,20.21L227.09,19.02L227.38,19.99L227.96,20.36L228.25,19.84L228.54,21.02L229.41,18.13L229.7,19.24L230.27,19.17L230.56,17.98L230.85,19.17L231.14,19.02L231.43,18.13L231.72,17.91L232.01,18.5L232.3,19.84L233.46,18.06L233.75,18.87L234.32,17.98L234.61,19.17L234.9,18.13L235.19,19.02L235.48,20.28L236.06,20.73L236.64,18.43L236.93,17.76L237.51,19.24L237.8,18.58L238.09,18.95L238.37,20.95L238.66,18.5L238.95,18.8L239.53,19.84L239.82,18.65L240.69,19.1L240.98,18.06L242.42,19.32L242.71,17.61L243.58,19.02L243.87,18.35L244.16,18.35L244.45,17.91L244.74,18.28L245.03,18.5L245.32,18.72L245.61,18.06L245.9,18.13L246.47,19.91L246.76,18.95L247.05,18.58L248.21,18.13L248.5,18.13L249.08,19.76L249.37,17.02L250.24,19.17L250.52,19.1L250.81,18.95L251.39,17.39L251.68,19.39L252.26,17.32L252.55,17.91L252.84,18.35L253.71,17.39L254,19.32L254.86,17.61L255.15,18.95L255.44,19.39L255.73,17.61L256.02,18.72L256.31,17.61L256.6,17.61L256.89,18.65L257.47,18.06L257.76,18.58L258.05,18.35L258.34,19.24L258.62,19.84L258.91,18.21L259.78,18.35L260.07,18.8L260.65,17.61L260.94,18.65L261.23,16.94L261.52,19.24L261.81,19.24L262.67,17.17L262.96,17.69L263.25,17.54L263.54,18.35L263.83,19.32L264.12,18.21L264.41,18.58L265.28,18.06L265.57,18.72L266.15,16.5L266.44,17.24L266.72,18.35L267.01,19.02L267.3,17.98L267.59,18.13L267.88,19.32L268.17,17.32L268.75,18.21L269.04,17.39L269.33,18.43L269.62,18.21L269.91,17.09L270.49,18.8L270.77,18.06L271.06,18.65L271.64,19.02L271.93,16.94L272.22,18.65L272.51,17.54L273.09,17.91L273.38,19.32L274.25,16.72L274.54,18.43L275.4,17.76L275.69,19.39L276.56,17.46L276.85,18.72L277.14,17.32L277.72,17.76L278.01,18.21L278.3,18.72L278.59,17.54L279.45,18.65L279.74,17.32L280.03,19.24L280.32,18.65L280.61,17.02L280.9,18.28L281.19,18.13L281.48,16.94L283.21,17.98L283.5,17.32L284.37,17.83L284.66,19.17L284.95,17.76L285.24,20.43L286.11,17.32L286.4,17.09L287.55,19.76L287.84,18.5L288.13,17.69L288.42,18.5L288.71,18.5L289,17.76" style="vector-effect: non-scaling-stroke; fill: none; stroke: rgb(31, 119, 180); stroke-opacity: 1; stroke-width: 2px; opacity: 1;"/></g><g class="points"/><g class="text"/></g><g class="trace scatter trace167365" style="stroke-miterlimit: 2; opacity: 1;"><g class="fills"/><g class="errorbars"/><g class="lines"><path class="js-line" d="M0,313.5L1.16,267L1.45,263.96L2.6,247.87L3.18,248.98L3.47,247.94L4.34,238.68L4.63,239.64L4.92,239.27L5.21,235.12L5.79,234.82L6.08,236.52L6.36,232.15L6.65,232.3L6.94,235.04L8.1,226.88L8.39,228.52L8.68,222.66L8.97,230.81L9.26,223.77L9.55,229.11L9.84,219.1L10.13,224.21L10.41,225.7L10.7,225.48L10.99,223.1L11.28,218.13L11.86,218.65L12.15,221.62L12.73,219.77L13.02,222.21L13.6,211.46L13.89,214.28L14.18,217.1L14.46,218.58L14.75,217.1L15.04,216.8L15.33,215.46L15.62,210.42L15.91,212.65L16.2,208.49L16.49,208.79L16.78,207.01L17.36,204.04L17.65,208.72L18.51,204.86L18.8,204.19L19.09,208.94L19.38,206.19L19.67,204.41L19.96,205.68L20.25,203.38L20.83,200.86L21.12,204.49L21.41,204.04L21.7,199.15L22.28,201L22.56,198.7L22.85,197.37L23.14,201.6L23.43,193.37L24.01,193.44L24.3,199.59L25.17,190.32L25.46,191.66L26.04,195.59L26.33,184.99L26.9,193.07L27.48,192.4L27.77,184.1L28.64,191.81L28.93,182.91L29.51,187.88L29.8,183.72L30.09,189.14L30.38,181.87L30.66,185.06L31.24,183.72L31.53,178.53L31.82,186.77L32.11,181.28L32.4,180.98L32.98,175.64L33.27,185.21L33.56,178.39L33.85,185.95L34.14,183.8L35,177.72L35.29,180.76L35.87,179.65L36.16,176.68L36.45,173.49L36.74,177.42L37.03,177.12L37.32,177.57L37.61,166.82L37.9,176.61L38.48,174.83L38.76,178.61L39.34,170.23L39.63,173.71L39.92,180.39L40.21,170.6L40.5,175.42L41.08,173.19L41.37,177.57L42.81,167.78L43.1,173.71L43.68,173.94L43.97,170.38L44.26,172.01L44.55,172.45L44.84,170.08L45.42,166.45L45.71,164.44L46.86,173.86L47.15,170.23L47.44,171.56L47.73,166.82L48.02,168L48.31,172.75L48.6,172.23L48.89,166.08L49.18,166L49.47,169.49L49.76,170.6L50.05,168.23L50.34,171.34L50.63,167.56L50.91,166L51.2,167.34L51.49,162.81L52.07,167.93L52.65,167.56L52.94,166.89L53.23,163.18L53.52,163.85L53.81,167.63L54.1,170.15L54.39,169.12L54.68,165.78L54.96,166.15L55.25,163.85L55.54,166.52L55.83,162.37L56.12,165.26L56.41,158.44L56.7,168.6L57.28,166.89L57.57,162.59L57.86,165.63L58.15,164.44L58.44,160.81L58.73,166.74L59.02,159.4L59.3,162.07L60.17,168.67L60.46,166.82L60.75,166.74L61.04,164.96L61.62,160.96L61.91,165.19L62.49,163.33L62.78,156.81L63.35,164.89L63.64,163.48L63.93,159.48L64.22,160.81L64.51,160.44L64.8,159.18L65.09,168.3L65.38,159.99L65.67,157.32L66.25,164.22L66.54,155.84L66.83,163.11L67.4,159.33L67.69,163.03L68.56,157.03L68.85,158.21L69.14,157.55L69.43,164.67L69.72,159.18L70.01,157.18L70.3,156.36L70.59,161.03L70.88,158.21L71.17,159.55L71.45,162.44L71.74,154.66L72.32,157.18L72.61,163.33L72.9,156.06L73.48,156.66L73.77,159.99L74.35,155.84L74.64,158.51L74.93,151.91L75.5,154.14L75.79,155.92L76.08,156.06L76.37,159.4L76.66,148.87L76.95,151.99L77.24,159.48L77.53,160.07L77.82,159.7L78.11,157.99L78.4,153.25L78.69,156.36L78.98,156.81L79.84,153.91L80.13,156.81L80.42,153.39L80.71,156.06L81,155.77L81.58,154.43L81.87,155.69L82.45,154.88L82.74,156.29L83.03,151.69L83.6,151.99L83.89,151.76L84.18,155.77L84.47,153.25L84.76,150.8L85.34,156.95L85.63,155.62L85.92,154.06L86.21,153.32L86.5,149.46L86.79,158.07L87.08,152.58L87.37,148.43L87.65,155.62L88.23,153.39L88.52,157.7L88.81,150.5L89.39,152.43L89.68,148.57L90.26,139.38L90.55,145.68L90.84,140.19L91.13,140.49L91.42,144.05L91.99,138.56L92.28,143.01L92.57,144.64L92.86,142.64L93.15,139.53L93.73,134.04L94.02,140.94L94.31,136.41L94.6,138.71L94.89,141.38L95.18,142.64L95.47,136.26L96.04,143.46L96.33,137.6L96.91,143.61L97.2,138.71L97.49,136.41L97.78,139.9L98.07,139.08L98.36,135.6L98.65,139.82L98.94,142.72L99.23,139.38L99.8,140.27L100.09,138.86L100.38,134.56L100.67,141.46L100.96,140.12L101.25,134.48L101.54,140.86L102.12,139.23L102.41,140.71L102.7,137.75L102.99,139.97L103.28,140.42L103.57,141.08L103.85,140.86L104.14,138.64L104.43,138.34L104.72,135.23L105.01,142.49L105.59,140.94L105.88,139.82L106.17,141.38L106.46,139.82L106.75,139.6L107.04,134.86L107.33,138.04L107.62,141.75L107.9,141.23L108.19,137.08L108.48,139.08L108.77,136.63L109.06,137.45L109.64,136.93L109.93,138.79L110.22,135.67L110.8,135.74L111.09,142.57L111.38,136.19L111.95,136.49L112.24,137.67L112.53,134.26L112.82,137.67L113.11,140.42L113.69,136.04L113.98,140.12L114.27,140.42L114.56,139.16L115.14,140.42L115.43,142.34L115.72,139.38L116.29,139.6L116.58,139.16L117.16,142.12L117.45,137.3L117.74,139.82L118.03,135.15L118.32,138.12L118.61,134.11L118.9,135.3L119.48,142.2L119.77,136.63L120.06,134.04L120.34,134.56L120.63,137.6L120.92,143.75L121.21,138.86L121.5,138.49L121.79,137.15L122.08,143.23L122.66,132.04L123.24,132.48L123.53,138.86L124.39,135L124.68,136.12L124.97,140.71L125.55,140.19L125.84,141.16L126.13,136.93L126.71,137.52L127,136.19L127.29,138.27L127.87,138.12L128.16,137.6L129.02,141.6L129.31,139.97L129.6,133.67L130.18,139.75L130.47,137.38L130.76,139.75L131.05,137.3L131.34,138.86L131.63,139.53L131.92,136.93L132.21,138.41L132.49,144.2L132.78,132.56L133.36,132.78L133.65,136.86L133.94,133.59L134.23,136.04L134.52,136.41L134.81,131.52L135.39,132.56L135.68,133.89L136.26,130.48L136.54,133.22L136.83,135.15L137.12,133.59L137.41,130.7L137.99,138.19L138.28,134.71L138.57,132.26L138.86,136.34L139.15,133.15L139.44,132.63L140.02,136.26L140.31,135.74L140.59,134.19L140.88,135.67L141.17,129.07L142.04,137.3L142.33,133.15L142.91,137.67L143.2,133.22L144.07,136.93L144.36,132.78L144.64,131.52L144.93,132.93L145.22,134.04L145.8,135L146.09,133.52L146.38,133.08L146.67,135.97L147.25,132.78L147.54,134.41L147.83,132.7L148.12,132.56L148.41,137.08L148.69,132.33L149.27,135.23L149.56,134.26L149.85,140.42L150.14,135.37L150.43,131.3L150.72,137.9L151.01,129.89L151.3,131.52L152.17,138.41L152.46,134.86L152.74,134.56L153.03,131.67L153.32,132.85L153.61,130.85L153.9,134.48L154.19,130.55L154.48,134.19L154.77,132.26L156.22,135.89L156.51,130.03L156.79,134.63L157.08,132.11L157.37,130.41L157.66,133.89L158.24,132.26L158.53,134.86L158.82,137.23L159.11,134.34L159.4,132.93L159.69,135.52L159.98,128.55L161.42,138.41L161.71,135.67L162.58,130.48L162.87,133.37L163.16,133.45L163.45,135.3L163.74,133.97L164.03,139.6L164.32,131L164.89,135.6L165.18,132.41L165.47,133.45L165.76,137.3L166.34,132.41L166.63,134.26L166.92,132.04L167.21,135.37L167.5,134.48L167.79,129.89L168.66,136.56L168.94,132.33L169.81,137.6L170.1,133.67L170.39,140.05L170.68,132.78L170.97,132.56L171.26,133L171.55,131.81L172.13,135.23L172.42,132.63L172.71,137.38L172.99,136.49L173.28,132.26" style="vector-effect: non-scaling-stroke; fill: none; stroke: rgb(255, 127, 14); stroke-opacity: 1; stroke-width: 2px; opacity: 1;"/></g><g class="points"/><g class="text"/></g><g class="trace scatter trace9a03a8" style="stroke-miterlimit: 2; opacity: 1;"><g class="fills"/><g class="errorbars"/><g class="lines"><path class="js-line" d="M0,295.85L0.87,247.5L1.16,248.09L1.45,242.01L2.31,237.93L2.6,226.07L2.89,224.59L3.18,224.81L3.47,218.21L3.76,220.21L4.05,212.94L6.08,195L6.36,195.29L7.52,184.32L7.81,192.18L9.55,171.93L9.84,175.86L10.13,175.94L10.41,173.79L11.86,163.85L12.15,166L12.44,170.67L12.73,165.78L13.02,164.96L13.31,164L13.6,155.77L14.18,162.66L14.46,156.88L14.75,159.85L15.33,159.18L15.62,157.4L16.2,152.28L16.49,155.32L16.78,157.99L17.94,147.39L18.23,148.43L18.51,153.54L18.8,152.28L19.09,150.21L19.38,148.87L19.67,143.23L20.54,152.95L20.83,145.31L21.7,150.28L21.99,142.64L22.28,139.82L22.56,144.72L22.85,142.42L23.14,146.35L24.01,139.3L24.3,145.9L25.17,136.71L25.46,137.82L25.75,136.19L26.04,141.6L26.33,133.22L26.61,138.34L26.9,135.45L27.48,140.86L27.77,136.19L28.06,139.68L28.35,135.37L28.64,134.19L29.22,134.86L29.51,138.49L29.8,134.71L30.38,135.08L30.66,134.19L30.95,136.04L31.24,133.15L31.53,130.63L31.82,130.63L32.11,129.44L32.69,133.67L32.98,127.29L33.56,130.41L33.85,139.01L34.71,129.14L35,129.96L35.29,133.97L35.58,128.92L35.87,130.55L37.03,124.25L37.32,126.25L37.61,125.14L37.9,132.04L38.19,126.4L38.76,128.7L39.05,132.48L39.34,122.47L39.63,124.03L39.92,128.55L40.79,123.81L41.08,123.66L41.37,127.22L41.95,126.1L42.24,124.84L42.53,121.28L42.81,125.29L43.1,123.88L43.39,121.14L43.68,126.85L43.97,121.95L44.26,125.07L44.55,128.4L44.84,118.99L45.42,120.84L45.71,125.21L46.29,115.28L46.58,118.99L46.86,127.81L47.44,118.69L47.73,120.54L48.02,120.54L48.31,122.92L48.6,121.51L48.89,121.06L49.18,115.72L49.76,118.47L50.05,122.32L50.34,125.73L50.63,119.43L50.91,117.65L51.2,123.51L52.36,111.64L52.65,113.5L52.94,121.43L53.23,111.27L53.52,114.83L54.1,114.31L54.39,120.62L54.68,114.31L54.96,118.69L55.54,116.61L55.83,115.35L56.12,117.21L56.41,111.64L56.7,115.43L56.99,107.64L57.28,115.28L57.86,113.79L58.15,112.83L58.44,109.05L58.73,115.43L59.02,112.61L59.3,116.91L59.59,117.28L60.46,113.87L60.75,117.06L61.62,108.97L61.91,113.35L62.2,114.98L62.49,111.64L62.78,108.23L63.07,115.35L63.64,116.54L64.22,110.09L64.51,107.49L65.67,115.43L65.96,111.27L66.25,113.72L66.54,106.01L67.12,115.13L67.69,115.06L67.98,112.31L68.27,114.17L68.56,109.49L69.14,108.01L69.43,117.72L69.72,107.12L70.3,111.12L70.59,110.61L70.88,106.38L71.74,112.09L72.03,108.75L72.32,107.49L72.61,115.06L73.48,109.27L73.77,109.79L74.06,107.64L74.93,110.46L75.22,106.9L75.79,106.16L76.37,113.2L76.66,102.37L77.53,111.79L77.82,110.16L78.11,106.9L78.4,109.79L78.69,104.6L79.27,110.16L79.55,106.75L79.84,104.38L80.13,108.68L80.71,106.53L81,102.82L81.29,102.74L81.58,109.94L82.16,105.64L82.45,106.38L82.74,110.09L83.89,104.23L84.18,105.12L84.47,104.45L84.76,107.57L85.05,110.9L85.34,109.94L85.63,105.41L85.92,101.26L86.21,110.46L86.5,103.19L87.08,104.82L87.37,102.6L88.52,110.46L88.81,104.08L89.1,106.97L89.68,106.68L89.97,103.19L90.26,100L90.55,104.6L90.84,103.93L91.13,103.34L91.42,107.05L91.7,102.82L91.99,106.16L92.28,107.49L92.86,107.42L93.15,103.93L93.44,104.01L93.73,102L94.89,108.16L95.18,104.82L95.47,101.26L95.75,105.49L96.04,105.71L96.33,99.93L96.62,103.71L96.91,108.97L97.49,99.56L97.78,104.82L98.07,109.05L98.36,101.86L98.94,103.63L99.23,103.49L99.8,107.19L100.09,101.71L100.38,101.11L100.67,102.89L101.25,101.26L101.54,104.38L102.12,102.15L102.41,104.67L102.7,100.3L102.99,102.6L103.28,103.86L103.57,104.67L103.85,101.26L104.43,104.67L104.72,99.04L105.01,105.79L105.59,104.67L105.88,103.41L107.04,101.78L107.33,106.9L107.9,104.23L108.19,100.89L109.06,105.64L109.35,98.74L109.93,101.34L110.22,96.22L110.8,101.56L111.09,101.48L111.38,98.67L111.95,104.52L112.24,102.6L112.53,99.7L112.82,94.96L113.11,102.6L113.4,97.26L113.69,99.93L113.98,100.59L114.56,103.78L114.85,101.04L115.14,99.85L115.43,103.86L115.72,96.37L116.01,101.11L116.29,102.82L116.58,104.08L116.87,99.04L117.45,104.97L117.74,100.15L118.03,98.44L118.32,101.04L118.61,99.33L118.9,98.89L119.19,99.19L119.48,103.71L119.77,95.03L120.06,97.33L120.34,101.48L120.63,98.52L120.92,102.6L121.21,104.23L121.79,95.85L122.08,104.15L122.37,97.18L122.66,98.3L122.95,101.93L123.82,96.52L124.11,102.15L124.39,98.67L124.97,100.52L125.26,106.53L126.13,99.78L126.42,102.6L127.29,98.22L127.58,101.71L128.44,96.37L128.73,101.86L129.02,100.67L129.31,96.14L129.6,102.3L129.89,97.63L130.18,96.59L130.47,100.89L130.76,97.63L131.05,97.33L132.21,105.19L132.49,100L133.07,94.59L133.36,96.14L133.65,98.89L133.94,95.11L134.23,96.52L134.52,100.82L134.81,99.26L135.1,102.67L136.26,95.03L136.54,97.48L136.83,95.4L137.12,96.89L137.41,99.78L137.7,94.96L137.99,101.19L138.28,97.03L138.57,96.74L138.86,95.77L139.15,96.14L139.44,97.33L140.02,103.19L140.31,102.82L140.59,99.04L140.88,100.59L141.17,94.81L142.33,102.97L142.62,101.04L143.49,96.59L143.78,98.3L144.07,99.93L144.36,96.89L144.64,92.81L144.93,98.22L145.22,104.97L145.51,94.74L146.09,100.22L146.38,95.48L146.67,98.22L146.96,95.18L147.25,97.63L147.54,90.21L148.69,77.98L148.98,77.98L149.27,80.79L149.56,76.94L149.85,77.46L150.72,74.27L151.01,79.24L151.3,76.42L151.59,81.68L151.88,77.46L152.46,77.75L152.74,76.86L153.61,74.27L153.9,75.16L154.19,74.79L154.48,75.23L154.77,73.23L155.35,78.35L155.93,77.75L156.22,74.34L156.51,75.01L156.79,73.82L157.08,73.9L157.37,73.08L157.66,74.34L157.95,75.6L158.24,74.19L158.53,75.38L158.82,75.97L159.98,69.15L160.27,74.79L160.56,69.97L161.13,72.56L161.42,74.57L161.71,75.46L162,72.27L162.29,77.9L162.58,70.63L162.87,68.26L163.16,76.42L163.74,73.3L164.03,73.38L164.61,74.42L164.89,69.82L165.18,74.64L165.47,69.74L165.76,73.82L166.05,72.56L166.63,74.19L166.92,71.01L167.21,76.27L167.5,73.01L167.79,71.15L168.08,68.48L168.37,71.67L168.66,74.12L169.23,75.9L169.52,70.93L169.81,70.86L170.1,73.82L170.68,71.3L170.97,68.63L172.13,72.34L172.42,69.89L173.28,75.23L173.57,75.31L174.15,70.41L174.73,71.23L175.02,69.89L175.6,72.12L175.89,70.56L176.18,69.52L176.47,71.6L176.76,74.94L177.05,74.79L177.33,71.97L177.91,67.82L178.2,70.78L178.49,69.74L178.78,68.63L179.07,72.34L179.36,71.9L179.65,68.41L180.23,73.75L180.52,71.97L180.81,70.34L181.1,68.93L181.38,71.97L181.67,72.41L181.96,70.78L182.25,71.23L182.54,69.23L182.83,68.41L183.12,71.45L183.41,67.59L183.7,69.97L183.99,70.49L184.28,68.26L184.57,69.82L184.86,70.93L185.72,67.97L186.01,72.49L186.3,72.86L186.59,67.08L187.75,73.9L188.04,71.38L188.33,67.15L188.62,72.93L188.91,67.82L189.2,66.7L189.77,72.41L190.06,66.56L190.64,72.12L190.93,68.56L191.51,72.93L191.8,67L192.38,73.16L192.67,69.74L192.96,67.52L193.25,70.63L193.82,70.04L194.11,68.11L194.69,68.48L194.98,72.49L195.27,67.74L195.56,68.63L195.85,72.41L196.14,67.82L196.72,70.04L197.01,66.93L197.3,64.48L197.58,70.49L197.87,67.52L198.16,71.45L198.45,67.74L198.74,66.7L199.03,71.52L199.61,69.67L199.9,69L200.19,70.86L200.77,70.12L201.06,66.93L201.35,67.15L201.63,72.41L202.5,67.59L202.79,67.3L203.08,67.15L203.37,72.27L204.82,66.04L205.11,69.3L205.68,68.78L206.26,70.34L206.55,67.59L206.84,68.11L207.13,67.45L207.42,66.56L207.71,70.71L208,67L208.29,66.56L208.58,66.19L208.87,67.82L209.16,67.59L209.45,71.52L210.02,67.59L210.31,71.23L211.18,63.74L211.47,67.89L211.76,67.37L212.05,68.63L212.34,67.67L212.63,71.67L212.92,67.82L213.5,69.15L213.78,69.74L214.07,70.71L214.36,65.07L214.65,63.96L214.94,67.89L215.81,68.11L216.1,69.89L216.39,69.52L216.68,73.38L217.55,65.22L217.83,68.71L218.12,63.44L218.7,66.11L218.99,70.12L219.86,66.26L220.15,65.22L220.73,65.67L221.02,61.37L221.31,64.41L221.6,65.59L221.88,63.37L222.17,64.92L222.46,64.33L222.75,63.44L223.04,63.74L223.33,60.99L223.62,60.92L223.91,63.07L224.2,62.63L224.49,60.1L225.36,64.92L225.65,60.25L225.93,64.48L226.22,63.52L226.51,60.55L227.38,62.33L227.67,64.41L228.25,63.37L228.54,66.85L229.12,60.85L229.7,62.4L229.98,63.37L230.27,63.37L230.56,61.37L230.85,61.37L231.14,63.22L231.72,58.84L232.01,62.7L232.3,66.11L232.59,62.48L232.88,62.63L233.17,60.7L233.46,61.66L233.75,62.48L234.04,62.03L234.32,60.1L234.61,62.48L235.19,61.66L235.48,62.26L235.77,65.81L236.35,63.81L236.64,65.15L236.93,61.88L237.22,65.3L237.51,64.11L238.09,59.59L238.37,64.26L239.53,58.1L239.82,62.7L240.11,63.37L240.4,59.51L241.56,63.37L241.85,61.88L242.14,61.51L242.42,63.07L242.71,60.7L243,61.51L243.29,65.37L244.45,59.81L244.74,60.7L245.03,59.29L245.32,61.81L245.61,61.88L245.9,60.85L246.19,61.14L246.47,63.52L246.76,59.66L247.05,62.18L247.34,62.48L247.63,63.29L247.92,61.51L248.79,62.48L249.08,60.4L249.37,63.81L249.95,63L250.24,58.32L251.1,63.29L251.39,61.74L251.68,60.92L251.97,63.96L252.26,58.7L252.55,58.55L252.84,65.15L253.13,57.36L253.71,59.81L254,63.37L254.57,64.55L254.86,62.03L255.73,60.03L256.02,60.85L256.31,60.33L256.6,63.66L256.89,63.81L257.18,61.66L257.47,62.33L257.76,61.14L258.05,59.81L258.91,63.22L259.2,60.55L259.49,59.29L259.78,63.44L260.94,59.96L261.23,60.1L262.39,63.59L262.67,64.18L264.12,59.59L264.41,64.85L265.86,59.88L266.15,59.44L266.44,58.62L266.72,62.18L267.01,62.11L267.3,58.92L268.46,62.48L268.75,60.4L269.04,61.14L269.33,59.07L269.62,63.52L269.91,59.81L270.2,60.18L270.49,60.62L270.77,63.22L271.06,62.7L271.35,60.1L271.93,58.32L272.22,63.66L272.51,64.26L272.8,62.85L273.38,59.36L273.67,60.85L273.96,63.66L274.25,63.14L274.54,64.18L275.4,60.03L275.69,61.59L275.98,63.66L276.56,59.36L276.85,62.55L278.01,60.03L278.3,61.07L278.59,58.47L278.87,60.92L279.16,60.92L279.45,60.62L279.74,62.4L280.03,63L280.32,62.7L280.61,59.21L280.9,62.4L281.48,61.96L281.77,62.92L282.06,59.81L282.64,60.85L282.92,62.85L283.21,63.44L283.5,58.77L284.08,58.03L284.66,62.4L284.95,61.07L285.24,60.99L285.53,58.1L286.11,63.89L286.4,59.21L286.69,60.03L286.97,57.43L287.26,63.22L287.84,61.51L288.13,60.1L288.71,60.99L289,59.14" style="vector-effect: non-scaling-stroke; fill: none; stroke: rgb(44, 160, 44); stroke-opacity: 1; stroke-width: 2px; opacity: 1;"/></g><g class="points"/><g class="text"/></g><g class="trace scatter trace400e98" style="stroke-miterlimit: 2; opacity: 1;"><g class="fills"/><g class="errorbars"/><g class="lines"><path class="js-line" d="M0,281.54L1.16,219.02L1.45,209.01L2.31,191.73L2.6,185.8L4.05,161.55L4.34,164L4.92,160.29L5.21,155.69L6.65,144.64L6.94,146.72L8.1,136.34L8.39,141.08L8.68,133.08L9.26,136.12L9.55,131.81L9.84,130.63L10.13,132.26L10.41,134.11L11.57,123.43L11.86,123.73L12.15,123.66L12.44,125.59L12.73,120.69L13.02,121.8L13.31,120.69L13.6,119.65L14.46,116.32L14.75,118.99L15.04,114.39L15.33,117.28L15.62,119.8L16.2,107.34L16.49,114.76L16.78,110.75L17.07,113.05L17.36,106.9L17.65,106.6L17.94,107.57L18.23,105.19L18.51,105.49L18.8,111.94L19.67,102.67L19.96,108.01L20.54,101.11L20.83,102.08L21.12,99.63L21.41,104.82L21.7,104.67L21.99,101.19L22.85,97.33L23.14,99.04L23.72,97.92L24.01,93.33L24.3,103.19L24.59,96.89L24.88,95.63L25.17,92.81L25.46,96.29L25.75,96L26.04,96.29L26.33,88.88L27.19,97.18L27.48,94.74L27.77,91.7L28.06,96.07L28.35,94.66L28.64,90.58L28.93,90.14L29.22,91.7L29.8,87.1L30.09,91.47L30.66,91.99L30.95,88.66L31.24,92.88L32.11,85.32L32.4,89.54L33.27,84.35L33.56,87.99L34.14,90.29L34.43,90.06L34.71,84.28L35,83.02L35.29,87.1L36.45,84.06L36.74,84.72L37.32,85.39L37.61,80.94L37.9,83.54L38.19,80.72L38.48,84.35L38.76,81.31L39.05,81.24L39.34,82.5L39.63,80.13L39.92,83.24L40.21,81.61L40.5,77.75L40.79,77.68L41.08,81.02L41.37,84.95L41.66,81.09L41.95,79.46L42.24,81.24L42.53,78.27L42.81,76.94L43.1,79.76L43.97,81.02L44.26,80.2L44.55,80.35L44.84,73.9L45.13,75.08L45.42,79.61L46.29,73.3L46.58,73.97L46.86,80.5L48.02,75.16L48.31,78.35L49.18,70.86L49.47,74.34L50.05,73.45L50.34,77.83L51.49,75.16L51.78,79.83L52.36,72.27L52.65,73.08L52.94,76.79L53.23,70.19L53.81,73.97L54.1,73.01L54.39,75.53L54.68,73.16L54.96,70.12L55.25,73.9L55.83,71.97L56.12,72.79L56.41,68.04L56.7,73.82L56.99,69.82L57.28,70.19L57.57,74.27L57.86,72.71L58.15,69.3L58.44,67.97L58.73,70.26L59.02,73.3L59.59,71.38L59.88,67.74L60.46,76.49L60.75,71.15L61.04,70.34L61.33,66.7L61.62,68.78L61.91,73.38L62.2,74.12L62.49,70.56L62.78,67.08L63.07,74.05L64.22,66.7L64.51,68.11L64.8,67.45L65.09,71.15L65.38,65.44L65.67,71.45L65.96,70.93L66.25,71.82L66.54,66.33L66.83,65.3L67.12,72.27L67.69,68.11L67.98,70.86L69.14,64.26L69.43,67.89L69.72,63.29L70.3,64.11L70.59,65.59L71.74,70.26L72.03,67.52L72.32,63.44L72.61,66.85L72.9,67.52L73.19,65.3L73.48,68.86L73.77,67.3L74.06,67.3L74.35,63.59L74.64,66.78L74.93,66.04L75.22,64.41L75.5,68.56L75.79,63.74L76.08,65L76.37,70.49L76.66,63.89L76.95,67.08L77.24,65.07L77.53,67.37L77.82,70.56L78.69,59.36L78.98,68.71L80.13,61.29L80.42,60.1L80.71,66.93L81,61.51L81.29,61.37L81.87,66.41L82.16,62.11L83.03,63.66L83.32,69.82L83.89,59.73L84.18,61.66L84.47,62.63L84.76,63L85.05,61.96L85.63,65.96L85.92,62.7L86.21,65.15L86.5,63L86.79,63.22L87.08,58.84L87.65,59.81L87.94,62.33L88.23,64.63L88.81,64.48L89.1,65.15L89.39,64.41L89.68,59.88L89.97,62.92L90.26,57.43L90.55,62.48L91.13,61.96L91.42,64.48L91.7,61.29L92.28,62.85L92.57,63L92.86,59.21L93.44,59.88L93.73,61.59L94.02,65.67L94.31,60.25L94.6,59.29L95.18,65.67L95.47,55.06L96.04,61.74L96.33,57.95L96.62,61.66L96.91,63.29L97.2,61.74L97.49,61.96L98.07,61.29L98.36,60.25L98.94,61.88L99.23,59.51L100.09,61.88L100.38,60.77L100.67,62.48L100.96,60.92L101.25,58.18L101.54,60.03L101.83,59.44L102.12,57.81L102.41,61.88L102.7,55.21L103.28,64.11L103.57,62.63L103.85,57.95L104.43,60.62L104.72,56.32L105.59,61.66L105.88,59.96L106.17,59.73L106.46,63.81L106.75,63.29L107.04,53.65L108.19,62.85L108.48,58.55L109.06,62.7L109.35,55.28L109.64,60.33L110.22,58.1L110.51,60.62L110.8,56.47L111.09,57.81L111.38,60.18L111.67,57.88L111.95,61.14L112.24,65.59L112.82,55.21L113.11,56.92L113.4,61.37L113.69,53.8L113.98,57.14L114.27,62.03L114.56,61.44L114.85,56.25L115.43,60.4L115.72,54.02L116.29,58.92L116.58,58.55L116.87,55.06L117.45,59.29L117.74,58.47L118.03,59.96L118.61,54.62L118.9,57.88L119.19,54.99L119.48,60.25L120.06,60.03L120.34,59.96L120.63,58.18L120.92,59.59L121.21,60.55L121.79,54.62L122.08,61.81L123.24,55.14L123.53,57.36L124.68,57.81L124.97,59.36L125.55,57.14L125.84,59.29L126.13,60.1L126.42,56.25L126.71,58.4L127,56.25L127.29,56.4L127.87,58.84L128.16,54.77L128.73,59.73L129.02,58.03L129.31,56.25L129.6,58.32L129.89,56.17L130.18,55.73L130.76,59.14L131.05,58.25L131.34,55.28L131.63,54.02L131.92,58.92L132.21,62.18L132.49,59.44L132.78,57.36L133.36,52.39L133.65,55.36L133.94,53.88L134.23,58.03L134.52,60.85L134.81,55.95L135.1,54.77L135.39,56.99L135.68,60.33L135.97,56.32L136.26,55.06L136.54,54.02L136.83,57.51L137.41,57.21L137.7,55.73L137.99,54.91L138.28,57.88L138.57,59.36L138.86,54.17L139.15,56.17L139.44,52.02L140.31,56.32L140.59,54.91L140.88,53.95L141.17,57.43L141.46,56.17L141.75,50.76L142.04,57.36L142.62,54.77L142.91,53.88L143.78,57.73L144.07,53.8L144.36,56.54L144.64,53.65L144.93,55.21L145.22,53.5L145.51,52.32L145.8,57.51L146.09,58.4L146.38,56.62L146.67,57.73L146.96,55.43L147.25,60.18L147.54,48.39L148.12,40.08L148.69,40.53L148.98,36.97L149.27,39.71L149.56,37.71L149.85,36.97L150.72,34.82L151.01,37.49L151.3,36.82L151.59,37.63L151.88,34.97L152.17,36.23L152.46,35.19L152.74,34.82L153.61,33.93L153.9,35.11L154.19,34.22L154.48,36.52L155.35,33.85L155.64,33.93L155.93,33.48L156.22,31.63L156.51,32.22L156.79,30.96L158.24,33.63L158.53,33.85L159.69,31.33L159.98,32.22L160.27,33.7L160.56,31.03L161.42,35.19L161.71,32.74L162.29,31.63L162.58,32.52L162.87,31.33L163.16,32.89L163.45,31.85L163.74,30.96L164.03,32.67L164.32,31.48L164.61,31.33L164.89,30.52L165.18,32L165.47,28.44L166.05,29.92L166.34,33.04L166.92,30.52L167.21,32.44L168.08,27.7L168.37,31.26L168.66,30.07L168.94,30.29L169.23,32.37L169.81,29.7L170.1,30.14L170.39,30.96L171.26,27.62L171.55,29.77L173.28,33.63L173.57,30.07L173.86,30.96L174.15,27.99L174.44,27.55L174.73,30.44L175.6,27.25L175.89,30.52L177.05,28.29L177.33,29.03L177.62,27.55L177.91,29.03L178.2,29.48L178.78,30.29L179.07,29.85L179.36,28.37L180.81,30.66L181.1,26.66L181.96,30.22L182.25,26.81L182.54,26.44L182.83,27.85L183.12,29.11L183.41,28.96L183.7,28.07L183.99,27.62L184.28,27.92L184.57,29.85L184.86,27.18L185.43,27.4L185.72,27.1L186.01,27.18L186.3,29.03L186.59,26.07L187.17,27.77L187.46,28.51L187.75,29.33L188.04,26.21L188.33,27.85L188.62,26.73L188.91,26.07L189.2,26.07L189.48,27.1L190.35,29.48L190.64,29.4L190.93,26.29L191.22,25.92L191.51,27.85L192.09,25.18L192.38,27.99L192.67,26.29L192.96,28.29L193.25,27.18L193.53,26.96L194.11,27.33L194.4,26.29L195.27,26.51L195.56,28.37L195.85,29.26L196.14,27.1L196.43,27.55L196.72,25.7L197.3,26.36L197.58,24.88L197.87,24.81L198.16,26.66L198.45,27.4L198.74,25.99L199.03,28.29L199.32,27.55L199.61,26.66L199.9,25.92L200.19,26.36L200.48,26.59L200.77,27.7L201.06,26.96L201.35,23.84L202.21,28.44L202.5,24.73L203.37,26.96L203.66,25.92L203.95,25.92L204.24,24.66L204.53,27.85L205.11,26.36L205.4,24.51L205.68,27.92L205.97,23.84L206.26,25.7L206.55,25.47L206.84,26.07L207.13,24.29L207.42,27.25L208,27.1L208.29,24.66L208.58,24.88L208.87,26.73L209.16,26.59L209.45,27.85L210.6,24.21L210.89,26.51L211.47,23.47L211.76,24.81L212.05,25.99L212.63,26.88L212.92,28.22L214.36,23.25L214.65,24.73L215.52,25.99L215.81,25.77L216.1,25.99L216.39,24.73L216.68,26.66L216.97,24.51L217.26,25.92L217.55,24.58L218.12,23.69L218.41,25.7L218.7,24.51L218.99,25.47L219.28,26.59L220.15,22.88L220.44,23.4L220.73,23.69L221.02,21.32L221.6,22.58L221.88,22.95L222.46,21.54L222.75,23.47L223.33,23.32L223.62,22.51L223.91,21.47L224.2,21.99L224.49,22.43L225.07,22.95L225.36,22.14L225.65,22.43L225.93,21.77L226.22,20.21L227.09,22.36L227.38,22.43L227.67,22.21L227.96,22.66L228.25,23.62L229.12,21.17L229.41,21.77L230.27,21.69L230.56,21.99L230.85,22.36L231.14,20.58L231.72,21.84L232.01,20.65L233.17,23.25L233.46,22.36L233.75,22.36L234.04,20.58L234.32,20.06L234.61,21.91L234.9,20.58L235.19,21.62L235.48,22.73L236.06,22.66L236.35,21.1L236.64,23.69L236.93,20.36L237.22,23.25L237.51,21.62L237.8,21.84L238.09,21.39L238.37,23.17L239.24,20.95L239.53,21.39L239.82,22.28L240.4,21.69L240.69,21.47L241.27,21.99L241.56,20.73L242.14,23.47L242.42,21.1L242.71,19.91L243,21.32L243.29,20.8L243.87,21.91L244.16,21.47L244.45,20.8L245.03,23.03L245.32,21.91L245.61,19.84L246.47,21.99L246.76,21.62L247.05,22.21L247.34,21.77L247.63,19.47L248.79,22.58L249.08,22.21L249.37,20.65L249.95,21.02L250.24,23.25L250.52,20.88L250.81,23.32L251.1,22.43L251.39,20.95L251.97,21.54L252.26,20.95L252.55,20.06L252.84,22.28L253.13,20.36L253.71,20.58L254,21.99L254.86,20.58L255.15,21.54L255.73,20.58L256.02,21.99L256.31,19.47L256.6,20.65L256.89,21.1L257.18,20.06L257.76,20.58L258.05,21.32L258.34,23.1L258.91,22.21L259.2,21.1L259.78,20.95L260.07,22.21L261.23,19.91L261.52,21.77L261.81,21.02L262.1,21.54L262.39,22.73L262.96,21.54L263.25,21.77L263.54,23.17L263.83,20.65L264.41,21.47L264.7,21.17L264.99,20.58L265.28,21.25L265.57,21.39L265.86,21.62L266.15,20.8L266.44,19.32L266.72,21.39L267.01,20.95L267.3,21.02L267.59,20.21L268.17,19.69L268.46,23.1L268.75,21.77L269.04,20.36L269.33,21.17L269.62,21.69L270.2,20.21L270.49,21.69L271.06,21.77L271.35,20.65L271.64,21.47L271.93,19.47L272.8,21.32L273.09,20.88L273.96,21.91L274.25,19.99L274.54,22.43L274.82,20.43L275.11,20.65L275.69,22.06L275.98,21.17L276.27,21.84L277.14,20.43L277.43,20.58L277.72,22.21L278.59,20.06L278.87,21.17L279.16,21.62L279.45,19.76L280.03,23.62L280.32,20.06L280.61,19.02L280.9,21.91L281.48,19.99L281.77,20.8L282.06,21.25L282.64,20.8L282.92,22.66L283.5,19.39L283.79,20.8L284.08,20.65L284.37,20.06L284.66,21.54L286.4,19.84L286.69,20.36L287.26,21.32L287.55,22.21L288.13,19.91L288.42,20.88L288.71,20.43L289,19.76" style="vector-effect: non-scaling-stroke; fill: none; stroke: rgb(214, 39, 40); stroke-opacity: 1; stroke-width: 2px; opacity: 1;"/></g><g class="points"/><g class="text"/></g><g class="trace scatter tracedea1f2" style="stroke-miterlimit: 2; opacity: 1;"><g class="fills"/><g class="errorbars"/><g class="lines"><path class="js-line" d="M0,290.96L0.87,233.86L1.16,235.41L1.45,228.96L2.89,211.68L3.18,209.83L3.47,211.24L3.76,206.27L4.05,205.45L4.34,202.34L4.63,203.01L4.92,196.41L5.21,198.33L5.5,195.59L5.79,192.85L6.94,188.47L7.23,187.95L7.52,187.73L7.81,190.18L8.97,181.2L9.26,182.98L9.55,181.8L10.7,176.98L10.99,178.68L11.57,169.12L11.86,172.68L12.15,174.97L12.44,173.12L12.73,175.27L13.02,176.38L13.6,168.15L13.89,170.3L14.18,177.87L15.33,169.34L15.62,171.27L15.91,172.82L16.2,162.66L16.78,166.67L17.07,164.74L17.36,161.77L17.94,167.63L18.23,162.66L18.8,167.78L19.09,164.22L19.38,163.18L19.67,165.19L20.25,159.18L20.54,163.78L20.83,163.85L21.12,160.07L21.7,168.37L21.99,161.11L22.28,157.84L22.56,162.81L22.85,159.99L23.14,168.52L23.43,160.37L23.72,159.33L24.01,156.73L24.3,167.04L25.17,157.84L25.46,156.14L26.04,163.11L26.33,152.8L27.48,162L27.77,153.91L28.06,161.77L28.64,161.03L28.93,152.88L29.51,158.14L29.8,157.47L30.09,154.43L30.66,156.66L30.95,160.66L31.82,151.61L32.11,153.77L32.69,154.73L32.98,149.98L34.14,160.59L34.43,152.73L34.71,156.58L35,150.43L35.29,152.58L35.58,152.8L35.87,157.1L36.16,153.1L36.45,154.58L36.74,157.62L37.03,146.05L37.32,157.77L37.61,148.8L37.9,157.32L38.19,148.43L38.48,152.8L38.76,154.43L39.05,154.66L39.34,149.91L39.63,150.5L39.92,157.4L40.5,150.95L40.79,153.77L41.08,153.1L41.37,156.95L41.66,154.66L41.95,148.8L43.1,152.95L43.39,153.25L43.68,156.43L43.97,151.47L44.26,147.39L44.55,155.4L44.84,148.72L45.13,146.05L46,153.32L46.29,146.65L46.86,155.4L47.15,149.76L47.73,149.98L48.02,151.76L49.47,145.76L49.76,149.17L50.34,154.8L50.63,153.39L50.91,149.39L51.49,148.72L51.78,152.95L52.07,150.65L52.36,151.1L52.65,148.72L53.23,151.69L53.52,146.5L53.81,146.57L54.1,152.8L54.39,151.1L54.68,143.09L55.25,150.87L55.83,150.06L56.12,149.91L56.41,144.72L56.7,152.21L56.99,146.05L57.28,150.72L58.15,147.39L58.44,148.06L59.02,144.72L59.3,146.05L59.59,151.84L60.17,150.8L60.46,145.83L60.75,144.94L61.04,150.87L61.62,143.09L61.91,148.94L62.2,148.2L62.49,150.72L62.78,145.39L63.35,146.79L63.64,151.02L63.93,144.72L64.22,146.42L64.51,150.65L65.38,143.68L65.67,145.01L66.25,151.32L66.54,145.16L67.69,152.8L67.98,149.39L69.14,145.01L69.43,150.21L70.01,143.68L70.3,149.39L70.88,142.49L71.17,144.42L71.45,144.87L71.74,146.94L72.03,145.01L72.32,141.6L73.19,150.58L73.48,143.16L73.77,146.42L74.06,142.94L74.35,141.75L75.5,145.09L75.79,140.86L76.37,148.57L76.66,142.12L76.95,140.19L77.24,147.24L77.53,145.9L77.82,148.57L78.69,142.05L78.98,145.46L79.27,144.27L79.55,149.54L79.84,147.91L80.13,148.35L80.42,141.31L81.58,146.2L81.87,143.75L82.16,141.75L82.45,145.16L82.74,145.9L83.03,143.09L83.6,145.68L83.89,142.49L85.05,147.17L85.34,147.24L85.63,146.42L85.92,142.57L86.21,147.24L86.5,141.97L86.79,144.87L87.08,142.86L87.65,143.46L87.94,139.75L88.23,141.6L88.52,148.57L88.81,143.68L89.1,144.05L89.39,145.09L89.68,140.86L89.97,145.46L90.26,137.08L91.42,148.72L91.7,143.46L91.99,138.34L92.28,142.57L92.57,148.57L92.86,147.31L93.15,141.75L93.73,136.86L94.02,147.68L94.31,142.12L94.6,145.9L94.89,147.54L95.47,142.27L95.75,145.68L96.04,143.83L96.91,147.31L97.2,144.2L97.49,140.42L97.78,147.91L98.65,140.05L98.94,145.16L99.52,139.75L99.8,143.61L100.09,142.27L100.38,143.38L100.67,141.16L100.96,144.2L101.25,136.71L102.41,144.64L102.7,141.01L102.99,146.2L103.28,139.3L103.57,145.61L103.85,137.82L104.43,148.5L104.72,136.93L105.01,145.61L105.3,141.23L105.59,135.3L105.88,146.2L106.46,141.53L106.75,140.27L107.9,145.61L108.19,139.45L108.48,139.75L108.77,143.23L109.06,138.71L109.35,138.93L109.64,144.87L109.93,138.04L110.51,138.86L110.8,139.08L111.95,144.27L112.24,135.74L112.53,143.98L112.82,133.82L113.11,143.23L113.4,143.23L113.98,144.57L114.27,140.05L114.56,141.31L115.43,142.72L115.72,141.01L116.01,144.27L116.29,144.05L116.58,141.01L116.87,141.01L117.16,143.23L117.45,146.42L117.74,139.6L118.32,147.54L118.61,137.3L119.48,143.01L119.77,138.12L120.06,138.71L120.34,142.86L120.63,142.57L120.92,143.9L121.21,141.38L121.5,145.61L122.08,145.83L122.37,138.34L122.66,140.05L122.95,141.08L123.53,140.05L123.82,140.94L124.11,141.75L124.39,138.19L124.68,139.08L124.97,138.04L125.26,141.53L125.84,138.79L126.13,140.05L126.42,141.83L126.71,141.23L127,137.52L127.58,142.34L127.87,137.52L129.02,143.83L129.31,137.23L129.6,142.42L129.89,139.6L130.18,136.71L130.76,141.97L131.34,141.46L131.63,138.71L132.49,140.94L132.78,138.79L133.07,136.86L133.36,137.3L133.65,142.34L133.94,137.23L134.23,139.9L134.52,143.61L134.81,134.71L135.1,140.49L135.39,140.94L135.68,142.86L135.97,136.86L136.54,140.64L136.83,138.34L137.41,137.52L137.99,141.23L138.28,139.9L139.15,135.89L139.44,136.56L139.73,138.86L140.02,139.68L140.31,143.9L141.75,136.12L142.04,139.53L142.33,143.09L142.62,140.86L142.91,136.12L143.49,138.86L143.78,137.6L144.07,137.9L144.64,133.74L144.93,134.34L145.22,141.53L145.8,136.12L146.09,137.75L146.38,137.01L146.96,141.53L147.25,137.75L148.12,124.18L148.69,124.92L148.98,124.62L149.27,124.92L149.56,122.77L149.85,124.7L150.14,122.62L150.43,117.87L150.72,124.1L151.3,122.03L151.59,125.44L153.03,118.39L153.32,119.88L153.61,118.24L153.9,123.14L154.77,114.61L155.06,122.47L155.35,121.43L155.64,123.58L156.79,119.21L157.08,119.28L157.37,116.83L157.66,117.35L157.95,118.69L159.4,121.43L159.69,118.47L159.98,114.24L160.27,118.61L160.56,119.58L160.84,122.32L161.42,121.66L161.71,119.95L162,118.39L162.29,121.06L162.87,117.28L163.16,119.8L163.45,123.21L164.32,117.87L164.61,119.65L165.18,120.62L165.47,117.13L165.76,119.95L166.05,116.02L166.34,115.13L167.21,119.73L167.5,117.58L167.79,114.68L168.08,115.72L168.37,120.91L168.94,119.65L169.23,123.29L169.52,117.8L170.1,119.95L170.39,122.1L170.68,117.28L170.97,117.87L171.26,120.54L172.13,116.69L172.42,116.76L172.99,121.43L173.28,119.36L173.57,119.65L174.15,115.65L174.44,116.98L174.73,120.62L175.02,115.72L175.6,117.35L175.89,117.65L176.18,115.5L176.47,118.17L176.76,121.43L177.91,113.42L178.2,114.17L178.49,116.61L178.78,115.2L179.07,116.46L179.36,117.8L179.65,116.09L179.94,119.28L181.1,114.54L181.38,118.02L181.96,116.69L182.25,120.99L183.41,114.24L183.7,116.76L183.99,116.39L184.28,117.35L184.57,116.02L184.86,118.99L185.15,116.32L185.43,119.58L185.72,118.24L187.17,113.42L187.46,117.06L187.75,120.54L188.04,117.8L188.33,117.65L188.62,120.77L188.91,112.46L189.77,116.91L190.06,111.79L190.35,120.39L190.64,119.73L190.93,113.13L191.8,118.39L192.09,113.57L192.38,118.1L192.96,115.94L193.25,114.91L194.11,119.65L194.4,118.39L194.69,111.12L194.98,118.76L195.56,114.68L195.85,115.28L196.43,115.43L196.72,113.57L197.01,115.5L197.3,118.17L197.58,114.09L197.87,114.31L198.16,118.91L198.45,116.24L198.74,115.87L199.03,116.69L199.32,114.17L199.61,116.69L199.9,113.28L200.19,111.94L200.77,121.06L201.06,116.69L201.35,115.35L201.63,118.17L201.92,112.9L202.21,118.02L202.5,116.69L202.79,114.24L203.08,115.43L203.37,120.62L204.53,114.83L204.82,112.83L205.4,117.13L205.68,117.06L205.97,114.46L206.26,117.43L206.55,114.76L206.84,114.76L207.13,110.98L207.42,115.87L207.71,120.47L208.58,115.06L208.87,117.65L209.16,116.83L209.45,119.06L210.31,113.28L210.6,118.02L211.47,113.05L211.76,117.72L212.05,115.28L212.34,118.24L212.63,120.32L213.78,115.2L214.07,116.39L214.36,112.68L214.94,113.94L215.23,117.65L215.52,117.21L215.81,114.09L216.1,115.06L216.39,120.54L216.68,120.02L216.97,111.94L217.26,119.5L217.55,116.09L217.83,114.39L218.12,114.46L218.41,117.87L218.7,115.28L218.99,117.65L219.28,119.95L220.44,112.16L220.73,114.91L221.02,111.2L221.31,112.24L221.6,116.61L222.17,116.91L222.46,112.98L223.33,111.72L223.62,113.05L223.91,112.53L224.2,114.98L224.78,110.38L225.07,114.17L225.36,112.16L225.65,117.21L226.51,110.75L226.8,110.98L227.09,115.2L228.25,108.6L228.54,114.39L228.83,111.27L229.41,111.94L229.7,111.42L230.27,110.98L230.56,116.46L231.14,112.83L231.43,108.97L232.3,117.65L232.59,114.24L232.88,112.16L233.17,110.31L233.46,111.94L233.75,115.72L234.32,109.64L234.61,114.46L234.9,114.24L235.19,111.87L235.48,110.09L235.77,113.2L236.06,113.35L236.35,111.5L236.64,116.32L236.93,106.82L237.22,116.17L237.8,111.05L238.09,110.01L238.37,114.91L238.95,113.42L239.24,115.5L239.53,110.09L239.82,115.72L240.11,116.46L240.69,110.68L240.98,114.91L241.27,113.35L241.56,113.79L241.85,115.06L242.42,112.01L242.71,114.54L243,109.12L243.29,111.35L243.58,113.94L243.87,115.87L244.16,114.61L244.45,107.94L245.03,114.61L245.32,113.87L245.61,112.09L245.9,110.01L246.19,114.68L246.47,117.95L246.76,110.9L247.05,111.5L247.34,110.31L247.92,113.72L248.21,109.86L248.5,109.12L248.79,112.76L249.37,112.76L249.66,116.39L249.95,116.17L250.24,106.97L251.1,115.2L251.39,108.31L251.97,115.87L252.26,109.79L252.55,109.57L252.84,114.17L253.71,108.83L254,111.79L254.29,108.16L254.57,113.13L254.86,110.75L255.15,109.79L255.44,113.65L255.73,109.42L256.31,110.98L256.6,112.68L257.18,110.98L257.47,111.94L257.76,112.83L258.34,113.35L258.62,114.46L259.49,109.42L259.78,113.42L260.07,111.57L260.36,115.87L260.65,108.9L261.23,112.09L261.52,109.57L261.81,113.94L262.1,111.2L262.39,110.46L262.96,116.69L263.25,113.79L263.54,112.46L263.83,113.57L264.12,110.61L264.99,113.79L265.28,113.28L266.15,108.08L266.44,107.57L266.72,111.72L267.3,109.42L267.59,108.9L267.88,113.72L268.46,111.87L268.75,110.61L269.33,113.28L269.62,112.01L269.91,108.97L270.77,113.28L271.06,112.68L271.35,107.57L271.93,110.09L272.22,110.23L273.09,114.54L273.38,113.79L273.96,111.05L274.54,111.27L274.82,112.61L275.11,114.24L275.4,110.53L275.69,109.86L275.98,113.87L276.27,113.42L276.56,109.2L276.85,114.91L277.43,112.01L277.72,110.46L278.01,106.9L278.3,111.72L278.59,111.05L279.16,111.5L279.45,109.12L280.32,113.05L280.61,111.27L280.9,111.5L281.19,109.49L281.48,112.9L281.77,110.9L282.06,107.19L282.64,114.09L282.92,112.39L283.21,113.2L283.5,108.53L283.79,114.24L284.08,110.53L284.37,110.75L284.66,114.02L284.95,113.87L285.24,111.79L285.53,109.42L285.82,115.87L286.69,108.53L286.97,108.6L287.84,116.91L288.13,114.76L289,105.86" style="vector-effect: non-scaling-stroke; fill: none; stroke: rgb(148, 103, 189); stroke-opacity: 1; stroke-width: 2px; opacity: 1;"/></g><g class="points"/><g class="text"/></g><g class="trace scatter trace79788e" style="stroke-miterlimit: 2; opacity: 1;"><g class="fills"/><g class="errorbars"/><g class="lines"><path class="js-line" d="M0,282.95L1.45,204.04L1.74,196.7L3.76,161.11L4.05,158.96L4.34,158.96L4.63,154.58L5.5,146.57L5.79,140.57L6.08,145.24L6.36,141.9L6.65,141.53L6.94,143.16L7.23,136.56L7.81,140.05L8.1,133.15L8.39,136.41L8.68,125.81L9.26,132.11L9.55,127.74L10.13,125.73L10.41,130.03L11.28,117.87L11.57,118.24L11.86,118.61L12.15,116.09L12.44,119.88L12.73,118.17L13.02,118.1L13.31,117.13L13.6,113.2L13.89,115.57L14.18,116.09L15.04,109.86L15.33,111.87L15.62,114.68L15.91,109.86L16.2,101.86L16.49,108.68L16.78,108.68L17.65,100.3L17.94,103.34L18.23,103.26L18.51,102L18.8,109.05L19.67,96.14L19.96,102.6L20.83,97.7L21.12,97.11L21.7,101.26L21.99,97.11L22.85,92.07L23.14,93.55L23.43,93.77L23.72,95.03L24.01,89.92L24.3,96.44L24.59,93.85L25.17,90.66L25.46,91.77L25.75,92.29L26.04,91.7L26.33,86.43L27.19,93.33L27.48,91.18L27.77,88.66L28.35,89.25L28.64,87.39L28.93,83.17L29.22,86.13L29.51,85.76L30.09,85.91L30.38,84.35L31.24,87.77L31.53,84.28L31.82,81.68L32.11,84.35L32.4,84.28L32.69,83.61L32.98,80.57L33.85,87.32L34.14,83.98L34.43,81.98L35,78.12L35.29,79.83L35.58,81.46L35.87,84.58L36.16,79.16L36.74,83.46L37.03,78.64L37.32,82.65L37.61,78.2L37.9,77.53L38.19,72.19L38.48,78.5L38.76,80.05L39.34,77.01L39.63,77.53L39.92,81.39L40.21,80.35L40.5,75.38L41.37,79.24L41.66,79.09L41.95,76.57L42.24,78.05L42.53,74.79L42.81,75.01L43.1,76.86L43.68,73.9L43.97,74.49L44.26,75.31L44.55,79.39L44.84,70.41L45.13,71.6L45.42,77.9L46.29,70.71L46.58,71.38L46.86,76.57L47.15,72.12L47.73,73.75L48.02,73.3L49.18,69.3L49.47,70.26L49.76,70.56L50.34,77.38L50.63,70.78L51.2,73.68L51.49,72.93L51.78,72.04L52.07,72.56L52.36,70.12L52.65,68.41L52.94,73.01L54.1,68.78L54.39,72.64L54.96,66.7L55.25,71.15L55.54,68.41L56.12,69.82L56.41,65.3L57.28,71.75L57.57,70.12L58.44,65.89L58.73,67.89L59.02,67.67L59.3,69.23L59.88,65.07L60.17,69.6L60.46,69.52L60.75,67.08L61.33,64.63L61.62,67.52L61.91,70.19L62.2,67.59L62.49,66.48L62.78,62.03L63.07,69L63.35,69L63.64,63.81L64.22,65.07L64.51,64.33L64.8,63.22L65.09,65.3L65.38,63.66L65.67,69.15L65.96,67.52L66.25,70.93L66.83,62.7L67.12,67.89L67.4,64.48L67.69,65.89L67.98,66.85L68.56,62.48L68.85,67.74L69.14,61.51L69.72,62.92L70.01,60.7L71.45,66.56L71.74,66.11L72.32,62.11L72.61,63.89L72.9,65.3L73.19,61.29L73.48,67.15L73.77,62.77L74.06,65.3L74.35,60.18L74.64,61.29L74.93,64.63L75.22,56.54L75.5,63.74L75.79,62.26L76.08,61.74L76.37,66.56L76.95,60.99L77.24,65.67L77.82,66.33L78.11,59.66L78.4,60.92L78.69,60.33L78.98,66.33L80.13,59.29L80.42,59.81L80.71,64.33L81,58.92L81.29,59.21L81.58,65.59L82.16,63.81L82.45,61.51L82.74,59.21L83.03,60.03L83.32,64.03L83.89,58.4L84.18,59.21L84.47,62.7L84.76,57.58L85.34,60.55L85.63,62.85L86.21,62.92L86.79,56.84L87.08,59.07L87.37,59.51L87.65,56.99L89.1,64.63L89.39,62.48L90.26,56.32L90.55,58.4L91.42,64.11L91.7,57.88L92.28,63.59L92.57,60.03L92.86,56.69L93.44,58.32L93.73,57.51L94.02,63L94.6,57.81L94.89,60.7L95.18,61.88L95.47,53.43L96.04,58.62L96.33,56.1L96.62,57.14L96.91,60.99L97.49,57.21L97.78,58.55L98.07,59.36L98.36,55.36L98.65,56.1L98.94,58.32L99.52,57.43L99.8,59.21L100.09,57.81L100.38,58.92L100.67,59.07L101.25,57.14L101.54,58.4L102.12,55.73L102.41,60.03L102.7,55.06L102.99,58.92L103.28,61.22L104.14,55.66L104.43,57.88L104.72,54.47L105.01,59.88L105.3,57.81L105.59,60.1L105.88,59.21L106.17,54.25L106.46,59.59L106.75,59.21L107.04,53.28L107.62,59.59L107.9,57.51L108.19,57.14L108.48,60.03L108.77,56.17L109.06,56.99L109.35,56.32L109.64,57.81L110.22,53.73L110.51,57.73L111.09,52.84L111.38,57.66L111.67,58.32L111.95,57.21L112.24,60.77L112.53,59.51L112.82,49.2L114.27,58.03L114.56,56.47L115.14,56.17L115.43,58.18L115.72,53.21L116.58,57.43L116.87,54.17L117.16,58.55L117.74,56.77L118.03,55.8L118.32,56.25L118.61,53.5L119.19,52.47L119.48,57.14L119.77,51.5L120.92,57.95L121.21,55.95L121.5,56.32L121.79,53.13L122.66,56.17L122.95,56.03L123.24,53.5L123.53,54.25L123.82,57.43L124.68,52.1L124.97,55.8L125.26,56.1L125.55,58.1L125.84,53.06L126.42,54.02L126.71,55.58L127,52.32L127.29,53.8L127.58,55.95L127.87,56.25L128.16,52.17L128.44,52.39L128.73,58.32L129.02,57.81L129.31,51.21L129.6,55.66L129.89,54.02L130.18,51.28L130.47,55.43L131.05,54.17L131.34,54.84L131.63,53.65L131.92,54.84L132.21,61.59L133.36,49.57L133.65,55.88L133.94,52.54L134.23,53.73L134.52,56.25L135.1,53.21L135.39,55.14L135.68,57.21L136.54,52.76L136.83,53.8L137.12,54.84L137.41,53.36L137.7,52.91L138.57,56.4L138.86,50.09L139.15,54.39L139.44,49.65L139.73,52.76L140.02,54.32L140.59,55.06L140.88,54.69L141.17,52.61L141.46,55.51L141.75,51.06L142.04,52.99L142.33,52.76L142.62,53.43L142.91,51.43L143.2,51.87L143.49,57.73L143.78,56.77L144.07,51.5L144.36,52.69L144.64,50.61L146.09,54.84L146.38,52.39L146.67,56.47L146.96,54.25L147.25,53.88L148.41,38.15L148.69,38.08L149.85,33.85L150.14,34.08L150.72,33.78L151.01,34.67L151.3,34.67L151.59,33.63L152.17,32.52L152.46,32.81L152.74,33.41L153.61,29.26L153.9,33.19L154.77,29.48L155.06,30.81L155.35,32.52L155.93,32.37L156.22,29.85L156.51,30.59L156.79,28.66L158.24,33.11L158.53,31.41L159.4,29.03L159.69,29.18L159.98,28.88L160.84,30.37L161.13,29.85L161.42,31.78L161.71,29.77L162,28.66L163.16,30.37L163.45,29.03L163.74,27.92L164.03,30.29L164.32,29.55L164.61,29.85L164.89,26.66L165.18,27.03L165.47,25.7L166.34,28.96L166.63,27.7L167.5,29.7L167.79,28.07L168.37,28.22L168.66,26.21L168.94,29.33L169.81,27.25L170.1,28.74L170.39,28.81L170.68,27.18L170.97,24.95L171.55,26.14L171.84,27.48L172.13,25.92L172.42,27.55L172.71,27.48L173.28,28.37L173.57,27.25L174.15,26.07L174.44,24.73L174.73,28.14L175.31,26.44L175.6,24.29L176.18,27.92L176.47,25.7L176.76,27.7L177.62,25.92L177.91,26.29L178.49,27.33L178.78,26.29L179.07,27.62L179.36,25.99L179.65,24.88L180.23,27.1L180.52,26.66L180.81,26.07L181.1,24.81L181.38,25.84L181.67,27.1L182.25,24.51L182.54,25.03L182.83,25.62L183.41,26.81L183.7,24.51L184.86,26.07L185.15,23.92L185.43,25.92L186.01,25.32L186.3,25.77L186.59,23.54L186.88,25.47L187.17,25.7L188.04,22.95L188.33,23.47L188.62,25.03L188.91,23.32L189.2,23.84L189.48,25.55L190.35,26.81L190.64,25.1L190.93,23.03L191.51,23.84L191.8,23.47L192.09,23.03L192.38,25.99L194.69,21.99L194.98,23.32L195.85,25.4L196.14,23.92L196.43,25.7L196.72,22.36L198.16,24.51L198.45,23.25L198.74,23.32L199.03,24.21L199.61,22.8L199.9,24.14L200.48,23.25L200.77,23.4L201.06,23.47L201.35,22.36L201.92,23.1L202.21,25.18L202.5,21.62L203.08,21.84L203.37,25.25L204.24,21.54L204.53,23.77L204.82,22.88L205.4,23.4L205.68,24.29L206.55,21.62L206.84,21.39L207.71,23.69L208,22.8L208.58,21.25L208.87,23.77L209.16,22.06L209.45,23.32L209.73,23.4L210.02,22.36L210.31,24.73L211.47,20.58L211.76,22.88L212.05,22.88L212.34,21.84L212.92,23.4L213.21,21.25L213.5,20.73L213.78,23.77L214.36,20.8L214.94,21.32L215.23,21.39L216.39,22.28L216.68,23.54L217.26,20.8L217.55,21.47L217.83,21.54L218.41,22.66L218.7,22.21L218.99,20.8L219.57,22.36L219.86,20.43L221.02,18.8L221.31,19.91L221.88,21.39L222.17,18.95L222.46,19.47L222.75,19.24L223.04,21.32L224.2,18.95L224.49,19.54L225.07,20.21L225.36,19.91L225.65,18.95L227.09,19.99L227.38,20.28L227.96,18.95L228.25,19.61L228.54,19.69L228.83,19.76L229.12,18.87L230.27,20.13L230.56,18.72L230.85,19.24L231.14,18.5L231.43,18.65L231.72,18.35L232.01,16.87L232.59,20.06L232.88,18.95L233.17,19.76L234.32,18.06L234.61,20.28L234.9,18.5L235.19,19.99L235.48,20.73L236.06,21.25L236.35,17.39L236.64,20.21L236.93,18.43L237.22,18.87L237.51,19.54L238.09,18.65L238.37,19.17L238.66,19.39L238.95,20.8L239.24,19.91L239.53,19.61L239.82,18.35L240.4,18.95L240.69,19.02L240.98,19.61L241.27,18.8L241.56,18.65L242.14,18.5L242.42,19.61L243,17.83L243.29,19.39L243.87,19.32L244.16,17.98L244.74,18.21L245.03,19.69L245.32,19.47L245.61,18.06L246.47,18.72L246.76,18.95L247.63,18.87L247.92,17.98L248.5,19.39L248.79,18.87L249.08,19.32L249.66,17.98L249.95,19.17L250.52,18.28L250.81,19.39L251.1,19.99L251.39,18.06L251.97,19.61L252.26,19.1L252.55,18.28L252.84,19.76L253.13,18.35L253.42,18.06L254.57,19.47L254.86,17.61L255.15,17.54L255.44,18.58L255.73,19.91L256.02,19.84L256.31,18.13L256.6,17.91L256.89,19.39L257.47,17.83L257.76,18.58L258.05,18.58L258.34,20.36L258.91,19.91L259.2,18.21L260.36,19.1L260.65,16.65L260.94,19.02L261.52,18.87L261.81,19.1L262.1,17.98L262.39,20.21L262.67,17.54L263.25,18.13L263.54,19.24L263.83,19.17L264.12,17.39L264.7,19.24L264.99,18.87L265.28,18.58L265.57,17.98L265.86,18.58L266.15,18.87L266.44,16.87L266.72,17.83L267.01,18.43L267.3,18.06L267.59,18.65L267.88,19.39L268.75,18.5L269.04,17.32L269.62,19.61L269.91,17.76L270.2,16.94L270.49,19.1L271.06,19.02L271.35,17.61L271.64,18.87L272.22,18.72L272.51,18.72L272.8,18.06L273.09,19.02L273.38,18.65L273.67,18.65L273.96,19.76L274.25,16.8L274.54,20.13L274.82,17.91L275.11,18.06L275.4,18.06L275.69,19.24L276.27,17.17L276.56,17.54L276.85,18.35L277.43,18.28L277.72,17.02L278.59,18.65L278.87,18.13L280.03,19.54L280.32,19.39L280.61,18.5L280.9,18.8L281.19,19.39L281.48,17.24L282.06,18.5L282.35,18.28L282.64,17.76L282.92,18.72L283.21,18.5L284.08,17.83L284.37,17.98L284.66,17.83L284.95,18.58L285.24,20.06L285.53,17.69L285.82,18.87L286.69,17.46L286.97,19.32L287.26,17.98L287.55,19.61L287.84,18.35L288.13,18.13L288.71,18.65L289,17.91" style="vector-effect: non-scaling-stroke; fill: none; stroke: rgb(140, 86, 75); stroke-opacity: 1; stroke-width: 2px; opacity: 1;"/></g><g class="points"/><g class="text"/></g></g></g><g class="overplot"/><path class="xlines-above crisp" d="M0,0" style="fill: none;"/><path class="ylines-above crisp" d="M0,0" style="fill: none;"/><g class="overlines-above"/><g class="xaxislayer-above"><g class="xtick"><text text-anchor="middle" x="0" y="403" transform="translate(117.57,0)" style="font-family: 'Open Sans', verdana, arial, sans-serif; font-size: 12px; fill: rgb(68, 68, 68); fill-opacity: 1; white-space: pre;">20</text></g><g class="xtick"><text text-anchor="middle" x="0" y="403" transform="translate(175.43,0)" style="font-family: 'Open Sans', verdana, arial, sans-serif; font-size: 12px; fill: rgb(68, 68, 68); fill-opacity: 1; white-space: pre;">40</text></g><g class="xtick"><text text-anchor="middle" x="0" y="403" transform="translate(233.28,0)" style="font-family: 'Open Sans', verdana, arial, sans-serif; font-size: 12px; fill: rgb(68, 68, 68); fill-opacity: 1; white-space: pre;">60</text></g><g class="xtick"><text text-anchor="middle" x="0" y="403" transform="translate(291.14,0)" style="font-family: 'Open Sans', verdana, arial, sans-serif; font-size: 12px; fill: rgb(68, 68, 68); fill-opacity: 1; white-space: pre;">80</text></g><g class="xtick"><text text-anchor="middle" x="0" y="403" transform="translate(349,0)" style="font-family: 'Open Sans', verdana, arial, sans-serif; font-size: 12px; fill: rgb(68, 68, 68); fill-opacity: 1; white-space: pre;">100</text></g></g><g class="yaxislayer-above"><g class="ytick"><text text-anchor="end" x="59" y="4.199999999999999" transform="translate(0,368.9)" style="font-family: 'Open Sans', verdana, arial, sans-serif; font-size: 12px; fill: rgb(68, 68, 68); fill-opacity: 1; white-space: pre;">20</text></g><g class="ytick"><text text-anchor="end" x="59" y="4.199999999999999" transform="translate(0,331.82)" style="font-family: 'Open Sans', verdana, arial, sans-serif; font-size: 12px; fill: rgb(68, 68, 68); fill-opacity: 1; white-space: pre;">30</text></g><g class="ytick"><text text-anchor="end" x="59" y="4.199999999999999" transform="translate(0,294.74)" style="font-family: 'Open Sans', verdana, arial, sans-serif; font-size: 12px; fill: rgb(68, 68, 68); fill-opacity: 1; white-space: pre;">40</text></g><g class="ytick"><text text-anchor="end" x="59" y="4.199999999999999" transform="translate(0,257.66999999999996)" style="font-family: 'Open Sans', verdana, arial, sans-serif; font-size: 12px; fill: rgb(68, 68, 68); fill-opacity: 1; white-space: pre;">50</text></g><g class="ytick"><text text-anchor="end" x="59" y="4.199999999999999" transform="translate(0,220.59)" style="font-family: 'Open Sans', verdana, arial, sans-serif; font-size: 12px; fill: rgb(68, 68, 68); fill-opacity: 1; white-space: pre;">60</text></g><g class="ytick"><text text-anchor="end" x="59" y="4.199999999999999" transform="translate(0,183.51)" style="font-family: 'Open Sans', verdana, arial, sans-serif; font-size: 12px; fill: rgb(68, 68, 68); fill-opacity: 1; white-space: pre;">70</text></g><g class="ytick"><text text-anchor="end" x="59" y="4.199999999999999" transform="translate(0,146.43)" style="font-family: 'Open Sans', verdana, arial, sans-serif; font-size: 12px; fill: rgb(68, 68, 68); fill-opacity: 1; white-space: pre;">80</text></g><g class="ytick"><text text-anchor="end" x="59" y="4.199999999999999" transform="translate(0,109.35)" style="font-family: 'Open Sans', verdana, arial, sans-serif; font-size: 12px; fill: rgb(68, 68, 68); fill-opacity: 1; white-space: pre;">90</text></g><g class="ytick"><text text-anchor="end" x="59" y="4.199999999999999" transform="translate(0,72.27)" style="font-family: 'Open Sans', verdana, arial, sans-serif; font-size: 12px; fill: rgb(68, 68, 68); fill-opacity: 1; white-space: pre;">100</text></g></g><g class="overaxes-above"/></g></g><g class="polarlayer"/><g class="ternarylayer"/><g class="geolayer"/><g class="funnelarealayer"/><g class="pielayer"/><g class="treemaplayer"/><g class="sunburstlayer"/><g class="glimages"/><defs id="topdefs-e2b7e1"><g class="clips"/><clipPath id="legende2b7e1"><rect width="333" height="124" x="0" y="0"/></clipPath></defs><g class="layer-above"><g class="imagelayer"/><g class="shapelayer"/></g><g class="infolayer"><g class="legend" pointer-events="all" transform="translate(354.78000000000003, 60)"><rect class="bg" shape-rendering="crispEdges" width="333" height="124" x="0" y="0" style="stroke: rgb(68, 68, 68); stroke-opacity: 1; fill: rgb(255, 255, 255); fill-opacity: 1; stroke-width: 0px;"/><g class="scrollbox" transform="translate(0, 0)" clip-path="url('#legende2b7e1')"><g class="groups"><g class="traces" transform="translate(0, 14.5)" style="opacity: 1;"><text class="legendtext user-select-none" text-anchor="start" x="40" y="4.680000000000001" style="font-family: 'Open Sans', verdana, arial, sans-serif; font-size: 12px; fill: rgb(68, 68, 68); fill-opacity: 1; white-space: pre;">0_nin_dorefanet_a16w16g32_original_weight_l</text><g class="layers" style="opacity: 1;"><g class="legendfill"/><g class="legendlines"><path class="js-line" d="M5,0h30" style="fill: none; stroke: rgb(31, 119, 180); stroke-opacity: 1; stroke-width: 2px;"/></g><g class="legendsymbols"><g class="legendpoints"/></g></g><rect class="legendtoggle" pointer-events="all" x="0" y="-9.5" width="328" height="19" style="cursor: pointer; fill: rgb(0, 0, 0); fill-opacity: 0;"/></g><g class="traces" transform="translate(0, 33.5)" style="opacity: 1;"><text class="legendtext user-select-none" text-anchor="start" x="40" y="4.680000000000001" style="font-family: 'Open Sans', verdana, arial, sans-serif; font-size: 12px; fill: rgb(68, 68, 68); fill-opacity: 1; white-space: pre;">1_nin_dorefanet_a1w1g32_original_weight_l</text><g class="layers" style="opacity: 1;"><g class="legendfill"/><g class="legendlines"><path class="js-line" d="M5,0h30" style="fill: none; stroke: rgb(255, 127, 14); stroke-opacity: 1; stroke-width: 2px;"/></g><g class="legendsymbols"><g class="legendpoints"/></g></g><rect class="legendtoggle" pointer-events="all" x="0" y="-9.5" width="328" height="19" style="cursor: pointer; fill: rgb(0, 0, 0); fill-opacity: 0;"/></g><g class="traces" transform="translate(0, 52.5)" style="opacity: 1;"><text class="legendtext user-select-none" text-anchor="start" x="40" y="4.680000000000001" style="font-family: 'Open Sans', verdana, arial, sans-serif; font-size: 12px; fill: rgb(68, 68, 68); fill-opacity: 1; white-space: pre;">2_nin_dorefanet_a2w2g32_original_weight_l</text><g class="layers" style="opacity: 1;"><g class="legendfill"/><g class="legendlines"><path class="js-line" d="M5,0h30" style="fill: none; stroke: rgb(44, 160, 44); stroke-opacity: 1; stroke-width: 2px;"/></g><g class="legendsymbols"><g class="legendpoints"/></g></g><rect class="legendtoggle" pointer-events="all" x="0" y="-9.5" width="328" height="19" style="cursor: pointer; fill: rgb(0, 0, 0); fill-opacity: 0;"/></g><g class="traces" transform="translate(0, 71.5)" style="opacity: 1;"><text class="legendtext user-select-none" text-anchor="start" x="40" y="4.680000000000001" style="font-family: 'Open Sans', verdana, arial, sans-serif; font-size: 12px; fill: rgb(68, 68, 68); fill-opacity: 1; white-space: pre;">3_nin_dorefanet_a4w4g32_original_weight_l</text><g class="layers" style="opacity: 1;"><g class="legendfill"/><g class="legendlines"><path class="js-line" d="M5,0h30" style="fill: none; stroke: rgb(214, 39, 40); stroke-opacity: 1; stroke-width: 2px;"/></g><g class="legendsymbols"><g class="legendpoints"/></g></g><rect class="legendtoggle" pointer-events="all" x="0" y="-9.5" width="328" height="19" style="cursor: pointer; fill: rgb(0, 0, 0); fill-opacity: 0;"/></g><g class="traces" transform="translate(0, 90.5)" style="opacity: 1;"><text class="legendtext user-select-none" text-anchor="start" x="40" y="4.680000000000001" style="font-family: 'Open Sans', verdana, arial, sans-serif; font-size: 12px; fill: rgb(68, 68, 68); fill-opacity: 1; white-space: pre;">4_nin_dorefanet_a4w4g32_quantized_weight_l</text><g class="layers" style="opacity: 1;"><g class="legendfill"/><g class="legendlines"><path class="js-line" d="M5,0h30" style="fill: none; stroke: rgb(148, 103, 189); stroke-opacity: 1; stroke-width: 2px;"/></g><g class="legendsymbols"><g class="legendpoints"/></g></g><rect class="legendtoggle" pointer-events="all" x="0" y="-9.5" width="328" height="19" style="cursor: pointer; fill: rgb(0, 0, 0); fill-opacity: 0;"/></g><g class="traces" transform="translate(0, 109.5)" style="opacity: 1;"><text class="legendtext user-select-none" text-anchor="start" x="40" y="4.680000000000001" style="font-family: 'Open Sans', verdana, arial, sans-serif; font-size: 12px; fill: rgb(68, 68, 68); fill-opacity: 1; white-space: pre;">5_nin_dorefanet_a8w8g32_original_weight_l</text><g class="layers" style="opacity: 1;"><g class="legendfill"/><g class="legendlines"><path class="js-line" d="M5,0h30" style="fill: none; stroke: rgb(140, 86, 75); stroke-opacity: 1; stroke-width: 2px;"/></g><g class="legendsymbols"><g class="legendpoints"/></g></g><rect class="legendtoggle" pointer-events="all" x="0" y="-9.5" width="328" height="19" style="cursor: pointer; fill: rgb(0, 0, 0); fill-opacity: 0;"/></g></g></g><rect class="scrollbar" rx="20" ry="3" width="0" height="0" x="0" y="0" style="fill: rgb(128, 139, 164); fill-opacity: 1;"/></g><g class="g-gtitle"><text class="gtitle" x="350" y="30" text-anchor="middle" dy="0em" style="font-family: 'Open Sans', verdana, arial, sans-serif; font-size: 17px; fill: rgb(68, 68, 68); opacity: 1; font-weight: normal; white-space: pre;">train_top1</text></g><g class="g-xtitle"/><g class="g-ytitle"/></g></svg>