<svg class="main-svg" xmlns="http://www.w3.org/2000/svg" xmlns:xlink="http://www.w3.org/1999/xlink" width="700" height="450" style="" viewBox="0 0 700 450"><rect x="0" y="0" width="700" height="450" style="fill: rgb(255, 255, 255); fill-opacity: 1;"/><defs id="defs-838113"><g class="clips"><clipPath id="clip838113xyplot" class="plotclip"><rect width="445" height="330"/></clipPath><clipPath class="axesclip" id="clip838113x"><rect x="60" y="0" width="445" height="450"/></clipPath><clipPath class="axesclip" id="clip838113y"><rect x="0" y="60" width="700" height="330"/></clipPath><clipPath class="axesclip" id="clip838113xy"><rect x="60" y="60" width="445" height="330"/></clipPath></g><g class="gradients"/></defs><g class="bglayer"/><g class="layer-below"><g class="imagelayer"/><g class="shapelayer"/></g><g class="cartesianlayer"><g class="subplot xy"><g class="layer-subplot"><g class="shapelayer"/><g class="imagelayer"/></g><g class="gridlayer"><g class="x"><path class="xgrid crisp" transform="translate(208.14,0)" d="M0,60v330" style="stroke: rgb(238, 238, 238); stroke-opacity: 1; stroke-width: 1px;"/><path class="xgrid crisp" transform="translate(356.57,0)" d="M0,60v330" style="stroke: rgb(238, 238, 238); stroke-opacity: 1; stroke-width: 1px;"/></g><g class="y"><path class="ygrid crisp" transform="translate(0,321.65)" d="M60,0h445" style="stroke: rgb(238, 238, 238); stroke-opacity: 1; stroke-width: 1px;"/><path class="ygrid crisp" transform="translate(0,269.73)" d="M60,0h445" style="stroke: rgb(238, 238, 238); stroke-opacity: 1; stroke-width: 1px;"/><path class="ygrid crisp" transform="translate(0,217.81)" d="M60,0h445" style="stroke: rgb(238, 238, 238); stroke-opacity: 1; stroke-width: 1px;"/><path class="ygrid crisp" transform="translate(0,165.88)" d="M60,0h445" style="stroke: rgb(238, 238, 238); stroke-opacity: 1; stroke-width: 1px;"/><path class="ygrid crisp" transform="translate(0,113.96000000000001)" d="M60,0h445" style="stroke: rgb(238, 238, 238); stroke-opacity: 1; stroke-width: 1px;"/><path class="ygrid crisp" transform="translate(0,62.04)" d="M60,0h445" style="stroke: rgb(238, 238, 238); stroke-opacity: 1; stroke-width: 1px;"/></g></g><g class="zerolinelayer"><path class="yzl zl crisp" transform="translate(0,373.57)" d="M60,0h445" style="stroke: rgb(68, 68, 68); stroke-opacity: 1; stroke-width: 1px;"/></g><path class="xlines-below"/><path class="ylines-below"/><g class="overlines-below"/><g class="xaxislayer-below"/><g class="yaxislayer-below"/><g class="overaxes-below"/><g class="plot" transform="translate(60, 60)" clip-path="url('#clip838113xyplot')"><g class="scatterlayer mlayer"><g class="trace scatter trace35bf04" style="stroke-miterlimit: 2; opacity: 1;"><g class="fills"/><g class="errorbars"/><g class="lines"><path class="js-line" d="M0,16.5L0.89,115.44L1.19,121.71L3.56,159.79L3.86,159.8L5.05,174.42L5.34,179.51L6.23,185.73L6.53,192.39L6.83,190.81L7.12,196.42L9.8,215.78L10.09,214.45L12.47,228.17L12.77,227.8L14.55,233.4L14.84,235.83L15.14,237.26L15.44,234.14L16.03,240.14L16.33,239.77L16.62,236.29L18.11,246.39L18.41,245.11L18.7,244.66L19,241.05L19.59,249.79L19.89,247.4L20.19,245.74L20.78,250.78L21.08,248.96L21.37,247.65L22.86,252.62L23.16,251.59L23.75,253.4L24.05,253.26L24.34,252.63L24.94,256.63L25.23,253.49L25.53,256.24L26.12,255.16L26.42,256.38L27.31,260.98L27.61,258.73L28.5,259.98L28.8,259.46L29.09,258.01L29.39,256.93L29.69,262.56L29.98,259.59L30.28,263.77L30.58,261.55L30.87,261.8L31.17,261.02L31.47,260.94L31.76,262.11L32.06,261.28L32.36,264.32L32.66,267.46L32.95,262.58L33.25,263.06L33.55,265.19L33.84,262.67L34.44,264L34.73,262.99L35.62,267.21L35.92,266.81L36.22,264.32L36.51,267.91L36.81,268.72L37.11,264.31L37.4,265.16L37.7,268.42L38,265.2L38.3,266.67L38.59,270.49L39.78,266.54L40.08,268.56L40.37,267.66L40.67,268.9L40.97,265.48L42.15,272.18L42.45,270.38L42.75,270.34L43.05,269.07L43.64,270.31L43.94,269.26L45.12,272.58L45.42,271.66L46.01,272.06L46.31,268.7L47.5,274.11L47.8,273.46L48.09,272.63L48.98,274.12L49.28,272.54L49.58,269.73L49.87,271.71L50.17,272.58L51.06,275.66L51.36,274L51.65,275.89L52.25,275.41L52.55,274.09L52.84,274.38L53.14,271.47L53.44,278.19L54.03,275.61L54.33,271.99L54.92,275.2L55.22,273.23L55.51,274.4L55.81,275.21L56.11,274.43L56.4,278.65L57.29,275.53L57.59,277.93L57.89,271.85L58.19,272.64L58.48,277.18L58.78,273.7L59.08,274.99L59.37,280.5L60.26,274.08L60.56,275.29L60.86,275.67L61.15,274.9L61.45,277.22L61.75,278.16L62.04,275.68L62.64,279.8L62.94,278.86L63.23,276.83L64.12,276.83L64.42,277.96L64.72,276.19L65.01,276.61L65.31,279.79L66.2,275.93L66.5,277.79L66.79,278.39L67.09,275.96L67.39,280.02L67.98,278.22L68.28,280.59L68.58,281.07L68.87,279.07L69.17,279.09L69.47,276.59L70.36,279.64L70.65,279.55L70.95,277.36L71.25,281.65L71.84,278.94L72.14,281.27L72.73,281.45L73.33,276.75L73.62,279.99L73.92,280.13L74.22,283.53L75.4,278.68L75.7,279.69L76,278.91L76.29,279.32L76.59,279.76L76.89,278.39L77.18,283.29L77.48,283.44L77.78,281.57L78.67,281.23L78.97,279.81L79.26,277.99L79.56,278.53L79.86,281.91L80.15,282.07L80.45,278.89L81.64,283.44L81.93,282.97L82.23,279.87L82.83,280.12L83.12,283.01L84.01,280.01L84.31,283.24L84.9,279.77L85.2,283.03L85.79,278.39L86.09,282.79L86.39,284.04L86.68,281.71L87.28,283.43L87.58,281.04L88.17,283.4L88.47,282.77L88.76,279.71L89.36,286.53L89.65,283.52L89.95,282.87L90.25,280.43L90.54,284.35L90.84,280.84L91.43,281.13L91.73,282.83L92.32,287.2L92.62,285.3L92.92,281.67L93.81,283.14L94.11,281.63L94.4,280L94.7,280.77L95,283.85L95.29,286.14L95.59,281.64L96.18,285.57L96.48,282.86L96.78,281.46L97.37,281.7L97.67,284.29L98.26,285.71L98.56,285.28L98.86,282.65L99.45,284.87L99.75,284.15L100.04,284.31L100.34,281.31L100.64,282.57L100.93,287.08L101.82,282.83L102.12,284.64L102.42,285.29L103.61,282.22L103.9,287.55L104.79,284.03L105.09,285.65L105.39,286.48L105.68,283.95L105.98,283.14L106.28,283.72L106.57,284.67L107.17,288.27L107.46,283.62L107.76,285.94L108.06,285.68L108.36,284.52L108.65,285.26L108.95,284.94L109.25,284.2L109.54,282.19L109.84,290L110.43,284.41L110.73,284.74L111.03,285.34L111.32,285.61L111.62,285.14L111.92,284.65L112.21,285.57L112.51,285.32L112.81,289.12L113.11,288.73L113.4,285.27L113.7,284.17L114,284.28L114.29,286.23L115.18,285.29L115.48,285.28L115.78,288.5L116.07,287.2L116.37,285.94L116.67,288.29L116.96,284.46L118.15,286.1L118.45,284.4L118.75,288.47L119.34,287.87L119.64,287.47L119.93,285.95L120.53,286.74L120.82,286.48L121.12,285.29L121.42,287.75L121.71,287.76L122.01,285.8L123.2,287.95L123.5,286.93L123.79,285.02L124.39,285.79L124.68,289.36L124.98,289.48L125.28,282.94L126.46,288.09L126.76,287.78L127.06,284.11L127.35,287.15L127.65,290.51L128.54,287.31L128.84,287.56L129.14,285.51L129.43,285.59L129.73,288.64L130.32,285.36L130.62,288.18L130.92,288.21L131.21,289.13L131.81,286.4L132.1,289.43L132.4,285.57L132.7,287.65L133,288.04L133.29,287.37L133.59,290.45L134.48,285.59L134.78,287.74L135.07,287.84L135.37,286.75L135.67,289.4L136.26,287.56L136.56,289.16L136.85,288.06L137.15,289.5L137.45,289.85L138.04,286.38L138.34,288.88L138.93,285.16L139.23,289.07L139.53,290.44L139.82,289.7L140.12,288.9L140.42,289.6L140.71,288.95L141.01,286.57L141.31,288.74L141.6,286.11L141.9,288.21L142.2,287.6L142.79,291.71L143.09,290.94L143.39,289.03L143.68,286.48L144.28,286.92L144.57,287.03L145.46,291.6L145.76,289.3L146.65,288.28L146.95,289.34L147.24,289.38L147.54,288.56L147.84,290.84L148.14,289.19L148.43,288.08L149.03,290.87L149.32,289.02L149.62,289.09L149.92,288.97L150.21,287.9L150.81,288.51L151.1,290.92L152.59,302.9L152.89,302.85L153.78,302.53L154.07,302.92L155.26,305.19L155.56,303.76L157.64,305.76L157.93,305.08L159.71,306.62L160.01,305.33L160.6,307.09L160.9,306.71L161.2,305.69L162.38,307.22L162.68,306.31L164.46,307.6L164.76,307.55L165.35,306.86L165.65,307.67L165.95,307.14L166.24,307.73L166.54,307.99L168.32,307.35L168.62,308.22L168.92,307.52L169.21,308.49L169.51,308.32L169.81,309.1L170.1,308.28L170.4,308.39L171.59,308.4L171.88,308.04L172.18,309.38L172.48,308.21L172.78,308.28L174.56,308.24L174.85,309.19L175.45,309.26L175.74,309.58L176.04,308.77L176.34,308.98L176.63,309.77L177.23,308.83L177.53,309.53L177.82,308.7L178.12,310.17L179.6,309.39L179.9,309.48L181.09,310.05L181.38,309.51L182.27,310.76L182.57,310.12L183.46,309.53L183.76,309.99L184.95,310.07L185.24,309.84L185.54,310.43L185.84,310.25L186.13,309.72L186.43,310.15L186.73,309.23L187.02,310.63L187.62,310.26L187.92,310.55L189.1,310.22L189.4,309.69L190.29,310.88L190.59,310.03L192.07,310.52L192.37,309.88L192.67,310.92L193.26,310.7L193.56,310.83L195.34,310.24L195.63,310.48L195.93,311.3L196.52,311.05L196.82,310.66L197.12,311.07L197.41,310.52L197.71,310.54L198.31,310.93L198.6,310.39L199.2,311.4L199.49,311.21L199.79,310.91L201.57,310.1L201.87,311.24L203.06,311.37L203.35,310.64L204.24,311.04L204.54,310.96L205.43,311.35L205.73,311.35L207.51,310.91L207.81,311.76L209.29,311.12L209.59,311.27L209.88,311.28L210.18,310.19L211.37,311.55L211.66,311.9L212.85,311.39L213.15,311.29L220.57,311.9L220.87,312.17L222.05,311.55L222.35,311.74L223.84,312.07L224.13,311.53L227.7,312.28L227.99,312.09L228.88,312.27L229.18,312.22L233.04,312.36L233.34,312.21L235.12,312.24L235.41,312.59L243.73,312.42L244.02,312.71L245.21,312.45L245.51,312.46L246.69,312.65L246.99,312.38L249.07,312.62L249.37,312.64L251.44,312.86L251.74,312.58L255.3,312.8L255.6,312.59L258.87,312.79L259.16,312.73L264.8,312.65L265.1,312.77L269.26,312.68L269.55,312.6L271.63,312.7L271.93,312.8L273.71,312.77L274.01,312.81L277.57,312.48L277.87,312.87L278.76,312.67L279.05,312.82L282.32,312.66L282.62,312.89L283.8,312.73L284.1,312.91L285.29,312.7L285.58,312.8L286.77,312.68L287.07,312.81L289.74,313.02L290.04,312.66L295.97,312.55L296.27,312.83L296.57,312.62" style="vector-effect: non-scaling-stroke; fill: none; stroke: rgb(31, 119, 180); stroke-opacity: 1; stroke-width: 2px; opacity: 1;"/></g><g class="points"/><g class="text"/></g><g class="trace scatter trace036b23" style="stroke-miterlimit: 2; opacity: 1;"><g class="fills"/><g class="errorbars"/><g class="lines"><path class="js-line" d="M0,49.9L0.89,119.49L1.19,126.54L2.08,138.86L2.37,138.17L2.67,145.32L5.64,170.72L5.94,171.58L8.31,196.79L8.61,191.9L9.8,204.65L10.09,204.97L10.39,205.23L10.69,207.44L10.98,204.5L11.28,210.21L12.47,218.53L12.77,218.09L13.06,214.66L13.36,217.99L13.66,218.23L14.84,224.38L15.14,225.98L15.44,223.63L15.73,225.87L16.03,227.46L16.62,225.1L16.92,226.89L17.22,228.27L17.52,233.96L17.81,235.42L18.11,232.88L18.7,232.59L19,228.44L19.59,237.28L19.89,232.24L20.19,234.87L20.48,235.92L20.78,240.5L21.08,235.27L21.37,238.01L21.67,239.76L21.97,239.01L22.26,239.25L22.56,240.58L22.86,241.35L23.16,238.5L23.75,243.26L24.05,242.64L24.34,242.47L24.94,246.3L25.23,244L25.53,245.5L26.42,245.97L26.72,246.71L27.31,251.81L27.61,248.96L27.91,249.68L28.2,248.3L28.8,250.79L29.09,247.74L29.69,253.13L30.28,252.77L30.58,253.18L30.87,253.01L31.17,253.67L31.47,251.28L32.66,257.97L32.95,256.34L33.25,255.51L33.55,256.11L33.84,254.45L34.14,257.62L34.44,254.32L34.73,254.62L35.33,260.19L35.62,259.11L35.92,260.1L36.22,255.89L36.51,263.13L37.11,257.92L37.4,258.88L37.7,259.76L38,257.96L38.3,258.64L38.59,262.68L38.89,262.98L39.19,262.31L39.48,260L39.78,259.01L40.08,261.77L40.97,260.21L41.26,262.97L42.15,266.89L42.45,263.27L42.75,262.24L43.05,262.8L43.34,263.63L43.64,264.47L43.94,261.37L44.53,266.94L44.83,263.88L45.12,266.68L46.31,263.27L46.61,266.36L46.9,262.24L47.2,264.09L47.5,269.39L48.09,266.1L48.39,267.88L48.69,267.95L48.98,269.78L49.28,268.39L49.58,265.73L51.06,269.91L51.36,269.98L51.95,270.49L52.25,270.16L52.55,268.06L53.14,266.72L53.44,273.3L53.73,268.5L54.03,270.77L54.62,269.96L54.92,271.21L55.22,269.25L55.51,271.4L55.81,271.21L56.11,271.36L56.4,273.87L57.29,272.42L57.59,273.91L58.19,268.22L58.48,270.62L58.78,270.21L59.37,277.01L59.67,273.13L59.97,272.59L60.26,273.23L60.56,273.17L61.15,270.48L61.45,274.43L62.04,270.91L62.34,276.22L63.83,272.19L64.12,273.65L64.72,272.8L65.01,274.49L65.31,277.81L65.61,276.35L65.9,274.55L66.2,273.12L66.5,274.36L66.79,275.08L67.09,273.67L67.39,275.81L67.69,275.9L67.98,273.29L68.28,276.69L68.58,278.25L68.87,277.66L69.17,274.53L69.47,275.35L70.06,274.99L70.36,275.02L70.65,274.5L70.95,276.33L71.54,278.47L71.84,275.86L72.73,278.21L73.03,274.74L73.33,273.96L73.62,276.75L73.92,275.19L74.22,279.19L74.51,278.79L74.81,279.01L75.11,277.09L75.7,276.7L76,275.27L76.59,278.16L76.89,275.19L77.48,281.18L77.78,279.78L78.08,278.63L78.67,276.73L78.97,277.14L79.26,276.77L79.86,279.05L80.15,278.39L80.45,277.12L81.64,281.17L81.93,279.94L82.83,277.06L83.12,282.45L84.01,275.04L84.31,281.68L84.9,278.62L85.2,279.95L85.5,278.2L85.79,277.28L86.09,280.1L86.39,281.67L86.68,279.52L86.98,280.81L87.28,281.26L87.58,277.62L88.17,278.75L88.47,281.3L88.76,277.19L89.06,283.18L89.36,282.79L89.95,279.29L90.25,279.71L90.54,282.75L91.43,276.72L91.73,279.73L92.32,284.89L92.62,282.62L92.92,279.33L93.81,282.47L94.11,281.47L94.4,278.75L94.7,279.07L95,282.32L95.29,282.99L95.59,280.18L96.18,283.25L96.48,281.02L96.78,280.62L97.07,282.38L97.37,280.09L97.67,281.03L98.56,284.06L98.86,279.29L99.45,282.84L99.75,281.64L100.04,282.15L100.34,279.23L100.64,281.26L100.93,284.27L101.23,285.82L101.53,283.67L101.82,279.46L102.72,283.29L103.01,282.62L103.61,280.32L103.9,285.03L104.2,282.51L104.79,283.08L105.09,284.01L106.57,280.57L106.87,285.65L107.17,287.37L107.46,283.38L107.76,284.72L108.06,284.01L108.36,280.54L108.95,284.6L109.25,281.79L109.54,281.06L109.84,286.18L111.03,281.26L111.32,282.69L112.21,284.04L112.51,282.64L112.81,287.5L113.11,286.76L113.4,283.2L113.7,284.91L114,283.14L114.29,283.03L114.59,283.7L114.89,283.56L115.18,281.36L116.07,285.87L116.37,284.23L116.67,286.21L116.96,283.64L117.26,283.93L117.56,283.05L117.86,284.8L118.15,283.04L118.45,283.28L118.75,286.44L119.04,288.17L119.34,286.16L119.64,284.35L120.53,285.3L120.82,283.93L121.12,283.45L121.42,285.41L121.71,285.73L122.01,284.77L122.31,283.77L122.61,284.68L122.9,284.94L123.2,285.16L123.5,287.88L124.39,281.79L124.68,287.41L124.98,287.42L125.28,283.42L126.46,288.26L126.76,285.87L127.06,282.88L127.35,285.11L127.65,289.19L127.95,285.62L128.54,286.31L128.84,286.95L129.14,283.68L129.43,284.02L129.73,285.59L130.03,286.4L130.32,283.77L130.62,288.78L130.92,287.11L131.21,285.96L131.81,287.02L132.1,285.36L132.4,284.75L132.7,285.22L133,285.58L133.29,285.11L133.59,287.28L133.89,286.83L134.18,287.09L134.48,284.75L135.07,285.14L135.37,284.66L135.67,288.25L135.96,288.05L136.26,285.49L137.15,288.98L137.45,286.37L137.75,286.33L138.04,284.81L138.34,284.76L138.64,287.18L138.93,284.86L139.23,286.63L139.53,289.49L141.01,284.02L141.31,286.43L141.6,286.34L141.9,287.17L142.2,285.66L142.49,288.79L143.09,290.12L143.39,288.13L143.98,284.15L144.28,287.09L145.17,285.43L145.46,288.93L145.76,290.25L146.06,288.59L146.35,286.91L146.65,288.2L146.95,286.48L147.24,286.13L147.84,287.42L148.14,285.8L149.32,290.86L149.62,289.55L149.92,284.96L150.21,285.13L150.51,289.02L150.81,286.79L151.1,287.61L151.4,290.84L152.59,300.54L152.89,301.42L153.48,301.07L153.78,301.7L154.07,301.98L155.26,304.19L155.56,303.64L155.85,303.58L156.15,303.08L156.45,303.48L156.74,303.87L157.04,303.96L157.34,305.12L157.93,303.72L158.53,304.03L158.82,305.08L159.42,304.79L159.71,305.54L160.01,304.51L160.31,305.57L160.6,305.67L161.2,304.63L161.49,305.79L162.38,305.97L162.68,305.13L164.17,306.88L164.46,306.67L165.95,306L166.24,306.62L166.54,307.39L166.84,307.06L167.13,306.73L168.62,307.43L168.92,306.73L169.81,308.2L170.1,306.66L170.4,307.81L170.7,307.72L170.99,307.07L171.59,307.45L171.88,307.1L172.48,308.12L172.78,307.51L173.07,307.07L173.96,308.44L174.26,307.49L174.56,307.09L174.85,308.43L175.74,308.57L176.04,308.73L176.93,307.71L177.23,308.03L177.53,309.01L177.82,308.46L178.42,308.88L178.71,309.27L179.01,308.32L179.6,308.68L179.9,308.77L182.87,309.43L183.17,308.71L183.76,308.5L184.06,309.51L184.95,309.57L185.24,308.7L185.84,309.66L186.13,308.74L187.32,310.04L187.62,310.01L188.51,309.41L188.81,309.84L189.1,309.85L189.4,308.67L190.29,310.22L190.59,309.55L192.37,309.37L192.67,310.01L192.96,310.72L193.26,310.4L193.56,310.18L194.45,310.11L194.74,309.72L195.34,309.28L195.63,309.95L195.93,310.59L196.52,310.28L196.82,310.21L198.6,310.24L198.9,310.67L199.79,309.58L200.09,310.79L201.57,309.36L201.87,310.7L203.35,310.32L203.65,310.75L204.54,310.04L204.84,310.8L206.02,310.81L206.32,310.54L207.21,310.63L207.51,310.66L209.29,310.81L209.59,311.04L210.48,310.53L210.77,311.26L213.45,310.7L213.74,311.72L214.63,310.57L214.93,311.51L216.12,311.01L216.41,311.15L217.6,310.89L217.9,311.23L218.49,310.46L218.79,310.63L219.09,310.79L221.16,311.16L221.46,311.17L221.76,310.47L222.35,310.86L222.65,311.61L224.43,311.52L224.73,311.43L226.21,311.66L226.51,311.71L227.99,311.69L228.29,312.14L228.88,311.49L229.18,312.18L230.07,311.87L230.37,312.37L230.96,311.81L231.26,312.14L231.55,312.15L233.04,312.41L233.34,311.97L234.82,312.09L235.12,312.22L237.79,312.03L238.09,312.49L240.46,312.15L240.76,312.41L241.94,312.29L242.24,312.43L246.99,312.31L247.29,312.64L248.48,312.23L248.77,312.25L249.96,312.42L250.26,312.33L253.52,312.47L253.82,312.35L255.3,312.53L255.6,312.43L256.49,312.51L256.79,312.38L258.87,312.26L259.16,312.54L261.54,312.58L261.83,312.54L264.51,312.38L264.8,312.68L268.66,312.54L268.96,312.8L270.15,312.41L270.44,312.48L274.6,312.6L274.9,312.54L277.27,312.65L277.57,312.25L278.76,312.67L279.05,312.62L283.21,312.4L283.51,312.66L284.69,312.43L284.99,312.69L287.66,312.72L287.96,312.79L288.85,312.55L289.15,312.63L291.82,312.7L292.11,312.62L296.57,312.32" style="vector-effect: non-scaling-stroke; fill: none; stroke: rgb(255, 127, 14); stroke-opacity: 1; stroke-width: 2px; opacity: 1;"/></g><g class="points"/><g class="text"/></g><g class="trace scatter tracecbe47b" style="stroke-miterlimit: 2; opacity: 1;"><g class="fills"/><g class="errorbars"/><g class="lines"><path class="js-line" d="M0,31.94L0.89,120.72L1.19,127.94L3.56,163.31L3.86,162.2L4.75,172.34L5.05,174.74L6.53,191.47L6.83,193.36L7.12,191.67L7.42,195.67L8.31,204.17L8.61,201.59L9.5,210.5L9.8,211.44L10.09,211.2L10.39,212.05L10.69,212.5L10.98,211.64L11.28,214.6L12.47,221.39L12.77,223.56L13.06,220.62L13.36,224.06L13.66,221.94L13.95,225.17L14.55,224.11L14.84,229.24L15.14,229.63L15.44,225.92L16.03,231.73L16.33,229.47L16.62,229.5L16.92,229.4L17.22,230.14L17.52,238.67L18.11,237.66L18.41,236.5L18.7,237.81L19,233.37L19.59,242.01L19.89,237.44L20.19,239.26L20.48,239.62L20.78,243.47L21.08,241.59L21.67,241.97L21.97,242.73L22.26,241.71L22.56,244.67L22.86,247.1L23.16,244.12L23.45,245.79L23.75,246.65L24.05,247.67L24.34,245.01L24.64,249.62L24.94,248.79L25.23,246.66L25.53,247L25.83,248.48L26.72,250.4L27.01,249.41L27.31,253.93L27.91,252.04L28.2,251.32L28.5,251.45L28.8,252.4L29.09,250.55L29.39,252.99L29.69,255.48L29.98,253.11L30.28,256.64L30.58,254.38L30.87,255.47L32.36,256.76L32.66,259.07L33.84,254.33L34.14,258.91L34.73,256.4L35.03,258.49L35.92,261.38L36.22,258.94L36.51,263.02L36.81,261.36L37.11,259.18L37.4,258.59L37.7,260.21L38,257.59L38.3,258.47L38.59,265.2L38.89,264.37L39.19,261.08L39.78,259.16L40.08,262.1L40.37,259.97L40.97,261.08L41.26,262.68L41.56,263.32L41.86,260.89L42.15,266.45L42.45,261.59L42.75,263.24L43.94,262.86L44.23,265.47L44.83,263.37L45.12,264.59L45.42,265.6L46.01,266.17L46.9,262.63L47.2,265.14L47.5,268.01L47.8,265.71L48.09,265.73L48.39,265.5L48.69,267.71L48.98,267.09L49.28,267.67L49.58,264.32L51.06,268.43L51.36,268.8L51.65,269.73L51.95,267.89L52.25,268.41L52.55,265.08L52.84,268.46L53.14,262.14L53.44,269.54L54.03,269.14L54.33,265.35L54.92,271.08L55.22,266.76L55.51,269.86L56.11,268.72L56.4,269.73L57,271.15L57.29,268.52L57.59,272.11L57.89,266.91L58.19,266.33L59.37,274.78L59.67,270.61L60.26,268.74L60.56,271.01L60.86,269.3L61.45,270.19L61.75,271.75L62.04,267.87L62.34,271.31L62.64,273.24L62.94,273.92L63.23,272.12L63.83,267.64L64.12,269.05L64.42,272.06L64.72,268.24L65.01,269.61L65.31,273.54L66.2,269.74L66.5,271.04L66.79,272.67L67.09,270.18L67.39,272.78L67.69,272.68L67.98,270.76L68.28,273.66L68.58,273.95L69.47,273.38L69.76,274.16L70.06,268.68L70.36,273.35L70.65,272.69L70.95,270.99L71.25,275.46L72.14,273.35L72.43,274.55L72.73,274.52L73.03,272.5L73.62,271.54L73.92,272.12L74.22,275.84L75.4,272.53L75.7,272.81L76,273.56L76.29,270.99L76.59,273.48L76.89,274.32L77.18,276.96L77.48,276.35L77.78,273.38L78.97,274.82L79.26,272.64L79.86,275.89L80.15,274.64L80.45,272.78L81.64,276.92L81.93,276.52L82.83,272.91L83.12,275.9L84.01,273.07L84.31,277.81L84.9,273.96L85.2,274.66L85.5,274.79L85.79,273.08L86.09,275.71L86.39,279.3L87.58,274.41L87.87,278.24L88.76,274.34L89.06,277.1L89.36,278.57L89.65,276.61L89.95,277.52L90.54,276.95L90.84,273.74L92.32,279.86L92.62,279.38L92.92,276.21L93.22,276.11L93.51,278.36L94.4,273.32L94.7,274.02L95,278.76L95.29,280.11L95.59,275.49L95.89,278.27L96.18,276.39L96.48,275.55L97.07,278L97.37,277.05L97.67,277.59L98.26,280.15L98.56,277.92L98.86,275.72L99.15,276.47L99.45,278.67L100.34,276L100.64,277.72L101.53,280.49L101.82,276.39L102.72,278.77L103.01,278.52L103.31,277.62L103.61,273.36L104.5,280.99L104.79,279.43L105.09,279L105.39,280.13L105.68,277.1L106.28,277.21L106.57,276.36L107.17,280.79L107.46,277.96L107.76,280.99L108.06,279.38L108.36,276.96L108.65,278.9L109.25,278.23L109.54,276.89L109.84,283.55L110.14,279.79L110.43,278.84L110.73,279.46L111.03,275.51L111.92,281.72L112.21,279.37L112.51,276.41L112.81,281.44L113.4,280.65L113.7,280.54L114.59,276.85L114.89,277.66L115.18,279.47L115.78,280.94L116.07,279.33L116.96,280.49L117.26,279.27L117.56,276.54L117.86,278.99L118.15,279.95L118.45,279.39L118.75,282.49L119.34,281.1L119.64,278.96L119.93,280.75L120.53,280.09L120.82,279.84L121.42,278.11L121.71,281.3L122.61,279.85L122.9,280.17L123.2,281.84L123.5,281.98L123.79,278.16L124.39,279.32L124.68,284.05L124.98,283.56L125.28,277.2L126.46,283.2L126.76,279.89L127.06,278.24L127.35,280.41L127.65,281.27L128.25,282.72L128.54,279.65L128.84,282.08L129.14,279.6L129.43,279.03L129.73,280.34L130.03,279.78L130.32,278.75L130.92,283.63L131.21,281.29L131.51,280.45L132.1,282.84L132.4,282.73L132.7,280.73L133,278.82L133.29,279.96L133.59,283.77L134.48,279.99L134.78,282L135.07,279.26L135.37,281.11L135.67,282.93L136.26,281.88L136.56,282.84L136.85,281.39L137.15,283.74L138.34,279.87L138.64,281.85L138.93,279.64L139.23,282.36L139.53,282.52L139.82,282.3L140.12,284.14L140.42,280.04L141.01,280.91L141.31,281.46L141.6,279.04L141.9,282.25L142.2,280.34L142.49,285.21L143.09,284.37L143.39,282.01L144.28,280.73L144.57,280.68L145.17,279.69L145.76,285.17L146.06,282.32L146.35,280.28L146.65,282.42L146.95,282.45L147.24,280.53L147.54,282.4L147.84,282.19L148.14,280.86L148.43,282.23L148.73,284.34L149.92,280.83L150.21,281.93L150.51,282.71L150.81,280.25L151.1,283.16L151.4,287.23L152.59,295.48L152.89,296.03L153.48,295.39L153.78,295.97L154.07,296.54L154.67,296.97L154.96,297.9L155.26,298.44L155.56,296.83L156.74,297.67L157.04,297.75L157.34,299.23L157.64,299.13L157.93,298L158.82,299.44L159.12,299.14L159.71,300.01L160.01,298.68L160.9,300.59L161.2,299.5L162.38,300.97L162.68,298.87L163.57,300.47L163.87,301.91L164.46,299.9L164.76,301.01L165.06,300.51L165.35,299.7L165.65,301.65L166.84,300.81L167.13,301.4L168.03,300.88L168.32,301.97L168.92,300.64L169.21,301.41L169.51,302L169.81,302.69L170.1,301.1L170.4,302.59L170.99,302.02L171.29,301.7L171.88,301.23L172.18,302.46L173.07,302.93L173.37,301.7L174.85,302.81L175.15,303.95L176.34,302.09L176.63,303.2L176.93,302L177.23,302.7L177.53,303.79L177.82,304L178.12,303.56L178.42,303.21L178.71,304L179.01,302.6L180.2,303.65L180.49,302.49L182.27,304.27L182.57,304.14L184.95,304.33L185.24,303.54L185.54,304.38L185.84,303.36L186.13,303.68L186.43,302.92L186.73,303.96L187.02,303.91L187.32,305.66L187.92,304.78L188.21,304.07L188.51,303.63L188.81,305.26L189.1,304.95L189.4,302.78L189.99,305.13L190.29,304.91L190.59,304.53L191.77,304.59L192.07,303.84L192.96,305.44L193.26,304.9L193.56,304.44L194.74,304.97L195.04,304.56L195.63,304.02L195.93,306.06L196.82,304.81L197.12,305.56L198.31,304.45L198.6,304.65L198.9,306.35L199.49,305.69L199.79,305.24L200.38,305.74L200.68,305.22L200.98,305.44L201.27,305.68L201.57,303.57L202.46,306.65L202.76,306L203.95,304.89L204.24,305.34L204.54,304.66L204.84,306.68L207.21,305.12L207.51,306.26L208.4,306.29L208.7,306.69L209.29,306.47L209.59,306.02L210.48,305.2L210.77,306.55L211.37,305.59L211.66,307.33L212.56,306.31L212.85,306.32L213.15,305.39L213.45,305.64L213.74,307.57L215.52,305.67L215.82,306.73L216.12,305.63L216.41,306.02L216.71,306.8L218.49,306.52L218.79,307.05L219.38,306.54L219.68,307.32L219.98,306.66L220.27,307.79L220.57,307.21L222.05,306.15L222.35,307.38L223.84,307.58L224.13,306.51L226.21,307.59L226.51,307.06L226.8,308.73L227.4,308.44L227.7,309.21L228.59,307.99L228.88,308.17L229.18,309.14L230.07,308.19L230.37,308.96L230.96,307.99L231.55,308.45L231.85,308.44L232.44,309.22L232.74,308.89L233.04,308.74L233.34,308.05L233.63,308.88L233.93,308.66L235.12,308.69L235.41,308.85L236.6,308.31L236.9,308.83L237.19,308.7L238.98,308.84L239.27,309.48L240.46,308.71L240.76,309.4L241.35,308.52L241.65,309L241.94,309.08L244.32,308.77L244.62,309.55L244.91,308.58L245.21,308.94L245.51,309.32L246.1,309.31L246.4,309.66L246.99,308.75L247.29,309.39L247.59,309.64L247.88,308.96L248.18,309.12L248.48,309.83L248.77,308.58L249.37,308.88L249.66,309.34L250.26,308.58L250.55,309.11L250.85,309.02L251.74,309.7L252.04,309.24L252.93,309.41L253.23,309.57L254.12,308.71L254.41,309.59L255.6,308.92L255.9,309.44L256.79,308.82L257.08,309.41L257.98,309.44L258.27,309.83L258.87,308.81L259.16,309.42L259.46,309.31L259.76,309.61L260.05,309.16L260.35,309.1L260.65,309.79L261.24,309.31L261.54,309.19L262.43,309.33L262.73,309.19L263.62,309.26L263.91,308.77L264.21,309.67L264.8,309.24L265.1,309.25L266.29,309.53L266.58,309.37L267.18,309.11L267.47,310.06L268.66,309.33L268.96,309.46L271.04,309.61L271.33,309.76L272.52,309.21L272.82,309.57L273.12,309.11L273.41,309.54L273.71,309.79L275.19,309.47L275.49,309.78L276.38,309.11L276.68,309.53L278.46,309.88L278.76,309.21L280.24,309.36L280.54,309.83L281.43,309.43L281.72,309.36L282.02,309.1L282.32,309.49L282.62,309.6L283.51,309.26L283.8,309.38L284.1,310.03L284.4,309.16L284.69,309.42L284.99,309.14L285.29,309.57L285.58,309.65L286.77,309.31L287.07,309.23L287.36,310.07L287.96,309.64L288.26,309.53L288.55,310.18L289.15,309.69L289.44,309.74L290.93,309.75L291.22,309.23L292.41,309.9L292.71,309.3L294.49,309.74L294.79,309.79L295.08,309.16L295.38,309.36L295.68,309.8L296.57,309.51" style="vector-effect: non-scaling-stroke; fill: none; stroke: rgb(44, 160, 44); stroke-opacity: 1; stroke-width: 2px; opacity: 1;"/></g><g class="points"/><g class="text"/></g><g class="trace scatter traceaaf5cf" style="stroke-miterlimit: 2; opacity: 1;"><g class="fills"/><g class="errorbars"/><g class="lines"><path class="js-line" d="M0,67.81L0.89,123.85L1.19,128.35L3.27,156.05L3.56,166.72L3.86,166.63L4.16,168.34L5.34,183.6L5.64,182.78L7.72,202.81L8.02,202.59L8.61,204.15L8.91,211.06L9.2,210.84L9.5,213.39L10.09,213.29L10.39,212.56L11.87,223.41L12.17,223.2L12.47,222.71L12.77,225.41L13.06,221.87L13.36,223.71L13.66,223.91L14.84,230.35L15.14,230.22L15.44,227.68L16.03,232.15L16.33,230.71L16.62,230.37L17.22,229.16L17.52,238.55L17.81,237.16L18.11,237.93L18.41,238.46L19,233.45L19.3,238.56L19.59,242.33L19.89,238.27L20.19,238.83L20.78,243.41L21.08,240.11L21.37,241.13L22.26,244.73L22.56,243.65L23.16,243.46L23.45,245.71L23.75,246.39L24.64,248.59L24.94,249.86L25.23,247.22L25.53,248.44L25.83,249.19L26.12,248.49L26.42,249.9L26.72,251.24L27.01,249.17L27.31,254.41L28.2,251.35L28.5,252.28L28.8,253.3L29.09,252.42L29.39,251.68L30.28,256.81L30.58,255.3L31.47,253.52L31.76,255.29L32.06,254.25L32.36,256.65L32.66,258.89L32.95,256.43L33.25,255.18L33.55,259.95L34.14,258.32L34.44,256.77L34.73,256.26L35.03,259.63L35.92,261.9L36.22,258.5L36.51,261.52L36.81,260.61L37.11,257.84L37.7,259.91L38,258.24L38.3,258.52L38.59,263.91L39.78,260.66L40.08,263.39L40.37,259.95L40.97,260.46L41.26,261.51L42.15,265.49L42.45,263.04L42.75,261.09L43.05,262.93L43.34,264.4L43.64,263.13L43.94,263.51L44.23,265.15L44.53,264.53L45.12,265.02L45.42,266.11L45.72,265.58L46.01,265.93L46.31,261.97L47.5,267.79L47.8,266.4L48.09,264.95L48.69,267.51L48.98,267.2L49.28,265.89L49.58,263.93L50.17,264.57L50.47,267.97L50.76,265.32L51.06,268.17L51.36,266.9L51.65,269.54L51.95,266.74L52.25,267.7L52.55,267.28L52.84,269.92L53.14,264.86L53.44,270.22L53.73,267.74L54.03,270.23L54.33,267.04L54.62,267.57L54.92,269.73L55.22,266.71L55.51,268.88L55.81,267.97L56.4,271.24L56.7,270.85L57,270.28L57.29,269.89L57.59,270.16L57.89,266.19L58.48,270.56L58.78,268.11L59.08,268.91L59.37,273.91L60.56,269.09L60.86,267.36L61.75,271.97L62.04,268.71L62.64,273.01L62.94,272.8L63.23,270.23L63.83,269.85L64.12,271.03L64.42,271.53L64.72,270.67L65.01,269.56L65.31,274.32L65.61,272.28L65.9,270.46L66.2,268.97L66.5,272.73L67.09,271.16L67.39,273.8L67.98,270.84L68.28,275.56L69.76,271.33L70.06,270.67L70.65,272.47L70.95,270.57L71.54,276.54L71.84,272.25L72.73,274.54L73.03,273.81L73.33,271.58L73.92,272.62L74.22,276.45L74.51,276.3L74.81,275.11L75.4,271.85L75.7,274.73L76.29,271.7L76.59,275.77L76.89,272.59L77.18,275.04L77.48,276.19L78.37,274.28L78.67,274.79L78.97,275.47L79.26,272.69L80.15,277.07L80.45,272.83L81.34,279.21L81.64,278.44L81.93,275.81L82.83,272.59L83.12,279.06L84.01,273.23L84.31,276.53L84.9,274.64L85.2,275.15L85.5,275.74L85.79,273.9L86.09,277.75L86.98,275.71L87.28,277.53L87.58,275.11L87.87,279.25L88.76,275L89.06,278.2L89.36,278.56L89.65,277.34L90.25,277.05L90.54,277.76L90.84,272.31L91.14,274.52L91.43,275.54L91.73,276.34L92.03,280.71L92.32,280.73L92.62,277.24L92.92,275.63L93.22,278.57L94.7,275.36L95,279.08L95.29,278.77L95.59,275.98L95.89,279.71L96.18,277.82L96.48,276L96.78,278.84L97.37,277.48L97.67,276.96L98.26,279.13L98.56,278.99L98.86,277.78L99.15,276.91L99.45,277.89L99.75,277.58L100.34,278.13L100.64,275.31L101.23,280.5L101.53,279.92L101.82,276.46L102.12,279.38L102.72,277.89L103.01,278.85L103.31,277.86L103.61,274.18L103.9,280.7L104.5,280.55L104.79,278.53L105.39,280.76L105.68,277.42L105.98,279.71L106.28,277.69L106.57,277.05L107.17,282.32L107.46,276.94L108.06,279.73L108.36,278.57L108.65,278.51L108.95,280.14L109.25,278.19L109.54,278.53L109.84,282.15L110.14,280.36L110.43,279.91L111.03,276.42L111.32,279.43L111.62,276.73L111.92,278.83L112.21,280.22L112.51,277.9L112.81,282.15L113.11,283.99L113.4,279.92L114.59,278.69L114.89,278.7L115.78,280.71L116.07,280.35L116.37,279.89L116.67,282.33L117.56,277.47L117.86,280.48L118.15,280.51L118.45,279.4L119.04,283.75L119.34,281.95L119.64,280.09L119.93,281.58L120.23,279.96L120.53,281.05L120.82,279.07L121.12,278.81L121.42,280.18L121.71,281.48L122.01,280.43L122.31,279.31L123.5,282.48L123.79,279.09L124.09,279.52L124.39,278.11L124.98,283.12L125.28,278.23L125.87,283.15L126.17,277.59L126.46,282.28L126.76,281.87L127.06,278.86L127.65,283.87L128.25,283.57L128.54,281.95L128.84,281.18L129.14,277.9L129.73,280.76L130.03,279.78L130.32,277.84L131.21,282.5L131.51,280.61L132.1,283.29L132.4,281.32L133,280.96L133.29,281.3L133.59,283.27L133.89,282.55L134.18,281.86L134.48,279.76L135.07,280.02L135.37,280.78L135.96,282.94L136.26,281.43L136.56,282.05L136.85,280.44L137.15,283.93L138.34,281.43L138.64,281.28L138.93,280.56L139.23,281.09L139.53,284.66L141.01,279.63L141.31,281.89L141.6,279.61L141.9,282.4L142.2,280.64L142.49,282.4L143.09,284.79L143.39,282.12L144.28,280.94L144.57,281.26L144.87,283.07L145.17,279.48L145.76,284.9L146.06,283.86L146.35,280.22L146.95,283.27L147.24,281.68L147.54,281.09L148.73,284.73L149.03,283.28L149.32,283.49L149.62,281.97L150.21,281.32L150.51,283.36L150.81,280.06L151.1,284.83L151.4,288.49L152.59,295.85L152.89,296.19L153.18,295.36L153.48,296.46L153.78,295.97L154.37,296.76L154.67,297.93L155.26,298.9L155.56,297.95L155.85,298.71L156.15,297.25L157.34,298.82L157.64,298.47L157.93,298.07L158.23,299.74L158.53,299.02L158.82,300.03L159.12,299.8L159.42,299.55L159.71,300.54L160.01,299.83L160.31,300.27L160.6,301.07L161.2,299.34L161.49,299.75L161.79,301.37L162.98,299.57L163.28,300.87L163.57,300.38L163.87,301.14L164.17,301.52L164.46,301.8L164.76,300.77L165.06,301.45L165.35,299.79L166.54,302.37L166.84,301.31L167.73,302.25L168.03,301.48L168.62,302.33L168.92,301.25L169.51,302.57L169.81,303.76L170.1,301.79L170.7,302.69L170.99,301.67L171.88,301.69L172.18,303.15L173.37,302.19L173.67,301.95L175.15,303.75L175.45,303.03L176.04,303.43L176.34,302.61L176.63,303.63L176.93,301.41L177.23,302.55L177.53,304.26L177.82,303.22L178.42,303.65L178.71,303.91L179.31,302.69L179.6,303.78L179.9,302.78L180.49,303.12L180.79,303.69L182.57,304.34L182.87,303.76L183.46,303.68L183.76,304.35L184.06,304.6L184.35,304.11L184.65,303.98L184.95,304.65L185.24,303.25L185.54,304.88L186.13,304.31L186.43,303.74L187.02,303.45L187.32,305.65L188.51,303.77L188.81,304.99L189.4,303.72L189.7,304.71L189.99,305.4L190.59,305.14L190.88,304.99L191.48,304.57L191.77,305.14L192.07,304.36L192.37,304.49L192.67,305L192.96,305.52L193.26,304.94L193.56,305L194.45,305.48L194.74,305.16L195.34,304.22L195.63,304.46L195.93,305.98L197.12,304.66L197.41,305.04L198.01,304.89L198.31,305.45L198.6,305.17L198.9,305.84L199.2,306.14L200.09,305.4L200.38,306.24L200.68,306.13L200.98,304.97L201.27,305.89L201.57,303.67L201.87,306.61L202.46,306.45L202.76,306.49L203.95,305.08L204.24,304.87L204.54,305.13L204.84,306.92L206.02,305.47L206.32,306.3L206.62,306.59L206.91,305.94L207.21,305.72L207.51,305.76L207.81,306.57L209.29,306.23L209.59,306.11L210.48,305.62L210.77,306.67L211.37,306.78L211.66,307.29L212.56,306.19L212.85,306.98L213.15,305.87L213.45,305.96L213.74,307.18L214.93,307.31L215.23,306.25L215.52,306.27L215.82,307.34L216.41,305.57L216.71,306.54L217.01,306.76L218.2,306.45L218.49,306.19L219.98,306.63L220.27,308.09L221.16,307L221.46,306.95L222.35,307.16L222.65,307.76L222.95,307.88L223.24,307.09L225.02,306.97L225.32,306.41L225.91,307.98L226.21,307.79L226.51,306.98L227.1,308.45L227.4,308.07L227.7,308.88L228.59,307.89L228.88,308.35L229.18,308.54L230.37,309.01L230.66,308.38L231.55,308.09L231.85,308.48L233.04,309.04L233.34,308.52L234.52,309.2L234.82,308.76L236.9,309L237.19,308.25L238.09,309.15L238.38,309.14L239.57,308.82L239.87,309.35L240.16,308.74L240.46,308.98L240.76,309.36L241.65,308.81L241.94,309.15L242.24,309.54L242.84,308.53L243.13,308.98L243.43,309.26L244.32,308.32L244.62,309.3L245.51,309.14L245.8,309.04L246.69,309.35L246.99,308.54L247.59,309.32L247.88,308.77L248.18,309L249.66,309.6L249.96,308.88L250.85,308.75L251.15,309.48L251.74,309.1L252.04,308.79L253.23,309.75L253.52,309.09L254.12,308.75L254.41,309.55L255.3,309.4L255.6,308.9L257.08,309.39L257.38,308.83L258.57,309.53L258.87,309.14L261.54,309.52L261.83,309.43L262.43,309.34L262.73,308.83L263.91,309.52L264.21,309.18L265.4,309.8L265.69,308.86L266.58,309.57L266.88,309.35L269.55,309.38L269.85,309.66L271.04,309.73L271.33,309.91L272.22,309.43L272.52,309.53L274.01,309.8L274.3,309.59L274.9,309.11L275.19,309.62L275.49,309.47L276.38,309.05L276.68,309.37L277.57,309.28L277.87,309.75L278.46,309.31L278.76,309.58L279.05,309.53L279.35,309.93L279.65,309.63L279.94,309.37L280.24,309.24L280.54,310.15L280.83,309.08L281.43,309.41L281.72,309.04L282.62,309.29L282.91,309.44L284.69,309.68L284.99,309.26L285.29,309.77L285.58,309.54L285.88,309.26L286.77,309.8L287.07,309.65L287.96,309.82L288.26,309.57L289.74,310.07L290.04,309.52L290.93,309.95L291.22,309.34L292.11,309.91L292.41,309.74L293.6,309.52L293.9,310.25L294.79,309.18L295.08,310.16L295.38,309.33L295.68,309.74L295.97,310.02L296.57,309.23" style="vector-effect: non-scaling-stroke; fill: none; stroke: rgb(214, 39, 40); stroke-opacity: 1; stroke-width: 2px; opacity: 1;"/></g><g class="points"/><g class="text"/></g><g class="trace scatter traced27f62" style="stroke-miterlimit: 2; opacity: 1;"><g class="fills"/><g class="errorbars"/><g class="lines"><path class="js-line" d="M0,39.57L1.19,112.91L1.48,119.7L2.97,143.11L3.27,142.71L4.45,162.23L4.75,164.23L8.31,199.73L8.61,197.11L9.8,208.75L10.09,209.62L10.39,208.61L10.69,212.41L10.98,207.46L11.28,212.9L11.58,218.32L12.17,219.08L12.47,216.96L12.77,221.85L13.06,218.27L13.36,222.22L13.66,222.09L13.95,222.09L14.25,224.55L14.55,224.3L14.84,227.14L15.14,227.76L15.44,225.64L16.03,230.8L16.33,226.62L17.81,237.04L18.11,235.87L19,233.31L19.3,238.23L19.59,239.2L19.89,235.55L21.67,242.47L21.97,241.86L22.26,241.45L22.56,242.04L22.86,243.77L23.16,243.16L23.45,244.94L23.75,244.28L24.05,246.55L24.34,244.93L24.64,247.41L24.94,248.85L25.23,246.61L25.53,247.43L25.83,247.92L26.42,247.82L26.72,248.86L27.01,249.87L27.31,254.51L28.2,251.1L28.5,251.58L28.8,252.21L29.09,250.6L29.39,254.54L29.69,253.58L29.98,254.38L30.28,255.52L30.58,256.19L30.87,254.46L31.17,256.12L31.47,254.34L31.76,256L32.06,255.73L32.95,259.02L33.25,256.53L33.55,260.52L33.84,256.04L34.14,258.98L34.44,255.83L34.73,255.15L35.03,260.22L35.33,262.45L35.92,261.81L36.22,258.21L36.51,263.76L36.81,261.73L37.11,258.04L37.7,261.38L38,259.17L38.59,265.72L38.89,264.66L39.19,262.75L39.78,261.73L40.08,264.22L40.97,259.26L41.26,262.7L42.15,266.9L42.45,264.29L43.05,264.68L43.34,265.01L43.94,262.12L44.23,266.4L44.83,265.09L45.12,266.9L45.72,266.15L46.01,267.77L46.9,264.77L47.2,266.4L47.5,269.33L48.09,268.02L48.39,268.36L48.98,269.53L49.28,267.86L49.58,265.21L49.87,268.2L50.17,270.1L50.47,271.26L50.76,267.6L51.06,271.88L51.65,271.57L51.95,270.03L52.25,270.6L52.55,269.05L52.84,270.04L53.14,265.44L53.44,272.24L54.03,271.89L54.33,269.01L54.92,271.98L55.22,269.98L56.7,274.51L57,272.75L57.89,270.88L58.19,270.04L58.78,269.68L59.37,278.89L59.67,273.58L60.86,270.47L61.15,271.47L61.45,273.2L61.75,271.91L62.04,272.72L62.34,275.63L62.64,277.29L62.94,276.33L63.23,273.07L63.53,271.47L63.83,273.67L64.12,274.46L64.42,275.21L64.72,271.22L65.01,272.09L65.31,277.62L65.61,277.17L65.9,275.02L66.2,273.57L66.79,274.4L67.09,273.16L67.39,275.96L67.69,274.89L67.98,274.37L68.58,278.82L68.87,277.54L69.17,275L69.47,275.24L69.76,274.2L70.36,277.29L70.65,276.96L70.95,275.89L71.25,278.56L71.84,277.33L72.14,276.86L72.43,276.2L72.73,276.83L73.03,274.27L73.33,274.49L73.62,276.41L73.92,276.03L74.22,280.02L74.51,280.53L74.81,279.9L75.11,276.89L75.7,277.69L76,274.93L76.29,275.46L77.48,279.53L77.78,276.97L78.08,277.89L78.37,276.72L78.67,277.05L78.97,277.74L79.26,275.69L79.86,279.68L80.15,279.14L80.45,276.19L81.93,281.54L82.23,278.91L82.53,278.7L82.83,275.38L83.12,281.22L83.72,278.32L84.01,276.07L84.31,280.59L84.61,278.59L84.9,277.27L85.2,279.36L85.5,279.25L85.79,277.79L86.39,280.6L86.68,279.2L86.98,278.74L87.28,280.94L87.58,278.57L87.87,280.55L88.17,278.25L88.47,277.45L88.76,279.52L89.36,281.55L89.65,281.17L89.95,280.81L90.25,279.92L90.54,281.68L90.84,276.68L91.14,278.16L91.43,280.2L91.73,279.36L92.03,282.9L92.32,284.57L92.62,280.15L92.92,278.54L93.22,280.52L93.51,279.2L93.81,281.07L94.4,276.93L94.7,279.29L95,283.24L95.29,282.68L95.59,279.67L96.18,282.75L96.48,280.11L97.07,282.38L97.37,279.85L98.26,284.08L98.56,282.39L98.86,280.34L99.15,281.23L99.45,282.06L100.34,279.6L100.64,280.14L100.93,282.78L101.23,284.49L101.53,282.47L101.82,280.03L102.72,285.18L103.01,283.14L103.61,279.23L103.9,285.05L105.09,281.34L105.39,282.87L106.57,280.2L106.87,283.78L107.17,287L107.46,283.86L107.76,284.01L108.36,282.17L108.65,282.53L108.95,283.35L109.54,280.38L109.84,285.61L110.14,286.25L110.43,283.83L110.73,283.12L111.03,280.17L111.32,284.79L111.92,282.68L112.21,284.18L112.51,282.65L112.81,286.85L114.29,281.41L114.59,282.58L114.89,284.17L115.18,282.63L115.48,283.18L116.07,285.82L116.37,284.17L116.67,286.53L116.96,284.42L117.26,282.92L117.56,281.74L117.86,283.42L118.15,282.41L118.45,283.5L118.75,285.88L119.34,284.83L119.64,283.68L119.93,283.45L120.23,284.87L121.12,282.78L121.42,284L121.71,286.17L122.01,284.01L122.31,283.93L122.61,283.97L122.9,285.42L123.5,286.44L123.79,281.35L124.98,286.9L125.28,283.42L126.46,287.32L126.76,282.8L127.06,282.65L127.35,286.2L127.65,287.7L127.95,285.79L128.25,287.32L128.54,285.38L129.14,283.67L129.43,285.29L130.32,283.9L130.62,287.48L130.92,288.46L131.21,284.91L131.81,285.59L132.1,287.2L132.7,283.17L133,283.71L133.29,285.19L133.59,287.59L133.89,285.91L134.18,286.12L135.07,284.11L135.37,285.37L135.67,287.01L135.96,286.05L136.26,285.27L136.85,288.22L137.15,287.4L137.45,285.74L137.75,284.35L138.34,284.8L138.64,285.2L138.93,283.55L139.23,286.49L139.53,289.67L140.12,289.35L140.42,286.34L141.01,284.6L141.31,285.99L141.6,282.76L141.9,285.74L142.2,285.8L143.09,289.31L143.39,287.08L143.68,284.51L144.28,285.18L144.57,287.15L144.87,287.5L145.17,286.3L145.46,290.18L145.76,289.87L146.06,287.58L146.35,285.6L146.95,286.31L147.24,286.21L148.14,287.19L148.43,286.47L149.32,288.75L149.62,287.55L149.92,284.49L150.21,288.17L150.51,287.72L150.81,285.87L151.1,287.05L151.4,291.24L152.59,299.69L152.89,300.51L153.18,300.76L153.48,300.18L153.78,300.07L155.26,303.22L155.56,302.59L156.15,302.35L156.45,302.1L157.04,302.63L157.34,304.27L157.93,303.3L158.23,303.85L158.53,303.2L159.71,304.52L160.01,303.94L160.9,305.17L161.2,304.07L161.79,305.38L162.09,305.29L162.38,305.16L162.98,304.53L163.28,305.55L163.57,305.18L163.87,306.07L164.46,305.31L164.76,305.75L165.06,305.81L165.35,305.29L165.65,305.68L165.95,305.82L166.24,305.77L166.54,306.83L166.84,305.65L167.43,306.22L167.73,306.49L168.92,306.21L169.21,306.72L169.81,307.47L170.1,306.61L170.7,307.63L170.99,306.35L171.29,306.79L171.59,306.43L171.88,306.23L172.18,307.9L172.48,307.03L172.78,306.33L173.67,307.61L173.96,307.31L174.85,306.95L175.15,308.14L177.23,307.64L177.53,307.7L177.82,307.36L178.12,308.73L179.31,307.61L179.6,307.98L179.9,307.43L180.2,308.29L180.49,307.99L181.98,308.82L182.27,308.42L182.57,309.16L182.87,308.3L183.17,307.99L184.35,308.95L184.65,308.79L186.43,308.68L186.73,308.46L187.92,309.35L188.21,308.96L188.51,309.62L189.1,309.17L189.4,308.21L190.59,309.58L190.88,308.5L191.77,309.52L192.07,308.98L192.37,308.41L192.67,309.32L192.96,309.49L194.74,309.57L195.04,309.02L195.93,310.51L196.23,310.01L196.52,310.02L197.71,308.96L198.01,309.34L198.9,310.15L199.2,310.27L200.38,310.1L200.68,310.09L201.57,308.89L201.87,310.46L203.65,310.6L203.95,309.31L205.43,310.42L205.73,310.23L207.51,309.68L207.81,310.62L210.48,309.88L210.77,310.96L211.96,310.65L212.26,310.59L213.45,309.92L213.74,310.81L214.34,311.24L214.63,310.44L215.52,310.08L215.82,310.98L216.12,310.44L216.41,310.63L216.71,311.33L218.2,310.57L218.49,310.9L219.38,310.1L219.68,310.88L221.46,311.11L221.76,310.55L222.35,310.91L222.65,311.3L225.32,310.56L225.62,311.19L227.7,311.68L227.99,311.73L233.04,312L233.34,311.84L234.23,311.76L234.52,311.71L241.05,311.94L241.35,311.59L242.54,312.07L242.84,311.97L245.21,312.04L245.51,312.19L249.37,311.87L249.66,312.18L256.49,312.35L256.79,312.39L257.68,312.37L257.98,312.35L262.43,312.26L262.73,312.36L263.91,312.13L264.21,312.5L265.99,312.15L266.29,312.3L269.85,312.18L270.15,311.96L271.63,312.39L271.93,312.07L273.71,312.44L274.01,312.34L277.57,312.32L277.87,312.62L280.24,312.25L280.54,312.53L280.83,311.85L281.43,312.14L281.72,312.41L296.57,312.29" style="vector-effect: non-scaling-stroke; fill: none; stroke: rgb(148, 103, 189); stroke-opacity: 1; stroke-width: 2px; opacity: 1;"/></g><g class="points"/><g class="text"/></g><g class="trace scatter trace0b4288" style="stroke-miterlimit: 2; opacity: 1;"><g class="fills"/><g class="errorbars"/><g class="lines"><path class="js-line" d="M0,55.28L0.89,125.61L1.19,131.87L1.78,137.67L2.08,143.28L2.37,142.29L2.67,148.49L4.45,170.15L4.75,170.09L8.02,202.52L8.31,203.97L8.61,200.78L8.91,210.48L9.2,206.98L9.5,210.69L9.8,213.77L10.39,212.29L10.69,215.87L10.98,215.11L11.28,216.83L12.17,224.15L12.47,223.63L12.77,225.6L13.06,221.89L13.36,225.34L13.66,225.43L14.84,233.49L15.14,231.05L15.44,230.88L16.03,235.6L16.33,233.1L16.62,231.06L18.11,242.28L18.41,240.12L18.7,241.2L19,237.62L19.59,246.05L19.89,241.17L20.19,242.24L21.97,247.68L22.26,248.04L22.86,248.74L23.16,247.17L23.75,251.43L24.05,249.4L24.34,250.86L24.64,252.29L24.94,251.13L25.23,249.63L26.42,254.69L26.72,254.14L27.01,254.6L27.31,258.14L28.5,254.41L28.8,255.03L30.28,260.88L30.58,259.09L30.87,258.8L31.17,259.95L31.47,258.8L32.06,259.36L32.36,262.64L32.66,263.68L32.95,260.73L33.25,259.83L33.55,264.26L33.84,260.13L34.44,261.19L34.73,258.92L35.33,265.51L35.62,263.16L35.92,266.37L36.22,263.07L36.81,263.42L37.11,262.45L38,264.14L38.3,263.31L38.59,271.07L39.78,264.71L40.08,268.07L40.97,263.46L41.26,267.22L41.56,269.49L41.86,265.88L42.15,270.62L42.45,267.05L42.75,267.02L43.05,267.7L43.34,267.1L43.64,266.03L45.12,271.16L45.42,268.4L45.72,268.55L46.01,271.26L46.31,266.47L46.61,267.93L46.9,269.24L47.2,269.04L47.5,272.85L48.39,270.1L48.69,272.13L48.98,272.18L49.28,270.31L49.58,268.32L49.87,268.5L50.17,271.66L50.47,273.33L50.76,270.97L51.06,271.93L51.65,274.59L51.95,272L52.25,273.16L52.55,270.1L53.14,268.82L53.44,275.64L53.73,274.05L54.03,274.02L54.33,270.07L54.92,274.33L55.51,273.82L55.81,272.51L57,274.82L57.29,273.91L57.59,275.26L57.89,272.23L58.19,269.81L58.48,274.72L58.78,272.63L59.08,274.31L59.37,279.71L60.26,273.08L60.56,273.61L60.86,271.69L61.75,275.82L62.04,272.99L62.64,276.55L62.94,275.1L63.23,275.4L63.83,274.13L64.12,275.71L64.42,276.12L64.72,274.09L65.31,279.91L65.61,276.85L65.9,277.07L66.2,274.65L66.79,277.25L67.09,274.57L67.39,278.02L67.69,276.38L67.98,276.09L68.58,280.32L68.87,278.17L69.17,276.59L69.47,276.3L69.76,277.51L70.06,275.31L70.36,278.21L70.65,276.65L70.95,275.82L71.25,280.24L71.54,279.89L71.84,277.48L72.73,280.17L73.03,276.51L73.33,276.41L73.62,279.04L73.92,276.87L74.22,280.48L74.81,281.07L75.11,277.14L75.4,276.65L75.7,278.92L76,276.42L76.59,277.51L76.89,278.23L77.48,281.12L77.78,279.67L78.08,278.23L78.97,278.99L79.26,275.62L79.86,280.13L80.15,278.61L80.45,276.92L81.34,282.61L81.64,280.65L81.93,281.08L82.23,278.12L83.12,283.39L83.42,281.1L83.72,279.48L84.31,280.16L84.61,278.86L85.2,281.37L85.5,277.66L85.79,278.76L86.09,282.96L86.98,279.22L87.28,280.9L87.58,280.77L87.87,282L89.06,279.92L89.36,282.69L89.65,280.88L90.25,281.45L90.54,281.18L91.43,279.85L91.73,280.24L92.32,284.62L92.62,283.35L92.92,279.53L93.81,281.55L94.11,280.35L94.7,280.22L95,284.18L95.29,283.61L95.59,280.04L96.18,283.82L96.48,282.1L96.78,281.49L97.07,283.28L97.37,278.91L98.56,284.98L98.86,280.42L99.15,280.57L99.45,283.17L99.75,280.87L100.34,281.05L100.64,283.43L101.23,284.97L101.53,283.74L101.82,280.16L102.42,281.68L102.72,283.4L103.01,284.62L103.31,283.09L103.61,279.27L103.9,285.33L104.5,285.29L104.79,283.83L105.09,282.64L105.39,285.25L105.68,281.6L106.28,282.12L106.57,281.49L107.17,288.33L107.46,282.85L107.76,284.79L108.06,283.7L108.36,281.44L108.65,284.28L108.95,283.39L109.25,281.77L109.54,282.36L109.84,285.79L111.32,282.56L111.62,283.91L111.92,283.63L112.21,284.85L112.51,283.73L112.81,288.09L114,282.83L114.29,285.03L114.59,283.58L115.18,284.29L115.48,284.25L115.78,286.59L116.07,284.74L116.37,285.14L116.67,286.83L116.96,284.47L117.26,282.62L117.56,282.87L117.86,284.23L118.15,282.25L118.45,283.81L118.75,287.55L119.93,284.43L120.23,285.15L120.53,286.96L120.82,285.99L121.12,283.41L121.42,283.61L121.71,286.98L122.31,283.11L122.61,285.27L123.5,287.77L123.79,284.26L124.09,285.49L124.39,283.3L124.68,288.46L124.98,288.23L125.28,285.16L125.87,285.87L126.17,284.56L126.76,286.92L127.06,283.03L127.65,287.35L128.25,286.72L128.54,285.49L128.84,286.14L129.14,283.77L129.73,286.62L130.03,285.51L130.32,284.44L130.92,288.02L131.21,287.86L131.51,285.49L132.4,286.76L132.7,284.75L133.59,288.1L133.89,284.86L134.18,286.72L134.78,286.51L135.07,286.13L136.26,284.47L136.56,287.83L136.85,287.07L137.15,288.5L137.45,288.38L137.75,284.65L138.04,286.84L138.64,286.26L138.93,285.93L139.23,285.68L139.53,288.51L140.42,286.9L140.71,288.04L141.01,284.6L141.31,288.76L141.6,285.43L141.9,285.51L142.2,285.58L142.49,288.21L142.79,290.06L143.09,289.75L143.39,286.75L143.98,285.75L144.28,287.19L145.17,286.23L145.46,288.45L145.76,288.34L146.06,287.15L146.35,285.2L146.65,288.22L146.95,286.48L148.43,288.52L148.73,288.3L149.62,287.25L149.92,287.26L150.21,285.8L150.51,288.42L150.81,285.83L151.1,288.44L151.4,291.41L152.29,299.33L152.59,300.61L153.78,301.17L154.07,301L154.96,303.67L155.26,303.5L155.56,302.84L157.04,303.1L157.34,304.58L158.53,303.84L158.82,304.66L159.12,304.09L159.42,304.44L159.71,305.12L160.01,303.89L160.31,305.2L160.6,305.56L160.9,304.25L161.2,305.15L161.49,305.42L161.79,306.09L162.09,305.05L162.38,305.67L162.68,304.7L164.17,306.53L164.46,306.21L165.06,306.48L165.35,304.88L165.65,306.25L166.24,306.03L166.54,306.72L166.84,306.07L167.13,306.46L167.43,307.16L167.73,307.11L168.03,306.09L168.32,306.9L168.62,306.68L168.92,306.03L169.81,307.48L170.1,307.29L170.4,307.08L170.7,307.5L170.99,307.06L171.29,306.78L171.88,306.8L172.18,307.85L174.85,307.68L175.15,308.31L176.04,307.82L176.34,307.6L176.63,308.65L176.93,307.32L177.23,307.74L178.12,308.69L178.42,307.82L178.71,308.17L179.01,307.86L179.31,307.61L180.79,308.83L181.09,308.42L182.87,308.84L183.17,308.45L183.46,307.98L183.76,308.65L184.06,309.24L184.95,308.9L185.24,308.36L185.84,309.71L186.13,309.02L186.43,308.63L187.02,309.27L187.32,309.52L188.51,309.1L188.81,309.4L189.1,309.5L189.4,308.38L190.29,309.95L190.59,309.53L190.88,309.27L192.07,309.06L192.37,308.73L192.67,309.69L193.26,309.23L193.56,309.66L195.34,309.15L195.63,310.04L195.93,310.76L196.23,310L196.52,309.52L197.41,309.83L197.71,309.5L199.49,310.65L199.79,310.36L200.98,310.07L201.27,309.98L201.57,309.9L201.87,310.77L203.06,310.09L203.35,310.33L204.54,309.46L204.84,310.3L205.73,310.31L206.02,309.99L206.91,310.03L207.21,309.96L207.51,309.67L207.81,310.51L208.7,310.87L208.99,310.59L210.77,310.58L211.07,310.96L211.37,310.25L211.66,311.31L211.96,310.91L212.56,310.24L212.85,310.55L213.15,310.76L213.45,310.43L213.74,310.84L214.04,311.06L215.23,311.29L215.52,310.13L215.82,310.87L216.41,310.48L216.71,311.03L217.6,310.94L217.9,310.57L219.09,310.5L219.38,310.45L220.27,311.58L220.57,311.18L221.76,310.51L222.05,310.68L223.54,311.31L223.84,311.08L225.32,310.54L225.62,311.37L226.8,311.38L227.1,311.63L227.4,311.18L227.7,311.45L227.99,311.7L229.48,311.8L229.77,311.71L234.82,311.82L235.12,311.79L237.19,311.92L237.49,312.25L238.98,311.77L239.27,312.24L240.46,311.83L240.76,312.12L241.94,311.78L242.24,312.34L242.84,311.65L243.13,312L243.43,312.18L245.21,311.89L245.51,312.14L246.69,312.2L246.99,312.41L248.48,312.2L248.77,312.17L257.68,312.24L257.98,312.41L260.65,312.16L260.94,312.12L261.83,312.28L262.13,311.91L263.32,312.32L263.62,312.16L266.29,312.37L266.58,312.34L267.77,312.42L268.07,312.38L269.55,312.12L269.85,312.22L283.8,312.37L284.1,312.51L284.99,312.14L285.29,312.29L287.07,312.48L287.36,312.41L288.55,312.25L288.85,312.39L289.74,312.49L290.04,312.1L293.3,312.41L293.6,312.31L294.49,312.59L294.79,312.24L295.68,312.55L295.97,312.2L296.57,312.37" style="vector-effect: non-scaling-stroke; fill: none; stroke: rgb(140, 86, 75); stroke-opacity: 1; stroke-width: 2px; opacity: 1;"/></g><g class="points"/><g class="text"/></g><g class="trace scatter trace3d6a86" style="stroke-miterlimit: 2; opacity: 1;"><g class="fills"/><g class="errorbars"/><g class="lines"><path class="js-line" d="M0,93.24L1.19,145.96L1.48,154.81L2.37,169.17L2.67,179.98L3.27,185.35L3.56,192.07L4.16,194.07L4.45,202.65L6.83,224.28L7.12,223.67L7.42,225.47L8.31,231.06L8.61,229.42L8.91,236.63L9.2,236.12L9.5,237.49L9.8,236.42L10.09,239.24L10.39,235.58L10.69,237.72L10.98,239.16L11.28,237.82L11.58,246.01L11.87,246.44L12.17,248.27L12.47,248.43L12.77,249.57L13.06,245.8L13.66,246.04L13.95,249.56L14.25,247.61L14.55,249.74L14.84,253.85L15.44,251.14L15.73,255.12L16.03,256.44L16.33,254.21L17.22,252.62L17.52,255.82L18.41,262.87L18.7,258.97L19,254.96L19.3,258.51L19.59,262.2L19.89,258.51L20.19,258.73L20.48,260.96L20.78,264.69L21.08,263.45L21.37,261.18L22.26,263.52L22.56,264.12L22.86,264.61L23.16,262.77L24.05,267.28L24.34,264.42L24.64,268.45L24.94,265.79L25.23,265.68L25.83,266.96L26.12,265.3L26.42,265.51L26.72,270.19L27.01,269.05L27.31,273.67L27.61,267.23L28.2,268.21L28.5,270.25L28.8,270.34L29.09,269.59L29.39,268.32L29.69,273.18L29.98,271.57L30.28,276.29L30.58,270.75L31.17,271.88L31.47,270.88L32.36,273.4L32.66,277.65L33.25,272.07L33.55,276.5L34.44,272.42L34.73,274.36L35.33,275.72L35.62,277.61L36.22,275.41L36.51,278.25L37.4,274.48L37.7,276.65L38,274.16L38.3,275.16L38.59,280.96L38.89,276.75L39.48,277.34L39.78,275.87L40.08,277.55L40.37,277.46L40.67,275.34L42.15,282.24L42.45,279.3L43.05,279.84L43.64,276.08L43.94,279.81L44.23,279.52L44.53,280.58L44.83,279.29L45.12,282.25L45.72,280.06L46.01,281.38L46.61,277.91L46.9,280.12L47.2,281.41L47.5,284.58L47.8,282.24L48.09,282.51L48.98,282.73L49.28,280.79L49.87,280.15L50.17,279.42L50.76,284.39L51.06,283.58L51.36,283.52L51.65,285.29L51.95,283.15L52.25,281.83L52.55,280.16L52.84,284.5L53.14,278.38L53.44,285.56L53.73,283.92L54.33,284.07L54.62,281.49L54.92,283.68L55.51,282.97L55.81,282.25L56.11,282.74L56.4,287.81L56.7,284.77L57.29,285.76L57.59,286.6L58.78,281.23L59.08,285.53L59.37,289.17L59.67,287.01L59.97,286.65L60.26,283.94L60.86,284.84L61.15,283.54L61.45,283.67L61.75,287.16L62.04,282.68L62.34,287.1L62.64,287.21L63.23,287.36L63.53,283.88L63.83,283.73L64.42,287.39L64.72,285.49L65.01,282.52L65.31,290.32L65.9,286.69L66.2,285.88L66.79,287.14L67.09,285.82L67.69,284.69L67.98,287.23L68.28,289.58L68.87,289.15L69.17,287.18L69.47,284.34L69.76,287.45L70.06,287.26L70.36,287.73L70.65,286.43L70.95,285.99L71.25,288.82L72.43,287.54L72.73,289.21L73.33,285.89L73.62,286.12L73.92,286.08L74.22,291.72L74.81,289.78L75.11,287.54L75.4,286.83L75.7,290.14L76,285.41L76.59,287.92L76.89,286.18L77.18,290.19L77.78,289.95L78.08,288.24L78.37,287.65L78.67,288.87L78.97,289.48L79.26,287.69L79.86,287.55L80.15,291.05L80.45,288.73L80.75,291.43L81.04,289.44L81.34,290.28L82.53,286.74L82.83,287.25L83.12,291.98L83.72,288.47L84.01,290.52L84.31,291.48L84.9,286.33L85.2,289.52L85.5,290.52L85.79,286.18L86.39,292.21L86.68,288.96L86.98,290.41L87.28,291.72L87.58,289.25L87.87,290.36L88.17,288.76L88.47,288.39L88.76,288.72L89.06,293L89.36,293.27L89.65,291.65L89.95,289.29L90.25,292.44L90.54,291.91L90.84,288.02L91.43,288.67L91.73,290.28L92.03,292.15L92.32,291.57L92.62,291.07L93.81,289.97L94.11,291.61L94.4,288.16L94.7,289.63L95,292.69L95.29,292.76L95.59,289L95.89,291.84L96.18,291.79L96.48,289.8L97.07,291.8L97.37,289.92L97.67,289.68L97.97,294.69L98.26,295.04L98.56,291.98L98.86,291.44L99.15,292.56L99.45,290.5L99.75,291L100.04,291.72L100.64,289.41L100.93,291.34L101.53,294.3L101.82,292.32L102.12,291.22L102.42,291.63L102.72,289.9L103.01,289.86L103.31,291.23L103.61,289.5L103.9,295.57L104.2,290.96L104.79,292.61L105.09,292.28L105.39,293.03L105.68,291.29L105.98,292.22L106.28,290.4L106.87,293.14L107.17,292.61L107.46,291.79L107.76,292.73L108.06,292.59L108.36,290.41L108.65,292.11L109.25,291.48L109.54,289.5L109.84,295.63L110.43,293.08L110.73,289.2L111.92,292.23L112.21,292.4L112.51,291.18L112.81,294.84L113.4,292.09L113.7,293.53L114,292.83L114.29,293.51L114.59,290.98L115.18,293.19L115.48,290.99L115.78,293.86L116.37,293.18L116.67,293.81L116.96,293.92L117.26,291.62L117.86,291.21L118.15,292.66L118.45,291.29L119.04,295.19L119.34,292.78L119.64,292.86L120.82,294.2L121.12,292.15L121.42,294.35L122.01,293.72L122.31,294.13L122.61,294.55L122.9,292.53L123.2,294.74L123.5,294.39L123.79,293.07L124.09,289.67L124.39,291.85L124.68,295.69L124.98,296.54L125.28,290.5L126.17,293.1L126.46,292.4L127.06,292.14L127.35,293.02L127.65,296.42L128.25,295.97L128.54,295.57L128.84,294.9L129.14,292.39L129.43,294.52L129.73,292.57L130.03,293.22L130.32,293.23L130.62,295.74L131.21,293.8L131.51,294.79L131.81,293.11L132.1,294.46L132.4,294.22L132.7,296L133,292.97L133.89,295.96L134.18,295.41L134.48,291.39L134.78,294.03L135.37,292.82L135.67,294.78L135.96,295.36L136.26,290.42L137.15,297.66L137.45,293.35L137.75,295.04L138.04,293.25L138.34,292.58L138.64,294.72L138.93,290.18L139.53,296.72L139.82,295.27L140.12,293.77L140.71,296.32L141.31,295.67L141.6,293.15L142.2,292.78L142.49,296.6L142.79,296.11L143.98,292.45L144.28,293.28L144.87,293.67L145.17,292.33L145.76,292.27L146.06,296.35L146.35,295.64L146.65,296.59L146.95,293.22L147.24,292.1L147.54,292.62L147.84,293.24L148.14,292.49L148.43,297.38L148.73,294.76L149.03,295.08L149.32,296.31L150.21,293.45L150.51,295.98L150.81,292.5L151.1,295.9L151.4,297.97L152.29,294.33L152.59,294.47L152.89,296L153.18,293.39L154.37,296.72L154.67,294.85L155.26,297.13L155.56,293.7L155.85,293.87L156.15,293.12L156.45,292.01L156.74,295.96L157.04,291.66L157.34,297.63L157.64,295.9L158.53,295.22L158.82,293.63L159.12,293.6L159.42,294.39L160.01,294.34L160.31,296.13L160.9,297.65L161.2,295.88L161.49,294.79L161.79,296.96L162.09,293.62L162.68,294.04L162.98,292.83L163.28,297.01L163.57,295.13L163.87,294.24L164.17,295.75L164.46,294.59L164.76,294.86L165.06,294.72L165.35,291.72L166.24,296.65L166.54,295.35L166.84,298.07L167.43,297.14L167.73,294.86L168.03,294.37L168.32,294.85L168.62,295.63L168.92,292.24L169.21,296.78L169.51,296.36L169.81,297.84L170.1,296.71L170.4,294.96L170.7,295.92L170.99,295.35L171.29,293.72L172.18,298.65L172.48,294.04L173.07,297.06L173.37,294.83L173.67,298.24L173.96,297.02L174.26,295.79L174.56,296L174.85,294.94L175.45,297.97L175.74,294.17L176.63,296.83L176.93,294.03L177.53,294.61L177.82,294.92L178.12,297.33L178.42,296.22L178.71,295.58L179.31,295.28L179.6,296.97L179.9,293.43L180.2,297.2L180.49,294.44L180.79,294.96L181.09,298.45L181.68,297.39L181.98,298.72L182.57,295.06L182.87,296.59L183.17,295.15L183.46,294.93L183.76,296.21L184.06,298.84L184.35,297.71L184.65,296.39L185.54,296.93L185.84,294.97L186.13,296.04L186.43,294.32L186.73,294.37L187.62,297.08L187.92,295.77L188.21,296.8L188.51,294.41L189.4,294.53L189.7,297.24L189.99,298.2L190.29,296.79L190.59,296.06L190.88,297.33L191.18,296.12L191.48,295.23L191.77,294.63L192.37,295L192.67,294.96L193.85,297.65L194.15,296.08L195.04,294.09L195.34,295.12L195.63,294.64L195.93,298.02L196.23,297.19L196.52,299.55L196.82,295.48L197.41,296.45L197.71,297.49L198.31,295.66L198.6,296.15L198.9,299.71L199.2,296.5L199.79,298.12L200.09,295.21L200.68,295.74L200.98,294.15L201.57,293.45L201.87,300.88L202.16,297.2L202.76,297.61L203.35,295.43L203.65,295.46L204.24,294.41L204.54,295.91L205.43,298.26L205.73,294.98L206.02,297.03L206.32,293.62L207.51,295.56L207.81,299.8L208.7,294.92L208.99,297.22L209.29,295.76L209.88,296.58L210.18,295.68L210.48,293.97L210.77,299L211.07,297.21L211.66,297.63L211.96,297.1L212.56,293.83L212.85,296.2L213.15,296.13L213.45,293.6L213.74,298.5L214.34,299.49L214.63,295.93L215.23,296.03L215.52,298.32L215.82,294.33L216.12,295.17L216.41,297.68L216.71,298.36L217.01,297.48L217.3,296.58L217.6,296.02L217.9,298.98L218.49,294.49L218.79,296.49L219.09,297.27L219.38,293.37L219.68,298.52L219.98,299.61L220.87,296.27L221.16,298.48L221.76,294.54L222.05,295.81L222.35,296.12L222.65,299.18L223.24,298.98L223.54,295.87L223.84,295.77L224.13,296.98L224.43,294.49L224.73,295.02L225.02,296.29L225.32,296.61L225.62,302.78L226.8,307.52L227.1,307.23L228.29,308.14L228.59,308.79L229.48,310.06L229.77,309.42L230.07,309L230.96,309.09L231.26,310.25L232.15,310.21L232.44,310.82L233.34,310.26L233.63,310.16L234.82,310.92L235.12,310.88L236.3,311.14L236.6,310.16L237.79,311.36L238.09,311.33L238.98,311.19L239.27,311.37L240.46,311.71L240.76,311.02L241.05,311.7L241.65,311.35L241.94,311.42L244.32,311.77L244.62,311.68L245.8,311.95L246.1,312.17L249.37,312.03L249.66,312.18L250.55,312.36L250.85,312.45L252.33,312.45L252.63,311.96L253.52,312.12L253.82,312.15L255.01,312.25L255.3,312.69L256.49,312.24L256.79,312.36L257.98,312.62L258.27,312.67L259.16,312.54L259.46,312.3L259.76,312.58L260.05,312.15L260.35,311.98L261.24,312.78L261.54,311.96L261.83,312.75L262.43,312.29L262.73,312.4L271.63,312.83L271.93,312.94L273.41,312.65L273.71,312.69L276.38,312.54L276.68,312.24L277.87,313.12L278.16,312.93L282.91,313L283.21,312.83L284.4,312.93L284.69,312.84L287.66,312.82L287.96,312.72L289.74,313.15L290.04,312.8L292.41,312.96L292.71,312.69L294.79,312.85L295.08,312.96L297.16,313.05L297.46,312.78L298.65,312.8L298.94,312.95L301.02,313.01L301.32,313.01L304.88,312.96L305.18,313.14L309.63,312.87L309.93,313L312.9,312.92L313.19,313.07L321.8,312.83L322.1,313.25L323.29,313.14L323.58,313.07L324.77,313.01L325.07,312.99L327.74,313.04L328.04,312.88L328.63,313.11L328.93,312.78L329.22,313.01L334.27,313.09L334.57,313.09L335.16,312.81L335.46,313.33L336.05,312.61L336.35,313.03L336.64,313.13L337.83,313.09L338.13,312.97L339.02,312.92L339.32,313.27L341.1,312.95L341.39,313.13L344.36,313.36L344.66,313.21L346.14,313.18L346.44,313.11L348.22,313.29L348.52,313.12L350.3,313.27L350.6,313.23L357.42,313.31L357.72,313.4L359.5,313.24L359.8,313.39L362.17,313.15L362.47,313.29L365.44,313.38L365.74,313.46L367.22,313.22L367.52,313.38L370.19,313.27L370.49,313.42L374.94,313.24L375.24,313.31L377.61,313.41L377.91,313.35L380.58,313.38L380.88,313.39L387.41,313.32L387.71,313.44L388.6,313.37L388.89,313.42L391.86,313.31L392.16,313.44L400.77,313.35L401.06,313.45L420.36,313.34L420.66,313.43L424.52,313.37L424.81,313.38L442.03,313.33L442.33,313.38L445,313.48" style="vector-effect: non-scaling-stroke; fill: none; stroke: rgb(227, 119, 194); stroke-opacity: 1; stroke-width: 2px; opacity: 1;"/></g><g class="points"/><g class="text"/></g><g class="trace scatter tracee4bce2" style="stroke-miterlimit: 2; opacity: 1;"><g class="fills"/><g class="errorbars"/><g class="lines"><path class="js-line" d="M0,90.01L1.19,148.54L1.48,155.23L5.05,211.86L5.34,212.87L7.42,227.9L7.72,228.28L8.91,238.12L9.2,237.67L9.5,236.57L10.09,239.91L10.39,237.75L12.47,248.99L12.77,248.56L13.06,246.38L13.36,249.52L13.66,249.35L13.95,247.82L14.25,248.78L14.55,249.56L14.84,255.33L15.44,252.67L15.73,254.46L16.03,256.87L16.33,254.89L16.62,253.06L16.92,253.14L17.22,252.2L18.41,260.84L18.7,257.97L19,254.58L19.3,257.9L19.59,263.12L20.19,258.43L20.48,260.36L20.78,263.12L21.08,261.19L21.37,261.28L21.67,262.51L21.97,262L22.26,263.46L22.86,264.32L23.16,262.79L23.45,264.34L24.05,263.61L24.34,264.13L24.64,266.47L24.94,265.12L25.23,264.52L25.53,264.81L25.83,267.6L26.42,264.32L26.72,267.86L27.01,266.36L27.31,271.42L28.2,265.09L28.5,267.63L28.8,268.01L29.09,266.68L29.69,268.68L29.98,267.33L30.28,274.33L30.58,268.7L30.87,269.01L31.47,268.3L31.76,270.26L32.06,268.61L32.36,271.05L32.66,275.11L33.84,268.45L34.14,272.78L34.44,269.52L34.73,269.57L35.03,272.82L35.33,272.98L35.62,274.15L35.92,273.71L36.22,271.15L36.51,275.11L37.11,273.94L37.4,269.67L38,272.61L38.3,270.35L38.59,277.24L39.19,275.08L39.48,272.16L40.08,275.96L40.37,274.92L40.67,270.31L41.56,277.4L42.15,276.9L42.45,274.27L42.75,272.94L43.05,276.72L43.94,273.55L44.23,275.11L44.83,277.67L45.12,277.07L45.42,276.79L45.72,276.56L46.01,274.95L46.31,274.2L46.61,275.21L46.9,277.6L47.2,274.51L47.5,280.48L47.8,280.03L48.09,275.9L48.98,277.69L49.28,275.44L49.58,276.9L49.87,275.27L50.17,274.98L51.06,280.1L51.36,279.58L51.65,278.6L51.95,276.28L52.55,277.1L52.84,279.97L53.14,271.84L53.44,282.36L53.73,279.66L54.03,281.1L54.33,278.71L54.62,277.54L54.92,279.75L55.22,277.84L55.81,278.45L56.11,278.93L56.4,282.79L56.7,278.96L57,280.72L57.29,282.42L57.59,280.36L57.89,276.86L58.48,281.4L58.78,276.85L59.37,285.77L59.67,283.91L59.97,278.56L60.26,278.28L60.56,280.77L60.86,280.36L61.15,277.82L61.75,283L62.04,278.81L62.34,284.29L62.94,282.03L63.23,282.33L63.53,282.44L63.83,280.79L64.12,279.75L64.42,281.92L65.01,279.25L65.31,284.33L66.5,281.13L66.79,283.75L67.09,279.89L67.39,285.61L67.69,280.99L67.98,281.1L68.58,286.55L68.87,282.46L69.17,282.75L69.47,282.31L69.76,284.46L70.06,279.65L70.65,282L70.95,280.99L71.25,285.69L71.54,284.83L71.84,282.62L72.14,285.74L72.43,282.15L72.73,284.42L73.03,282.42L73.92,281.95L74.22,286.91L75.11,282.53L75.4,285.89L76.29,282.05L76.59,284.37L76.89,281.02L77.18,286.64L78.08,283.82L78.37,285.33L78.67,285.39L78.97,284.21L79.26,282.42L79.56,284.84L79.86,283.06L80.15,287.18L80.45,281.89L80.75,286.48L81.04,287L81.34,287.27L81.64,285.73L82.53,283.83L82.83,282.17L83.12,287.49L83.72,285.23L84.01,284.65L84.31,287.24L84.61,285.7L84.9,285.04L85.2,284.16L85.5,284.79L85.79,284.95L86.39,288.18L86.68,287.29L86.98,285.01L87.28,287.77L87.58,284.83L87.87,287.69L88.17,285.45L88.76,282.09L89.06,290.09L89.36,289.13L89.65,285.56L90.54,287.74L90.84,283.62L92.03,289.77L92.32,288.13L92.62,286.34L92.92,285.68L93.22,286.4L93.51,286.59L93.81,285.34L94.4,286.03L94.7,285.88L95.29,288.96L95.59,285.13L96.18,288.31L96.48,285.38L96.78,284.85L97.07,289.37L97.67,286.48L97.97,289.17L98.26,290.44L98.56,289.37L98.86,285.91L99.15,287.98L99.45,287.9L99.75,284.13L100.93,289.7L101.23,290.46L101.82,284.08L102.12,287.5L102.42,288.54L102.72,285.79L103.01,287.86L103.31,287.71L103.61,284.09L104.5,290.09L104.79,286.87L105.39,289.99L105.68,287.92L105.98,287.83L106.28,285.37L106.57,287.83L106.87,290.47L107.17,290.31L107.46,288.07L107.76,288.74L108.06,288.06L108.36,285.63L108.65,290.06L109.25,288.2L109.54,284.64L109.84,291.21L110.43,287.87L110.73,289.25L111.62,287.72L111.92,288.28L112.21,289.35L112.51,287.95L112.81,291.97L114,287.06L114.29,290.05L114.59,290.62L114.89,289.88L115.18,289.43L115.48,286.98L115.78,291.47L116.67,289.32L116.96,290.78L117.26,286.59L117.56,288.47L117.86,289.68L118.15,285.22L118.45,288.45L118.75,291.91L119.04,292.33L119.34,289.53L119.64,288.36L119.93,290.29L120.53,288.5L120.82,290.05L121.42,287.66L121.71,290.73L122.01,290.87L122.31,290.04L122.61,291.26L123.2,290.6L123.5,290.55L124.09,286.71L124.39,288.55L124.98,292.19L125.28,287.17L125.57,291.49L126.17,290.05L126.46,290.64L126.76,287.64L127.06,289.52L127.35,289.46L128.25,294.74L128.54,290.34L129.14,291.28L129.43,291.67L130.03,287.78L130.32,288L130.62,292.21L130.92,293.05L131.21,290.86L132.1,286.58L132.4,289.93L132.7,291.61L133,289.38L133.29,289.53L133.59,293.14L133.89,289.86L134.18,289.61L134.48,288.33L134.78,291.26L135.37,287.22L135.67,290.67L135.96,292.75L136.56,291.64L136.85,289.69L137.15,292.67L137.45,289.72L137.75,290.07L138.04,289.12L138.34,291.85L138.64,291.48L138.93,288.22L139.53,295.15L140.12,294.53L140.42,290.23L141.31,292.18L141.6,289.79L142.2,289.04L142.49,293.42L142.79,291.3L143.09,293.87L143.39,292.03L143.68,292.38L143.98,289.63L144.28,290.91L144.57,292.32L145.17,289.09L145.46,293.01L145.76,295.93L146.06,293.53L146.35,290.67L146.95,291.82L147.24,290.53L147.54,289.06L147.84,293.53L148.14,289.64L148.73,291.26L149.03,291.94L149.32,294.6L149.62,291.33L149.92,291.06L150.81,289.86L151.1,292.12L151.4,292.07L151.7,294.69L153.48,290.4L153.78,292.03L154.07,290.26L154.37,292.42L154.67,293.01L155.56,294.5L155.85,291.46L156.15,292.16L156.45,290.38L156.74,288.96L157.04,289.27L157.34,294.33L157.93,290.53L158.23,293.06L158.53,290.65L158.82,295.03L159.71,289.4L160.01,292.03L160.6,294.74L160.9,292.2L161.79,293.66L162.09,290.19L162.38,293.69L162.68,291.39L162.98,291.56L163.28,294.54L163.57,291.11L163.87,292L164.46,293.26L164.76,291.77L165.06,291.37L165.35,289L165.65,294.5L166.24,293.31L166.54,291.88L166.84,293.36L167.43,293.2L167.73,291.85L168.62,293.64L168.92,287.93L169.81,294.9L170.1,290.4L170.4,292.79L170.7,291.12L170.99,290.94L171.29,292.61L171.59,290.92L171.88,289.53L172.18,294.99L172.78,293.62L173.07,291.79L173.37,290.29L173.67,294.35L173.96,292.07L174.56,292.82L174.85,291.45L175.74,293.8L176.04,292.43L176.63,293.2L176.93,288.35L177.23,291.93L177.82,289.74L178.12,293.95L178.42,294.61L178.71,292.32L179.01,292.7L179.31,291.42L179.9,291.55L180.2,292.87L180.79,292.57L181.09,295.31L181.38,292.68L181.98,293.99L182.27,294.35L183.46,290.99L183.76,293.71L184.35,297.11L184.65,292.91L185.24,292.45L185.54,294.58L185.84,292.22L186.13,291.45L186.43,291.7L186.73,292.68L187.32,295.88L187.62,292.69L187.92,294.37L188.21,294.28L188.51,292.67L188.81,291.01L189.4,291.26L189.7,293.6L189.99,295.86L190.29,294.53L190.59,292.17L190.88,296.49L191.18,290.71L191.48,292.19L191.77,292.76L192.07,291.36L192.37,289.75L192.67,293.66L192.96,294.04L193.26,293.59L193.56,292.41L193.85,295.33L194.15,292.05L194.45,292.92L194.74,295.09L195.04,291.26L195.34,290.72L195.63,293.24L196.23,295.6L196.52,295.45L196.82,295.56L197.41,292.11L197.71,292.82L198.01,293.46L198.6,292.35L198.9,297.03L199.49,293.12L199.79,294.8L200.09,293.34L200.68,293.49L200.98,293.84L201.27,295.85L201.57,290.55L201.87,295.86L202.16,295.28L202.46,292.81L202.76,295.15L203.06,293.11L203.35,293.22L203.65,293.24L203.95,291.94L204.84,297.45L205.13,294.65L206.02,292.32L206.32,294.52L206.91,291.64L207.21,293.17L207.51,292.63L208.1,296.09L208.4,294.76L208.7,295.45L209.59,291.46L209.88,292.98L210.48,291.93L210.77,298.61L211.07,294.11L211.66,295.5L211.96,294.82L212.26,294.72L212.56,291.38L213.74,294.39L214.04,295.99L214.34,296.39L214.63,292.24L215.23,294.67L215.52,293.52L215.82,290.75L216.12,291.57L216.41,293.04L216.71,295.98L217.3,295.5L217.6,292.76L217.9,293.23L218.2,292.84L218.49,295.41L218.79,290.86L219.38,292.65L219.68,296.03L219.98,297.05L220.27,294.47L220.57,296.38L220.87,293.02L221.16,293.95L221.46,292.15L222.05,293.4L222.35,290.74L222.65,298.18L223.24,296.15L223.54,295.08L223.84,295.89L224.13,292.2L224.43,292.16L224.73,293.72L225.32,292.62L225.62,300.08L226.8,306.99L227.1,306.77L227.7,306.29L227.99,306.72L229.18,308.71L229.48,308.12L229.77,308.21L230.37,308.53L230.66,308.64L230.96,308.33L231.26,308.95L231.55,309.69L232.15,308.81L232.44,309.82L232.74,308.64L233.04,309.27L233.34,309.35L233.63,309.22L233.93,310.13L234.23,308.98L234.52,310.65L234.82,310.37L235.12,309.5L235.41,309.86L235.71,310.21L236.01,310.78L236.3,310.35L236.6,309.37L238.09,310.94L238.38,310.94L238.68,309.83L239.27,310.49L239.57,310.88L241.65,309.97L241.94,310.59L244.32,311.25L244.62,311.6L245.8,311.7L246.1,311.03L246.69,311.89L246.99,310.65L247.88,311.78L248.18,311.46L249.96,311.83L250.26,311.34L252.63,311.7L252.93,311.45L253.23,312.01L253.52,311.74L253.82,311.21L255.3,311.8L255.6,312.17L256.49,311.63L256.79,311.26L257.08,311.88L257.68,311.57L257.98,311.62L258.27,312.39L258.87,311.92L259.16,311.73L259.76,311.92L260.05,311.26L260.35,311.01L260.65,311.91L261.54,311.67L261.83,312.06L263.32,311.49L263.62,311.52L263.91,311.04L264.21,311.86L264.51,311.77L265.99,311.88L266.29,312.04L267.47,311.68L267.77,312.01L268.96,312.2L269.26,312.35L269.55,311.77L269.85,312.26L270.15,312.27L273.12,312L273.41,312.8L275.19,312.02L275.49,312.59L275.79,311.89L276.38,312.15L276.68,312.19L277.57,312.01L277.87,312.44L279.65,311.92L279.94,312.24L282.91,312.14L283.21,311.82L285.58,312.42L285.88,312.05L287.36,312.17L287.66,311.54L288.55,312.52L288.85,312.39L290.93,312.38L291.22,312.13L293.01,312.45L293.3,312.24L295.08,312.11L295.38,312.36L298.05,312.6L298.35,311.92L299.24,312.48L299.54,312.17L300.43,312.04L300.72,312.01L301.02,312.79L301.61,312.43L301.91,312.09L302.21,312.45L302.51,312.13L302.8,311.95L304.29,312.53L304.58,312.3L308.15,312.54L308.44,311.76L309.04,312.66L309.33,311.94L309.63,312.47L310.82,312.49L311.11,312.23L313.19,312.46L313.49,312.51L314.68,312.57L314.97,312.09L315.57,312.79L315.86,312.35L316.16,312.19L319.43,312.7L319.72,312.39L321.21,312.59L321.5,313L322.69,312.2L322.99,312.7L324.77,311.87L325.07,312.62L326.25,312.5L326.55,312.41L327.44,312.58L327.74,312.27L328.63,312.36L328.93,311.64L330.11,312.6L330.41,312.31L332.49,312.52L332.79,312.67L334.86,312.18L335.16,311.62L336.64,312.65L336.94,312.41L338.43,312.43L338.72,313.01L342.88,312.88L343.18,313.13L353.57,313.24L353.86,313.31L355.94,313.06L356.24,313.26L366.63,313.27L366.92,313.3L368.11,313.33L368.41,313.21L372.57,313.28L372.86,313.21L389.49,313.21L389.78,313.43L391.27,313.25L391.56,313.35L396.61,313.32L396.91,313.06L398.1,313.35L398.39,313.38L400.17,313.26L400.47,313.27L401.95,313.42L402.25,313.25L412.34,313.29L412.64,313.14L413.83,313.45L414.13,313.05L415.61,313.34L415.91,313.34L417.69,313.06L417.99,313.43L427.78,313.3L428.08,313.36L430.45,313.46L430.75,313.41L434.02,313.21L434.31,313.18L436.09,313.33L436.39,313.44L445,313.4" style="vector-effect: non-scaling-stroke; fill: none; stroke: rgb(127, 127, 127); stroke-opacity: 1; stroke-width: 2px; opacity: 1;"/></g><g class="points"/><g class="text"/></g></g></g><g class="overplot"/><path class="xlines-above crisp" d="M0,0" style="fill: none;"/><path class="ylines-above crisp" d="M0,0" style="fill: none;"/><g class="overlines-above"/><g class="xaxislayer-above"><g class="xtick"><text text-anchor="middle" x="0" y="403" transform="translate(208.14,0)" style="font-family: 'Open Sans', verdana, arial, sans-serif; font-size: 12px; fill: rgb(68, 68, 68); fill-opacity: 1; white-space: pre;">50</text></g><g class="xtick"><text text-anchor="middle" x="0" y="403" transform="translate(356.57,0)" style="font-family: 'Open Sans', verdana, arial, sans-serif; font-size: 12px; fill: rgb(68, 68, 68); fill-opacity: 1; white-space: pre;">100</text></g><g class="xtick"><text text-anchor="middle" x="0" y="403" transform="translate(505,0)" style="font-family: 'Open Sans', verdana, arial, sans-serif; font-size: 12px; fill: rgb(68, 68, 68); fill-opacity: 1; white-space: pre;">150</text></g></g><g class="yaxislayer-above"><g class="ytick"><text text-anchor="end" x="59" y="4.199999999999999" transform="translate(0,373.57)" style="font-family: 'Open Sans', verdana, arial, sans-serif; font-size: 12px; fill: rgb(68, 68, 68); fill-opacity: 1; white-space: pre;">0</text></g><g class="ytick"><text text-anchor="end" x="59" y="4.199999999999999" transform="translate(0,321.65)" style="font-family: 'Open Sans', verdana, arial, sans-serif; font-size: 12px; fill: rgb(68, 68, 68); fill-opacity: 1; white-space: pre;">0.5</text></g><g class="ytick"><text text-anchor="end" x="59" y="4.199999999999999" transform="translate(0,269.73)" style="font-family: 'Open Sans', verdana, arial, sans-serif; font-size: 12px; fill: rgb(68, 68, 68); fill-opacity: 1; white-space: pre;">1</text></g><g class="ytick"><text text-anchor="end" x="59" y="4.199999999999999" transform="translate(0,217.81)" style="font-family: 'Open Sans', verdana, arial, sans-serif; font-size: 12px; fill: rgb(68, 68, 68); fill-opacity: 1; white-space: pre;">1.5</text></g><g class="ytick"><text text-anchor="end" x="59" y="4.199999999999999" transform="translate(0,165.88)" style="font-family: 'Open Sans', verdana, arial, sans-serif; font-size: 12px; fill: rgb(68, 68, 68); fill-opacity: 1; white-space: pre;">2</text></g><g class="ytick"><text text-anchor="end" x="59" y="4.199999999999999" transform="translate(0,113.96000000000001)" style="font-family: 'Open Sans', verdana, arial, sans-serif; font-size: 12px; fill: rgb(68, 68, 68); fill-opacity: 1; white-space: pre;">2.5</text></g><g class="ytick"><text text-anchor="end" x="59" y="4.199999999999999" transform="translate(0,62.04)" style="font-family: 'Open Sans', verdana, arial, sans-serif; font-size: 12px; fill: rgb(68, 68, 68); fill-opacity: 1; white-space: pre;">3</text></g></g><g class="overaxes-above"/></g></g><g class="polarlayer"/><g class="ternarylayer"/><g class="geolayer"/><g class="funnelarealayer"/><g class="pielayer"/><g class="treemaplayer"/><g class="sunburstlayer"/><g class="glimages"/><defs id="topdefs-838113"><g class="clips"/><clipPath id="legend838113"><rect width="174" height="162" x="0" y="0"/></clipPath></defs><g class="layer-above"><g class="imagelayer"/><g class="shapelayer"/></g><g class="infolayer"><g class="legend" pointer-events="all" transform="translate(513.9000000000001, 60)"><rect class="bg" shape-rendering="crispEdges" width="174" height="162" x="0" y="0" style="stroke: rgb(68, 68, 68); stroke-opacity: 1; fill: rgb(255, 255, 255); fill-opacity: 1; stroke-width: 0px;"/><g class="scrollbox" transform="translate(0, 0)" clip-path="url('#legend838113')"><g class="groups"><g class="traces" transform="translate(0, 14.5)" style="opacity: 1;"><text class="legendtext user-select-none" text-anchor="start" x="40" y="4.680000000000001" style="font-family: 'Open Sans', verdana, arial, sans-serif; font-size: 12px; fill: rgb(68, 68, 68); fill-opacity: 1; white-space: pre;">0_resnet110_cs</text><g class="layers" style="opacity: 1;"><g class="legendfill"/><g class="legendlines"><path class="js-line" d="M5,0h30" style="fill: none; stroke: rgb(31, 119, 180); stroke-opacity: 1; stroke-width: 2px;"/></g><g class="legendsymbols"><g class="legendpoints"/></g></g><rect class="legendtoggle" pointer-events="all" x="0" y="-9.5" width="168.875" height="19" style="cursor: pointer; fill: rgb(0, 0, 0); fill-opacity: 0;"/></g><g class="traces" transform="translate(0, 33.5)" style="opacity: 1;"><text class="legendtext user-select-none" text-anchor="start" x="40" y="4.680000000000001" style="font-family: 'Open Sans', verdana, arial, sans-serif; font-size: 12px; fill: rgb(68, 68, 68); fill-opacity: 1; white-space: pre;">1_resnet110_cs_sr</text><g class="layers" style="opacity: 1;"><g class="legendfill"/><g class="legendlines"><path class="js-line" d="M5,0h30" style="fill: none; stroke: rgb(255, 127, 14); stroke-opacity: 1; stroke-width: 2px;"/></g><g class="legendsymbols"><g class="legendpoints"/></g></g><rect class="legendtoggle" pointer-events="all" x="0" y="-9.5" width="168.875" height="19" style="cursor: pointer; fill: rgb(0, 0, 0); fill-opacity: 0;"/></g><g class="traces" transform="translate(0, 52.5)" style="opacity: 1;"><text class="legendtext user-select-none" text-anchor="start" x="40" y="4.680000000000001" style="font-family: 'Open Sans', verdana, arial, sans-serif; font-size: 12px; fill: rgb(68, 68, 68); fill-opacity: 1; white-space: pre;">2_resnet20_cs</text><g class="layers" style="opacity: 1;"><g class="legendfill"/><g class="legendlines"><path class="js-line" d="M5,0h30" style="fill: none; stroke: rgb(44, 160, 44); stroke-opacity: 1; stroke-width: 2px;"/></g><g class="legendsymbols"><g class="legendpoints"/></g></g><rect class="legendtoggle" pointer-events="all" x="0" y="-9.5" width="168.875" height="19" style="cursor: pointer; fill: rgb(0, 0, 0); fill-opacity: 0;"/></g><g class="traces" transform="translate(0, 71.5)" style="opacity: 1;"><text class="legendtext user-select-none" text-anchor="start" x="40" y="4.680000000000001" style="font-family: 'Open Sans', verdana, arial, sans-serif; font-size: 12px; fill: rgb(68, 68, 68); fill-opacity: 1; white-space: pre;">3_resnet20_cs_sr</text><g class="layers" style="opacity: 1;"><g class="legendfill"/><g class="legendlines"><path class="js-line" d="M5,0h30" style="fill: none; stroke: rgb(214, 39, 40); stroke-opacity: 1; stroke-width: 2px;"/></g><g class="legendsymbols"><g class="legendpoints"/></g></g><rect class="legendtoggle" pointer-events="all" x="0" y="-9.5" width="168.875" height="19" style="cursor: pointer; fill: rgb(0, 0, 0); fill-opacity: 0;"/></g><g class="traces" transform="translate(0, 90.5)" style="opacity: 1;"><text class="legendtext user-select-none" text-anchor="start" x="40" y="4.680000000000001" style="font-family: 'Open Sans', verdana, arial, sans-serif; font-size: 12px; fill: rgb(68, 68, 68); fill-opacity: 1; white-space: pre;">4_resnet56_cs</text><g class="layers" style="opacity: 1;"><g class="legendfill"/><g class="legendlines"><path class="js-line" d="M5,0h30" style="fill: none; stroke: rgb(148, 103, 189); stroke-opacity: 1; stroke-width: 2px;"/></g><g class="legendsymbols"><g class="legendpoints"/></g></g><rect class="legendtoggle" pointer-events="all" x="0" y="-9.5" width="168.875" height="19" style="cursor: pointer; fill: rgb(0, 0, 0); fill-opacity: 0;"/></g><g class="traces" transform="translate(0, 109.5)" style="opacity: 1;"><text class="legendtext user-select-none" text-anchor="start" x="40" y="4.680000000000001" style="font-family: 'Open Sans', verdana, arial, sans-serif; font-size: 12px; fill: rgb(68, 68, 68); fill-opacity: 1; white-space: pre;">5_resnet56_cs_sr</text><g class="layers" style="opacity: 1;"><g class="legendfill"/><g class="legendlines"><path class="js-line" d="M5,0h30" style="fill: none; stroke: rgb(140, 86, 75); stroke-opacity: 1; stroke-width: 2px;"/></g><g class="legendsymbols"><g class="legendpoints"/></g></g><rect class="legendtoggle" pointer-events="all" x="0" y="-9.5" width="168.875" height="19" style="cursor: pointer; fill: rgb(0, 0, 0); fill-opacity: 0;"/></g><g class="traces" transform="translate(0, 128.5)" style="opacity: 1;"><text class="legendtext user-select-none" text-anchor="start" x="40" y="4.680000000000001" style="font-family: 'Open Sans', verdana, arial, sans-serif; font-size: 12px; fill: rgb(68, 68, 68); fill-opacity: 1; white-space: pre;">6_vgg19_bn_cifar</text><g class="layers" style="opacity: 1;"><g class="legendfill"/><g class="legendlines"><path class="js-line" d="M5,0h30" style="fill: none; stroke: rgb(227, 119, 194); stroke-opacity: 1; stroke-width: 2px;"/></g><g class="legendsymbols"><g class="legendpoints"/></g></g><rect class="legendtoggle" pointer-events="all" x="0" y="-9.5" width="168.875" height="19" style="cursor: pointer; fill: rgb(0, 0, 0); fill-opacity: 0;"/></g><g class="traces" transform="translate(0, 147.5)" style="opacity: 1;"><text class="legendtext user-select-none" text-anchor="start" x="40" y="4.680000000000001" style="font-family: 'Open Sans', verdana, arial, sans-serif; font-size: 12px; fill: rgb(68, 68, 68); fill-opacity: 1; white-space: pre;">7_vgg19_bn_cifar_sr</text><g class="layers" style="opacity: 1;"><g class="legendfill"/><g class="legendlines"><path class="js-line" d="M5,0h30" style="fill: none; stroke: rgb(127, 127, 127); stroke-opacity: 1; stroke-width: 2px;"/></g><g class="legendsymbols"><g class="legendpoints"/></g></g><rect class="legendtoggle" pointer-events="all" x="0" y="-9.5" width="168.875" height="19" style="cursor: pointer; fill: rgb(0, 0, 0); fill-opacity: 0;"/></g></g></g><rect class="scrollbar" rx="20" ry="3" width="0" height="0" x="0" y="0" style="fill: rgb(128, 139, 164); fill-opacity: 1;"/></g><g class="g-gtitle"><text class="gtitle" x="350" y="30" text-anchor="middle" dy="0em" style="font-family: 'Open Sans', verdana, arial, sans-serif; font-size: 17px; fill: rgb(68, 68, 68); opacity: 1; font-weight: normal; white-space: pre;">train_loss</text></g><g class="g-xtitle"/><g class="g-ytitle"/></g></svg>