<svg class="main-svg" xmlns="http://www.w3.org/2000/svg" xmlns:xlink="http://www.w3.org/1999/xlink" width="700" height="450" style="" viewBox="0 0 700 450"><rect x="0" y="0" width="700" height="450" style="fill: rgb(255, 255, 255); fill-opacity: 1;"/><defs id="defs-5d0828"><g class="clips"><clipPath id="clip5d0828xyplot" class="plotclip"><rect width="445" height="330"/></clipPath><clipPath class="axesclip" id="clip5d0828x"><rect x="60" y="0" width="445" height="450"/></clipPath><clipPath class="axesclip" id="clip5d0828y"><rect x="0" y="60" width="700" height="330"/></clipPath><clipPath class="axesclip" id="clip5d0828xy"><rect x="60" y="60" width="445" height="330"/></clipPath></g><g class="gradients"/></defs><g class="bglayer"/><g class="layer-below"><g class="imagelayer"/><g class="shapelayer"/></g><g class="cartesianlayer"><g class="subplot xy"><g class="layer-subplot"><g class="shapelayer"/><g class="imagelayer"/></g><g class="gridlayer"><g class="x"><path class="xgrid crisp" transform="translate(208.14,0)" d="M0,60v330" style="stroke: rgb(238, 238, 238); stroke-opacity: 1; stroke-width: 1px;"/><path class="xgrid crisp" transform="translate(356.57,0)" d="M0,60v330" style="stroke: rgb(238, 238, 238); stroke-opacity: 1; stroke-width: 1px;"/></g><g class="y"><path class="ygrid crisp" transform="translate(0,356.1)" d="M60,0h445" style="stroke: rgb(238, 238, 238); stroke-opacity: 1; stroke-width: 1px;"/><path class="ygrid crisp" transform="translate(0,286.2)" d="M60,0h445" style="stroke: rgb(238, 238, 238); stroke-opacity: 1; stroke-width: 1px;"/><path class="ygrid crisp" transform="translate(0,216.3)" d="M60,0h445" style="stroke: rgb(238, 238, 238); stroke-opacity: 1; stroke-width: 1px;"/><path class="ygrid crisp" transform="translate(0,146.4)" d="M60,0h445" style="stroke: rgb(238, 238, 238); stroke-opacity: 1; stroke-width: 1px;"/><path class="ygrid crisp" transform="translate(0,76.5)" d="M60,0h445" style="stroke: rgb(238, 238, 238); stroke-opacity: 1; stroke-width: 1px;"/></g></g><g class="zerolinelayer"/><path class="xlines-below"/><path class="ylines-below"/><g class="overlines-below"/><g class="xaxislayer-below"/><g class="yaxislayer-below"/><g class="overaxes-below"/><g class="plot" transform="translate(60, 60)" clip-path="url('#clip5d0828xyplot')"><g class="scatterlayer mlayer"><g class="trace scatter traceaa8aa2" style="stroke-miterlimit: 2; opacity: 1;"><g class="fills"/><g class="errorbars"/><g class="lines"><path class="js-line" d="M0,312.1L1.19,264.43L1.48,251.92L3.56,205.16L3.86,206.76L4.16,203.06L6.53,164.48L6.83,165.59L8.02,148.12L8.31,146.3L8.61,147.91L8.91,139.59L9.2,140.99L9.5,139.31L9.8,133.09L10.09,133.58L10.39,132.25L10.69,130.99L10.98,133.09L12.77,116.11L13.06,117.92L13.36,117.5L13.66,117.92L13.95,115.9L15.14,106.25L15.44,107.58L16.03,99.68L16.33,104.92L16.62,104.5L16.92,103.94L17.22,101.29L17.52,96.11L18.11,97.44L18.41,98.07L18.7,94.72L19,102.83L19.59,88.5L19.89,92.55L20.19,96.81L20.78,88.15L21.08,93.39L21.37,93.32L21.97,90.59L22.26,88.22L22.56,88.15L22.86,88.92L23.75,86.26L24.05,87.31L24.34,88.01L24.64,82.13L24.94,81.93L25.23,84.3L25.53,80.74L25.83,82.76L26.12,84.86L26.42,84.51L26.72,79.83L27.01,83.53L27.31,77.59L27.61,78.29L27.91,77.24L28.2,80.25L28.5,79.48L28.8,82.13L29.69,75.49L29.98,79.55L30.28,75.35L30.87,76.47L31.17,77.24L31.76,78.5L32.06,77.24L32.66,71.58L32.95,76.05L33.55,71.93L33.84,77.8L35.03,69.97L35.33,72.21L35.62,70.6L35.92,71.72L36.22,73.26L36.81,66.34L37.11,72.56L37.4,73.05L37.7,69.34L38,72.7L38.3,71.86L38.59,67.32L39.78,71.16L40.08,67.81L40.37,68.43L40.67,68.09L40.97,73.47L42.15,64.45L42.45,68.71L42.75,64.8L43.34,66.06L43.64,66.34L43.94,67.95L44.53,67.46L44.83,66.83L45.12,64.03L45.72,65.01L46.01,62.77L46.9,69.83L47.2,66.41L47.8,60.89L48.09,64.1L48.39,65.08L48.69,64.52L48.98,61.1L49.58,67.25L49.87,64.73L50.17,63.68L50.76,63.19L51.06,59.98L51.36,62.63L51.65,61.58L51.95,60.4L53.14,64.45L53.44,56.13L54.33,65.08L54.62,64.59L54.92,62L55.22,64.73L55.51,63.26L55.81,62.56L56.11,62.07L56.4,57.11L57.29,60.61L57.59,56.34L57.89,65.36L58.19,64.03L58.48,57.95L58.78,62.42L59.08,62.21L59.37,53.41L60.26,62.56L60.56,60.4L61.15,60.12L61.45,59.42L61.75,57.6L62.04,60.89L62.64,56.13L62.94,56.27L63.23,58.86L63.83,60.19L64.12,57.88L64.42,57.32L64.72,60.4L65.31,56.13L65.61,57.11L65.9,57.25L66.2,60.19L66.5,57.74L66.79,56.34L67.09,60.89L67.39,55.43L67.69,55.57L68.58,54.59L68.87,57.6L69.17,57.46L69.47,59.07L69.76,58.86L70.06,56.48L70.36,53.9L70.65,56.27L70.95,58.65L71.25,52.5L71.54,53.76L71.84,56.55L72.73,53.27L73.03,56.83L73.33,58.16L73.62,54.52L73.92,55.57L74.22,51.8L74.51,52.92L74.81,51.73L75.11,56.34L75.7,57.46L76,56.55L76.29,57.53L76.59,55.01L76.89,56.83L77.18,50.33L78.37,54.52L78.67,53.34L79.26,57.67L79.56,57.04L79.86,53.13L80.15,53.48L80.45,57.88L81.34,50.47L81.64,50.68L82.23,56.48L82.83,55.85L83.12,52.92L84.01,56.34L84.31,51.45L84.9,57.11L85.2,51.31L85.79,57.6L86.09,51.17L86.39,51.1L86.68,51.87L87.28,51.38L87.58,54.39L88.17,51.03L88.47,51.17L88.76,56.9L89.36,46.84L89.65,52.08L89.95,53.62L90.25,55.5L90.54,50.05L91.43,55.36L91.73,52.29L92.03,47.19L92.62,49.7L92.92,54.87L93.51,51.52L93.81,52.22L94.11,53.76L94.4,55.71L94.7,54.87L95,50.33L95.29,49.14L95.59,53.9L95.89,50.19L96.48,51.24L96.78,53.27L97.07,54.39L97.37,54.18L97.67,50.4L98.26,47.6L98.56,49.42L98.86,54.18L99.45,49.49L99.75,51.1L100.04,50.19L100.34,54.39L100.64,53.27L100.93,44.95L101.82,51.66L102.12,49.77L103.31,53.69L103.61,53.41L103.9,46.91L104.79,51.38L105.09,49.49L105.39,47.26L105.68,50.82L105.98,53.55L106.28,53.27L106.57,50.68L107.17,44.11L107.46,51.87L107.76,48.16L108.06,48.51L108.36,50.47L108.95,49.21L109.25,50.05L109.54,53.06L109.84,42.36L110.14,45.51L110.43,50.47L111.03,51.17L111.32,48.72L111.62,48.44L111.92,50.61L112.51,48.86L112.81,45.37L113.11,45.23L113.4,50.54L113.7,50.19L114,51.73L114.59,48.51L114.89,49.14L115.18,48.51L115.48,50.19L115.78,45.44L116.37,48.58L116.67,44.81L116.96,50.82L117.56,49.7L117.86,49.28L118.45,49.7L118.75,46.91L119.34,45.02L119.64,46.84L120.23,48.72L120.53,46.84L121.12,49.84L121.42,46.98L121.71,46.07L122.01,48.58L122.31,49.35L122.61,46.84L122.9,45.58L123.2,46.7L123.5,48.37L124.09,50.89L124.39,49.35L124.68,44.88L124.98,45.09L125.28,52.15L126.46,44.53L126.76,47.67L127.06,51.87L127.35,48.79L127.65,43.69L128.54,48.65L128.84,46.14L129.14,49.7L129.43,48.72L129.73,43.48L130.32,50.82L130.62,45.65L130.92,45.65L131.21,44.6L131.51,48.02L131.81,46.98L132.1,44.81L132.4,49.56L132.7,45.86L133,46.84L133.29,46.84L133.59,42.36L134.48,49.07L134.78,46.77L135.37,48.79L135.67,45.58L135.96,46.56L136.56,46.07L136.85,45.79L137.15,45.93L137.45,44.25L138.04,48.3L138.34,46.21L138.64,47.4L138.93,50.33L139.23,43.83L140.12,45.79L140.42,45.72L141.01,48.09L141.31,46.84L141.6,48.23L141.9,46.28L142.2,47.12L142.79,41.59L143.09,41.73L143.39,45.79L144.28,47.67L144.57,49.7L145.46,42.15L145.76,45.09L146.06,44.81L146.35,45.51L146.65,47.95L146.95,42.92L147.54,45.51L147.84,43.27L148.43,46.14L148.73,43.9L149.03,42.85L149.32,45.09L149.92,44.67L150.21,48.51L151.4,38.87L151.7,33.77L152.59,28.31L152.89,28.66L153.18,28.1L154.07,28.03L154.37,25.31L154.67,26.78L154.96,24.96L155.26,25.66L155.85,27.75L156.15,27.05L156.45,25.52L156.74,26.01L157.04,25.24L157.34,24.68L157.64,24.47L157.93,26.78L158.53,24.75L158.82,25.8L159.12,25.17L159.42,25.59L159.71,23.7L160.01,25.66L160.31,24.68L160.6,23.63L161.2,26.22L161.49,23.91L162.38,23.21L162.68,24.33L162.98,24.68L163.28,22.72L163.87,23.28L164.17,22.86L164.46,23L165.35,23.49L165.65,22.86L165.95,23.77L166.24,23.21L166.54,22.3L166.84,23.21L167.13,22.58L167.43,22.23L168.32,23.77L168.62,21.74L168.92,23.35L169.21,22.23L169.51,22.16L169.81,20.69L170.1,21.67L170.4,22.72L171.59,22.16L171.88,22.79L172.18,20.76L172.48,22.58L172.78,22.02L173.07,23.07L173.37,22.23L173.67,22.16L173.96,21.6L174.26,21.88L174.56,22.16L175.45,20.41L175.74,20.69L176.04,22.02L176.34,21.11L176.63,20.34L177.23,22.02L177.53,20.83L177.82,21.74L178.12,19.58L179.01,20.41L179.31,20.41L179.6,21.11L179.9,20.97L180.2,20.34L180.49,21.18L180.79,20.69L181.09,20.34L181.38,21.25L181.68,20.06L181.98,19.99L182.27,19.37L182.57,20.41L182.87,20.83L183.46,21.11L184.06,19.79L184.35,20.06L185.24,20.76L185.54,19.58L186.73,21.46L187.02,19.3L187.32,20.2L187.92,19.72L188.21,19.65L188.81,19.79L189.1,20.34L189.4,20.83L189.7,20.2L189.99,19.51L190.29,19.51L190.59,20.48L191.48,19.79L191.77,18.6L192.37,20.48L192.67,19.3L193.85,19.72L194.15,19.23L194.45,20.69L195.04,20.06L195.34,19.99L195.63,19.86L195.93,18.6L196.52,19.02L196.82,19.51L198.01,19.02L198.31,19.23L198.6,19.86L198.9,18.53L199.2,18.25L199.49,18.6L199.79,19.44L200.09,19.79L200.38,18.81L201.57,20.41L201.87,18.53L202.76,18.88L203.06,19.09L203.95,20.2L204.24,19.16L205.73,18.53L206.02,18.95L206.91,19.16L207.21,19.51L207.51,19.51L207.81,18.67L208.99,18.67L209.29,19.23L209.59,18.6L209.88,19.23L210.18,20.13L211.66,17.97L211.96,18.6L212.85,18.74L213.15,18.74L213.45,19.02L213.74,18.67L214.04,18.11L214.63,19.16L214.93,18.46L215.23,18.88L216.41,18.46L216.71,18.81L217.9,18.11L218.2,18.74L218.49,18.18L219.09,18.53L219.38,18.11L219.68,18.95L219.98,18.81L220.27,18.04L221.76,18.25L222.05,19.02L222.95,17.76L223.24,18.04L223.54,17.83L225.02,19.23L225.32,18.04L225.91,18.46L226.21,17.69L226.51,17.83L227.99,17.9L228.29,17.27L229.18,17.83L229.48,17.83L229.77,17.27L230.37,17.69L230.66,17.62L230.96,18.39L231.26,17.48L231.55,17.41L232.44,17.48L232.74,17.27L233.93,17.76L234.23,17.48L239.57,17.76L239.87,16.99L240.76,17.41L241.05,17.13L242.54,17.76L242.84,16.99L243.73,17.55L244.02,16.99L245.21,17.69L245.51,17.83L246.4,16.85L246.69,17.13L247.29,17.55L247.59,17.2L247.88,17.2L248.18,17.83L248.48,17.13L248.77,16.92L249.96,17.62L250.26,17.41L251.44,16.85L251.74,17.2L257.08,17.62L257.38,16.78L258.57,17.27L258.87,17.06L266.88,17.27L267.18,17.69L267.47,16.85L268.07,17.2L268.37,17.41L269.55,17.41L269.85,17.55L271.93,16.99L272.22,17.27L273.41,17.13L273.71,17.06L274.6,17.27L274.9,17.2L275.19,16.92L275.49,17.27L275.79,17.69L276.08,16.99L276.68,17.27L276.97,17.27L277.87,16.85L278.16,17.76L279.05,16.99L279.35,17.2L282.02,16.92L282.32,17.2L282.91,16.92L283.21,17.62L284.1,16.92L284.4,17.34L284.69,17.34L285.58,16.99L285.88,17.41L286.47,16.99L286.77,17.2L287.07,16.92L289.74,16.85L290.04,16.78L290.93,17.2L291.22,17.06L293.3,16.99L293.6,17.41L295.08,16.99L295.38,16.99L296.57,17.2" style="vector-effect: non-scaling-stroke; fill: none; stroke: rgb(31, 119, 180); stroke-opacity: 1; stroke-width: 2px; opacity: 1;"/></g><g class="points"/><g class="text"/></g><g class="trace scatter trace82fb0a" style="stroke-miterlimit: 2; opacity: 1;"><g class="fills"/><g class="errorbars"/><g class="lines"><path class="js-line" d="M0,302.25L1.48,253.6L1.78,250.52L3.27,218.23L3.56,214.38L3.86,215.36L4.16,215.15L4.45,207.11L7.42,172.02L7.72,172.65L8.91,154.97L9.2,155.25L10.09,145.74L10.39,146.37L10.69,146.23L10.98,148.96L11.28,139.52L12.47,128.69L12.77,131.97L13.06,135.05L13.36,131.48L13.66,130.5L14.55,122.82L14.84,123.93L15.14,121.49L15.44,122.68L15.73,117.43L16.03,116.87L16.33,119.11L16.62,119.6L16.92,118.13L17.22,117.36L17.52,112.61L18.11,110.02L18.41,112.54L18.7,109.95L19,117.92L19.59,104.5L19.89,113.17L20.19,109.68L20.78,98.84L21.08,110.23L21.67,104.29L21.97,104.36L22.26,104.36L22.56,102.34L22.86,102.55L23.16,104.99L23.45,100.03L24.05,100.94L24.34,101.36L24.64,95.63L25.23,98L25.53,95.91L25.83,98.42L26.12,95.28L26.42,97.58L26.72,95.14L27.31,89.12L27.91,89.82L28.2,92.34L28.8,90.52L29.09,93.39L29.69,85L29.98,88.36L30.28,88.43L31.17,85.84L31.47,88.5L31.76,86.47L32.06,89.82L32.95,83.04L33.25,84.3L33.55,81.02L33.84,85.63L34.14,83.6L34.44,88.64L34.73,83.95L35.03,78.29L35.33,76.82L35.62,80.6L35.92,79.27L36.22,81.93L36.51,75.42L36.81,77.52L37.11,80.46L37.4,80.11L37.7,80.46L38,81.65L38.3,82.55L38.59,75.7L39.19,75.84L39.48,79.62L39.78,80.04L40.08,75.42L40.67,78.71L40.97,78.08L41.26,76.82L42.15,71.16L42.45,76.4L42.75,78.01L43.05,75.7L43.34,75.15L43.64,73.75L43.94,79.27L44.53,69.97L44.83,75.01L45.12,70.25L46.31,75.63L46.61,70.88L46.9,77.1L47.2,75.08L47.5,67.53L48.09,72L48.39,68.78L48.69,69.9L48.98,67.95L49.58,71.65L50.17,71.02L50.47,68.43L50.76,69.48L51.06,67.11L51.36,67.88L51.65,64.52L52.55,69.9L52.84,67.46L53.14,70.53L53.44,63.96L53.73,69.48L54.03,67.32L54.33,65.5L55.22,68.57L55.51,64.17L55.81,63.89L56.11,65.36L56.4,62.21L57,63.54L57.29,64.38L57.59,62.84L57.89,66.97L58.19,67.67L58.48,65.64L59.08,66.27L59.37,58.58L59.67,65.29L60.26,63.61L60.56,63.05L60.86,66.34L61.15,65.64L61.45,62.49L62.04,67.11L62.34,60.75L62.64,59.49L62.94,63.12L63.23,62.7L63.53,63.54L63.83,65.85L64.12,61.86L64.42,62.63L64.72,64.45L65.31,56.62L65.61,59.35L65.9,60.47L66.2,62.49L66.5,62.42L66.79,60.89L67.09,62.07L67.39,60.82L67.69,61.03L67.98,64.52L68.28,61.1L68.58,56.62L69.17,62.42L69.76,61.65L70.06,60.47L70.65,62.21L70.95,60.54L71.54,59.21L71.84,61.79L72.73,57.88L73.03,62.98L74.22,55.78L74.51,57.11L74.81,57.25L76,62.28L76.29,58.79L76.59,57.32L76.89,60.61L77.48,54.04L77.78,56.34L78.08,57.18L78.37,59.28L78.67,58.58L78.97,57.95L79.26,58.51L79.56,57.32L79.86,55.92L80.15,56.83L80.45,58.23L81.64,54.87L81.93,55.43L82.83,60.54L83.12,53.97L84.01,61.65L84.31,54.25L84.9,57.32L85.2,56.48L85.5,57.95L85.79,59.77L86.09,56.2L86.39,53.13L86.68,56.83L86.98,54.73L87.28,55.71L87.58,58.02L87.87,54.94L88.17,57.6L88.47,51.87L88.76,59.77L89.06,51.59L89.36,51.73L89.65,52.15L89.95,55.71L90.25,57.04L90.54,51.17L91.43,59.21L91.73,57.18L92.03,52.64L92.32,50.26L92.62,52.29L92.92,57.11L93.22,57.39L93.51,54.94L94.11,52.85L94.4,55.36L94.7,57.25L95,53.55L95.29,53.27L95.59,55.36L96.18,51.1L96.48,55.01L97.07,52.5L97.37,55.5L98.26,52.08L98.56,52.64L98.86,57.6L99.45,52.71L99.75,55.29L100.04,52.64L100.34,56.13L100.64,54.04L100.93,50.61L101.23,48.65L101.53,52.43L101.82,55.85L102.42,54.46L102.72,51.59L103.61,54.52L103.9,49.56L104.2,53.83L104.79,52.85L105.09,50.4L105.98,54.32L106.28,54.25L106.57,54.66L106.87,49.07L107.17,46.7L107.46,51.87L107.76,48.37L108.06,51.73L108.36,54.73L108.95,49.98L109.25,52.29L109.54,54.66L109.84,47.33L110.14,51.59L110.43,51.94L110.73,51.94L111.03,54.52L111.62,50.4L112.21,51.24L112.51,52.92L113.11,45.93L113.4,51.24L113.7,49.35L114,50.89L114.29,52.78L114.89,51.94L115.18,55.15L116.07,47.81L116.37,50.33L116.67,47.81L116.96,49.98L117.26,49.63L117.56,52.92L117.86,49.28L118.15,51.87L118.45,51.8L119.04,45.37L119.34,48.58L119.64,49.98L120.23,52.01L120.53,50.05L120.82,49.7L121.12,52.43L121.71,48.93L122.01,50.33L122.31,51.8L122.61,51.45L122.9,49.7L123.2,49.14L123.5,45.3L124.39,54.18L124.68,47.12L124.98,45.58L125.28,51.66L126.46,45.51L126.76,49L127.06,50.4L127.35,49.63L127.65,45.37L127.95,49.14L128.54,48.86L128.84,47.81L129.14,50.89L129.73,49.56L130.03,48.09L130.32,50.33L130.62,45.37L131.21,48.93L131.51,46.98L131.81,47.33L132.4,50.96L132.7,49.7L133,51.8L133.59,47.33L133.89,48.72L134.18,48.16L135.37,50.68L135.67,46.63L135.96,46.42L136.26,51.24L137.15,45.37L137.45,49.14L138.04,50.68L138.34,49.77L139.53,44.81L139.82,46.7L140.12,45.79L140.42,48.16L140.71,47.67L141.01,51.24L141.9,46.07L142.2,49.7L143.09,43.62L143.39,46.63L143.98,51.1L144.28,47.4L144.57,50.26L145.17,50.19L145.46,45.02L145.76,42.92L146.06,44.53L146.35,48.23L146.65,47.67L146.95,50.26L147.84,47.19L148.14,49.84L149.32,42.64L149.62,44.81L150.21,52.71L150.51,45.16L151.1,47.47L151.4,41.59L152.59,31.67L152.89,30.06L153.18,30.2L153.48,29.43L153.78,30.2L154.07,29.43L154.37,28.24L155.26,26.91L155.56,28.45L155.85,27.61L156.15,28.24L156.45,28.45L157.34,25.8L157.64,27.19L157.93,27.82L158.23,25.73L158.53,27.19L159.12,27.05L159.42,26.36L159.71,25.45L160.01,26.98L160.31,25.03L160.9,25.45L161.2,26.85L161.79,24.61L162.09,26.01L162.38,25.66L162.68,26.01L162.98,25.45L163.28,24.19L163.87,23.91L164.17,23.63L164.46,23.63L164.76,24.89L165.06,24.19L165.35,24.82L165.65,25.31L166.24,24.47L166.54,23.21L166.84,23.07L167.13,24.19L167.73,23.21L168.03,24.61L168.62,23L168.92,24.12L169.81,22.09L170.1,24.82L170.4,22.79L170.99,23.7L171.29,22.72L171.59,23.56L171.88,23.28L172.18,22.51L172.78,23.42L173.07,23.98L173.37,22.79L173.96,23.28L174.26,22.86L174.56,23.7L174.85,21.53L176.04,21.18L176.34,22.58L176.63,22.02L176.93,22.79L177.23,22.79L177.53,21.04L178.12,21.6L178.42,21.39L178.71,20.27L179.01,22.65L179.9,21.53L180.2,21.81L180.49,21.53L180.79,22.58L181.09,21.39L181.68,21.67L181.98,21.11L182.87,20.76L183.17,21.95L183.76,21.95L184.06,21.25L184.35,20.55L184.95,20.9L185.24,22.02L185.54,20.62L185.84,21.18L186.13,22.09L187.02,20.69L187.32,20.55L187.92,21.18L188.21,20.13L188.51,22.02L188.81,20.06L189.1,20.55L189.4,22.51L189.7,21.88L189.99,20.55L190.29,19.65L190.59,21.11L190.88,21.11L192.07,20.97L192.37,21.11L192.96,19.79L193.26,19.51L193.85,20.48L194.15,19.44L195.34,21.25L195.63,21.04L196.52,19.58L196.82,20.41L197.12,20.48L197.41,19.3L197.71,20.62L198.31,20.34L198.6,19.86L199.49,19.16L199.79,20.69L200.09,19.58L200.68,20.06L200.98,20.2L203.06,19.3L203.35,20.13L203.65,19.72L203.95,20.06L204.24,20.69L204.54,20.9L204.84,19.65L205.73,18.81L206.02,19.44L206.32,19.79L206.91,20.2L207.21,19.23L207.51,20.13L207.81,19.65L208.1,18.81L208.4,20.27L208.99,19.51L209.29,19.86L209.59,18.88L209.88,20.06L210.18,19.58L211.37,19.3L211.66,18.67L213.45,19.79L213.74,17.69L214.63,20.06L214.93,18.46L215.23,19.3L215.82,18.74L216.12,18.95L216.71,19.44L217.01,18.46L218.79,20.34L219.09,19.79L220.27,18.32L220.57,19.3L221.46,19.09L221.76,19.51L222.05,19.65L222.35,19.02L222.65,18.11L222.95,18.74L223.24,18.39L223.54,18.18L224.13,19.37L224.43,18.32L226.8,18.39L227.1,18.6L228.88,18.53L229.18,17.62L230.07,18.18L230.37,17.41L230.96,18.46L231.26,17.69L231.55,17.62L233.34,17.76L233.63,18.25L234.52,17.62L234.82,17.97L235.71,17.41L236.01,17.83L237.19,17.27L237.49,17.62L237.79,18.18L238.09,16.99L238.98,17.48L239.27,17.62L240.16,17.48L240.46,17.83L241.05,17.48L241.35,18.11L242.84,17.41L243.13,17.62L244.02,17.48L244.32,17.76L245.21,17.62L245.51,17.27L246.4,17.27L246.69,17.55L247.29,17.06L247.59,18.04L248.18,17.34L248.48,17.9L248.77,17.76L249.66,17.55L249.96,17.69L250.85,17.27L251.15,17.48L251.74,16.92L252.04,17.41L252.33,17.55L254.12,17.41L254.41,17.83L255.9,16.99L256.19,17.55L259.76,17.41L260.05,17.76L260.94,17.34L261.24,17.55L262.73,16.85L263.02,17.2L264.21,16.99L264.51,17.34L265.4,17.13L265.69,17.2L266.88,17.13L267.18,17.34L267.77,17.06L268.07,17.34L268.37,17.27L270.15,17.34L270.44,17.34L273.12,17.2L273.41,17.55L274.6,16.99L274.9,17.48L276.08,17.41L276.38,17.69L277.27,17.2L277.57,17.9L278.76,17.13L279.05,17.41L279.94,17.55L280.24,17.62L281.13,17.13L281.43,17.34L283.8,17.55L284.1,16.78L285.88,17.97L286.18,17.41L287.07,16.92L287.36,17.13L289.15,17.27L289.44,16.85L290.33,17.41L290.63,17.06L292.41,17.27L292.71,18.04L293.3,16.85L293.6,17.41L293.9,17.06L295.08,17.06L295.38,17.34L296.27,16.92L296.57,17.62" style="vector-effect: non-scaling-stroke; fill: none; stroke: rgb(255, 127, 14); stroke-opacity: 1; stroke-width: 2px; opacity: 1;"/></g><g class="points"/><g class="text"/></g><g class="trace scatter traced2d280" style="stroke-miterlimit: 2; opacity: 1;"><g class="fills"/><g class="errorbars"/><g class="lines"><path class="js-line" d="M0,299.52L1.19,254.37L1.48,247.45L3.56,202.15L3.86,203.2L4.75,186.28L5.05,181.74L5.34,181.04L5.64,178.32L6.53,164.9L6.83,161.05L7.12,163.85L7.42,159.37L9.2,142.18L9.5,140.08L10.09,135.89L10.39,138.33L10.69,136.38L10.98,138.61L11.28,135.4L11.58,128.41L11.87,130.16L12.17,125.75L12.47,127.64L12.77,124.35L13.06,127.64L13.36,123.93L13.66,125.61L15.14,115.55L15.44,119.74L16.03,110.93L16.33,114.08L16.62,115.97L16.92,115.34L17.22,116.94L17.52,104.64L18.11,107.16L18.41,107.23L18.7,105.55L19,109.19L19.3,107.65L19.59,99.54L19.89,106.6L20.48,103.59L20.78,97.3L21.08,102.13L21.37,100.87L21.67,99.33L22.26,101.92L22.56,95.84L23.16,98.77L23.45,96.25L24.05,93.53L24.34,96.46L24.64,90.59L24.94,91.57L25.23,95.07L26.12,91.99L26.42,95.14L27.61,87.38L27.91,87.59L28.2,86.47L28.5,88.99L28.8,88.5L29.09,89.33L29.39,89.19L30.28,81.93L30.58,87.38L30.87,82.55L31.47,83.32L31.76,84.72L32.06,83.88L32.36,84.37L32.66,80.88L33.55,81.72L33.84,84.58L34.14,79.06L34.44,82.83L34.73,84.02L35.92,75.84L36.22,79.27L36.51,76.12L36.81,76.47L37.11,78.92L37.7,78.57L38,82.76L38.3,79.41L38.59,72.35L38.89,73.33L39.19,78.57L39.48,78.29L39.78,79.97L40.08,75.42L40.67,76.61L40.97,78.08L41.56,75.28L41.86,78.5L42.15,69.62L42.45,75.7L42.75,76.05L43.05,74.1L43.34,76.05L43.64,75.63L43.94,75.22L44.23,73.19L44.53,73.33L44.83,75.77L45.42,72L46.01,72.77L46.31,72.14L46.9,75.42L47.2,73.33L47.5,69.41L48.39,74.03L48.69,68.57L49.87,73.96L50.17,72.91L51.06,69.2L51.36,68.57L51.65,66.97L51.95,69.76L52.25,70.11L52.55,73.05L52.84,69.41L53.14,75.91L53.44,66.41L54.03,68.3L54.33,70.18L54.62,71.65L54.92,65.43L55.22,72.56L55.51,67.6L55.81,68.43L56.11,69.83L56.4,67.39L56.7,67.53L57,64.66L57.59,63.26L58.19,72.49L58.48,69.34L58.78,70.81L59.08,69.76L59.37,61.03L60.26,68.71L60.56,65.43L60.86,68.23L61.45,67.81L61.75,68.16L62.04,70.25L62.34,63.89L62.94,61.79L63.23,64.24L63.83,71.16L64.12,67.67L64.42,64.24L64.72,70.95L65.01,67.46L65.31,63.19L66.2,68.85L66.5,66.62L66.79,64.03L67.09,67.46L67.39,64.59L67.69,64.38L67.98,68.64L68.28,62.7L68.58,64.59L68.87,61.58L69.47,62.91L69.76,62.49L70.06,68.3L70.65,66.34L70.95,67.18L71.25,61.24L71.84,63.05L72.14,62.91L72.73,61.24L73.03,63.89L73.62,65.92L73.92,65.5L74.22,60.54L74.51,60.89L74.81,58.93L75.4,66.06L75.7,64.1L76,64.03L76.29,67.46L76.59,62.98L76.89,61.31L77.18,57.67L77.48,58.44L77.78,63.68L78.37,64.1L78.97,62.07L79.26,63.82L79.86,56.97L80.15,61.38L80.45,64.94L80.75,62.7L81.04,60.82L81.93,58.09L82.23,60.82L82.53,60.47L82.83,64.38L83.12,61.17L83.72,61.79L84.01,64.45L84.31,57.88L84.61,62.14L84.9,62L85.2,62.77L85.5,62.42L85.79,61.58L86.09,61.79L86.39,56.06L86.98,61.51L87.58,60.75L87.87,58.23L88.17,57.67L88.47,59.14L88.76,61.93L89.06,57.53L89.65,59.07L89.95,57.25L90.25,58.37L90.54,57.67L90.84,63.33L92.62,54.87L92.92,59.77L93.22,61.17L93.51,57.88L93.81,57.81L94.11,59.98L94.7,63.26L95,58.86L95.29,54.39L95.59,61.51L95.89,56.83L96.18,60.61L96.48,62L97.07,56.48L97.37,60.05L98.26,55.15L98.56,57.88L98.86,59.42L99.15,58.79L99.45,57.18L100.34,61.31L100.64,59.07L100.93,55.29L101.53,56.06L101.82,58.58L102.72,56.41L103.01,59.42L103.31,58.02L103.61,66.34L104.5,54.73L104.79,55.78L105.09,56.97L105.39,55.08L105.68,58.79L106.28,58.02L106.57,59.49L107.76,55.22L108.06,56.76L108.36,59.49L108.65,56.62L109.25,57.25L109.54,59.35L109.84,52.29L110.14,55.71L110.43,56.27L111.03,59.56L111.32,58.3L111.62,55.71L111.92,52.64L112.21,57.53L112.51,57.88L112.81,54.11L113.11,53.27L113.4,55.71L113.7,55.01L114,56.13L114.29,58.79L114.59,59.21L114.89,58.93L115.18,56.2L115.78,54.73L116.07,56.69L116.37,55.92L116.67,57.6L117.26,53.62L117.56,59.98L117.86,58.93L118.15,54.52L118.45,57.04L118.75,54.52L119.04,54.59L119.64,57.39L119.93,53.76L120.53,56.06L120.82,54.46L121.42,57.81L121.71,53.2L122.31,55.78L122.9,55.08L123.2,53.2L123.79,58.09L124.09,57.88L124.39,56.2L124.68,50.47L124.98,53.13L125.28,59.28L126.46,50.89L126.76,56.62L127.06,57.81L127.35,55.22L127.65,54.87L127.95,55.36L128.25,52.29L128.54,57.18L129.14,56.2L129.43,57.25L129.73,53.62L130.03,56.76L130.32,56.9L130.92,51.66L131.21,53.2L131.51,55.5L131.81,54.8L132.1,50.61L132.4,51.1L132.7,54.87L133,58.58L133.29,55.01L133.59,52.15L133.89,57.18L134.48,54.59L134.78,53.55L135.07,56.13L135.37,54.39L135.67,52.15L135.96,53.34L136.26,51.17L136.56,51.73L136.85,55.01L137.15,52.5L137.45,54.18L137.75,55.15L138.04,55.36L138.34,54.87L138.64,53.13L138.93,55.22L139.23,52.08L139.53,54.11L139.82,52.99L140.12,51.59L140.42,55.29L140.71,53.06L141.31,53.69L141.6,56.76L142.79,49.49L143.09,51.73L143.68,54.39L143.98,53.9L144.28,52.99L144.87,52.78L145.17,57.67L145.46,50.89L145.76,49.42L146.06,52.57L146.35,56.13L146.65,53.41L146.95,52.08L147.24,56.55L147.54,54.18L147.84,52.99L148.43,54.52L148.73,50.26L149.32,53.62L149.62,50.68L149.92,55.78L150.21,54.87L150.51,52.5L150.81,56.13L151.1,52.01L151.4,46.7L152.59,37.82L152.89,35.58L153.18,37.96L153.48,37.47L153.78,36L154.67,34.88L154.96,34.67L155.26,33.28L155.56,35.51L155.85,36.42L156.15,35.51L156.45,35.3L157.04,33.97L157.34,32.58L157.64,32.93L157.93,34.6L158.23,31.67L158.82,33L159.12,32.65L159.42,31.18L159.71,32.09L160.01,33.35L160.9,30.69L161.2,31.95L161.49,32.79L161.79,30.62L162.68,33.14L162.98,32.51L163.28,30.06L163.57,32.79L163.87,29.01L164.17,30.97L165.06,31.32L165.35,31.67L166.24,30.06L166.54,30.97L167.13,29.57L167.43,31.32L167.73,29.57L168.32,30.2L168.62,31.11L168.92,31.67L169.21,29.64L169.51,30.34L169.81,29.15L170.1,32.3L170.99,28.66L171.29,30.48L171.88,30.9L172.18,29.08L172.48,29.78L172.78,29.64L173.07,28.24L173.37,30.41L173.67,29.71L173.96,29.15L174.26,29.64L174.56,28.66L174.85,29.29L175.15,27.19L175.45,28.1L175.74,27.68L176.04,27.05L176.93,29.92L177.23,28.94L177.82,26.5L178.12,26.64L178.42,28.03L178.71,25.94L179.01,29.85L180.2,27.19L180.49,30.69L181.68,27.4L181.98,28.52L183.17,26.64L183.46,27.12L184.35,28.03L184.65,27.05L184.95,26.78L185.24,28.38L185.54,27.19L186.13,27.75L186.43,28.59L187.32,25.03L187.62,27.96L187.92,26.36L188.21,28.1L188.51,28.66L188.81,25.73L189.1,26.15L189.4,29.71L189.99,25.59L190.29,26.5L190.59,27.82L191.77,26.71L192.07,27.61L192.67,26.36L192.96,25.59L193.85,26.78L194.15,25.87L195.34,28.03L195.63,27.47L195.93,25.52L196.52,26.57L196.82,26.29L197.12,26.22L197.71,26.78L198.01,25.94L198.6,27.26L198.9,24.4L199.2,26.36L199.79,26.01L200.09,26.22L200.38,25.1L200.68,25.45L200.98,26.08L201.27,25.38L201.57,28.03L202.46,23.84L202.76,25.38L203.06,26.43L203.65,25.87L203.95,26.29L204.54,27.05L204.84,24.05L206.02,26.85L206.32,25.31L206.62,27.33L207.21,26.29L207.51,23.91L208.4,25.59L208.7,24.75L208.99,23.21L209.29,24.54L209.59,26.08L210.48,26.5L210.77,24.26L211.37,26.22L211.66,23.21L211.96,24.82L212.56,24.54L212.85,24.12L213.15,26.01L213.45,25.31L213.74,23.56L214.93,24.19L215.23,23.98L215.52,25.31L216.12,24.82L216.41,25.03L217.3,23.77L217.6,24.33L218.2,24.12L218.49,24.96L218.79,24.19L219.09,24.75L219.38,25.38L220.27,22.37L220.57,23.56L221.16,23.56L221.46,24.61L221.76,23.7L222.05,25.24L222.35,23.14L222.95,23.84L223.24,24.4L223.84,23.28L224.13,24.82L224.43,23.7L224.73,25.38L225.02,24.12L225.32,25.24L225.62,22.72L226.21,23.84L226.51,23.91L227.7,20.69L227.99,21.81L228.29,20.76L228.59,22.72L229.18,20.9L229.48,21.81L229.77,21.67L230.07,22.3L230.37,20.48L230.96,22.16L231.26,21.6L231.55,22.02L232.44,20.83L232.74,21.04L233.34,22.23L233.63,21.18L234.82,21.95L235.12,20.83L236.01,21.53L236.3,20.13L236.6,22.23L237.19,21.46L237.49,21.6L237.79,20.55L238.09,21.53L238.38,21.88L239.27,20.34L239.57,20.69L239.87,20.55L240.46,21.95L240.76,20.9L241.05,20.83L241.65,21.32L241.94,20.41L242.84,22.16L243.13,21.32L244.02,21.88L244.32,21.04L244.62,20.55L244.91,22.09L245.21,22.09L245.51,20.34L246.1,20.76L246.4,20.13L246.99,21.32L247.29,20.69L247.59,20.83L248.18,21.53L248.48,19.99L249.37,21.53L249.66,20.76L250.26,22.3L250.55,21.04L251.15,20.97L251.44,20.34L251.74,19.93L252.04,20.9L252.33,21.53L252.93,21.04L253.23,20.27L253.82,21.74L254.12,21.46L254.41,20.9L255.3,21.53L255.6,20.83L257.98,20.41L258.27,19.3L258.87,20.83L259.16,20.69L259.46,20.55L259.76,20.55L260.05,21.39L260.65,19.93L260.94,21.18L262.43,20.76L262.73,21.25L263.32,20.06L263.62,20.55L263.91,21.11L264.21,20.41L264.51,21.46L264.8,20.76L265.1,20.76L265.99,20.55L266.29,20.62L266.88,21.88L267.18,20.97L267.47,19.58L267.77,20.27L268.07,20.9L270.15,20.69L270.44,21.39L271.33,19.37L271.63,20.69L273.12,20.48L273.41,20.69L273.71,19.93L274.01,20.41L274.3,21.46L275.19,20.06L275.49,20.2L276.38,21.32L276.68,20.06L276.97,20.9L277.27,19.72L277.57,20.41L277.87,19.58L278.76,20.55L279.05,20.97L279.94,20.41L280.24,21.04L281.13,20.41L281.43,20.83L282.02,20.97L282.32,20.41L282.91,21.25L283.21,20.13L283.51,20.97L283.8,20.69L284.1,19.3L284.99,21.46L285.29,20.62L286.18,20.55L286.47,20.83L287.07,20.83L287.36,20.06L288.26,20.34L288.55,19.3L288.85,21.04L289.15,20.06L289.44,19.99L289.74,19.93L290.04,20.9L290.93,19.58L291.22,20.9L291.52,21.11L291.82,19.99L292.11,19.86L292.41,20.69L292.71,20.97L293.01,20.48L293.3,20.34L293.6,20.48L293.9,19.65L294.19,19.51L294.49,21.04L295.38,20.2L295.68,19.93L296.57,20.83" style="vector-effect: non-scaling-stroke; fill: none; stroke: rgb(44, 160, 44); stroke-opacity: 1; stroke-width: 2px; opacity: 1;"/></g><g class="points"/><g class="text"/></g><g class="trace scatter traced6ceb0" style="stroke-miterlimit: 2; opacity: 1;"><g class="fills"/><g class="errorbars"/><g class="lines"><path class="js-line" d="M0,296.44L1.19,249.61L1.48,246.26L3.86,194.81L4.16,199.15L5.34,173.84L5.64,174.68L9.8,135.89L10.09,134.42L10.39,136.94L10.69,132.53L10.98,135.33L11.28,131.76L11.58,128.69L12.77,122.19L13.06,127.01L13.95,119.39L14.25,121.07L14.55,118.9L14.84,115.76L15.14,118.97L15.44,120.16L16.03,110.93L16.33,112.12L16.62,113.24L17.22,117.78L17.52,104.5L17.81,108.42L18.41,107.58L18.7,105.34L19,113.1L19.3,105.97L19.59,98L20.19,103.66L20.48,99.96L20.78,97.23L21.08,102.13L21.37,102.2L21.67,98.42L21.97,99.05L22.26,97.86L22.56,97.09L22.86,98.21L23.16,98.28L24.05,93.04L24.34,94.02L24.64,92.97L24.94,91.64L25.23,94.93L26.12,91.43L26.42,91.57L27.01,92.13L27.31,85.84L27.61,90.17L27.91,88.29L28.5,88.64L28.8,88.08L29.39,87.1L29.69,83.88L29.98,88.08L30.28,82.41L30.58,84.72L30.87,85.21L31.17,84.86L31.47,87.87L32.66,81.44L32.95,83.88L33.25,89.19L33.55,78.15L33.84,83.95L34.44,83.81L34.73,82.2L35.33,77.52L35.62,78.15L35.92,77.52L36.22,80.04L36.51,75.91L37.11,82.07L37.4,80.04L37.7,77.1L38,81.3L38.3,79.2L38.59,75.28L38.89,75.28L39.19,79.9L40.08,74.03L40.37,76.54L40.97,77.87L41.26,75.35L41.56,75.49L41.86,74.31L42.15,73.12L42.45,75.22L42.75,78.43L43.05,73.61L43.34,75.28L43.94,75.98L44.23,74.59L44.53,75.08L44.83,73.19L45.12,73.82L45.42,70.53L46.31,77.87L46.61,72.77L46.9,75.49L47.2,74.45L47.5,71.58L47.8,71.02L48.09,72.42L48.69,69.34L48.98,70.39L49.28,71.86L50.17,74.31L50.47,69.9L50.76,74.52L51.06,68.99L51.36,69.76L51.65,68.57L51.95,71.51L52.55,69.55L52.84,67.39L53.14,72.35L53.44,67.04L53.73,70.46L54.03,66.83L54.62,70.81L54.92,65.85L55.22,71.09L55.81,68.57L56.11,67.81L56.7,65.29L57,66.48L57.29,66.97L57.59,65.64L57.89,72.98L59.37,62L59.67,66.83L60.56,69.34L60.86,72.77L61.15,67.11L61.75,67.46L62.04,68.09L62.64,61.44L62.94,65.85L63.23,66.48L63.83,69.27L64.12,66.27L64.42,64.8L64.72,65.85L65.01,68.36L65.31,62.42L65.61,65.78L65.9,66.34L66.2,68.5L66.5,65.29L66.79,65.22L67.09,65.5L67.39,64.24L67.98,66.83L68.28,60.47L69.47,65.57L69.76,66.27L70.06,66.62L70.36,65.99L70.65,62.49L70.95,67.53L71.25,61.86L71.54,61.31L72.43,65.15L72.73,63.12L73.33,66.34L73.62,65.5L73.92,63.26L74.22,59.35L74.51,60.12L74.81,62.28L75.4,64.8L75.7,61.38L76.29,65.71L76.59,60.05L76.89,64.1L77.18,59.77L77.48,60.54L78.37,62.7L78.67,61.58L78.97,60.12L79.26,63.26L80.15,58.86L80.45,63.68L81.34,55.78L81.64,55.99L81.93,60.54L82.83,65.64L83.12,56.62L84.01,63.75L84.31,59.98L84.61,59.56L84.9,60.82L85.2,61.72L85.5,60.12L85.79,61.58L86.09,58.58L86.98,59.77L87.28,58.37L87.58,59.63L87.87,56.2L88.17,61.65L88.76,61.24L89.06,56.13L89.36,54.94L89.65,57.11L90.54,59.56L90.84,61.58L92.03,55.29L92.32,55.71L92.62,59.49L92.92,62L93.22,57.74L93.51,58.51L93.81,62.42L95,57.53L95.29,58.65L95.59,59.7L95.89,56.2L96.48,60.96L96.78,55.99L97.67,58.37L97.97,56.69L98.26,55.01L98.56,55.78L98.86,58.51L99.15,58.16L99.45,59L99.75,58.16L100.04,59.56L100.34,59L100.64,60.89L100.93,56.76L101.23,54.32L101.53,54.87L101.82,60.89L102.42,56.34L102.72,59.42L103.01,57.67L103.31,58.72L103.61,63.75L104.5,55.01L104.79,56.62L105.09,56.2L105.39,53.69L106.28,58.37L106.57,58.51L107.17,53.62L107.46,58.86L107.76,55.29L108.36,56.2L108.65,56.48L108.95,54.32L109.25,57.81L109.54,57.88L109.84,53.41L111.03,60.05L111.32,55.15L111.62,58.79L111.92,56.9L112.21,54.11L112.51,57.74L112.81,53.55L113.11,49.84L114,56.62L114.29,56.2L114.59,58.58L114.89,58.51L115.18,53.9L115.48,53.9L115.78,52.36L116.07,56.2L116.37,55.92L116.67,54.11L117.56,57.46L117.86,57.18L118.15,56.97L118.45,53.97L119.04,52.5L119.34,53.62L119.93,53.06L120.23,56.62L120.53,55.71L121.12,56.06L121.42,54.59L121.71,52.08L122.01,55.29L122.31,57.25L123.5,52.99L123.79,56.62L124.39,57.18L124.68,52.64L124.98,52.08L125.28,58.93L125.57,51.17L125.87,52.01L126.17,57.6L126.76,53.13L127.06,57.39L127.35,55.92L127.65,49.84L128.54,52.99L128.84,53.62L129.14,56.69L129.73,56.27L130.03,55.29L130.32,58.3L130.62,54.66L130.92,52.36L131.21,52.15L131.51,56.13L132.1,52.36L132.4,53.97L132.7,53.9L133,54.87L133.29,54.39L133.59,51.24L134.48,55.5L134.78,55.08L135.07,55.85L135.37,54.66L135.67,52.64L135.96,51.66L136.26,53.69L136.85,55.99L137.15,50.82L137.75,55.36L138.04,51.66L138.93,54.46L139.23,53.69L139.53,50.19L140.12,50.47L140.42,55.29L140.71,53.76L141.01,57.32L141.9,51.73L142.2,55.29L143.09,49.28L143.39,52.78L143.98,52.64L144.28,54.39L144.57,54.39L144.87,53.34L145.17,56.62L145.46,51.66L145.76,49.07L146.06,50.4L146.35,56.55L146.95,52.08L147.24,54.11L147.54,54.52L148.73,49.28L149.03,50.54L149.32,51.31L150.21,55.92L150.51,51.8L150.81,55.92L151.1,49.84L151.4,44.39L152.59,36L152.89,36.56L153.18,37.82L153.48,34.74L154.37,36.21L154.67,32.79L155.26,32.65L155.56,33.97L155.85,32.44L156.15,34.81L156.45,33.14L156.74,35.09L157.34,32.72L157.64,33.63L157.93,34.95L158.82,31.39L159.12,31.04L159.71,31.88L160.01,31.67L160.31,31.32L160.6,30.69L160.9,30.9L161.2,33.14L162.38,30.06L162.68,32.86L163.28,31.18L163.57,32.02L163.87,30.2L164.17,29.64L164.46,30.34L164.76,30.76L165.06,29.29L165.35,32.79L166.54,28.8L166.84,30.83L167.73,28.52L168.03,30.41L168.32,28.73L168.62,29.64L168.92,30.97L169.81,26.91L170.1,30.83L170.4,29.08L170.7,29.15L170.99,31.39L172.18,27.89L172.48,28.66L172.78,29.15L173.07,29.29L173.37,30.34L175.15,27.89L175.45,28.52L176.04,27.68L176.34,29.36L176.63,27.68L176.93,30.2L177.23,28.8L178.12,26.5L178.42,28.24L178.71,26.78L179.01,27.89L179.31,28.87L179.6,27.54L179.9,29.29L180.2,28.45L181.68,27.96L181.98,26.57L183.17,28.52L183.46,27.89L183.76,25.94L184.06,27.12L184.35,27.82L184.65,27.75L184.95,26.15L185.24,28.59L185.54,26.22L185.84,27.12L186.13,26.98L186.43,27.82L186.73,27.33L187.02,28.31L187.32,25.17L187.92,26.5L188.21,26.71L188.51,28.03L188.81,26.29L189.1,26.71L189.4,27.61L189.7,26.5L189.99,25.45L190.88,26.71L191.18,27.05L191.48,26.98L191.77,25.94L192.07,27.75L192.37,26.5L192.67,26.5L193.85,26.22L194.15,24.61L195.34,26.91L195.63,26.91L195.93,24.33L196.52,25.52L196.82,26.01L197.71,26.98L198.01,26.29L199.2,24.54L199.49,24.96L199.79,25.73L200.09,25.94L200.38,24.82L200.98,25.52L201.27,24.96L201.57,28.59L202.16,24.26L202.46,25.17L202.76,24.61L204.24,26.71L204.54,26.43L204.84,23.98L205.13,24.82L205.43,25.38L206.02,26.57L206.32,24.96L206.62,24.33L206.91,24.82L207.21,24.96L207.51,25.52L207.81,24.75L208.1,24.19L208.99,25.17L209.29,24.68L210.18,24.82L210.48,25.87L211.66,23.07L211.96,23.28L213.15,25.52L213.45,24.26L214.04,23.07L214.34,23.63L214.63,25.03L214.93,23.77L215.23,24.19L215.52,24.68L215.82,23.91L216.12,24.33L216.41,24.82L216.71,25.31L217.01,24.19L218.49,24.61L218.79,25.03L219.68,23.77L219.98,24.4L220.27,22.44L221.46,24.05L221.76,23.84L222.35,23.42L222.65,23.07L223.24,23L223.54,24.12L224.13,23.56L224.43,24.4L224.73,23.07L225.02,24.33L225.32,24.89L226.21,22.86L226.51,24.54L227.1,21.53L227.4,22.37L227.7,21.46L229.18,22.3L229.48,21.39L230.07,22.09L230.37,21.74L230.66,22.23L231.26,21.74L231.55,21.39L233.04,21.18L233.34,21.74L234.52,20.97L234.82,21.67L235.71,20.83L236.01,22.16L236.3,20.55L236.9,21.18L237.19,22.23L237.49,20.97L238.09,21.18L238.38,20.69L238.98,21.95L239.27,20.76L239.57,21.46L239.87,20.48L240.16,20.83L240.46,21.88L240.76,20.9L241.05,21.04L241.35,21.53L241.65,21.32L241.94,20.76L242.54,20.76L242.84,21.6L243.43,20.48L243.73,21.25L244.02,21.04L244.32,22.37L244.91,21.81L245.21,21.11L246.69,20.13L246.99,21.67L247.59,20.76L247.88,21.53L248.18,21.25L249.66,20.13L249.96,21.32L250.55,20.9L250.85,22.02L251.44,19.51L251.74,21.18L252.04,21.6L253.23,20.34L253.52,21.39L254.12,21.6L254.41,20.27L255.3,20.62L255.6,21.25L256.49,20.62L256.79,20.83L257.08,20.83L257.38,21.67L258.57,20.27L258.87,20.76L259.16,20.06L259.46,20.83L259.76,20.9L260.65,20.34L260.94,20.41L261.83,20.9L262.13,20.27L264.21,21.46L264.51,20.83L265.4,20.13L265.69,21.18L266.58,20.27L266.88,20.76L267.18,21.32L267.47,20.27L267.77,19.93L268.07,20.34L268.37,21.46L270.15,20.06L270.44,20.27L270.74,20.83L271.04,20.27L271.33,19.44L272.22,20.9L272.52,20.48L272.82,19.44L273.12,20.83L273.41,20.97L274.01,19.79L274.3,20.55L274.6,21.32L275.19,20.06L275.49,20.69L275.79,21.74L276.08,20.06L276.68,20.69L276.97,20.9L277.87,19.99L278.16,20.83L279.65,19.72L279.94,20.55L280.24,20.83L280.54,19.72L280.83,21.46L281.13,20.34L281.43,20.48L281.72,21.04L282.02,19.93L282.32,20.62L282.91,20.34L283.21,20.41L283.8,20.83L284.1,19.65L284.99,21.18L285.29,20.55L285.88,21.39L286.18,20.34L286.47,21.25L286.77,20.2L287.07,20.2L287.96,19.86L288.26,20.76L289.74,19.86L290.04,20.48L290.33,20.41L290.63,21.46L290.93,19.65L291.52,20.13L291.82,20.48L293.01,20.2L293.3,21.04L293.9,19.44L294.19,20.06L294.49,20.34L294.79,21.25L295.08,19.51L295.38,20.48L295.68,20.13L295.97,19.72L296.57,21.32" style="vector-effect: non-scaling-stroke; fill: none; stroke: rgb(214, 39, 40); stroke-opacity: 1; stroke-width: 2px; opacity: 1;"/></g><g class="points"/><g class="text"/></g><g class="trace scatter trace020fb0" style="stroke-miterlimit: 2; opacity: 1;"><g class="fills"/><g class="errorbars"/><g class="lines"><path class="js-line" d="M0,313.5L1.48,263.52L1.78,257.16L4.75,199.77L5.05,195.79L5.34,196.07L5.64,188.03L5.94,189.15L6.23,180.41L8.31,153.01L8.61,158.18L9.8,144.14L10.09,140.43L10.39,143.51L10.69,137.63L10.98,145.32L11.28,138.26L11.58,128.97L11.87,133.02L12.47,131.83L12.77,124.91L13.06,132.67L13.36,126.17L13.66,125.61L13.95,125.89L14.25,122.82L14.55,121.98L14.84,122.68L15.14,117.22L15.44,120.86L15.73,118.2L16.03,114.08L16.33,119.74L16.62,112.05L16.92,118.41L17.22,116.25L17.52,105.06L18.11,109.26L18.41,109.26L18.7,107.65L19,110.93L19.59,103.03L19.89,108.98L20.78,101.08L21.08,104.01L21.37,101.57L21.67,98.28L21.97,99.96L22.26,102.06L24.05,95.14L24.34,97.72L24.94,92.55L25.23,94.51L25.53,93.67L25.83,94.93L26.12,91.5L26.42,95.91L26.72,92.34L27.01,89.33L27.31,83.81L27.61,86.89L27.91,89.96L28.5,90.31L28.8,88.29L29.09,90.17L30.28,84.44L30.58,81.58L31.47,85.91L31.76,85.49L32.66,82.97L32.95,79.55L33.25,85.63L33.55,78.08L33.84,84.02L34.14,79.34L34.44,84.44L34.73,84.23L35.03,76.19L35.62,74.31L35.92,76.05L36.22,79.9L36.51,75.77L36.81,77.87L37.11,81.3L37.4,75.91L37.7,77.94L38,79.13L38.59,72.21L38.89,72.84L39.19,76.47L39.48,75.7L39.78,76.61L40.08,73.26L40.97,78.99L41.26,76.82L42.15,70.18L42.45,73.4L43.34,72.63L43.64,73.4L43.94,78.36L44.23,72.35L44.53,72.35L44.83,75.01L45.12,69.55L45.42,71.65L46.01,71.51L46.31,71.86L47.2,73.33L47.5,68.5L47.8,68.23L48.09,69.97L48.39,70.67L48.69,69.13L48.98,68.02L49.28,68.85L49.58,69.62L49.87,70.39L50.17,65.71L50.47,66.13L50.76,69.69L51.06,65.08L51.65,65.5L51.95,65.71L52.25,67.32L52.84,66.76L53.14,72.91L53.44,62.91L54.03,66.13L54.33,67.53L54.92,65.01L55.22,69.27L56.4,63.19L56.7,61.72L57.29,66.27L57.59,63.54L57.89,65.64L58.48,65.5L58.78,68.78L59.08,66.06L59.37,56.97L59.67,64.38L59.97,63.54L60.86,68.36L61.15,62.91L62.04,65.71L62.34,60.12L62.64,59.28L62.94,61.58L63.83,65.22L64.12,60.96L64.42,58.93L64.72,66.41L65.31,59.28L65.9,60.05L66.2,62.98L66.5,62.91L66.79,62L67.09,62.91L67.39,61.24L67.98,65.01L68.28,59.84L68.58,56.13L68.87,57.95L69.17,60.75L69.47,60.61L69.76,62.77L70.36,58.02L70.65,59.7L70.95,61.79L71.25,57.11L71.84,59.14L72.14,57.25L73.33,62.98L73.62,60.82L73.92,60.68L74.22,55.5L74.51,53.69L74.81,56.83L75.4,60.54L75.7,58.93L76,59.91L76.29,60.96L76.59,58.3L76.89,59L77.18,54.94L78.67,59.98L78.97,56.27L79.26,60.68L79.56,57.11L79.86,55.57L80.45,59.07L80.75,56.62L81.04,56.27L81.64,53.06L81.93,54.18L82.23,58.16L82.53,56.9L82.83,62.7L83.12,55.01L83.72,57.81L84.01,60.4L84.31,53.69L84.9,57.11L85.2,55.92L85.5,55.57L85.79,56.76L86.68,54.39L86.98,57.53L87.28,54.87L87.58,57.39L87.87,56.83L88.76,58.02L89.06,55.22L89.36,52.78L89.65,54.52L89.95,54.39L90.25,56.41L90.54,52.36L90.84,59.98L91.43,57.46L91.73,55.78L92.32,51.1L92.62,55.57L92.92,58.02L93.22,55.64L93.51,56.55L93.81,54.25L94.11,56.13L94.4,58.72L95,52.15L95.29,52.92L95.59,55.85L95.89,51.87L96.18,52.15L96.48,55.22L96.78,52.78L97.07,54.18L97.37,56.06L98.26,51.1L98.56,53.62L98.86,54.94L99.15,54.04L99.45,54.04L99.75,54.46L100.04,54.18L100.34,57.18L101.23,49.63L101.53,52.5L101.82,55.22L102.72,48.86L103.01,52.29L103.61,56.48L103.9,51.03L104.2,54.25L104.5,50.54L104.79,51.66L105.98,54.39L106.28,53.34L106.57,55.57L106.87,49.98L107.17,48.65L107.46,52.15L107.76,52.22L108.06,53.55L108.36,53.55L108.65,51.59L108.95,51.1L109.25,53.55L109.54,55.85L109.84,49.21L110.14,48.09L110.43,50.96L111.03,56.41L111.32,50.4L111.62,55.43L111.92,52.29L112.21,50.82L112.51,51.24L112.81,48.58L114,53.06L114.29,54.39L115.48,50.89L115.78,50.26L116.67,47.54L116.96,50.33L117.26,53.97L117.86,52.85L118.15,51.87L118.45,51.66L118.75,48.44L119.04,48.72L119.34,50.26L119.93,51.87L120.23,50.47L120.53,51.1L120.82,49.91L121.12,52.29L121.42,50.4L121.71,48.44L122.01,52.15L122.61,50.33L122.9,49.21L123.2,47.05L123.5,48.16L123.79,54.18L124.98,49.21L125.28,54.04L126.46,47.81L126.76,54.39L127.65,46.7L127.95,49.35L128.25,47.95L129.14,51.17L129.43,49.7L130.03,49.49L130.32,51.94L130.62,47.67L130.92,46.07L131.21,51.38L132.1,47.12L132.4,51.45L132.7,53.06L133,52.08L133.29,48.86L133.59,47.4L133.89,47.74L134.18,49.14L134.48,49L134.78,49.84L135.07,51.94L135.37,49.84L135.67,47.33L136.26,49.42L136.56,46.84L136.85,46.84L137.15,47.95L137.45,48.16L137.75,51.38L138.04,49.21L138.64,49.98L138.93,52.15L139.53,45.02L140.12,46.35L140.42,48.93L140.71,48.93L141.01,50.4L141.31,48.02L141.6,52.08L142.49,45.37L142.79,46.98L143.09,44.74L143.39,47.19L143.68,49.14L143.98,48.93L144.28,50.19L145.76,44.88L146.06,47.47L146.35,51.24L146.65,48.65L146.95,47.95L147.24,47.05L147.54,48.09L147.84,48.86L149.03,45.86L149.32,46.28L149.62,48.51L149.92,49.21L150.21,45.93L150.51,45.79L150.81,48.65L151.1,48.09L151.4,41.73L152.59,32.51L152.89,30.62L153.18,29.92L153.48,31.32L153.78,31.88L154.07,29.85L155.26,27.47L155.56,28.52L156.45,28.73L156.74,30.27L157.34,26.36L157.64,28.24L158.23,27.26L158.53,28.73L159.71,26.08L160.01,27.26L160.31,25.66L160.6,26.15L160.9,26.85L162.09,24.82L162.38,25.66L162.98,26.85L163.28,25.73L163.57,26.57L163.87,25.03L164.46,26.57L164.76,25.31L165.06,25.31L165.35,26.15L166.54,23.56L166.84,24.82L167.13,23.77L167.43,25.03L167.73,24.19L168.03,24.75L168.32,24.05L168.62,24.54L168.92,24.89L169.81,23.42L170.1,23.77L170.7,22.86L170.99,24.47L171.29,24.12L171.59,24.54L171.88,25.03L172.18,22.02L172.48,23.98L172.78,24.54L173.07,23.42L173.37,24.75L173.67,23.77L173.96,23.07L174.85,24.54L175.15,21.95L176.04,24.19L176.34,23.21L177.82,23.21L178.12,21.74L178.42,23.28L179.01,22.79L179.31,22.93L180.2,22.16L180.49,22.86L181.68,21.81L181.98,21.39L182.27,22.23L182.57,20.76L183.46,22.72L183.76,21.53L185.84,21.81L186.13,22.79L187.32,20.69L187.62,20.9L188.51,20.55L188.81,22.02L189.1,21.25L189.4,23.14L190.59,20.2L190.88,22.79L191.18,20.9L191.77,21.11L192.07,21.95L192.37,22.23L192.67,21.39L194.15,20.27L194.45,20.69L194.74,20.34L195.04,21.67L195.63,21.25L195.93,19.37L197.12,20.97L197.41,21.25L197.71,21.74L198.01,20.97L198.31,20.06L198.6,21.04L198.9,19.79L199.2,20.2L200.38,20.2L200.68,20.62L201.57,22.3L201.87,19.72L202.46,19.3L202.76,19.72L203.06,20.76L203.35,20.69L203.65,19.37L203.95,21.74L204.54,20.83L204.84,19.72L206.32,20.9L206.62,20.83L206.91,19.72L207.21,20.48L207.51,20.55L208.1,19.51L208.4,20.55L208.7,19.16L208.99,19.44L209.29,20.27L210.48,20.69L210.77,18.67L211.66,19.58L211.96,19.58L212.56,19.72L212.85,18.81L213.45,20.62L213.74,19.65L214.04,19.09L214.34,18.67L214.63,20.34L214.93,19.51L215.23,20.55L215.52,20.9L215.82,19.3L216.41,20.13L216.71,18.74L217.3,19.65L217.6,19.09L217.9,19.09L218.79,20.48L219.09,19.79L219.38,20.2L219.68,19.58L219.98,19.09L220.27,18.46L220.57,19.44L220.87,19.3L221.46,18.67L221.76,19.3L222.35,19.58L222.65,19.02L222.95,19.02L224.43,19.44L224.73,19.37L225.91,18.95L226.21,19.02L226.51,18.18L227.1,18.74L227.4,18.25L228.29,18.18L228.59,18.46L230.66,18.39L230.96,18.74L231.26,17.83L231.85,18.32L232.15,18.39L233.34,17.76L233.63,18.81L234.52,17.9L234.82,17.76L235.12,17.55L235.41,18.39L236.3,17.97L236.6,18.81L237.79,17.27L238.09,17.69L238.68,17.9L238.98,17.55L239.27,17.97L239.57,17.76L239.87,17.34L240.46,18.53L240.76,17.62L241.94,18.32L242.24,17.83L244.02,17.76L244.32,18.18L245.21,17.9L245.51,17.27L246.99,17.97L247.29,17.9L249.07,17.83L249.37,18.32L249.96,17.41L250.26,17.69L250.55,17.41L251.44,17.34L251.74,17.27L252.93,17.69L253.23,17.55L253.52,17.13L253.82,17.76L254.12,18.11L254.41,16.99L254.71,17.55L255.01,17.97L256.49,17.48L256.79,17.27L257.38,17.69L257.68,17.41L257.98,17.41L258.87,17.62L259.16,17.2L260.35,17.55L260.65,17.55L261.54,17.48L261.83,17.48L262.43,17.9L262.73,17.2L263.62,17.97L263.91,17.62L264.21,17.13L264.51,17.69L264.8,17.69L266.88,17.83L267.18,17.34L269.85,17.97L270.15,18.04L271.04,17.27L271.33,18.04L272.22,17.41L272.52,17.41L273.41,17.27L273.71,17.41L275.19,17.13L275.49,17.48L276.68,18.25L276.97,17.2L277.57,17.69L277.87,16.85L279.35,17.48L279.65,17.34L280.24,17.48L280.54,17.13L281.43,17.9L281.72,17.55L282.32,17.2L282.62,17.76L283.51,17.83L283.8,17.69L285.29,17.06L285.58,17.55L286.47,17.27L286.77,17.76L287.66,17.41L287.96,17.62L288.26,17.27L288.55,17.83L288.85,17.83L289.74,17.13L290.04,17.2L290.63,17.9L290.93,17.06L292.71,17.83L293.01,17.13L293.3,17.83L293.6,17.55L293.9,16.99L295.38,17.69L295.68,17.2L296.57,17.69" style="vector-effect: non-scaling-stroke; fill: none; stroke: rgb(148, 103, 189); stroke-opacity: 1; stroke-width: 2px; opacity: 1;"/></g><g class="points"/><g class="text"/></g><g class="trace scatter trace5b0a4b" style="stroke-miterlimit: 2; opacity: 1;"><g class="fills"/><g class="errorbars"/><g class="lines"><path class="js-line" d="M0,299.94L1.19,247.73L1.48,249.19L3.56,204.6L3.86,205.16L6.83,163.57L7.12,163.99L8.31,148.19L8.61,151.13L9.8,134.35L10.09,136.66L10.69,133.86L10.98,134.42L11.28,130.92L12.17,120.93L12.47,123.03L12.77,123.17L13.06,127.22L13.36,122.54L13.66,125.82L13.95,119.39L14.84,111.84L15.14,114.57L15.44,115.41L15.73,111.56L16.03,107.37L16.33,110.23L16.62,112.68L16.92,113.59L17.22,106.39L18.11,101.22L18.41,103.38L18.7,98.28L19,106.53L19.59,92.41L19.89,101.29L20.78,97.23L21.08,98.84L21.67,92.27L21.97,93.81L22.26,94.02L22.86,91.22L23.16,92.9L23.75,89.82L24.05,92.55L24.64,88.71L24.94,90.45L25.23,93.32L25.83,86.54L26.12,87.87L26.42,87.66L27.01,85.7L27.31,79.13L28.5,84.44L28.8,85.14L30.28,76.68L30.58,79.69L31.17,77.38L31.47,82.27L32.66,75.91L32.95,78.15L33.25,80.95L33.55,73.33L33.84,79.9L34.44,77.59L34.73,80.95L35.33,72L35.62,76.82L35.92,71.72L36.22,75.08L36.81,74.52L37.11,75.63L37.4,76.47L37.7,73.68L38,74.8L38.3,73.26L38.59,65.78L39.78,73.26L40.08,69.62L40.97,74.38L41.26,70.46L42.15,65.5L42.45,72.07L43.05,70.11L43.34,71.3L43.64,73.05L44.53,68.09L44.83,69.55L45.12,67.04L45.42,67.81L45.72,69.76L46.01,63.89L46.31,71.44L46.61,66.34L46.9,69.06L47.2,69.06L47.5,65.29L47.8,63.19L48.09,68.16L48.39,68.02L48.69,65.36L48.98,63.68L49.28,65.78L49.58,69.97L49.87,70.39L50.17,65.08L51.36,64.17L51.65,60.75L52.55,67.25L52.84,63.68L53.14,67.25L53.44,61.58L54.33,65.78L54.62,65.29L54.92,63.05L55.81,65.64L56.11,64.38L56.7,61.58L57,61.72L57.29,62.21L57.59,61.1L57.89,67.6L58.19,67.88L58.48,61.79L58.78,64.24L59.08,62.84L59.37,55.64L60.26,64.03L60.56,62.84L60.86,64.1L61.45,59.49L61.75,61.17L62.04,63.89L62.34,59.49L62.64,60.61L62.94,62.28L63.23,62.42L63.53,59.49L63.83,64.03L64.12,59.77L64.42,59.91L64.72,62.28L65.01,60.19L65.31,54.52L66.2,61.93L66.5,60.19L66.79,59.28L67.09,61.17L67.39,59.91L67.69,60.47L67.98,60.96L68.58,55.08L68.87,58.44L69.17,58.09L70.06,60.54L70.36,57.74L70.95,60.89L71.25,54.18L71.84,57.04L72.14,56.83L72.43,57.25L72.73,56.34L73.03,59.77L74.22,55.57L74.51,55.29L74.81,55.71L75.11,59.21L75.4,59.7L75.7,57.53L76.29,60.19L76.59,58.23L77.18,53.83L77.48,54.32L77.78,56.76L78.08,56.55L78.37,57.6L78.67,57.11L78.97,57.46L79.26,60.19L79.56,54.8L79.86,55.15L80.15,58.02L80.45,58.93L80.75,56.48L81.34,52.43L81.64,53.76L81.93,52.71L82.23,56.9L82.83,56.34L83.12,52.15L84.01,57.25L84.31,56.06L84.61,56.76L84.9,56.34L85.2,54.8L85.5,57.04L85.79,55.92L86.09,52.85L86.39,53.2L86.68,54.94L86.98,57.11L87.28,53.83L87.58,54.52L87.87,53.69L88.17,54.94L88.47,54.04L88.76,55.71L89.95,52.78L90.25,55.08L90.54,54.52L90.84,55.5L91.14,55.78L91.73,56.27L92.03,53.06L92.32,49.98L92.62,52.57L92.92,56.06L93.81,53.27L94.11,54.73L94.4,55.99L95,49.7L95.29,51.94L95.59,55.64L96.18,50.47L96.48,52.29L96.78,52.22L97.07,52.29L97.37,56.9L98.56,49.63L98.86,55.36L99.15,55.99L99.45,51.87L99.75,54.32L100.34,53.9L100.64,51.1L100.93,51.17L101.23,49.91L101.53,50.75L101.82,54.87L102.72,51.24L103.01,51.31L103.61,55.29L103.9,48.02L104.2,53.06L104.79,51.24L105.09,51.66L105.39,50.54L105.68,54.18L105.98,52.64L106.28,53.55L106.57,54.52L107.17,45.3L107.46,51.24L107.76,49.63L108.06,51.59L108.36,53.13L108.95,51.59L109.25,53.9L109.54,53.69L109.84,48.65L111.32,54.11L111.62,50.82L111.92,51.59L112.21,48.65L112.51,50.96L112.81,46.28L114,52.29L114.29,49.63L114.59,52.71L114.89,51.17L115.18,49.49L115.48,49.98L115.78,47.26L116.37,50.75L116.67,47.54L117.26,52.71L117.56,52.43L117.86,51.03L118.15,53.55L118.45,50.75L118.75,46.7L119.34,51.17L119.64,49.07L119.93,49.7L120.23,49.56L120.53,48.16L120.82,48.65L121.12,50.68L121.42,52.01L121.71,47.74L122.01,48.37L122.31,53.62L123.5,45.86L123.79,50.89L124.39,52.01L124.68,44.74L124.98,47.6L125.28,50.33L125.87,49.07L126.17,49.42L126.46,47.4L126.76,48.37L127.06,52.36L127.35,51.31L127.65,46.63L129.14,49.91L129.43,49.49L129.73,48.51L130.03,49.14L130.32,51.52L130.92,46.35L131.21,46.49L131.51,48.02L132.4,48.51L132.7,49.56L133.59,45.93L133.89,50.68L134.18,47.54L134.78,47.88L135.07,48.09L136.26,50.96L136.56,45.86L136.85,46.91L137.15,46.56L137.45,44.81L137.75,50.89L138.34,48.93L138.64,48.37L138.93,50.05L139.23,47.54L139.53,45.86L140.12,47.81L140.42,47.6L140.71,46.28L141.01,50.54L141.6,49.21L141.9,48.3L142.2,48.93L142.49,45.72L142.79,43.62L143.09,45.65L143.39,49.28L144.28,48.02L144.57,48.02L145.17,49.35L145.46,45.93L145.76,45.37L146.06,46.35L146.35,48.37L146.95,48.65L147.24,45.79L147.54,47.67L148.14,47.33L148.43,46.21L149.32,48.23L149.62,47.88L149.92,47.54L150.51,46.84L150.81,48.93L151.4,42.15L151.7,34.67L151.99,34.74L152.29,32.86L153.48,29.15L153.78,30.41L154.96,26.64L155.26,27.19L155.56,28.52L156.45,27.89L156.74,29.29L157.04,29.29L157.34,26.64L157.93,28.59L158.23,26.08L158.53,28.31L159.12,27.75L159.42,26.85L159.71,25.59L160.31,26.15L160.6,25.45L160.9,26.64L161.2,25.73L161.49,25.45L161.79,25.24L162.09,26.36L162.68,26.57L163.28,23.77L163.57,25.38L164.17,23.7L164.46,24.47L164.76,24.12L165.06,24.4L165.35,26.5L165.65,24.47L166.24,24.68L166.54,24.19L166.84,24.68L167.13,24.05L167.43,23.35L168.03,25.24L168.32,23.84L168.92,24.96L169.21,23.84L170.1,23.21L170.4,23.14L171.59,24.61L171.88,24.82L172.18,22.3L172.48,23.49L172.78,23.84L173.37,22.86L173.67,23.21L173.96,23.21L174.26,23.91L174.56,23.14L174.85,22.79L175.45,21.32L175.74,21.74L176.04,23.28L176.34,23.56L176.63,22.3L176.93,23.56L177.23,22.72L177.53,22.44L177.82,23.14L178.12,21.53L179.31,24.26L179.6,22.79L180.79,21.46L181.09,22.37L182.57,21.32L182.87,22.09L183.17,21.81L183.46,22.93L184.35,21.39L184.65,22.02L185.84,20.48L186.13,21.39L186.43,22.72L186.73,21.88L187.02,20.62L187.32,20.27L187.62,21.53L188.21,21.46L188.51,21.95L188.81,20.69L189.1,20.83L189.4,22.51L190.29,20.62L190.59,20.83L190.88,21.18L191.18,20.13L191.48,21.25L191.77,21.11L192.07,22.09L192.37,21.46L192.67,21.25L192.96,22.16L193.26,21.6L193.56,20.2L193.85,20.27L194.15,21.18L195.04,20.69L195.34,21.46L195.93,19.09L196.23,20.34L196.52,21.25L196.82,21.04L197.12,19.86L198.31,20.97L198.6,20.76L199.49,19.72L199.79,19.99L200.98,20.69L201.27,20.2L201.57,20.2L201.87,19.37L202.16,19.72L202.46,20.9L203.35,19.58L203.65,19.99L203.95,20.62L204.54,21.04L204.84,19.99L205.73,19.93L206.02,20.62L206.62,19.79L206.91,20.06L207.21,20.48L207.51,20.62L207.81,19.44L208.7,18.95L208.99,19.37L210.18,20.06L210.48,19.65L211.37,19.93L211.66,18.25L212.26,20.27L212.56,19.99L212.85,19.65L214.34,18.88L214.63,19.79L214.93,18.6L215.23,18.95L215.52,20.34L216.71,18.67L217.01,19.23L218.2,20.06L218.49,19.86L219.09,20.34L219.38,19.79L220.27,18.11L220.57,18.88L221.16,20.48L221.46,19.65L221.76,19.65L223.54,18.74L223.84,19.51L225.02,19.09L225.32,20.13L225.62,18.67L226.21,18.88L226.51,18.32L227.4,18.81L227.7,18.39L230.37,18.04L230.66,18.32L231.26,17.62L231.55,18.32L231.85,18.39L235.12,17.9L235.41,18.18L236.3,17.55L236.6,18.6L237.49,17.62L237.79,17.69L238.98,18.18L239.27,17.55L241.05,17.97L241.35,17.76L241.94,18.46L242.24,17.55L243.73,18.04L244.02,17.62L245.51,18.04L245.8,17.76L248.77,17.69L249.07,17.55L250.26,17.48L250.55,17.83L251.15,17.27L251.44,17.9L251.74,18.04L252.33,17.55L252.63,18.32L253.23,17.27L253.52,17.41L253.82,17.9L256.19,17.34L256.49,17.97L257.98,17.06L258.27,17.62L262.73,17.41L263.02,18.04L264.21,17.41L264.51,17.55L266.29,17.2L266.58,17.62L267.18,18.04L267.47,17.41L267.77,17.13L269.55,17.9L269.85,17.69L271.33,17.27L271.63,17.55L273.41,17.62L273.71,17.83L274.01,17.27L274.6,17.62L274.9,17.69L276.68,17.2L276.97,17.34L277.27,17.9L277.87,17.55L278.16,17.9L279.35,17.34L279.65,17.76L280.24,17.34L280.54,17.06L281.43,17.9L281.72,17.69L282.02,17.13L282.32,17.83L282.62,17.69L283.8,17.34L284.1,17.27L284.4,18.04L284.99,17.69L285.29,17.9L286.18,17.27L286.47,17.48L287.96,17.27L288.26,18.04L289.15,17.13L289.44,17.34L289.74,17.2L290.33,17.76L290.63,17.34L290.93,17.27L292.41,17.48L292.71,17.2L293.6,17.55L293.9,16.92L296.57,17.48" style="vector-effect: non-scaling-stroke; fill: none; stroke: rgb(140, 86, 75); stroke-opacity: 1; stroke-width: 2px; opacity: 1;"/></g><g class="points"/><g class="text"/></g><g class="trace scatter trace0014c2" style="stroke-miterlimit: 2; opacity: 1;"><g class="fills"/><g class="errorbars"/><g class="lines"><path class="js-line" d="M0,289.87L1.48,212.99L1.78,211.03L3.86,161.12L4.16,159.02L5.64,133.93L5.94,131.06L6.83,117.99L7.12,122.54L8.02,112.12L8.31,112.96L8.61,113.17L9.5,104.08L9.8,106.11L10.09,100.52L10.39,105.34L10.69,104.01L10.98,100.94L11.28,103.1L11.58,91.15L11.87,91.15L12.17,91.99L12.77,88.43L13.06,95.28L13.95,88.22L14.25,91.57L14.84,83.04L15.14,87.52L15.44,86.33L16.33,82.9L16.62,83.04L17.22,85.42L17.52,80.18L17.81,75.35L18.41,75.91L18.7,77.1L19,82.07L19.3,77.1L19.59,73.05L19.89,79.34L20.19,78.78L20.48,75.22L20.78,68.71L21.08,75.28L21.37,75.77L22.26,72.14L22.56,72.14L22.86,73.47L23.16,73.33L23.45,72L24.05,68.78L24.34,71.09L24.64,66.69L24.94,70.32L25.23,71.23L25.83,68.43L26.12,69.41L26.42,71.51L27.31,61.65L27.61,68.09L27.91,65.01L28.5,65.08L28.8,66.62L29.09,65.57L29.39,66.9L29.69,62.07L29.98,64.03L30.28,58.58L30.58,64.73L31.17,62L31.47,63.54L32.06,64.1L32.36,62.91L32.66,56.55L32.95,57.88L33.25,64.87L33.55,58.3L34.14,59.07L34.44,64.8L35.33,58.72L35.62,59.91L35.92,61.65L36.51,55.78L37.11,56.34L37.4,61.17L38.59,53.69L38.89,58.23L39.19,55.5L39.48,58.72L39.78,59.63L40.37,56.55L40.67,58.16L40.97,57.39L41.26,57.74L41.56,52.15L42.75,58.02L43.05,55.22L43.34,56.2L43.64,60.75L44.53,52.78L44.83,55.64L45.12,51.17L45.72,52.92L46.01,53.2L46.9,57.25L47.2,51.38L47.5,49.7L47.8,51.66L48.09,52.78L48.39,49.77L48.69,50.89L48.98,51.52L50.17,55.64L50.47,49.91L50.76,48.72L51.06,50.4L51.36,49.98L51.65,47.47L51.95,52.01L52.55,53.76L52.84,52.22L53.14,57.18L53.44,47.4L53.73,50.89L54.33,50.12L54.62,51.45L55.22,52.15L55.51,51.59L56.11,51.17L56.4,45.51L56.7,48.93L57,47.47L57.29,46.98L57.59,46.35L57.89,51.59L58.19,52.78L58.48,48.58L58.78,52.29L59.08,47.26L59.37,44.04L60.26,50.75L60.56,48.16L60.86,48.58L61.15,50.19L61.45,49.35L61.75,46.21L62.04,52.64L62.34,48.3L62.64,46.49L63.23,45.72L63.83,50.68L64.12,48.37L64.42,45.93L64.72,48.44L65.01,50.82L65.31,42.15L65.9,45.86L66.2,46.28L66.79,46.91L67.09,48.44L67.69,48.16L67.98,46L68.58,43.48L68.87,44.25L69.17,44.95L69.47,48.86L69.76,45.72L70.06,46.07L70.36,45.86L70.65,47.6L70.95,48.44L71.25,43.97L72.43,46.35L72.73,42.71L73.62,48.44L73.92,46.91L74.22,40.27L74.81,42.29L75.11,45.93L75.4,46.84L75.7,43.27L76,48.37L76.29,47.74L76.59,44.74L76.89,46.28L77.18,41.66L78.37,46.98L78.67,44.39L78.97,43.2L79.26,47.05L79.86,47.54L80.15,41.8L80.45,44.81L80.75,39.71L81.34,41.38L81.64,44.88L81.93,41.87L82.23,47.4L82.53,47.26L82.83,46L83.12,39.57L83.42,42.85L83.72,44.04L84.01,44.25L84.31,41.59L84.9,46.35L85.2,42.92L85.5,42.78L85.79,46.21L86.39,39.71L86.68,44.18L87.28,41.73L87.58,43.48L87.87,42.85L88.17,43.76L88.47,44.39L88.76,44.32L89.06,39.5L89.36,39.5L89.65,40.34L89.95,43.2L90.25,40.2L90.54,40.13L91.43,44.67L91.73,43.41L92.03,41.31L92.62,41.66L92.92,42.43L93.22,42.92L93.51,42.5L93.81,41.45L94.11,40.41L94.4,44.53L95.29,38.66L95.59,43.55L96.18,39.71L96.48,43.62L97.07,40.41L97.37,41.8L97.67,44.11L98.26,37.75L98.56,40.48L98.86,42.01L99.15,40.06L99.75,40.27L100.04,40.2L100.64,42.71L100.93,40.68L101.53,38.8L101.82,40.41L102.12,40.96L102.42,39.71L102.72,42.57L103.01,42.36L103.31,40.75L103.61,43.48L103.9,36.28L104.2,41.52L104.79,40.27L105.09,40.41L105.68,40.75L105.98,40.34L106.28,42.22L106.57,42.29L106.87,39.43L107.17,38.8L107.46,41.17L108.06,39.64L108.36,41.24L108.65,40.75L108.95,42.08L109.25,41.31L109.54,42.43L109.84,36.91L111.32,43.55L111.62,41.73L111.92,40.89L112.21,41.17L112.51,41.66L112.81,36.84L113.11,39.64L113.4,39.85L113.7,38.8L114,40.06L114.29,39.15L114.59,42.64L115.18,39.36L115.48,42.36L116.07,37.89L116.37,38.59L116.67,38.73L116.96,37.96L117.26,42.22L118.15,40.62L118.45,41.8L119.04,37.26L119.34,40.48L120.82,36.91L121.12,40.13L122.01,38.24L122.31,38.94L122.61,37.47L122.9,40.68L123.2,36.84L123.5,37.05L123.79,40.06L124.09,43.2L124.39,41.17L124.68,36.28L124.98,36.7L125.28,42.29L126.17,39.08L126.46,39.85L127.06,41.03L127.35,39.71L128.25,35.37L128.54,35.65L129.73,40.55L130.03,40.2L130.62,36.56L130.92,37.54L131.21,37.75L131.51,37.54L131.81,40.41L132.7,35.86L133,39.78L133.89,36.77L134.18,37.26L134.48,41.52L135.37,37.96L135.67,37.68L135.96,37.68L136.26,41.17L137.15,35.51L137.45,39.78L137.75,37.19L138.04,38.52L138.34,40.55L138.64,38.1L138.93,43.41L139.53,34.88L139.82,38.17L140.12,39.08L141.01,36.35L141.31,36.49L141.9,35.72L142.2,40.96L142.49,35.16L143.98,39.64L144.28,38.17L145.17,40.13L145.46,36.42L145.76,38.73L146.06,35.09L147.84,39.85L148.14,39.5L148.43,34.53L149.03,36.63L149.32,35.09L150.21,38.66L150.51,35.79L150.81,39.43L151.1,36.07L151.4,34.39L152.29,38.38L152.59,37.68L152.89,36.35L153.18,38.87L153.78,39.36L154.37,34.46L154.67,37.54L154.96,37.12L155.26,33.97L156.45,41.52L156.74,37.33L157.04,41.31L157.34,33.83L157.64,36.84L158.23,36.56L158.53,35.79L159.42,39.29L159.71,39.15L160.9,33.35L161.2,36.07L161.49,37.12L161.79,35.3L162.09,39.15L162.68,38.59L162.98,39.01L163.28,34.39L163.57,36.63L163.87,38.38L164.17,36.42L164.76,37.05L165.06,36.28L165.35,40.55L165.65,34.67L165.95,37.19L166.84,32.58L167.13,35.51L167.43,35.16L167.73,36.91L168.62,37.68L168.92,40.75L169.81,33L170.1,34.95L171.29,38.87L171.59,36.07L171.88,36.7L172.18,32.79L173.37,38.03L173.67,33.42L174.26,36.98L174.56,36.56L174.85,36L175.45,33.63L175.74,38.66L176.63,35.02L176.93,38.17L177.23,38.87L177.53,37.61L178.12,35.58L178.42,36.21L178.71,35.86L179.01,37.82L179.31,37.61L179.6,35.51L179.9,38.45L180.2,33.9L180.49,37.82L180.79,36.84L181.09,33.7L181.38,37.75L181.68,35.16L181.98,33.07L182.27,38.24L182.87,35.65L183.17,37.68L183.76,37.4L184.06,33.56L185.24,35.72L185.54,34.39L186.43,38.45L186.73,37.68L187.32,34.53L187.62,34.95L187.92,36L188.21,35.58L188.51,37.75L188.81,37.75L189.1,36.07L189.4,37.89L189.7,36.28L189.99,32.86L191.18,36.63L191.48,37.12L191.77,38.24L192.07,37.26L192.37,37.19L192.96,36.84L193.26,35.23L193.85,35.02L194.15,36.42L195.04,38.66L195.34,36.91L195.63,37.19L195.93,33.42L196.52,32.72L196.82,37.61L197.71,33.28L198.01,35.58L198.6,36.91L198.9,32.02L199.2,36.56L199.49,35.86L199.79,33.56L200.09,37.96L200.68,36.14L200.98,36.56L201.27,33.9L201.57,38.1L201.87,29.78L202.16,36.28L202.46,34.88L202.76,34.18L203.06,35.79L203.95,36.7L204.24,37.89L204.54,37.26L204.84,34.39L205.43,33.56L205.73,36.28L206.02,35.16L206.32,37.68L206.62,38.03L206.91,36.63L207.51,36.77L207.81,32.16L208.7,37.05L208.99,35.65L209.29,36.28L209.59,35.16L209.88,34.88L210.18,36.28L210.48,37.33L210.77,33.21L211.66,34.53L211.96,34.53L212.56,38.66L212.85,35.44L213.45,38.31L213.74,33.42L214.34,32.23L214.63,34.39L215.23,35.93L215.52,33.56L215.82,37.19L216.12,36.49L216.41,33.35L216.71,32.3L217.01,35.02L217.6,36L217.9,32.37L218.49,37.75L218.79,35.58L219.09,34.81L219.38,38.66L219.68,33.21L219.98,32.16L220.87,35.58L221.16,33.07L221.76,37.82L222.05,35.86L222.35,34.67L222.65,32.3L222.95,33.83L223.24,34.25L223.54,36.42L223.84,36.07L224.13,34.46L224.43,37.61L225.02,36.21L225.32,34.32L226.51,24.4L226.8,23.63L227.4,22.79L227.7,22.09L227.99,22.93L228.29,22.37L228.59,22.02L228.88,20.69L229.48,20.97L229.77,21.53L230.37,21.39L230.66,20.83L230.96,21.04L231.26,20.06L232.44,19.65L232.74,20.55L233.34,19.79L233.63,20.55L234.52,19.37L234.82,19.51L235.41,19.3L235.71,18.81L236.6,20.13L236.9,19.23L238.09,18.88L238.38,19.86L239.57,18.74L239.87,18.95L240.46,18.81L240.76,19.58L241.05,18.32L241.65,18.95L241.94,18.88L242.84,18.25L243.13,18.95L244.02,18.46L244.32,18.6L245.21,18.18L245.51,19.09L246.69,18.04L246.99,17.97L248.48,17.76L248.77,18.6L251.44,17.27L251.74,18.04L252.33,17.34L252.63,18.11L253.52,18.04L253.82,18.6L254.41,17.69L254.71,18.32L255.01,17.76L255.9,17.62L256.19,18.25L257.08,17.76L257.38,18.11L257.68,18.18L257.98,17.41L258.27,17.34L258.57,18.39L259.16,17.27L259.46,17.97L259.76,17.55L260.35,18.46L260.65,17.55L260.94,18.39L261.24,17.34L261.54,18.11L261.83,17.34L262.73,17.83L263.02,17.55L264.21,17.41L264.51,17.48L265.99,17.97L266.29,17.27L267.47,17.55L267.77,17.41L268.66,18.04L268.96,17.62L271.33,17.27L271.63,17.2L272.82,17.83L273.12,17.48L274.3,17.27L274.6,17.27L275.79,17.9L276.08,17.27L276.68,17.97L276.97,17.41L277.27,16.85L277.57,17.62L278.16,17.2L278.46,17.27L278.76,17.62L279.05,17.2L279.35,17.13L280.83,17.2L281.13,17.27L283.51,17.06L283.8,17.62L284.99,16.99L285.29,16.92L286.18,17.2L286.47,16.99L287.96,17.2L288.26,17.13L288.85,18.18L289.15,17.2L289.74,16.78L290.04,17.48L292.41,17.13L292.71,17.48L294.49,17.06L294.79,17.41L296.57,17.2L296.86,17.2L298.05,17.06L298.35,17.06L299.83,17.62L300.13,17.2L301.02,17.06L301.32,16.99L302.51,17.34L302.8,16.78L304.29,16.99L304.58,16.92L306.07,16.99L306.36,16.64L306.96,17.27L307.25,16.57L308.44,17.41L308.74,16.99L309.93,17.06L310.22,16.92L311.41,17.34L311.71,16.71L312.9,17.41L313.19,17.2L314.38,16.92L314.68,17.06L316.46,16.99L316.75,17.41L319.13,17.2L319.43,17.48L320.02,16.92L320.32,17.34L320.61,17.34L322.1,16.71L322.39,17.06L323.29,16.71L323.58,16.99L324.77,16.92L325.07,17.06L326.85,16.99L327.14,16.64L328.04,17.2L328.33,16.78L329.52,17.06L329.82,16.85L332.19,17.34L332.49,17.55L333.38,16.99L333.68,17.06L335.16,17.27L335.46,16.57L336.05,17.48L336.35,17.06L336.64,16.85L337.54,17.2L337.83,17.2L340.21,16.85L340.5,16.85L341.99,16.99L342.28,16.71L343.18,16.92L343.47,16.71L344.07,16.92L344.36,16.71L344.66,16.85L346.14,16.85L346.44,16.85L445,16.57" style="vector-effect: non-scaling-stroke; fill: none; stroke: rgb(227, 119, 194); stroke-opacity: 1; stroke-width: 2px; opacity: 1;"/></g><g class="points"/><g class="text"/></g><g class="trace scatter tracefcba39" style="stroke-miterlimit: 2; opacity: 1;"><g class="fills"/><g class="errorbars"/><g class="lines"><path class="js-line" d="M0,294.56L1.48,211.31L1.78,207.88L3.86,154.34L4.16,151.82L5.34,134.63L5.64,130.5L7.12,116.25L7.42,116.87L7.72,115.83L8.02,109.12L8.31,110.65L8.61,107.65L8.91,101.78L9.2,102.89L9.5,105.97L10.09,99.82L10.39,103.1L10.69,101.64L10.98,102.89L11.28,99.19L11.87,89.54L12.17,91.78L12.47,91.43L12.77,89.05L13.06,94.02L13.66,89.33L13.95,91.85L14.25,90.03L14.55,88.36L14.84,81.93L15.14,86.4L15.73,86.12L16.03,82.13L16.62,83.6L16.92,84.23L17.22,86.19L17.52,81.02L18.41,76.61L18.7,77.38L19,83.95L19.59,72.28L19.89,75.91L20.19,75.98L20.48,76.47L20.78,72.42L21.08,76.12L21.67,74.38L21.97,73.12L22.56,72.77L22.86,73.96L23.16,76.26L23.75,69.9L24.05,71.79L24.34,72.63L24.64,70.39L24.94,70.81L25.23,73.12L25.83,68.5L26.12,70.18L26.42,71.93L27.31,64.31L27.61,69.9L27.91,65.43L28.2,71.72L28.5,66.62L28.8,67.88L29.09,69.62L29.39,68.02L29.69,66.13L29.98,68.36L30.28,60.96L30.58,66.55L31.17,65.85L31.47,65.29L31.76,65.01L32.06,66.13L32.66,59.7L32.95,61.65L33.25,66.27L33.84,66.76L34.14,62.07L34.44,66.41L34.73,65.99L35.03,62.35L35.33,62.63L35.62,60.89L35.92,61.1L36.22,65.64L37.11,59.14L37.4,67.11L38,61.65L38.3,65.57L38.59,57.11L39.19,59.07L39.48,61.79L40.37,59.14L40.67,63.75L41.26,64.17L41.56,58.3L41.86,58.86L42.15,58.86L42.45,61.03L43.05,59.49L43.34,60.47L43.64,63.61L43.94,60.96L44.23,58.86L45.12,56.34L45.42,57.95L45.72,57.6L46.01,59.49L46.31,59.35L46.61,57.74L46.9,56.76L47.2,58.3L47.5,53.27L47.8,53.06L48.09,57.74L48.69,56.48L48.98,57.67L49.28,58.72L49.58,56.2L50.17,60.61L50.47,55.64L50.76,55.99L51.06,53.2L52.25,57.6L52.55,57.81L52.84,56.13L53.14,64.03L53.44,51.24L54.03,51.66L54.33,54.25L54.62,56.97L54.92,53.55L55.22,56.76L55.51,56.2L55.81,56.06L56.11,54.04L56.4,50.47L56.7,55.43L57,51.31L57.29,50.19L57.89,57.32L58.19,56.41L58.48,52.64L58.78,56.48L59.08,55.15L59.37,46.63L59.97,56.69L60.26,56.48L60.56,52.43L60.86,52.08L61.15,54.32L61.75,49.98L62.04,54.25L62.34,48.44L62.64,49.7L62.94,52.29L63.23,49.77L63.53,50.47L63.83,53.34L64.12,54.32L64.42,51.45L65.01,54.04L65.31,49.49L65.9,49.77L66.2,49.07L66.5,54.46L66.79,48.02L67.09,54.18L67.39,48.09L67.98,53.2L68.28,46.14L68.58,46.77L68.87,51.87L69.76,49.21L70.06,53.62L70.36,54.59L70.65,51.73L70.95,52.99L71.25,48.65L71.54,49.84L71.84,49.28L72.14,46L72.43,53.13L73.03,51.38L73.33,51.03L73.62,50.68L73.92,52.01L74.22,45.51L74.81,48.51L75.11,51.45L75.4,45.93L75.7,48.51L76,51.38L76.29,51.52L76.59,48.3L76.89,51.73L77.18,45.65L78.08,49.07L78.37,48.65L78.67,47.74L78.97,48.37L79.26,51.17L80.15,45.3L80.45,49.77L80.75,44.39L81.34,45.02L81.64,47.6L82.23,49.56L82.53,48.86L82.83,52.43L83.12,44.18L83.72,48.3L84.01,48.58L84.31,44.32L84.61,48.37L84.9,47.95L85.2,49L85.79,48.65L86.09,45.58L86.39,43.83L86.68,45.86L86.98,47.67L87.28,44.81L87.87,45.37L88.17,48.02L88.76,49.63L89.06,42.29L89.36,42.92L89.65,46.84L90.54,45.02L90.84,49.7L92.03,42.01L92.32,45.09L92.92,48.37L93.22,46.98L93.51,46L94.11,48.44L94.4,47.4L94.7,48.58L95.29,43.69L95.59,46.84L95.89,44.53L96.18,44.6L96.48,49L97.07,43.48L97.37,44.32L97.67,46.49L98.26,43.2L98.56,43.55L98.86,45.58L99.45,44.74L99.75,49.77L100.93,42.5L101.23,43.48L101.53,44.46L101.82,49.84L102.42,44.53L102.72,47.74L103.01,45.86L103.61,47.81L103.9,43.27L104.2,43.13L104.5,42.08L104.79,46.63L105.09,43.62L105.39,42.29L106.28,46.14L106.57,45.86L106.87,41.24L107.17,42.36L107.46,45.79L108.06,43.9L108.36,45.79L108.65,42.78L108.95,45.02L109.25,45.09L109.54,48.93L109.84,40.75L111.03,45.16L111.32,45.16L112.21,43.41L112.51,45.02L112.81,41.31L113.11,42.5L113.4,44.67L114,45.3L114.29,43.06L114.89,41.45L115.18,43.41L115.48,46.35L115.78,41.17L116.07,41.38L116.37,42.92L117.26,46.7L117.56,44.6L117.86,43.97L118.15,45.93L118.45,44.53L118.75,38.94L119.64,45.72L119.93,41.59L120.53,45.02L120.82,42.64L121.12,44.04L121.42,42.92L121.71,42.29L122.01,43.41L122.31,43.13L122.61,41.03L124.09,45.44L124.39,42.57L124.68,40.48L124.98,40.55L125.28,45.23L126.46,40.68L126.76,46.63L127.65,41.8L127.95,41.52L128.25,38.17L128.54,41.73L128.84,43.34L129.43,39.57L129.73,41.45L130.03,45.93L130.32,44.74L130.62,39.36L130.92,39.15L131.21,41.87L132.1,46.63L132.4,41.8L132.7,39.92L133,42.85L133.29,43.27L133.59,39.15L134.48,43.83L134.78,40.96L135.37,45.72L135.67,41.8L135.96,40.34L136.26,42.29L136.56,41.31L136.85,43.41L137.15,39.29L138.04,44.74L138.34,40.75L138.64,40.27L138.93,44.6L139.53,37.33L139.82,39.64L140.12,38.24L140.71,42.85L141.01,42.78L141.31,40.27L141.9,39.71L142.2,44.88L142.49,39.22L142.79,40.34L143.09,38.45L143.68,41.03L143.98,42.99L144.57,39.15L144.87,42.08L145.17,42.92L145.46,39.22L145.76,36.28L146.06,38.45L146.35,42.71L146.95,40.68L147.24,42.36L147.54,44.67L147.84,38.94L148.14,42.99L148.43,39.5L148.73,40.27L149.03,40.34L149.32,36.77L149.92,41.87L150.21,41.17L150.51,41.8L150.81,43.41L151.1,39.36L151.4,40.27L151.7,37.54L152.29,39.85L152.59,39.08L152.89,39.36L154.07,42.01L154.37,40.06L154.67,40.62L154.96,37.96L155.26,39.01L155.56,37.05L156.74,44.53L157.04,43.69L157.64,37.89L157.93,42.64L158.82,37.26L159.12,43.27L159.71,43.48L160.6,37.33L160.9,40.55L161.49,38.38L161.79,38.73L162.09,41.17L162.38,37.4L162.68,41.52L162.98,40.13L163.28,38.59L163.57,40.82L163.87,39.15L164.17,41.1L165.06,39.78L165.35,43.62L165.65,36.63L166.24,38.66L166.54,39.64L166.84,38.73L167.13,40.41L168.03,39.29L168.32,40.2L168.62,39.15L168.92,44.88L169.21,36.91L169.81,37.54L170.1,42.08L170.4,39.71L170.7,41.94L170.99,41.45L171.29,40.13L171.59,42.43L171.88,43.2L172.18,36.63L173.37,41.8L173.67,36.98L174.56,41.03L174.85,40.89L175.15,39.92L175.45,37.26L175.74,38.31L176.04,39.71L176.63,39.57L176.93,43.69L177.23,41.59L177.53,41.59L177.82,43.41L178.12,37.61L178.71,38.17L179.01,39.85L179.6,41.52L179.9,41.03L180.2,39.5L180.49,41.24L180.79,40.13L181.09,37.19L181.38,39.43L181.98,39.15L182.27,38.94L182.87,38.31L183.17,41.73L183.46,41.17L183.76,37.68L184.35,34.39L184.65,38.66L184.95,37.47L185.24,39.85L185.54,37.89L185.84,39.99L186.13,40.41L186.43,41.87L186.73,39.22L187.32,35.16L187.62,39.57L187.92,39.08L188.21,37.05L188.81,41.24L189.1,40.2L189.4,40.27L189.99,36.77L190.29,38.03L190.59,40.89L190.88,36L191.18,41.66L191.48,40.13L192.07,40.62L192.37,43.27L192.67,37.12L193.26,38.87L193.56,39.78L193.85,38.31L194.15,39.71L194.45,39.22L194.74,37.82L195.04,40.34L195.34,42.08L195.63,37.26L195.93,37.75L196.23,36.35L196.82,37.12L197.12,39.92L197.41,40.89L197.71,39.57L198.01,39.36L198.6,40.27L198.9,35.79L200.38,39.57L200.68,38.52L200.98,39.43L201.27,37.47L201.57,42.15L201.87,35.86L202.16,38.38L202.46,39.29L202.76,37.47L203.06,40.06L203.65,39.43L203.95,39.57L204.54,40.06L204.84,34.32L205.13,38.24L205.43,39.01L205.73,37.05L206.02,41.03L206.62,39.36L206.91,41.31L208.1,35.72L208.4,37.96L208.7,36.63L208.99,40.34L209.29,39.22L209.59,41.17L210.18,38.52L210.48,40.2L210.77,32.3L211.07,39.29L211.66,35.86L211.96,38.31L212.26,37.96L212.56,41.52L213.15,38.59L213.45,40.68L214.34,34.67L214.63,41.03L215.23,37.33L215.52,38.87L215.82,42.5L216.12,41.66L216.41,39.71L217.01,35.72L217.3,36.98L217.6,38.59L218.49,37.47L218.79,41.45L220.57,34.32L220.87,39.43L221.16,38.59L221.46,40.2L221.76,38.8L222.05,39.01L222.35,40.82L222.65,33.63L223.24,36.98L223.54,36.28L223.84,35.44L224.13,40.34L224.43,40.55L224.73,38.94L225.32,39.29L225.62,31.95L225.91,26.91L226.51,28.38L226.8,24.75L227.1,24.19L227.4,24.75L227.7,25.1L229.18,22.02L229.48,22.65L230.37,21.88L230.66,22.58L230.96,22.93L231.26,21.32L231.55,20.9L231.85,21.46L232.15,21.6L232.44,20.69L233.04,21.11L233.34,21.18L233.63,21.46L233.93,20.34L234.23,22.09L234.52,19.51L234.82,20.27L235.12,21.32L235.41,20.34L235.71,19.72L236.3,19.79L236.6,21.25L237.49,19.16L237.79,19.86L238.09,19.09L239.27,20.2L239.57,19.86L239.87,19.23L240.16,19.51L240.46,20.41L240.76,19.51L241.05,19.79L241.35,20.27L242.24,19.23L242.54,19.79L242.84,19.79L245.21,18.74L245.51,19.44L245.8,18.39L246.1,19.79L246.4,18.95L246.69,18.39L246.99,19.65L247.29,18.88L247.59,18.46L249.07,19.16L249.37,18.81L249.66,18.25L249.96,18.6L250.26,19.09L251.74,18.39L252.04,18.39L252.33,17.55L252.63,18.46L252.93,18.95L253.52,18.18L253.82,19.23L255.9,17.9L256.19,18.53L256.79,19.16L257.08,18.67L257.38,18.32L257.68,19.02L257.98,18.81L258.27,17.55L260.35,19.37L260.65,18.67L260.94,19.16L261.24,18.39L261.54,18.46L262.43,18.18L262.73,18.67L263.91,19.44L264.21,18.18L265.1,18.32L265.4,18.25L267.47,18.6L267.77,18.04L268.66,18.6L268.96,18.04L269.26,17.69L269.55,18.74L270.44,17.97L270.74,17.9L271.04,18.18L271.33,17.41L272.22,18.25L272.52,17.97L273.12,18.18L273.41,17.13L274.3,18.04L274.6,17.55L274.9,18.32L275.19,17.83L275.49,17.2L276.38,18.11L276.68,18.04L276.97,18.46L277.27,17.55L277.57,18.39L278.16,17.83L278.46,18.25L279.65,18.25L279.94,18.11L280.83,18.32L281.13,17.83L282.32,17.83L282.62,17.62L283.8,18.32L284.1,17.62L284.99,18.39L285.29,17.83L286.47,18.18L286.77,17.9L287.66,18.39L287.96,17.62L288.85,18.04L289.15,17.41L290.04,18.11L290.33,18.04L292.11,17.2L292.41,18.46L293.01,17.34L293.3,18.32L294.49,17.97L294.79,18.39L296.86,17.76L297.16,18.11L298.94,17.48L299.24,17.9L299.54,18.25L299.83,17.76L300.13,17.55L300.43,18.11L300.72,17.9L301.02,17.41L301.32,18.67L301.91,18.25L302.21,17.55L303.4,17.83L303.69,17.2L304.88,18.25L305.18,17.83L305.77,17.76L306.07,18.32L307.25,17.69L307.55,18.18L308.15,17.62L308.44,18.53L309.04,17.34L309.33,18.39L310.22,17.48L310.52,17.55L313.19,17.48L313.49,17.83L314.68,17.41L314.97,17.97L315.57,17.13L315.86,17.55L316.16,18.11L317.65,17.9L317.94,17.83L318.24,17.27L318.54,17.48L318.83,17.76L319.43,17.27L319.72,17.76L320.02,17.83L320.61,17.76L320.91,16.85L321.8,18.04L322.1,17.34L322.69,17.97L322.99,17.2L324.18,17.69L324.47,17.83L325.36,17.76L325.66,18.04L328.63,17.62L328.93,18.32L329.52,17.27L329.82,18.74L330.11,17.48L330.71,17.9L331,17.62L332.79,17.41L333.08,17.27L333.97,17.83L334.27,17.06L335.16,18.6L335.46,18.46L335.75,18.25L336.64,17.34L336.94,17.34L337.83,18.53L338.13,17.41L338.43,17.69L338.72,16.92L341.69,17.2L341.99,16.92L343.77,17.06L344.07,17.06L345.85,16.92L346.14,16.99L348.52,17.2L348.82,17.27L350.3,16.85L350.6,16.71L350.89,17.2L351.19,16.71L351.49,16.57L352.97,17.06L353.27,16.78L354.46,16.99L354.75,16.92L356.83,16.64L357.13,17.13L358.32,16.85L358.61,17.06L359.5,16.64L359.8,16.78L362.77,16.64L363.07,17.41L363.96,16.85L364.25,17.13L365.74,16.85L366.03,16.85L387.71,16.64L388,17.34L389.19,16.71L389.49,16.71L390.97,16.78L391.27,16.85L392.75,16.64L393.05,16.92L394.83,16.57L395.13,16.57L396.91,17.2L397.2,16.57L398.1,16.71L398.39,16.64L400.47,16.71L400.77,16.5L402.55,16.78L402.85,16.57L404.03,16.71L404.33,16.92L407.89,16.57L408.19,16.71L411.45,16.92L411.75,16.64L413.53,16.71L413.83,16.5L414.13,17.13L414.42,16.71L414.72,16.57L415.61,16.71L415.91,16.64L417.69,16.99L417.99,16.64L421.84,16.92L422.14,16.64L425.11,16.92L425.41,16.57L426.89,16.92L427.19,16.71L430.16,16.71L430.45,16.57L434.91,16.85L435.2,16.85L436.69,16.57L436.98,16.64L438.77,16.78L439.06,16.64L445,16.57" style="vector-effect: non-scaling-stroke; fill: none; stroke: rgb(127, 127, 127); stroke-opacity: 1; stroke-width: 2px; opacity: 1;"/></g><g class="points"/><g class="text"/></g></g></g><g class="overplot"/><path class="xlines-above crisp" d="M0,0" style="fill: none;"/><path class="ylines-above crisp" d="M0,0" style="fill: none;"/><g class="overlines-above"/><g class="xaxislayer-above"><g class="xtick"><text text-anchor="middle" x="0" y="403" transform="translate(208.14,0)" style="font-family: 'Open Sans', verdana, arial, sans-serif; font-size: 12px; fill: rgb(68, 68, 68); fill-opacity: 1; white-space: pre;">50</text></g><g class="xtick"><text text-anchor="middle" x="0" y="403" transform="translate(356.57,0)" style="font-family: 'Open Sans', verdana, arial, sans-serif; font-size: 12px; fill: rgb(68, 68, 68); fill-opacity: 1; white-space: pre;">100</text></g><g class="xtick"><text text-anchor="middle" x="0" y="403" transform="translate(505,0)" style="font-family: 'Open Sans', verdana, arial, sans-serif; font-size: 12px; fill: rgb(68, 68, 68); fill-opacity: 1; white-space: pre;">150</text></g></g><g class="yaxislayer-above"><g class="ytick"><text text-anchor="end" x="59" y="4.199999999999999" transform="translate(0,356.1)" style="font-family: 'Open Sans', verdana, arial, sans-serif; font-size: 12px; fill: rgb(68, 68, 68); fill-opacity: 1; white-space: pre;">20</text></g><g class="ytick"><text text-anchor="end" x="59" y="4.199999999999999" transform="translate(0,286.2)" style="font-family: 'Open Sans', verdana, arial, sans-serif; font-size: 12px; fill: rgb(68, 68, 68); fill-opacity: 1; white-space: pre;">40</text></g><g class="ytick"><text text-anchor="end" x="59" y="4.199999999999999" transform="translate(0,216.3)" style="font-family: 'Open Sans', verdana, arial, sans-serif; font-size: 12px; fill: rgb(68, 68, 68); fill-opacity: 1; white-space: pre;">60</text></g><g class="ytick"><text text-anchor="end" x="59" y="4.199999999999999" transform="translate(0,146.4)" style="font-family: 'Open Sans', verdana, arial, sans-serif; font-size: 12px; fill: rgb(68, 68, 68); fill-opacity: 1; white-space: pre;">80</text></g><g class="ytick"><text text-anchor="end" x="59" y="4.199999999999999" transform="translate(0,76.5)" style="font-family: 'Open Sans', verdana, arial, sans-serif; font-size: 12px; fill: rgb(68, 68, 68); fill-opacity: 1; white-space: pre;">100</text></g></g><g class="overaxes-above"/></g></g><g class="polarlayer"/><g class="ternarylayer"/><g class="geolayer"/><g class="funnelarealayer"/><g class="pielayer"/><g class="treemaplayer"/><g class="sunburstlayer"/><g class="glimages"/><defs id="topdefs-5d0828"><g class="clips"/><clipPath id="legend5d0828"><rect width="174" height="162" x="0" y="0"/></clipPath></defs><g class="layer-above"><g class="imagelayer"/><g class="shapelayer"/></g><g class="infolayer"><g class="legend" pointer-events="all" transform="translate(513.9000000000001, 60)"><rect class="bg" shape-rendering="crispEdges" width="174" height="162" x="0" y="0" style="stroke: rgb(68, 68, 68); stroke-opacity: 1; fill: rgb(255, 255, 255); fill-opacity: 1; stroke-width: 0px;"/><g class="scrollbox" transform="translate(0, 0)" clip-path="url('#legend5d0828')"><g class="groups"><g class="traces" transform="translate(0, 14.5)" style="opacity: 1;"><text class="legendtext user-select-none" text-anchor="start" x="40" y="4.680000000000001" style="font-family: 'Open Sans', verdana, arial, sans-serif; font-size: 12px; fill: rgb(68, 68, 68); fill-opacity: 1; white-space: pre;">0_resnet110_cs</text><g class="layers" style="opacity: 1;"><g class="legendfill"/><g class="legendlines"><path class="js-line" d="M5,0h30" style="fill: none; stroke: rgb(31, 119, 180); stroke-opacity: 1; stroke-width: 2px;"/></g><g class="legendsymbols"><g class="legendpoints"/></g></g><rect class="legendtoggle" pointer-events="all" x="0" y="-9.5" width="168.875" height="19" style="cursor: pointer; fill: rgb(0, 0, 0); fill-opacity: 0;"/></g><g class="traces" transform="translate(0, 33.5)" style="opacity: 1;"><text class="legendtext user-select-none" text-anchor="start" x="40" y="4.680000000000001" style="font-family: 'Open Sans', verdana, arial, sans-serif; font-size: 12px; fill: rgb(68, 68, 68); fill-opacity: 1; white-space: pre;">1_resnet110_cs_sr</text><g class="layers" style="opacity: 1;"><g class="legendfill"/><g class="legendlines"><path class="js-line" d="M5,0h30" style="fill: none; stroke: rgb(255, 127, 14); stroke-opacity: 1; stroke-width: 2px;"/></g><g class="legendsymbols"><g class="legendpoints"/></g></g><rect class="legendtoggle" pointer-events="all" x="0" y="-9.5" width="168.875" height="19" style="cursor: pointer; fill: rgb(0, 0, 0); fill-opacity: 0;"/></g><g class="traces" transform="translate(0, 52.5)" style="opacity: 1;"><text class="legendtext user-select-none" text-anchor="start" x="40" y="4.680000000000001" style="font-family: 'Open Sans', verdana, arial, sans-serif; font-size: 12px; fill: rgb(68, 68, 68); fill-opacity: 1; white-space: pre;">2_resnet20_cs</text><g class="layers" style="opacity: 1;"><g class="legendfill"/><g class="legendlines"><path class="js-line" d="M5,0h30" style="fill: none; stroke: rgb(44, 160, 44); stroke-opacity: 1; stroke-width: 2px;"/></g><g class="legendsymbols"><g class="legendpoints"/></g></g><rect class="legendtoggle" pointer-events="all" x="0" y="-9.5" width="168.875" height="19" style="cursor: pointer; fill: rgb(0, 0, 0); fill-opacity: 0;"/></g><g class="traces" transform="translate(0, 71.5)" style="opacity: 1;"><text class="legendtext user-select-none" text-anchor="start" x="40" y="4.680000000000001" style="font-family: 'Open Sans', verdana, arial, sans-serif; font-size: 12px; fill: rgb(68, 68, 68); fill-opacity: 1; white-space: pre;">3_resnet20_cs_sr</text><g class="layers" style="opacity: 1;"><g class="legendfill"/><g class="legendlines"><path class="js-line" d="M5,0h30" style="fill: none; stroke: rgb(214, 39, 40); stroke-opacity: 1; stroke-width: 2px;"/></g><g class="legendsymbols"><g class="legendpoints"/></g></g><rect class="legendtoggle" pointer-events="all" x="0" y="-9.5" width="168.875" height="19" style="cursor: pointer; fill: rgb(0, 0, 0); fill-opacity: 0;"/></g><g class="traces" transform="translate(0, 90.5)" style="opacity: 1;"><text class="legendtext user-select-none" text-anchor="start" x="40" y="4.680000000000001" style="font-family: 'Open Sans', verdana, arial, sans-serif; font-size: 12px; fill: rgb(68, 68, 68); fill-opacity: 1; white-space: pre;">4_resnet56_cs</text><g class="layers" style="opacity: 1;"><g class="legendfill"/><g class="legendlines"><path class="js-line" d="M5,0h30" style="fill: none; stroke: rgb(148, 103, 189); stroke-opacity: 1; stroke-width: 2px;"/></g><g class="legendsymbols"><g class="legendpoints"/></g></g><rect class="legendtoggle" pointer-events="all" x="0" y="-9.5" width="168.875" height="19" style="cursor: pointer; fill: rgb(0, 0, 0); fill-opacity: 0;"/></g><g class="traces" transform="translate(0, 109.5)" style="opacity: 1;"><text class="legendtext user-select-none" text-anchor="start" x="40" y="4.680000000000001" style="font-family: 'Open Sans', verdana, arial, sans-serif; font-size: 12px; fill: rgb(68, 68, 68); fill-opacity: 1; white-space: pre;">5_resnet56_cs_sr</text><g class="layers" style="opacity: 1;"><g class="legendfill"/><g class="legendlines"><path class="js-line" d="M5,0h30" style="fill: none; stroke: rgb(140, 86, 75); stroke-opacity: 1; stroke-width: 2px;"/></g><g class="legendsymbols"><g class="legendpoints"/></g></g><rect class="legendtoggle" pointer-events="all" x="0" y="-9.5" width="168.875" height="19" style="cursor: pointer; fill: rgb(0, 0, 0); fill-opacity: 0;"/></g><g class="traces" transform="translate(0, 128.5)" style="opacity: 1;"><text class="legendtext user-select-none" text-anchor="start" x="40" y="4.680000000000001" style="font-family: 'Open Sans', verdana, arial, sans-serif; font-size: 12px; fill: rgb(68, 68, 68); fill-opacity: 1; white-space: pre;">6_vgg19_bn_cifar</text><g class="layers" style="opacity: 1;"><g class="legendfill"/><g class="legendlines"><path class="js-line" d="M5,0h30" style="fill: none; stroke: rgb(227, 119, 194); stroke-opacity: 1; stroke-width: 2px;"/></g><g class="legendsymbols"><g class="legendpoints"/></g></g><rect class="legendtoggle" pointer-events="all" x="0" y="-9.5" width="168.875" height="19" style="cursor: pointer; fill: rgb(0, 0, 0); fill-opacity: 0;"/></g><g class="traces" transform="translate(0, 147.5)" style="opacity: 1;"><text class="legendtext user-select-none" text-anchor="start" x="40" y="4.680000000000001" style="font-family: 'Open Sans', verdana, arial, sans-serif; font-size: 12px; fill: rgb(68, 68, 68); fill-opacity: 1; white-space: pre;">7_vgg19_bn_cifar_sr</text><g class="layers" style="opacity: 1;"><g class="legendfill"/><g class="legendlines"><path class="js-line" d="M5,0h30" style="fill: none; stroke: rgb(127, 127, 127); stroke-opacity: 1; stroke-width: 2px;"/></g><g class="legendsymbols"><g class="legendpoints"/></g></g><rect class="legendtoggle" pointer-events="all" x="0" y="-9.5" width="168.875" height="19" style="cursor: pointer; fill: rgb(0, 0, 0); fill-opacity: 0;"/></g></g></g><rect class="scrollbar" rx="20" ry="3" width="0" height="0" x="0" y="0" style="fill: rgb(128, 139, 164); fill-opacity: 1;"/></g><g class="g-gtitle"><text class="gtitle" x="350" y="30" text-anchor="middle" dy="0em" style="font-family: 'Open Sans', verdana, arial, sans-serif; font-size: 17px; fill: rgb(68, 68, 68); opacity: 1; font-weight: normal; white-space: pre;">train_top1</text></g><g class="g-xtitle"/><g class="g-ytitle"/></g></svg>