<svg class="main-svg" xmlns="http://www.w3.org/2000/svg" xmlns:xlink="http://www.w3.org/1999/xlink" width="700" height="450" style="" viewBox="0 0 700 450"><rect x="0" y="0" width="700" height="450" style="fill: rgb(255, 255, 255); fill-opacity: 1;"/><defs id="defs-8dacf1"><g class="clips"><clipPath id="clip8dacf1xyplot" class="plotclip"><rect width="368" height="330"/></clipPath><clipPath class="axesclip" id="clip8dacf1x"><rect x="60" y="0" width="368" height="450"/></clipPath><clipPath class="axesclip" id="clip8dacf1y"><rect x="0" y="60" width="700" height="330"/></clipPath><clipPath class="axesclip" id="clip8dacf1xy"><rect x="60" y="60" width="368" height="330"/></clipPath></g><g class="gradients"/></defs><g class="bglayer"/><g class="layer-below"><g class="imagelayer"/><g class="shapelayer"/></g><g class="cartesianlayer"><g class="subplot xy"><g class="layer-subplot"><g class="shapelayer"/><g class="imagelayer"/></g><g class="gridlayer"><g class="x"><path class="xgrid crisp" transform="translate(133.31,0)" d="M0,60v330" style="stroke: rgb(238, 238, 238); stroke-opacity: 1; stroke-width: 1px;"/><path class="xgrid crisp" transform="translate(206.98,0)" d="M0,60v330" style="stroke: rgb(238, 238, 238); stroke-opacity: 1; stroke-width: 1px;"/><path class="xgrid crisp" transform="translate(280.65,0)" d="M0,60v330" style="stroke: rgb(238, 238, 238); stroke-opacity: 1; stroke-width: 1px;"/><path class="xgrid crisp" transform="translate(354.33,0)" d="M0,60v330" style="stroke: rgb(238, 238, 238); stroke-opacity: 1; stroke-width: 1px;"/></g><g class="y"><path class="ygrid crisp" transform="translate(0,341.78)" d="M60,0h368" style="stroke: rgb(238, 238, 238); stroke-opacity: 1; stroke-width: 1px;"/><path class="ygrid crisp" transform="translate(0,275.43)" d="M60,0h368" style="stroke: rgb(238, 238, 238); stroke-opacity: 1; stroke-width: 1px;"/><path class="ygrid crisp" transform="translate(0,209.08)" d="M60,0h368" style="stroke: rgb(238, 238, 238); stroke-opacity: 1; stroke-width: 1px;"/><path class="ygrid crisp" transform="translate(0,142.72)" d="M60,0h368" style="stroke: rgb(238, 238, 238); stroke-opacity: 1; stroke-width: 1px;"/><path class="ygrid crisp" transform="translate(0,76.37)" d="M60,0h368" style="stroke: rgb(238, 238, 238); stroke-opacity: 1; stroke-width: 1px;"/></g></g><g class="zerolinelayer"/><path class="xlines-below"/><path class="ylines-below"/><g class="overlines-below"/><g class="xaxislayer-below"/><g class="yaxislayer-below"/><g class="overaxes-below"/><g class="plot" transform="translate(60, 60)" clip-path="url('#clip8dacf1xyplot')"><g class="scatterlayer mlayer"><g class="trace scatter trace6187b0" style="stroke-miterlimit: 2; opacity: 1;"><g class="fills"/><g class="errorbars"/><g class="lines"><path class="js-line" d="M0,266.85L1.84,181.39L2.21,172.96L3.68,140.58L4.05,136.2L5.16,126.78L5.53,122.4L6.26,108.53L6.63,109.86L7,110.06L8.1,99.24L8.47,97.92L8.84,102.03L9.21,94L9.58,92.34L9.95,94.4L11.79,81.53L12.16,81.92L12.52,84.31L12.89,81.73L13.26,84.05L13.63,83.98L14,83.19L14.37,79.4L14.73,75.75L15.1,76.35L15.47,76.55L15.84,77.81L16.21,76.82L16.58,75.09L16.94,74.56L17.31,72.44L18.05,73.83L18.42,73.76L19.52,67.79L19.89,72.44L21,67.86L21.37,68.59L21.73,68.32L22.1,64.54L22.47,62.48L22.84,69.32L23.58,62.62L23.94,69.58L25.42,62.82L25.79,63.21L26.15,59.23L26.52,64.41L27.26,61.75L27.63,62.15L28,66.4L29.47,56.98L29.84,60.23L30.57,59.03L30.94,65.54L31.68,56.78L32.05,61.09L32.42,62.48L32.78,60.43L33.15,54.06L33.52,61.42L34.26,54.59L34.63,58.57L34.99,60.36L35.36,57.04L35.73,60.16L36.1,56.91L36.47,58.63L36.84,55.12L37.57,54.72L37.94,55.45L38.68,53.92L39.05,56.71L39.42,53.86L39.78,55.91L40.15,55.91L40.52,53.06L40.89,53.59L41.26,53.59L41.63,55.45L41.99,54.06L42.36,52.73L42.73,55.32L43.1,52.73L43.47,54.12L44.2,47.09L44.57,53.19L45.31,49.74L45.68,50.87L46.05,54.72L46.78,50.74L47.15,51.34L47.52,54.06L47.89,47.82L48.26,48.95L48.62,49.81L48.99,48.81L49.36,52.33L50.47,51.4L50.83,52.46L51.94,46.29L52.31,47.89L53.41,52.73L53.78,48.68L54.52,51.14L54.89,49.81L55.99,46.36L56.36,48.68L56.73,47.35L57.1,49.48L57.47,50.01L57.83,48.68L58.2,51.34L58.57,48.42L59.68,46.09L60.04,48.62L61.15,46.82L61.52,47.49L61.89,52.4L62.62,45.23L62.99,46.16L63.36,46.76L64.1,44.24L64.46,47.55L65.2,48.22L65.57,45.63L65.94,49.54L66.31,45.89L66.67,45.76L67.04,43.57L67.41,45.5L67.78,46.03L68.52,49.28L68.88,44.7L69.62,46.49L69.99,43.57L71.1,45.76L71.46,44.3L72.2,47.62L72.57,45.23L73.31,46.76L73.67,39.72L74.41,44.97L74.78,44.04L75.15,44.97L75.52,44.77L75.88,45.83L76.25,47.82L76.62,47.16L76.99,46.69L77.36,39.46L77.73,42.58L78.09,42.31L78.46,42.31L78.83,43.71L79.2,42.98L79.57,45.43L81.04,41.18L81.41,43.11L82.51,41.65L82.88,42.64L83.25,44.1L83.62,41.38L84.36,45.56L84.72,37.47L85.83,44.43L86.2,43.11L86.57,42.38L86.93,43.31L87.3,43.04L87.67,42.11L88.04,43.64L89.15,38.99L89.51,43.97L89.88,45.03L90.25,40.85L91.36,42.25L91.72,43.31L93.2,37.8L93.57,43.04L93.93,41.85L94.3,45.16L94.67,41.25L95.04,43.24L95.41,42.98L96.14,38.26L96.51,40.39L96.88,38.66L97.25,41.65L97.99,42.64L98.35,45.7L99.09,41.58L99.46,36.61L101.3,42.98L101.67,40.45L102.77,43.11L103.14,37.14L104.25,40.65L104.62,39.39L104.98,38.46L105.35,41.18L106.46,43.37L106.83,37.47L107.2,36.61L107.56,39.26L107.93,38.13L108.3,39.79L109.41,44.9L109.77,43.84L110.51,36.21L110.88,40.19L111.25,36.41L111.62,38.53L111.98,40.39L112.72,39.19L113.09,43.37L114.19,36.14L114.56,39.52L114.93,38.33L115.3,38.46L115.67,39.59L116.77,40.45L117.14,40.32L117.51,41.32L117.88,34.68L119.35,40.52L119.72,39.59L120.09,38.66L120.46,39.99L120.82,38.93L121.19,41.18L121.56,35.68L121.93,37.53L122.3,39.86L122.67,39.06L123.04,39.79L123.4,36.8L123.77,40.39L124.14,39.86L124.51,40.12L125.25,37.27L125.61,38.6L125.98,37.67L126.35,39.39L127.09,40.45L127.46,36.94L128.19,40.39L128.56,38.93L128.93,33.62L129.3,35.01L129.67,38L130.77,37.4L131.14,39.06L131.51,43.17L131.88,38.07L132.24,38.99L132.61,36.61L132.98,34.15L133.35,34.68L133.72,36.54L134.45,39.13L134.82,38.07L135.93,40.52L136.3,33.15L137.77,39.13L138.14,35.34L139.24,40.25L139.61,38.73L140.72,33.95L141.09,37.93L141.45,39.66L141.82,38.2L142.19,37.27L142.56,41.58L142.93,39.52L143.3,38.46L144.03,34.95L144.4,35.41L145.51,39.33L145.87,37.4L146.24,36.94L146.61,38.13L147.35,35.48L147.72,37.93L148.08,35.61L148.45,37.93L148.82,38L149.19,37.07L149.56,39.33L149.93,36.8L150.29,37.07L150.66,38.13L151.03,37.07L151.4,37.53L151.77,34.02L152.14,34.68L152.5,38.53L152.87,38.26L153.24,40.12L154.35,36.34L154.71,36.41L155.08,34.42L155.45,37.27L155.82,35.74L156.19,36.61L156.56,36.54L156.92,37.8L157.29,37.47L157.66,37.4L158.03,39.52L158.4,34.88L159.14,34.02L159.5,35.41L159.87,38.6L160.24,36.74L160.61,37.53L160.98,37L161.35,37.4L161.71,38.53L162.45,33.62L162.82,37.07L163.56,35.88L163.92,36.21L164.29,36.61L165.03,36.41L165.4,38L166.13,33.75L166.5,34.75L167.61,39.52L167.98,37.34L168.34,37.47L168.71,36.27L169.08,35.94L169.45,32.89L170.19,35.21L170.55,34.42L170.92,37.6L172.03,38.53L172.4,37.47L172.76,38.13L173.13,34.35L173.5,36.01L173.87,32.96L174.24,35.48L174.61,34.42L174.97,34.55L176.08,38.33L176.45,37.6L176.82,34.35L177.19,33.49L177.55,35.21L177.92,34.95L178.29,36.94L179.76,37.4L180.13,36.67L180.87,32.89L181.24,35.61L181.61,33.29L181.97,34.42L182.34,37.47L182.71,36.21L183.08,37.27L183.45,37.93L183.82,37.93L184.18,32.29L184.55,33.02L184.92,37L185.29,34.95L185.66,35.88L186.03,35.34L187.13,36.8L187.5,34.42L188.6,26.32L188.97,25.59L189.71,25.86L190.08,23.67L190.81,24.99L191.18,24.53L191.92,22.87L192.29,23.07L192.66,24L193.03,21.68L194.13,22.41L194.5,21.34L194.87,22.01L195.24,21.28L195.6,21.54L196.34,21.08L196.71,20.95L197.08,22.07L197.45,20.81L197.81,21.14L198.18,20.75L198.55,21.81L199.29,20.28L199.66,20.41L200.02,20.61L201.87,20.22L202.23,21.14L202.97,20.02L203.34,20.61L204.08,19.29L204.44,20.02L204.81,19.68L205.18,20.22L205.55,21.41L206.29,19.22L206.65,19.95L207.39,19.49L207.76,19.88L208.13,19.15L208.5,19.55L208.86,19.68L209.6,20.35L209.97,19.02L211.08,19.95L211.44,19.88L212.55,19.29L212.92,20.22L214.02,19.15L214.39,19.55L215.5,18.96L215.86,19.62L216.6,18.89L216.97,19.15L217.34,19.22L218.44,18.49L218.81,18.76L219.55,19.82L219.92,18.42L220.65,19.75L221.02,17.89L222.13,19.15L222.49,18.62L224.34,18.23L224.7,18.49L225.07,18.23L225.44,19.02L228.76,17.83L229.13,18.89L229.86,18.09L230.23,18.49L230.6,18.03L230.97,19.02L232.07,17.76L232.44,17.89L233.55,18.29L233.91,17.63L235.02,18.23L235.39,18.16L236.49,17.63L236.86,17.83L237.97,18.09L238.33,18.49L239.44,17.83L239.81,17.89L242.75,17.69L243.12,18.23L244.23,17.63L244.6,17.56L246.44,17.76L246.81,17.5L248.65,18.03L249.02,18.42L250.12,17.69L250.49,17.76L250.86,17.5L251.23,18.03L251.6,18.16L252.7,17.76L253.07,17.89L253.81,17.63L254.17,17.43L254.91,17.36L255.28,17.89L255.65,17.16L256.02,17.5L256.38,18.23L257.86,17.16L258.23,17.03L258.96,17.23L259.33,18.49L260.07,17.3L260.44,17.43L260.8,17.96L261.54,17.1L261.91,17.56L262.28,17.43L265.96,17.16L266.33,17.43L267.07,17.3L267.44,17.69L268.17,17.5L268.54,17.89L268.91,17.03L269.28,17.43L269.65,17.3L270.01,17.3L270.38,18.23L271.49,17.1L271.86,17.63L272.96,17.16L273.33,17.16L277.75,17.3L278.12,16.96L279.22,17.5L279.59,17.63L280.7,16.9L281.07,17.5L282.54,16.96L282.91,17.43L283.28,16.9L283.64,17.23L284.01,17.3L285.12,16.96L285.49,17.43L286.59,16.96L286.96,16.57L288.43,17.1L288.8,17.16L289.54,16.77L289.91,17.3L290.27,16.57L290.64,16.96L291.01,17.03L292.12,16.7L292.48,17.1L293.22,16.83L293.59,16.77L293.96,17.3L294.33,16.7L294.69,16.77L296.9,17.03L297.27,16.77L300.96,16.96L301.33,16.63L302.43,16.77L302.8,16.63L303.17,17.16L303.54,16.83L303.9,16.83L305.75,17.16L306.11,16.96L307.59,16.57L307.96,16.7L309.43,16.96L309.8,16.63L310.9,16.7L311.27,16.7L312.74,16.96L313.11,16.9L315.32,16.83L315.69,17.3L316.43,16.83L316.8,17.23L318.27,16.96L318.64,16.83L321.95,16.9L322.32,17.23L323.43,16.96L323.8,16.9L326.01,16.83L326.37,17.23L327.85,16.83L328.22,16.96L328.95,16.83L329.32,17.03L330.79,16.9L331.16,16.9L335.22,16.83L335.58,16.83L336.69,16.7L337.06,16.5L340.37,16.96L340.74,16.9L342.95,16.5L343.32,17.03L368,16.83" style="vector-effect: non-scaling-stroke; fill: none; stroke: rgb(31, 119, 180); stroke-opacity: 1; stroke-width: 2px; opacity: 1;"/></g><g class="points"/><g class="text"/></g><g class="trace scatter trace7578c9" style="stroke-miterlimit: 2; opacity: 1;"><g class="fills"/><g class="errorbars"/><g class="lines"><path class="js-line" d="M0,286.63L1.47,224.85L1.84,212.18L4.42,157.7L4.79,157.9L5.16,154.18L5.53,153.52L5.89,139.92L6.26,140.98L6.63,139.85L7,135.8L9.58,123.86L9.95,127.71L10.68,118.02L11.05,122.67L11.79,114.17L12.16,116.03L12.52,113.84L14,107.87L14.37,107.47L15.1,99.84L15.47,102.3L15.84,100.37L16.21,101.9L16.58,100.57L16.94,98.98L17.31,104.09L18.42,94.33L18.79,93.8L19.16,93.01L19.52,96.72L19.89,89.22L20.26,93.34L20.63,90.82L21,91.28L21.37,90.09L21.73,91.88L22.1,88.1L22.47,84.18L22.84,87.83L23.21,89.49L23.58,89.02L23.94,89.89L24.31,82.72L24.68,88.43L25.05,86.5L26.15,81.99L26.52,83.72L27.63,83.58L28,80.53L28.36,80.4L28.73,83.32L29.47,73.56L29.84,75.89L30.21,79.8L30.94,76.02L31.31,79.34L31.68,81.06L32.05,78.28L33.15,72.44L33.52,75.69L34.63,73.5L34.99,76.09L35.36,76.88L35.73,75.16L36.1,75.82L36.47,75.09L36.84,69.91L37.21,77.41L37.57,74.03L37.94,72.37L38.31,74.76L38.68,71.91L39.05,69.85L39.42,71.24L39.78,72.3L40.89,69.12L41.26,70.05L41.99,71.24L42.36,65.8L43.1,71.91L43.47,69.85L43.84,69.32L44.2,66.66L44.57,73.03L45.31,65.54L45.68,68.72L46.05,66.27L46.41,68.72L46.78,70.98L48.62,65.34L48.99,67L49.36,68.39L49.73,66L50.1,64.81L50.47,68.19L50.83,66.73L51.2,69.05L52.31,63.28L52.68,64.41L53.41,65.34L53.78,67.26L54.15,66.66L54.52,62.35L54.89,63.94L55.26,61.16L56.36,64.54L56.73,65.07L57.1,65.73L57.47,59.83L57.83,65L58.2,62.35L58.57,63.74L59.31,60.56L59.68,63.08L60.04,61.42L60.41,64.41L60.78,64.94L61.15,64.61L61.52,62.88L61.89,64.81L62.25,61.36L62.62,61.49L62.99,60.76L64.1,62.88L64.46,63.61L65.2,63.61L65.57,60.89L65.94,63.15L66.31,61.09L66.67,61.89L67.04,60.56L67.41,61.09L67.78,61.36L68.52,59.43L68.88,60.82L69.25,66.13L69.62,59.23L69.99,57.37L70.36,58.63L70.73,59.83L71.46,60.96L71.83,59.3L72.2,57.11L72.57,59.76L73.31,63.08L73.67,59.23L74.04,58.44L74.41,59.1L74.78,59.96L75.52,59.43L75.88,57.44L76.99,60.23L77.36,55.72L78.46,58.57L78.83,58.77L79.2,58.57L79.57,60.89L79.94,57.31L80.3,59.56L80.67,61.02L81.41,53.99L81.78,58.04L82.15,58.77L82.51,57.97L82.88,60.82L83.25,59.96L83.62,60.29L83.99,57.37L84.36,62.48L84.72,54.26L85.09,53.92L85.46,57.97L86.2,56.11L86.57,57.64L86.93,58.97L87.3,55.58L88.04,58.37L88.41,49.94L89.15,56.84L89.51,52.2L89.88,53.26L90.25,57.17L90.62,55.78L90.99,58.57L92.09,54.72L92.46,53.86L92.83,53.79L93.2,59.03L93.57,56.25L94.3,56.38L94.67,55.91L95.04,60.43L95.41,53.39L95.78,53.59L96.14,56.45L97.25,54.72L97.62,56.18L97.99,56.31L98.35,52.4L99.09,58.1L99.46,54.65L100.2,52.93L100.56,54.99L100.93,54.26L101.3,56.84L101.67,54.85L102.04,55.32L102.41,56.31L103.14,53.26L103.51,55.12L103.88,53.66L104.25,59.3L104.98,53.99L105.35,54.45L105.72,55.45L106.09,54.59L106.46,55.32L106.83,51.47L107.2,51.6L107.56,53.53L108.3,54.85L108.67,52.99L109.04,53.66L109.41,57.17L110.14,53.79L110.51,58.5L111.25,49.21L111.62,53.99L111.98,55.18L112.35,52.53L112.72,56.58L113.09,53.66L113.46,53.59L114.19,53.06L114.56,52L114.93,52.26L115.3,50.74L115.67,56.71L116.04,54.85L116.4,54.45L116.77,52.13L117.14,55.32L117.88,50.67L118.25,52.07L118.61,52.66L118.98,56.71L119.35,51.8L119.72,52.26L120.09,49.08L121.19,55.18L121.56,49.88L121.93,50.41L122.3,52.73L122.67,56.25L123.04,52.26L123.77,55.25L124.14,54.06L125.61,49.41L125.98,49.74L126.35,51.27L126.72,51.93L127.09,50.8L128.19,57.17L128.56,53.26L128.93,49.54L129.3,53.13L129.67,54.65L130.03,53.79L130.4,54.65L130.77,55.25L131.51,51.93L131.88,53.79L132.24,53.99L132.61,52.53L132.98,51.93L133.35,53.26L134.09,51.53L134.45,51.87L134.82,52.4L135.19,52.8L135.56,51.8L135.93,54.26L136.3,53.66L136.66,51.73L137.03,49.48L137.4,50.8L137.77,50.87L138.87,54.39L139.24,53.26L139.61,53.66L139.98,51.53L140.35,49.21L140.72,50.47L141.09,52.6L141.45,53.59L141.82,51.87L142.93,55.18L143.3,55.32L144.03,49.01L144.4,52.86L144.77,51.47L145.14,51.93L145.51,51.87L145.87,54.59L146.24,52.8L146.61,52.33L146.98,52.53L147.35,50.14L147.72,52.2L148.08,49.94L148.82,51.8L149.19,52.86L150.29,55.72L150.66,49.81L151.03,50.08L151.4,52.26L151.77,49.88L152.14,56.38L152.87,52.99L153.24,57.31L153.98,53.13L154.35,53.39L154.71,47.42L155.45,51L155.82,48.42L156.56,52.53L156.92,51L157.29,54.45L157.66,51.93L158.03,51.93L159.14,48.81L159.5,52.86L159.87,48.02L160.24,50.54L160.61,54.72L162.08,49.48L162.45,51L163.19,53.46L163.56,50.41L163.92,52L164.29,50.74L164.66,49.74L165.4,53.19L165.77,50.14L166.13,51.53L166.5,48.88L167.24,52.4L167.61,51.14L167.98,52.26L168.34,51.2L168.71,50.34L169.08,52.6L169.45,47.62L170.55,52.26L170.92,52.13L171.66,48.75L172.03,52.26L172.4,52.13L172.76,52.99L173.5,47.95L173.87,50.34L174.24,48.02L174.61,52.2L174.97,52.86L175.34,50.87L175.71,50.67L176.08,51.34L176.45,51.93L176.82,49.48L177.19,50.34L177.55,46.23L178.66,51.8L179.03,52.99L179.4,51.73L179.76,52.33L180.13,53.66L180.5,45.16L180.87,48.62L181.24,51.14L181.97,48.68L182.34,48.88L182.71,49.68L183.08,52.6L183.45,49.08L184.18,48.75L184.55,50.67L185.29,47.69L185.66,54.92L187.13,50.01L187.5,52.66L188.97,38.46L189.34,38.46L190.81,36.14L191.18,35.81L191.92,33.29L192.29,35.81L193.03,33.42L193.39,34.08L193.76,34.88L194.13,34.88L194.5,33.09L194.87,34.08L195.24,31.16L195.6,31.3L195.97,33.62L197.08,30.97L197.45,32.62L198.92,31.23L199.29,29.84L200.02,32.36L200.39,30.57L200.76,31.36L201.13,28.18L202.23,31.76L202.6,31.83L202.97,30.7L203.34,31.3L203.71,31.1L204.08,32.62L204.44,29.7L204.81,31.76L205.18,30.43L205.55,30.1L206.65,31.23L207.02,30.04L207.39,28.31L207.76,30.17L208.13,30.7L208.5,28.51L209.23,30.77L209.6,28.84L209.97,28.64L210.34,30.77L211.44,28.97L211.81,30.97L212.55,28.11L212.92,29.57L213.29,29.9L213.65,29.31L214.02,27.91L214.39,29.7L214.76,28.71L215.13,28.31L215.5,29.04L215.86,28.51L216.23,30.97L217.34,26.19L217.71,28.11L218.07,28.18L218.44,29.24L219.18,28.51L219.55,29.17L220.28,28.11L220.65,28.91L221.02,29.9L221.39,27.25L221.76,27.91L222.13,26.85L223.6,28.97L223.97,28.31L224.34,27.98L224.7,27.38L225.07,28.05L225.44,28.71L225.81,26.92L226.18,27.25L226.55,27.85L226.91,26.85L227.28,27.65L227.65,27.05L228.02,28.64L228.39,27.38L228.76,27.65L229.49,27.65L229.86,28.11L230.23,26.92L230.6,27.45L230.97,28.58L231.7,27.45L232.07,28.11L233.18,26.72L233.55,27.05L233.91,27.05L234.28,28.11L236.49,25.52L236.86,27.71L237.23,25.86L237.6,27.18L237.97,26.78L239.07,28.11L239.44,26.39L239.81,26.65L240.18,25.79L240.91,26.19L241.28,25.79L241.65,24.6L242.02,28.18L243.49,23.67L243.86,26.25L244.23,26.85L244.6,25.52L244.96,24.13L245.33,26.72L246.07,26.65L246.44,27.25L246.81,25.19L247.18,26.52L247.54,26.85L248.65,25.13L249.02,26.25L249.39,26.19L249.75,25.13L250.12,27.32L250.49,24.4L251.23,26.19L251.6,24.46L252.33,25.66L252.7,25.33L253.07,26.05L253.44,25.92L253.81,27.18L254.54,24.73L254.91,26.05L256.75,24.86L257.12,25.13L257.49,25.59L257.86,25.06L258.23,24.73L258.59,25.13L258.96,23.93L259.7,26.92L260.07,24.53L260.44,25.13L260.8,24.2L261.91,23.4L262.28,24.33L263.38,25.92L263.75,24.46L264.12,26.25L264.49,23.8L264.86,26.12L265.23,24.06L265.59,25.06L266.7,24.46L267.07,25.33L267.44,23.67L267.8,25.92L269.28,24.26L269.65,25.33L270.01,24.4L270.38,25.66L270.75,25.72L271.12,24.4L271.49,24.33L271.86,25.59L272.59,22.94L272.96,24.4L273.33,25.79L273.7,24L274.07,23.8L274.43,24.53L274.8,25.46L275.17,24.46L275.54,25.26L275.91,26.25L276.28,23.47L276.64,23.4L277.01,24.86L278.49,23.07L278.85,23.33L279.59,23.67L279.96,23.93L280.33,21.54L280.7,23.8L281.07,21.74L282.17,22.6L282.54,22.87L283.64,22.07L284.01,23.33L285.12,21.41L285.49,22.21L286.22,22.21L286.59,21.61L287.7,21.81L288.06,21.87L288.43,21.81L288.8,22.6L289.17,23.14L289.54,20.75L290.64,21.87L291.01,21.81L292.12,21.61L292.48,22.34L293.59,21.41L293.96,21.81L296.54,21.28L296.9,22.41L298.01,21.68L298.38,20.61L299.12,21.01L299.48,21.74L299.85,21.54L300.22,20.41L301.33,21.87L301.69,21.34L302.43,21.48L302.8,20.68L303.54,22.6L303.9,22.01L304.27,21.34L305.75,21.21L306.11,21.81L306.48,20.55L306.85,21.48L307.22,20.88L307.59,21.54L307.96,21.14L308.32,20.68L308.69,21.68L309.06,21.14L309.43,20.22L310.17,21.41L310.53,20.41L311.27,22.34L311.64,21.14L312.01,22.27L312.38,21.74L312.74,20.61L313.11,21.34L313.48,21.14L313.85,20.95L314.95,21.28L315.32,20.41L316.43,21.81L316.8,21.28L317.17,22.94L317.53,21.01L317.9,20.61L318.27,21.34L318.64,21.08L319.01,21.94L320.48,21.01L320.85,21.61L321.22,21.08L321.59,22.67L321.95,21.14L322.32,21.41L322.69,21.54L323.43,20.55L323.8,21.87L324.9,20.55L325.27,21.08L325.64,22.14L326.01,21.14L326.37,21.68L327.11,20.81L327.48,21.94L328.58,20.15L328.95,20.95L330.06,21.61L330.43,21.41L330.79,20.41L331.16,21.34L331.53,21.21L332.27,21.14L332.64,20.35L334.11,21.41L334.48,20.48L335.58,21.68L335.95,21.01L336.32,20.48L337.06,21.28L337.43,20.75L338.53,21.14L338.9,21.41L339.27,20.75L339.64,21.01L340,21.21L340.74,20.41L341.11,21.68L341.48,19.95L341.85,21.61L342.21,20.75L343.32,20.68L343.69,21.87L344.42,20.55L344.79,20.81L345.16,21.08L346.27,21.08L346.63,21.41L347.74,20.15L348.11,20.68L349.58,21.74L349.95,20.48L350.69,21.14L351.06,20.48L351.79,21.41L352.16,20.15L353.27,21.08L353.63,21.01L354,19.42L354.37,20.75L354.74,21.28L355.11,22.01L355.48,21.34L355.84,20.95L356.21,21.28L356.58,20.55L357.32,19.95L357.69,20.75L358.05,21.61L358.42,20.22L358.79,21.28L359.16,20.88L359.53,20.68L360.63,20.95L361,20.41L362.11,19.95L362.47,21.41L362.84,20.28L363.21,21.08L363.58,21.14L364.68,20.35L365.05,21.28L365.42,19.75L365.79,21.34L366.16,20.75L366.53,20.22L366.89,20.75L367.26,20.75L367.63,21.48L368,20.88" style="vector-effect: non-scaling-stroke; fill: none; stroke: rgb(255, 127, 14); stroke-opacity: 1; stroke-width: 2px; opacity: 1;"/></g><g class="points"/><g class="text"/></g><g class="trace scatter trace18b29a" style="stroke-miterlimit: 2; opacity: 1;"><g class="fills"/><g class="errorbars"/><g class="lines"><path class="js-line" d="M0,313.5L2.21,255.57L2.58,247.35L2.95,247.08L3.32,247.88L3.68,241.04L4.05,243.56L4.42,241.57L5.16,230.82L5.53,235.87L6.63,228.24L7,227.64L7.37,227.57L7.74,223.79L8.1,222.26L8.47,224.52L9.58,217.09L9.95,220.47L10.68,215.83L11.05,218.22L12.52,208.59L12.89,204.88L14,212.44L14.37,205.28L14.73,203.49L15.1,208.06L16.21,203.82L16.58,202.29L16.94,209.72L17.31,206.21L17.68,202.29L18.05,199.11L18.42,200.43L18.79,204.81L19.16,196.19L19.52,199.44L19.89,196.78L20.26,199.64L20.63,197.25L21,198.64L22.1,194.2L22.47,193.86L23.58,197.98L23.94,195.19L24.31,194.33L24.68,195.59L25.79,189.68L26.15,198.58L26.89,191.01L27.26,191.87L27.63,191.61L28.36,187.03L28.73,188.02L29.1,189.48L29.47,189.75L29.84,187.63L30.21,187.49L30.57,186.1L32.05,190.75L32.42,186.3L32.78,186.5L33.15,182.45L33.89,183.71L34.26,180.92L35.36,187.63L35.73,180.66L36.1,179.2L36.47,184.97L37.57,182.78L37.94,179.8L38.31,185.84L38.68,180.59L39.05,182.92L39.78,181.06L40.15,181.99L40.52,178.27L40.89,180.26L41.26,182.38L41.63,177.47L41.99,178.14L42.36,182.78L42.73,182.25L43.1,180.33L43.47,180.99L43.84,178.93L44.2,178.8L44.57,181.72L45.31,174.62L45.68,176.68L46.05,177.08L46.78,179.27L47.15,182.65L47.52,172.5L47.89,173.43L48.26,177.28L48.62,178.6L48.99,175.95L49.36,174.02L49.73,176.61L50.47,172.1L50.83,175.68L51.2,178.67L51.57,174.89L52.31,172.37L52.68,174.75L53.05,177.41L53.41,172.1L53.78,175.15L54.15,171.37L54.52,172.83L54.89,172.7L55.26,167.59L56.36,174.49L56.73,173.16L57.1,172.1L57.47,172.37L57.83,169.78L58.57,175.42L58.94,166.19L59.68,176.94L60.04,172.37L60.41,165.93L60.78,166.46L61.15,166.26L61.52,170.97L61.89,165.73L62.25,170.37L62.62,167.12L62.99,165.8L63.73,168.85L64.1,168.18L65.2,166.79L65.57,168.78L66.31,173.56L66.67,164.34L67.04,170.44L67.41,169.25L67.78,168.52L68.15,167.52L68.52,170.31L69.25,164.4L69.62,168.32L69.99,169.18L70.36,166.46L70.73,163.67L71.1,164.73L71.46,166.19L71.83,166.19L72.2,162.15L73.67,167.79L74.04,161.28L75.15,168.91L75.52,166L75.88,168.52L76.25,165.93L76.62,166.06L76.99,163.87L77.36,163.94L77.73,166.79L78.09,169.31L78.46,165.93L78.83,162.54L79.2,167.85L79.57,165.73L79.94,168.58L81.04,162.15L81.41,165.66L81.78,162.35L82.15,165.93L82.51,164.87L82.88,160.75L83.25,166.73L83.62,165.86L83.99,165.8L84.36,162.28L84.72,168.05L85.09,162.48L85.46,168.78L85.83,157.5L86.2,163.87L86.57,168.78L87.67,163.21L88.04,161.82L88.78,167.39L89.15,166.33L89.51,162.28L89.88,166.73L90.25,161.88L90.62,163.34L90.99,162.81L91.36,162.74L91.72,165.33L92.09,164.2L92.46,162.41L93.93,167.19L94.3,162.28L94.67,157.04L95.04,166.26L95.78,162.61L96.14,164.34L96.51,158.83L96.88,160.42L97.25,164.6L97.62,164.93L97.99,161.35L98.35,156.77L98.72,165.6L99.09,165.07L99.46,161.95L99.83,160.95L100.2,161.48L100.56,162.88L101.67,158.5L102.04,161.68L102.41,162.94L102.77,158.56L103.88,161.68L104.25,158.96L105.35,161.88L105.72,157.1L106.83,165.53L107.2,160.75L107.56,163.21L107.93,159.89L108.3,161.68L108.67,159.43L109.04,157.9L109.41,160.55L109.77,160.95L110.14,160.22L110.88,160.95L111.25,159.29L111.62,163.27L111.98,158.17L112.72,158.36L113.09,159.36L113.46,156.57L113.83,157.83L114.19,162.01L115.3,158.3L115.67,161.88L116.77,156.51L117.14,158.36L117.51,162.68L117.88,157.77L118.25,158.76L118.61,157.1L118.98,162.15L119.35,161.35L119.72,158.3L120.09,161.22L120.46,156.31L120.82,155.98L121.19,161.88L122.67,155.91L123.04,155.78L123.77,161.68L124.14,154.98L125.25,161.75L125.61,155.64L125.98,156.04L126.35,158.17L127.09,158.83L127.46,156.37L128.19,161.35L128.56,165.4L130.03,156.37L130.4,159.96L131.14,156.97L131.51,158.83L131.88,158.76L132.24,159.89L133.72,155.71L134.09,159.23L134.82,155.18L135.19,157.04L135.56,158.17L136.3,154.38L136.66,156.84L137.03,159.63L137.4,154.85L138.51,161.22L138.87,161.82L139.61,154.05L139.98,156.71L140.35,155.84L140.72,161.28L141.09,154.52L141.45,158.43L141.82,154.12L142.93,159.49L143.3,157.83L143.66,154.32L144.03,163.01L145.14,156.9L145.51,160.09L146.61,154.91L146.98,154.78L147.35,151.4L147.72,152.39L148.08,158.5L148.45,155.38L148.82,156.97L149.19,159.43L149.93,155.11L150.29,161.88L151.03,156.84L151.4,160.02L152.5,154.52L152.87,155.31L153.24,160.55L153.98,150.07L154.35,151.86L154.71,153.52L155.08,150.34L155.45,158.9L155.82,154.85L156.19,157.63L156.56,156.24L157.66,159.89L158.03,156.31L158.4,157.83L158.77,154.38L159.5,159.23L159.87,152.33L160.61,154.38L160.98,161.28L162.08,154.85L162.45,159.29L162.82,159.03L163.19,157.04L163.92,153.45L164.29,162.21L165.4,152.06L165.77,155.05L166.13,156.04L166.5,152.86L166.87,152.99L167.24,158.96L167.61,153.45L167.98,157.1L168.34,157.1L169.45,156.04L169.82,157.63L170.19,155.71L170.55,158.3L171.66,152.72L172.03,157.57L173.13,151.99L173.5,156.9L173.87,158.43L174.24,156.57L174.61,161.28L174.97,160.62L175.34,156.31L175.71,152.53L176.08,158.5L176.45,150.2L176.82,151.53L177.19,157.37L177.55,156.37L177.92,152.72L178.66,159.76L179.03,155.84L179.4,161.22L179.76,160.02L180.13,157.7L181.24,153.45L181.61,157.77L181.97,150.93L182.34,159.23L183.45,154.91L183.82,162.68L184.92,155.45L185.29,155.91L185.66,156.51L186.03,153.85L186.39,153.26L186.76,160.36L187.87,154.18L188.24,150.8L188.6,144.56L188.97,147.88L189.34,148.94L189.71,148.41L190.08,149.41L190.45,146.89L190.81,148.41L191.18,147.35L191.55,144.36L191.92,148.94L192.29,145.96L192.66,146.02L193.03,146.82L193.39,146.09L193.76,142.64L194.13,141.98L194.5,145.43L194.87,147.22L195.24,146.09L195.6,146.42L195.97,144.3L196.34,144.96L196.71,144.5L197.08,143.57L197.45,148.81L197.81,142.84L198.18,146.75L198.55,143.43L198.92,147.48L199.29,143.9L199.66,143.77L200.02,140.38L200.39,145.49L200.76,147.88L201.13,138.26L201.87,146.62L202.23,140.98L203.34,145.96L203.71,141.05L204.81,144.03L205.18,144.76L205.55,143.7L205.92,145.23L207.02,141.25L207.39,141.71L208.5,147.88L208.86,144.5L209.23,143.9L209.6,144.89L209.97,146.02L210.34,145.56L210.71,144.5L211.08,148.54L211.44,142.17L211.81,144.76L212.18,139.98L212.92,147.08L213.29,145.96L213.65,140.18L214.02,146.55L214.39,141.91L214.76,143.3L215.5,146.35L215.86,144.83L216.6,140.38L216.97,147.68L217.34,148.21L217.71,141.91L218.07,144.83L218.44,144.43L218.81,143.43L219.18,144.83L219.55,143.1L219.92,141.25L220.28,146.69L220.65,142.84L221.02,143.77L221.39,143.17L222.13,144.56L222.49,142.51L223.23,139.98L223.6,141.58L223.97,142.51L224.34,140.65L224.7,143.43L225.07,142.44L225.44,137.66L226.18,145.43L226.55,143.7L226.91,142.51L227.28,145.43L227.65,146.49L228.02,140.12L228.39,145.89L228.76,141.11L229.13,142.97L229.86,144.3L230.23,143.83L230.6,142.84L230.97,143.24L231.34,145.03L232.07,139.72L232.44,142.44L232.81,142.44L233.18,146.29L233.91,140.78L234.28,143.37L234.65,144.5L235.02,140.58L235.76,143.97L236.12,139.65L236.86,142.9L237.23,136.6L237.6,146.69L237.97,140.85L238.33,143.83L238.7,141.71L239.07,144.76L239.44,141.58L239.81,143.17L240.18,141.71L240.54,140.12L240.91,146.49L241.28,143.04L241.65,147.35L242.75,141.98L243.12,144.16L243.49,139.32L243.86,141.38L244.23,144.63L244.6,145.09L244.96,141.44L245.33,141.84L245.7,144.43L246.81,141.64L247.18,141.18L247.54,146.62L247.91,141.38L248.28,144.03L248.65,145.89L249.02,143.17L249.75,147.35L250.12,139.72L251.6,144.1L251.96,141.78L252.33,147.55L252.7,142.97L253.07,144.43L254.17,138.99L254.54,141.78L254.91,142.64L255.28,140.91L256.02,144.23L256.38,138.79L257.12,144.1L257.49,139.06L258.23,146.89L258.59,142.84L258.96,138.33L259.33,142.11L259.7,141.64L260.8,145.09L261.17,141.18L262.28,144.83L262.65,142.31L263.02,144.16L263.38,142.04L263.75,146.49L264.12,142.04L264.49,139.45L265.23,140.65L265.59,144.76L266.7,136.53L267.07,142.24L267.8,143.83L268.17,142.24L268.91,144.76L269.28,143.04L269.65,142.71L270.01,140.71L270.38,145.03L270.75,141.18L271.12,139.65L272.22,145.29L272.59,141.18L274.07,144.16L274.43,138.66L275.17,147.81L275.54,141.18L275.91,146.89L276.28,140.45L276.64,143.57L277.01,139.52L277.38,143.57L277.75,138.33L278.12,145.29L278.85,145.23L279.22,143.77L279.59,146.22L279.96,144.36L280.33,139.06L280.7,139.39L281.07,141.91L281.43,140.65L281.8,134.81L282.54,141.58L282.91,138.26L284.01,137.26L284.38,138.46L284.75,143.24L285.12,137.4L285.49,141.71L285.85,139.65L286.22,134.54L286.96,140.58L287.33,140.38L287.7,139.79L288.06,136.34L288.43,137.99L288.8,137.4L289.17,141.78L289.54,140.98L289.91,139.98L291.01,138.59L291.38,139.39L291.75,138.92L292.12,139.65L292.48,134.21L293.59,139.92L293.96,137.79L294.33,137.86L294.69,140.12L295.43,141.51L295.8,140.78L296.17,140.85L296.54,139.65L296.9,142.11L297.27,136.4L297.64,137.4L298.01,130.63L298.75,139.32L299.12,136.6L300.22,141.71L300.59,139.92L300.96,143.43L301.33,140.85L301.69,139.06L302.43,134.01L302.8,139.25L303.54,138.13L303.9,141.71L305.01,137.13L305.38,138.33L305.75,138.52L306.48,137.33L306.85,139.06L307.22,139.19L307.59,143.43L307.96,138.33L308.32,139.72L308.69,140.25L309.43,142.44L309.8,137.93L310.53,136.53L310.9,140.85L311.64,138.86L312.01,139.12L312.38,139.19L312.74,138.46L313.11,137.73L313.48,139.72L313.85,137.4L314.22,138.79L314.59,140.45L314.95,138.46L315.32,138.79L315.69,141.44L316.06,135.94L316.43,139.85L316.8,141.38L317.17,136.2L317.53,137.4L317.9,136.67L318.27,142.44L318.64,140.98L319.01,139.06L319.38,140.12L319.74,137.33L320.48,141.44L320.85,140.91L321.22,137.86L321.59,136.67L321.95,137.33L322.32,139.32L322.69,139.39L323.06,135.61L323.43,140.32L323.8,137.79L324.16,134.88L324.53,133.55L324.9,137.13L326.01,141.84L326.37,135.87L327.85,140.91L328.22,136.2L328.95,140.18L329.32,139.79L329.69,133.35L330.06,141.98L330.43,141.58L330.79,140.52L331.16,136.87L331.53,140.85L331.9,140.85L332.27,136.34L332.64,142.71L333.01,139.59L333.37,139.65L334.48,134.01L334.85,140.78L335.22,136.67L335.58,139.45L335.95,139.32L336.32,137.46L336.69,142.04L337.43,136.34L337.79,137.99L338.16,138.06L338.53,139.25L338.9,137.26L339.64,142.97L340,135.27L340.37,137.53L340.74,135.94L341.11,136.8L341.48,142.51L341.85,141.31L342.21,139.85L342.58,137.26L342.95,141.11L344.06,136.93L344.42,138.39L344.79,140.32L345.16,136.6L345.53,137L345.9,141.11L346.27,139.39L346.63,140.05L347,141.25L347.37,142.04L347.74,135.41L348.11,139.65L348.48,137.79L348.84,132.75L349.21,133.95L349.58,140.58L350.32,139.72L350.69,138.06L351.06,135.01L351.42,140.98L351.79,138.99L352.16,139.79L352.53,141.98L353.27,136.93L353.63,137.53L354,135.87L354.74,142.64L355.11,140.78L355.48,136.93L356.21,140.05L356.58,137.46L357.69,141.05L358.05,136.47L358.42,139.72L358.79,139.39L359.16,137.73L359.53,136.6L359.9,138.06L360.63,139.12L361,143.5L362.11,134.74L362.47,140.38L362.84,141.78L363.21,138.86L363.95,137.53L364.32,139.12L364.68,136.93L365.05,139.32L365.79,131.76L366.16,141.25L366.53,142.11L366.89,137.79L367.26,136.27L367.63,138.52L368,140.91" style="vector-effect: non-scaling-stroke; fill: none; stroke: rgb(44, 160, 44); stroke-opacity: 1; stroke-width: 2px; opacity: 1;"/></g><g class="points"/><g class="text"/></g><g class="trace scatter traceca65cf" style="stroke-miterlimit: 2; opacity: 1;"><g class="fills"/><g class="errorbars"/><g class="lines"><path class="js-line" d="M0,311.24L1.11,283.51L1.47,279.66L1.84,283.18L2.21,277.54L3.68,255.84L4.05,257.7L4.42,255.11L5.89,242.97L6.26,242.9L6.63,244.23L7,236.66L7.37,232.28L7.74,239.78L8.1,238.79L8.47,233.81L8.84,234.87L9.21,228.63L10.31,238.19L10.68,229.56L11.05,233.01L11.42,229.56L11.79,224.85L12.89,224.19L13.26,225.51L13.63,227.44L14,218.61L14.37,220.21L14.73,215.3L15.1,222.53L15.47,213.37L15.84,216.96L16.21,215.16L16.58,215.63L17.31,215.69L17.68,208.33L18.05,209.13L18.42,203.68L18.79,211.12L20.26,200.17L20.63,200.76L21,202.49L21.73,196.19L22.1,198.44L22.47,196.92L22.84,191.81L23.58,194.99L23.94,190.41L24.31,191.21L24.68,189.09L25.05,188.36L25.42,182.85L26.52,188.22L26.89,187.36L28.36,178.2L28.73,181.26L29.1,180.59L29.47,177.14L29.84,177.74L30.21,181.12L31.31,173.16L31.68,177.41L32.42,174.29L32.78,176.28L33.52,169.84L33.89,170.84L34.26,174.42L34.99,167.26L35.36,171.97L36.47,162.41L36.84,166L37.21,170.11L37.57,167.59L37.94,163.74L38.31,163.87L38.68,162.08L39.05,162.74L39.42,158.76L39.78,162.15L40.15,160.95L40.52,159.43L41.26,157.9L41.63,161.02L41.99,160.42L42.36,156.37L42.73,158.43L43.1,154.05L43.47,152.66L43.84,159.03L44.2,153.92L44.57,157.1L44.94,156.64L45.31,149.87L45.68,152.99L46.05,154.45L46.78,149.14L47.15,153.65L47.89,147.55L48.26,149.34L48.62,150.8L49.36,152.06L49.73,148.35L50.1,146.89L50.47,149.61L51.57,146.42L51.94,146.29L52.31,142.37L52.68,147.81L53.05,148.54L53.41,146.69L53.78,147.55L54.15,143.63L54.52,135.94L54.89,144.43L55.99,139.92L56.36,144.5L57.1,141.05L57.47,142.9L58.2,135.61L58.57,140.25L58.94,139.39L59.31,140.85L59.68,133.75L60.04,134.28L60.41,140.38L60.78,138.46L61.15,141.51L61.89,136.14L62.25,141.25L62.99,134.88L63.36,135.34L63.73,137.07L64.83,135.34L65.2,136.6L65.94,133.35L66.31,134.28L66.67,127.64L67.78,134.48L68.15,131.62L69.25,131.82L69.62,129.63L69.99,129.9L70.36,128.64L70.73,126.78L71.1,134.81L72.2,125.32L72.57,129.43L72.94,129.5L73.31,127.91L73.67,123L74.04,124.59L74.41,125.32L74.78,129.5L75.15,127.71L75.52,127.51L76.62,122.73L76.99,127.58L78.09,123L78.46,125.25L78.83,126.45L79.2,120.28L79.94,125.98L80.3,124.79L80.67,120.28L81.04,122.14L81.41,117.62L81.78,119.61L82.15,125.72L82.51,126.91L82.88,123.73L83.25,123.6L83.62,121.07L83.99,119.28L84.36,121.47L85.09,117.36L85.46,119.61L86.57,123.46L86.93,118.62L87.3,118.49L87.67,121.01L88.04,122.14L88.41,118.35L88.78,122.14L89.15,117.89L89.51,113.04L89.88,119.08L90.25,117.42L90.62,120.14L90.99,119.28L91.36,114.9L91.72,120.21L92.09,118.29L92.46,113.77L92.83,113.71L93.2,117.09L93.93,120.61L94.3,115.17L95.41,119.75L95.78,117.09L96.88,116.16L97.25,110.26L97.62,115.1L97.99,114.57L98.35,114.77L98.72,117.03L99.09,116.23L99.46,113.31L99.83,120.41L100.2,116.69L100.56,113.91L100.93,112.98L101.3,116.5L102.04,116.1L102.41,119.35L103.14,111.78L103.51,113.38L103.88,114.44L104.25,117.49L104.62,109.53L105.72,115.23L106.09,113.44L106.46,115.04L106.83,113.31L107.93,110.06L108.3,113.77L108.67,111.12L109.04,112.45L109.41,117.49L110.88,108.86L111.25,109L111.62,109.66L111.98,113.04L112.35,110.13L112.72,111.72L113.09,110.79L113.46,114.84L114.56,110.06L114.93,111.72L115.67,111.92L116.04,114.84L117.14,107.27L117.51,110.99L117.88,108.4L118.25,109.26L118.61,108.93L118.98,108.27L119.35,110.26L119.72,106.81L120.09,108.27L120.46,111.52L120.82,112.05L121.19,109.2L121.56,104.22L121.93,110.26L122.67,107.94L123.04,110.72L123.77,106.48L124.14,111.78L124.88,105.22L125.25,111.72L125.98,105.15L126.35,106.14L126.72,107.21L127.09,108L127.46,104.75L128.56,108L128.93,102.49L130.03,107.67L130.4,103.95L131.88,110.32L132.24,104.49L132.98,108.53L133.35,107.87L133.72,107.74L134.09,107.07L134.45,107.87L134.82,108.27L135.19,105.35L135.56,106.08L135.93,107.8L136.66,106.48L137.03,104.55L137.4,105.08L137.77,103.03L138.87,107.67L139.24,103.95L139.61,106.01L139.98,103.42L140.35,108.73L140.72,101.76L141.82,104.02L142.19,106.41L142.56,103.16L142.93,103.22L143.3,105.88L144.03,101.76L144.4,104.68L144.77,102.63L145.14,104.29L145.51,105.22L145.87,105.15L146.24,103.76L146.61,106.41L146.98,105.88L147.35,103.42L148.08,106.48L148.45,105.02L148.82,98.38L149.56,106.48L149.93,99.04L151.03,105.35L151.4,103.36L151.77,102.43L152.14,104.02L152.87,101.3L153.24,107.8L153.61,101.83L153.98,103.16L154.35,104.35L155.08,100.04L155.45,100.84L155.82,102.43L156.19,102.49L156.56,100.7L157.29,104.35L157.66,100.44L158.03,106.74L158.4,103.36L158.77,100.9L159.5,103.36L159.87,98.91L160.61,105.15L160.98,103.22L161.35,100.9L161.71,100.17L162.08,100.64L162.45,100.7L163.19,98.71L163.56,101.9L164.66,99.31L165.03,101.3L165.4,104.49L165.77,103.22L166.13,102.3L166.5,98.98L166.87,102.83L167.24,102.3L167.61,98.58L167.98,99.31L168.34,95.33L169.45,102.3L169.82,101.76L170.19,96.59L170.55,98.05L170.92,97.85L172.76,101.23L173.13,100.97L173.5,100.11L173.87,102.1L174.61,95L174.97,99.71L175.34,100.3L175.71,98.05L176.08,104.09L176.45,98.31L176.82,98.12L177.55,96.46L177.92,100.37L178.66,95.99L179.03,99.77L179.4,97.65L179.76,99.91L180.13,99.84L180.87,94.53L181.24,98.85L181.61,98.78L181.97,95.79L183.08,102.03L183.45,97.58L183.82,101.43L184.18,95.73L184.55,101.83L184.92,99.31L185.29,94.2L186.39,101.5L186.76,99.04L189.71,86.77L190.08,88.89L190.81,87.5L191.18,85.38L191.55,86.9L191.92,86.17L192.29,83.32L192.66,88.89L193.03,87.1L193.39,84.18L193.76,88.49L194.13,85.44L194.5,83.78L194.87,86.64L195.24,82.59L195.6,83.38L195.97,87.57L197.08,82.65L197.45,86.64L197.81,84.25L198.18,86.9L198.55,89.49L198.92,87.17L199.29,86.17L200.39,83.05L200.76,86.3L201.87,84.25L202.23,88.43L202.6,83.98L202.97,86.17L203.34,84.25L204.08,83.58L204.44,84.65L204.81,86.64L205.18,85.64L205.55,85.44L207.02,83.52L207.39,82.32L208.13,84.98L208.5,81.26L209.23,87.83L209.6,84.84L209.97,83.19L210.34,85.11L210.71,81.39L211.08,84.38L211.44,83.32L212.18,82.39L212.55,85.44L212.92,87.9L213.29,85.97L213.65,85.31L214.02,82.32L214.39,88.16L215.13,81.73L215.5,88.03L215.86,82.19L216.23,84.38L216.6,87.63L217.71,80.47L218.07,79.27L218.44,86.37L218.81,84.05L219.18,84.11L220.28,83.58L220.65,85.38L221.76,82.92L222.13,86.64L222.49,78.47L222.86,83.32L223.23,83.12L224.34,85.91L224.7,82.79L225.07,83.78L225.44,87.1L225.81,85.11L226.18,78.94L227.28,85.51L227.65,81.13L228.02,80.86L228.39,83.72L228.76,83.12L229.13,80.86L229.49,80.2L229.86,85.38L230.97,83.85L231.34,79.87L231.7,86.11L232.07,83.12L232.44,84.58L233.55,82.59L233.91,81L234.28,86.24L234.65,81.86L235.02,81.92L235.39,84.38L235.76,82.12L236.12,82.72L236.86,85.77L237.23,82.12L237.97,82.72L238.33,78.81L238.7,86.17L239.07,84.31L239.44,81.73L239.81,84.11L240.18,82.85L240.54,82.52L240.91,82.06L241.28,80.07L241.65,79.2L242.02,83.98L242.39,85.97L242.75,81.2L243.86,83.78L244.23,82.39L244.6,82.26L244.96,77.94L245.7,84.25L246.07,80.93L246.81,84.65L247.18,83.52L247.54,81L247.91,81L248.28,80.2L249.39,83.92L249.75,82.85L250.12,83.38L250.49,81.46L250.86,85.84L251.23,82.79L251.6,81.99L251.96,80.8L252.33,82.79L252.7,80.13L253.07,86.44L254.17,80.33L254.54,83.45L254.91,81.66L255.28,82.06L255.65,84.38L256.02,86.57L256.38,80.07L256.75,81.33L257.12,80.07L257.49,80.73L257.86,83.92L258.23,76.22L258.59,84.38L258.96,81.59L259.33,82.72L259.7,84.38L260.07,83.25L260.44,79.93L260.8,84.78L261.17,80.86L261.54,80L262.65,82.19L263.02,83.38L263.38,82.65L263.75,79.87L264.49,83.72L264.86,82.85L265.23,83.12L265.59,82.52L265.96,79.4L266.7,82.99L267.07,80.6L267.44,82.65L267.8,79.14L268.91,84.18L269.28,82.65L269.65,83.58L270.01,81.53L270.38,80L270.75,81.06L271.12,83.25L271.49,82.39L271.86,83.12L272.22,79.47L272.96,80.6L273.33,79.07L273.7,82.06L274.07,81.73L274.43,80.2L274.8,80.33L275.17,81.46L275.54,82.39L275.91,85.57L276.64,80.4L277.01,81.86L277.75,79.74L278.12,81.26L278.49,83.19L278.85,81.86L279.22,82.92L279.96,79.01L280.33,81.06L280.7,81.46L281.07,77.88L282.17,83.45L282.54,80.86L282.91,76.28L283.28,79.34L283.64,78.34L284.01,78.21L284.38,76.28L284.75,81.2L285.12,80L285.49,80.2L286.22,78.41L286.59,80.13L288.06,78.87L288.43,77.28L288.8,74.29L289.17,82.19L289.91,78.14L290.27,79.27L290.64,79.67L291.01,78.41L291.38,80.27L291.75,77.81L292.12,78.94L292.48,81.13L292.85,79.01L293.22,81.13L293.59,80.6L294.33,78.81L294.69,80L295.06,76.75L295.43,81.13L295.8,83.05L296.17,77.74L296.54,78.67L296.9,81.79L297.64,77.35L298.01,79.34L298.75,80.27L299.12,77.01L299.48,80.13L299.85,79.8L300.22,77.41L300.96,81.79L301.33,81.06L301.69,79.27L302.06,79.01L302.43,80.8L302.8,79.47L303.17,81.39L303.9,77.08L304.27,78.14L304.64,77.21L305.75,79.47L306.11,78.08L306.85,77.88L307.22,80.66L307.59,82.39L307.96,79.8L308.32,83.72L308.69,79.01L309.06,76.02L309.43,78.81L309.8,78.47L310.17,77.48L310.53,79.47L310.9,76.35L311.27,80.86L311.64,76.68L312.01,78.61L312.38,81.86L312.74,77.01L313.11,77.28L313.48,82.32L314.22,76.09L314.59,79.93L315.69,76.68L316.06,76.28L317.17,80.86L317.53,77.28L318.64,79.93L319.01,79.27L319.38,73.63L319.74,78.81L320.11,82.52L320.85,77.68L321.22,78.21L321.59,77.28L321.95,77.68L322.32,81.46L323.43,77.01L323.8,78.47L325.27,82.12L325.64,80.2L326.01,80.07L326.37,76.88L326.74,73.9L327.11,74.83L327.48,76.95L328.22,81.39L328.58,73.63L329.32,82.59L329.69,77.81L330.06,76.48L330.43,80.27L330.79,77.81L331.16,82.12L331.9,76.15L332.27,77.28L332.64,80.07L333.01,80.73L333.37,79.2L333.74,79.47L334.11,78.34L334.48,75.22L334.85,78.28L335.22,80.47L335.58,79.74L335.95,82.52L337.06,78.08L337.43,77.35L337.79,80.27L338.16,77.94L338.53,78.67L339.27,77.08L339.64,82.32L340.74,78.28L341.11,79.6L341.48,77.94L341.85,81.39L342.21,81.33L342.58,79.2L342.95,78.34L343.32,79.4L343.69,81.13L344.06,79.14L344.42,78.41L344.79,79.34L345.16,81.13L345.9,75.89L346.27,79.6L346.63,79.14L347,76.82L348.11,80.6L348.48,80.86L349.21,77.01L349.58,77.15L349.95,78.28L350.69,81L351.06,79.34L351.42,78.54L351.79,79.6L352.16,73.76L352.53,78.41L352.9,78.67L353.27,77.55L353.63,79.07L354,74.56L354.37,78.94L354.74,78.47L355.11,78.21L355.48,79.4L356.21,78.54L356.58,80.86L357.32,74.1L357.69,79.4L358.42,77.41L358.79,79.47L359.16,80.13L359.53,79.4L359.9,78.74L360.63,81.33L361,77.35L361.37,77.74L361.74,75.55L362.47,81.26L362.84,77.81L363.21,76.95L363.58,78.28L363.95,78.14L364.32,79.93L364.68,78.34L365.05,79.01L365.42,79.4L365.79,77.48L366.16,80L366.53,81.66L366.89,78.41L367.26,77.61L367.63,79.54L368,79.27" style="vector-effect: non-scaling-stroke; fill: none; stroke: rgb(214, 39, 40); stroke-opacity: 1; stroke-width: 2px; opacity: 1;"/></g><g class="points"/><g class="text"/></g><g class="trace scatter tracecd8a14" style="stroke-miterlimit: 2; opacity: 1;"><g class="fills"/><g class="errorbars"/><g class="lines"><path class="js-line" d="M0,294.66L1.47,230.62L1.84,221.33L6.63,154.78L7,155.05L8.84,136.73L9.21,137.93L9.58,137.93L9.95,135.14L10.31,134.48L10.68,132.09L11.79,122.87L12.16,128.9L13.26,121.87L13.63,118.95L15.47,110.86L15.84,112.91L16.21,114.64L16.58,111.25L16.94,105.95L17.31,112.91L17.68,106.28L18.42,106.48L18.79,102.03L19.16,103.16L19.52,107.34L19.89,97.78L20.26,102.1L20.63,99.58L21,101.57L21.37,99.84L21.73,99.44L22.84,95.59L23.21,97.39L23.94,99.31L24.31,92.94L24.68,98.05L25.05,94.4L25.42,89.22L26.15,90.62L26.52,95.59L26.89,94L27.26,89.02L27.63,91.55L28,88.63L28.36,91.75L28.73,90.88L29.1,88.49L29.84,83.32L30.21,91.41L30.57,87.3L30.94,88.56L31.31,87.5L31.68,87.83L32.05,86.57L32.42,87.7L32.78,85.11L33.15,80.93L33.52,87.7L34.63,82.99L34.99,87.17L35.36,87.3L35.73,81.66L36.1,83.72L36.47,82.59L36.84,82.72L37.57,82.06L37.94,82.92L38.31,82.06L38.68,77.08L39.05,81.33L39.42,79.6L39.78,78.61L40.15,80.66L40.52,79.47L40.89,78.28L41.26,79.27L41.63,77.94L41.99,81.2L42.36,77.74L42.73,79.67L43.1,81.06L43.47,80.6L43.84,79.01L44.2,74.56L44.57,79.07L44.94,81.99L46.05,75.29L46.41,75.95L46.78,75.16L47.15,79.47L48.26,74.83L48.62,75.55L48.99,79.07L49.36,74.23L49.73,76.82L50.1,71.97L50.47,78.14L50.83,73.17L51.2,76.02L52.31,70.78L52.68,75.22L53.78,73.7L54.15,74.03L54.52,70.25L54.89,74.23L55.26,70.18L55.62,74.96L55.99,72.04L56.36,75.42L56.73,76.88L57.1,75.42L57.47,71.11L57.83,71.71L58.2,69.52L58.94,72.5L59.31,69.72L60.41,72.83L60.78,73.23L61.52,72.64L61.89,75.22L62.62,67.66L62.99,69.85L63.36,71.91L63.73,71.24L64.1,66.8L64.46,72.7L64.83,70.64L65.2,72.3L65.94,72.9L66.31,69.91L66.67,74.03L67.04,68.52L67.41,68.59L67.78,72.9L68.52,65L68.88,70.64L69.25,72.64L69.62,69.25L70.73,66.4L71.1,68.92L71.46,70.31L71.83,68.26L72.2,66.4L72.57,69.72L72.94,70.78L73.31,70.64L73.67,68.46L74.04,67.73L74.41,69.85L75.15,67.79L75.52,68.79L76.25,65.6L76.62,68.46L76.99,68.92L77.36,66.53L78.09,65.34L78.46,69.12L78.83,67.86L79.2,68.12L79.57,68.06L79.94,67.33L80.3,68.26L80.67,68.79L81.41,63.74L81.78,67.59L82.15,66.27L82.51,67.19L82.88,66.8L83.99,64.61L84.36,73.3L84.72,62.75L85.09,67.59L85.46,67.59L86.2,64.41L86.57,67.33L86.93,68.79L87.3,64.74L88.04,67.06L88.41,63.08L88.78,63.41L89.15,65.2L89.51,62.02L89.88,64.34L90.25,65.67L90.99,68.85L91.36,62.22L91.72,67.86L92.09,66L92.46,62.82L93.93,67L94.3,67.39L94.67,63.88L95.04,67.13L95.41,64.81L95.78,61.62L96.14,66.07L96.51,62.68L96.88,63.68L97.25,63.15L97.62,62.68L97.99,65.34L98.35,60.69L98.72,66.4L99.09,67.39L99.46,64.34L99.83,65.6L100.2,63.74L100.93,63.68L101.3,65.67L101.67,64.41L102.04,65.14L102.41,68.26L103.14,59.5L103.51,65.2L103.88,61.89L104.25,66.6L105.35,62.75L105.72,61.55L106.46,64.94L106.83,63.15L107.2,65.07L107.56,61.09L107.93,60.76L108.3,63.41L108.67,61.69L109.04,63.28L109.41,69.58L109.77,62.62L110.14,65.73L110.51,65.54L111.25,61.55L111.62,62.35L111.98,62.82L112.35,63.88L112.72,62.09L113.09,61.95L113.46,63.54L114.56,60.76L114.93,62.42L115.3,61.36L115.67,65.87L117.14,61.36L117.51,61.55L118.25,59.1L118.61,60.89L118.98,64.34L119.35,63.74L119.72,59.17L120.46,63.94L120.82,60.82L121.19,62.42L121.56,59.56L121.93,59.17L122.3,62.42L123.04,59.36L123.4,61.49L123.77,61.29L124.14,62.55L124.51,61.29L124.88,64.01L125.61,59.3L125.98,61.29L126.35,62.62L126.72,60.56L128.19,66.6L128.56,63.54L129.3,59.9L129.67,62.35L130.77,61.42L131.14,62.68L132.24,61.16L132.61,60.29L132.98,61.42L133.35,60.82L133.72,60.09L134.09,64.41L134.45,63.08L134.82,61.82L135.19,64.54L135.56,60.29L136.3,63.68L136.66,57.71L137.03,57.97L137.4,62.02L137.77,59.03L138.14,63.41L139.24,61.49L139.61,63.48L139.98,60.82L140.35,63.94L140.72,57.17L141.09,61.55L141.45,61.42L142.56,62.42L142.93,60.23L143.3,65.34L143.66,57.11L144.03,58.63L144.4,64.41L145.51,59.83L145.87,60.09L146.24,62.02L146.98,62.35L147.35,61.49L148.08,59.83L148.45,61.22L148.82,58.63L149.19,60.23L149.56,62.35L149.93,60.36L150.29,63.81L151.03,59.1L151.4,60.03L151.77,59.56L152.14,62.42L152.5,60.69L152.87,61.09L153.24,66.4L153.61,60.29L154.35,64.01L154.71,59.83L155.82,57.64L156.19,60.56L156.56,58.63L156.92,62.75L157.66,59.43L158.03,60.49L159.14,57.37L159.5,62.35L159.87,59.43L160.24,59.63L160.61,62.68L161.35,61.16L161.71,62.42L162.82,57.77L163.19,58.97L163.56,59.36L163.92,61.36L164.29,60.49L164.66,61.42L165.03,61.42L165.4,61.62L165.77,59.23L166.13,60.63L166.5,60.23L166.87,59.03L167.24,58.63L167.61,61.29L167.98,60.03L168.34,61.49L169.08,60.56L169.45,55.38L169.82,62.42L170.19,57.11L170.55,59.56L171.29,57.9L171.66,59.1L172.03,58.37L172.4,62.42L172.76,60.56L173.13,63.94L173.5,57.37L173.87,60.56L174.24,57.77L175.34,60.56L175.71,58.63L176.08,61.42L176.45,59.96L176.82,58.57L177.19,59.36L177.55,57.04L177.92,56.25L178.29,58.63L179.03,58.97L179.4,57.77L180.13,59.63L180.5,56.05L181.97,60.96L182.34,58.9L182.71,54.59L183.08,60.56L183.45,58.3L183.82,61.09L184.18,57.11L184.55,58.17L184.92,58.04L185.29,54.26L185.66,59.17L186.03,58.5L186.39,62.02L187.13,58.9L187.5,61.89L188.97,45.89L189.34,43.77L189.71,43.44L190.08,44.97L191.18,41.85L191.55,41.32L191.92,40.65L192.29,40.92L192.66,41.71L193.39,40.25L193.76,40.98L194.13,41.25L194.5,39.79L194.87,41.98L195.24,37.87L195.6,38.46L195.97,40.39L196.34,40.85L196.71,40.19L197.08,38.26L198.18,41.38L198.55,40.12L198.92,37.14L199.29,40.06L199.66,37.67L200.76,39.26L201.13,37.8L201.5,37.53L201.87,38.53L202.23,40.59L202.6,37.73L202.97,37.47L203.34,38.93L203.71,36.94L204.08,39.59L204.81,37.4L205.18,38.46L206.29,37.07L206.65,39.39L207.02,35.41L207.39,35.74L207.76,36.67L208.13,37.87L208.5,36.07L209.23,37L209.6,36.07L209.97,35.01L210.34,36.14L210.71,37.4L211.44,35.61L211.81,36.41L212.18,36.87L212.55,35.21L213.65,35.48L214.02,36.74L214.76,36.54L215.13,35.34L215.5,36.34L215.86,34.81L216.23,38.26L216.6,35.81L216.97,33.42L217.34,33.09L217.71,36.41L218.07,33.09L218.44,35.28L218.81,34.61L219.18,35.94L219.55,34.42L220.65,36.47L221.02,36.01L221.39,33.62L222.13,33.49L222.49,33.35L222.86,36.74L223.23,35.08L223.6,35.01L223.97,35.88L224.34,34.35L224.7,33.82L225.07,35.28L225.44,36.21L225.81,35.74L226.18,32.96L227.28,35.74L227.65,35.34L228.02,35.94L228.39,32.69L229.13,35.88L229.49,33.88L230.6,35.48L230.97,33.29L231.7,35.88L232.07,33.09L232.81,34.68L233.18,33.82L233.55,33.09L233.91,34.48L234.28,36.61L234.65,34.55L235.02,34.88L235.39,34.75L235.76,33.55L236.12,33.29L236.49,31.7L236.86,33.95L237.23,31.76L237.6,33.62L237.97,35.01L238.33,33.69L238.7,34.48L239.07,35.54L239.44,32.56L240.18,34.61L240.54,32.16L241.28,31.96L241.65,32.49L242.02,35.15L242.39,34.42L242.75,30.77L243.12,31.16L243.49,33.29L244.96,31.5L245.33,33.62L246.07,32.89L246.44,33.69L247.54,32.36L247.91,32.62L248.28,31.36L248.65,33.09L249.39,32.36L249.75,34.02L250.49,29.57L250.86,32.69L251.6,31.16L251.96,32.82L252.7,31.43L253.07,33.88L253.44,34.15L253.81,31.03L254.17,30.3L254.54,31.76L254.91,33.55L255.28,31.96L255.65,32.56L256.02,33.22L256.38,30.37L256.75,34.15L257.12,33.35L257.49,33.02L258.23,30.04L258.59,32.16L258.96,31.03L259.33,33.69L259.7,34.08L260.07,32.36L260.44,31.3L260.8,33.42L261.54,29.51L261.91,32.69L262.28,30.37L262.65,32.76L263.02,31.16L263.75,30.57L264.12,31.56L264.49,29.51L264.86,33.82L265.59,30.97L265.96,31.3L266.33,32.16L267.44,30.43L267.8,31.5L268.17,32.62L268.54,32.16L268.91,31.03L269.28,31.7L269.65,31.16L270.01,29.64L271.49,33.29L271.86,32.42L272.96,28.38L273.33,32.36L273.7,30.97L274.07,31.43L274.43,31.7L274.8,30.37L275.17,31.3L275.54,30.9L275.91,32.76L276.28,29.84L277.01,29.84L277.38,29.97L277.75,32.96L278.12,31.16L278.49,32.03L279.22,30.57L279.59,31.7L280.33,28.97L280.7,30.97L281.07,27.12L281.43,27.65L281.8,28.64L282.54,28.24L282.91,28.64L284.01,26.52L284.38,26.65L285.49,27.98L285.85,28.64L286.59,26.72L286.96,28.31L287.33,26.19L287.7,26.85L288.06,27.78L288.8,26.39L289.17,28.05L289.91,26.19L290.27,28.24L291.38,26.85L291.75,27.51L292.12,26.78L292.48,27.91L292.85,28.05L293.22,27.38L293.59,27.91L293.96,26.65L294.33,26.05L294.69,26.98L295.06,25.33L295.43,25.92L295.8,26.59L296.17,25.99L296.54,26.39L296.9,27.65L297.27,26.52L297.64,27.32L298.01,26.98L298.38,27.25L298.75,26.19L299.12,27.38L299.48,26.65L299.85,25.46L300.22,25.39L300.59,28.05L301.33,26.05L301.69,27.25L302.43,26.19L302.8,26.98L303.17,26.05L303.54,27.91L304.27,25.39L304.64,27.18L305.01,27.91L305.38,25.99L305.75,27.38L306.11,26.12L306.48,26.45L306.85,27.05L307.22,26.59L307.59,26.25L307.96,27.71L308.32,26.92L308.69,26.85L309.06,24.6L309.43,25.86L309.8,26.05L310.17,26.05L310.53,24.46L311.64,26.45L312.01,26.72L312.38,27.18L312.74,25.79L313.11,25.72L313.48,26.45L313.85,25.33L314.22,27.45L314.95,25.86L315.32,26.25L315.69,27.45L316.06,24.99L316.43,26.19L316.8,25.92L317.17,26.78L317.53,26.12L317.9,25.92L318.27,24.79L318.64,25.33L319.01,26.78L319.38,25.92L319.74,26.19L320.11,26.19L320.48,26.98L320.85,26.05L321.22,25.26L322.69,27.25L323.06,26.65L323.43,24.6L323.8,27.25L324.16,24.53L324.53,25.59L324.9,25.79L326.01,27.18L326.37,25.06L327.11,24.73L327.48,26.72L328.58,25.13L328.95,25.39L329.32,26.85L329.69,25.46L330.06,25.72L330.79,25.19L331.16,26.59L331.53,24.86L331.9,25.92L332.27,26.72L333.37,26.59L333.74,24.79L334.48,26.45L334.85,24.6L335.58,26.92L335.95,25.13L337.43,26.05L337.79,25.66L339.27,25.06L339.64,25.66L340.37,27.25L340.74,25.66L341.11,26.85L341.48,24.53L342.58,26.78L342.95,25.26L343.32,25.19L343.69,26.72L344.06,25.26L344.42,25.86L344.79,25.72L345.16,27.51L345.53,26.19L345.9,25.72L347,24.66L347.37,25.72L347.74,24.46L348.11,26.65L348.84,24.93L349.21,25.79L349.95,24.26L350.32,24.99L350.69,26.25L351.06,24.73L351.42,24.99L351.79,25.99L352.16,25.19L352.53,26.25L354,24.13L354.37,25.59L354.74,24.73L355.11,26.45L355.48,26.72L355.84,24.4L356.21,24.79L356.58,27.45L357.32,24.73L357.69,25.39L358.05,27.25L358.79,24.26L359.16,26.12L359.53,25.26L359.9,25.52L360.26,26.25L361.74,24.46L362.11,25.06L362.84,26.59L363.21,25.66L363.95,25.06L364.32,25.86L365.05,25.52L365.42,25.33L365.79,25.26L366.16,26.05L366.89,24.4L367.26,24.6L367.63,25.19L368,25.99" style="vector-effect: non-scaling-stroke; fill: none; stroke: rgb(148, 103, 189); stroke-opacity: 1; stroke-width: 2px; opacity: 1;"/></g><g class="points"/><g class="text"/></g><g class="trace scatter trace002e83" style="stroke-miterlimit: 2; opacity: 1;"><g class="fills"/><g class="errorbars"/><g class="lines"><path class="js-line" d="M0,284.3L1.47,216.56L1.84,206.14L3.32,170.64L3.68,170.37L6.63,138.79L7,140.78L8.1,131.89L8.47,133.28L9.95,124.52L10.31,121.6L11.05,119.02L11.42,117.96L12.52,110.79L12.89,113.24L14,106.41L14.37,107.74L15.1,101.76L15.47,103.36L15.84,97.65L16.21,102.3L16.58,101.1L16.94,97.98L17.31,103.82L18.79,92.87L19.16,91.55L19.52,96.12L19.89,88.56L20.26,93.14L20.63,90.42L21,92.54L22.1,87.23L22.47,87.96L22.84,86.11L23.21,86.44L23.58,87.3L23.94,88.16L24.31,85.31L24.68,88.76L25.05,87.23L25.42,82.85L25.79,86.04L26.15,80.53L26.89,85.64L27.26,82.72L27.63,84.25L28,80.73L28.73,83.78L29.1,81.26L29.47,74.29L29.84,77.08L30.21,83.52L30.94,75.55L31.31,79.74L31.68,78.14L32.05,80.86L33.15,73.83L33.52,77.21L33.89,76.55L34.26,78.01L34.63,76.55L34.99,77.28L35.36,77.61L36.47,74.03L36.84,73.9L37.21,77.41L37.57,73.9L37.94,75.55L38.68,72.37L39.05,72.97L39.42,73.56L39.78,69.12L40.15,76.02L41.26,70.38L41.63,71.71L42.36,68.52L42.73,72.77L43.47,70.31L43.84,71.51L44.2,69.18L44.57,70.18L44.94,73.03L46.05,65.34L46.41,68.52L46.78,68.39L47.15,73.9L47.89,69.45L48.26,69.72L48.62,65.93L48.99,69.05L49.36,66.66L49.73,67.99L50.1,65.07L50.47,68.92L51.57,67.46L51.94,68.52L52.31,63.81L52.68,65.73L53.05,66.13L53.41,67.46L53.78,65.93L54.15,66L54.52,65.27L54.89,65.6L55.26,60.89L56.36,67.33L56.73,67.13L57.1,66.13L57.47,62.48L58.57,66.33L58.94,67.19L60.04,62.95L60.41,64.27L61.15,63.88L61.52,62.48L62.25,63.08L62.62,60.63L63.36,62.48L63.73,62.09L64.1,61.29L64.46,65.67L65.57,61.82L65.94,65.07L67.04,59.56L67.41,60.76L67.78,63.21L68.15,61.16L68.52,59.63L69.25,62.28L69.62,59.83L69.99,60.16L70.36,58.77L71.46,61.29L71.83,60.89L72.57,58.77L72.94,62.88L73.67,59.43L74.04,61.09L74.41,61.02L74.78,59.03L75.15,60.16L75.52,61.16L75.88,58.5L76.25,58.63L76.62,58.97L76.99,59.3L77.36,57.31L77.73,56.78L78.09,58.04L78.46,57.9L78.83,59.9L79.57,61.49L79.94,59.3L80.67,63.54L81.04,61.02L81.41,55.85L81.78,59.56L82.15,58.63L82.88,56.38L83.25,59.1L83.99,57.31L84.36,61.16L84.72,55.91L85.09,56.71L85.46,58.04L85.83,58.37L86.2,57.24L86.57,60.56L86.93,60.09L87.3,55.32L88.04,60.23L88.41,52.46L89.51,56.84L89.88,57.04L90.62,58.1L90.99,62.42L91.36,53.86L91.72,60.63L92.09,57.77L92.83,55.52L93.2,58.77L93.57,56.98L93.93,57.44L94.3,57.77L94.67,57.64L95.04,58.83L95.41,57.24L95.78,51.4L96.51,57.97L96.88,56.18L97.25,55.45L97.62,54.99L97.99,57.71L98.35,55.78L98.72,56.51L99.09,58.97L99.46,54.59L99.83,56.64L100.2,55.05L100.56,55.45L100.93,54.06L101.67,59.56L102.04,56.31L102.41,58.57L102.77,55.25L103.14,52.26L103.51,54.65L103.88,56.64L104.25,59.23L104.62,53.53L106.09,57.97L106.46,56.45L107.2,52L107.56,52.66L107.93,53.79L109.41,55.78L109.77,57.51L110.14,56.64L110.51,56.91L110.88,57.64L111.25,53.19L111.62,55.65L111.98,54.52L112.72,56.78L113.09,55.65L113.46,58.3L113.83,53.39L114.93,56.91L115.3,54.32L115.67,55.98L116.04,55.45L116.4,52.99L116.77,52.26L117.14,55.12L117.51,51.34L117.88,52.86L118.25,52.66L118.61,53.33L118.98,57.24L120.09,52.73L120.46,55.12L121.56,51.53L121.93,50.41L122.3,54.32L122.67,53.99L123.04,53.26L123.77,54.72L124.14,53.53L124.88,53.13L125.25,54.26L125.98,49.94L126.35,53.26L126.72,53.06L127.09,55.25L127.82,54.39L128.19,56.31L128.93,50.41L129.3,52.93L129.67,55.05L130.03,52.86L130.4,55.05L130.77,53.39L131.14,52.8L131.51,55.18L132.61,47.49L132.98,50.41L133.35,53.59L133.72,50.34L134.09,53.33L134.82,52.73L135.19,54.19L135.56,50.74L135.93,51.07L136.3,54.19L137.4,48.68L137.77,52.53L138.14,53.19L138.51,52.2L138.87,55.52L139.24,55.32L139.61,53.33L140.72,48.81L141.09,52.2L141.45,52.46L141.82,51.47L142.19,54.85L142.56,52.93L142.93,52.73L143.3,52.86L143.66,50.27L144.03,49.61L144.4,53.46L144.77,50.34L145.14,50.54L145.51,52.46L145.87,54.99L146.24,54.85L146.61,53.99L146.98,55.18L147.35,51.8L147.72,53.53L148.08,50.94L148.82,49.35L149.19,50.61L149.56,54.52L149.93,49.81L150.29,57.17L150.66,48.88L152.5,53.59L152.87,52.53L153.24,55.72L153.61,51.14L153.98,54.32L154.35,53.13L154.71,46.96L156.19,52.2L156.56,52.33L156.92,51.8L157.29,53.79L158.4,50.14L158.77,49.28L159.14,47.22L159.5,54.19L159.87,48.02L160.24,50.21L160.61,51.8L160.98,50.8L161.35,51.93L161.71,53.06L162.82,49.01L163.19,51L163.56,50.94L163.92,51.87L164.66,49.81L165.03,52.46L166.13,50.14L166.5,50.01L166.87,51.27L167.24,49.61L167.61,52.33L167.98,52.07L168.34,49.15L169.08,52.73L169.45,49.01L169.82,51.07L170.19,49.01L170.55,50.01L170.92,50.8L171.29,48.75L171.66,48.22L172.03,52.73L172.4,53.19L172.76,52.73L173.13,52.4L173.5,48.75L173.87,50.74L174.24,50.67L174.97,48.81L175.34,50.54L175.71,49.81L176.08,53.86L176.45,52.93L176.82,49.61L177.19,49.68L177.55,47.22L178.29,50.47L178.66,47.95L179.4,53.53L179.76,51L180.13,52.2L180.5,49.88L180.87,47.95L181.24,51L182.71,48.55L183.08,52.26L184.18,47.35L184.55,48.68L184.92,49.35L185.29,46.49L185.66,52.2L186.03,48.42L186.39,52.99L187.13,49.61L187.5,51.34L187.87,43.31L188.97,37.14L189.34,37.73L190.45,34.02L190.81,35.48L191.18,35.68L191.55,33.35L191.92,33.35L192.29,34.81L193.39,34.28L193.76,35.54L194.5,32.96L194.87,33.15L195.6,31.3L195.97,33.29L196.71,31.76L197.08,30.63L197.45,32.82L197.81,31.36L198.18,32.36L198.55,33.88L198.92,30.9L200.02,30.24L200.39,30.9L200.76,31.89L201.13,29.7L202.23,31.83L202.6,31.36L203.71,29.04L204.08,31.1L204.44,29.97L204.81,30.7L205.18,30.97L206.29,30.24L206.65,31.7L207.02,28.44L207.39,30.04L207.76,30.04L208.13,31.56L208.5,28.38L208.86,30.77L209.23,29.44L209.6,29.44L209.97,29.51L210.34,27.85L211.08,30.83L211.44,28.64L213.29,30.57L213.65,28.38L214.02,28.24L214.39,29.51L214.76,28.64L215.13,28.91L215.5,29.44L215.86,28.84L216.23,30.63L216.97,29.57L217.34,27.85L217.71,28.84L218.07,28.31L218.44,27.38L219.18,28.78L219.55,27.98L219.92,27.78L220.28,28.71L221.02,28.84L221.39,27.71L222.86,28.51L223.23,27.45L223.6,29.11L223.97,28.78L224.34,27.85L224.7,26.92L225.07,27.78L225.44,27.71L225.81,25.06L226.18,25.99L226.55,28.38L227.65,26.52L228.02,29.57L228.76,25.52L229.13,26.19L229.49,27.71L230.6,28.97L230.97,26.59L231.7,27.78L232.07,26.25L232.44,28.18L232.81,26.78L233.18,26.59L233.55,27.45L233.91,25.86L234.28,27.91L234.65,27.12L235.02,26.78L235.39,28.05L235.76,25.59L236.12,26.19L236.49,24.46L237.6,26.59L237.97,26.92L238.33,28.05L238.7,27.58L239.07,27.65L240.18,25.79L240.54,26.25L240.91,26.98L241.28,25.59L241.65,25.86L242.02,27.71L242.39,28.11L242.75,25.79L243.12,23.73L243.49,25.46L243.86,25.92L244.23,26.52L244.6,25.46L245.33,26.39L245.7,27.91L246.44,25.52L246.81,26.52L247.18,26.59L247.54,25.46L247.91,26.12L248.28,25.72L248.65,24.86L249.02,26.05L249.39,25.86L249.75,26.85L250.12,26.65L250.49,24.2L251.6,25.79L251.96,24.6L253.44,25.99L253.81,24.6L254.91,24.4L255.28,25.66L256.38,25.99L256.75,25.92L257.86,24.93L258.23,24.53L259.7,26.65L260.07,24.99L261.54,22.87L261.91,25.06L262.28,24.73L262.65,23.2L263.75,26.65L264.12,25.13L264.49,24.46L264.86,26.52L265.23,23.27L265.59,24.13L265.96,24.66L266.33,26.19L266.7,24.86L267.07,24.26L268.54,25.39L268.91,24.06L269.28,25.52L269.65,22.21L270.01,24.79L270.38,23.93L270.75,23.73L271.49,25.86L271.86,25.19L272.22,24.6L272.96,22.94L273.33,26.19L274.43,23.73L274.8,23.6L275.91,25.33L276.28,23.73L277.01,22.67L277.38,24.2L278.49,23.2L278.85,23.53L279.22,23.4L279.59,24.26L280.33,22.67L280.7,23.2L281.07,22.21L282.17,22.6L282.54,22.01L282.91,22.47L283.28,21.01L284.75,23.6L285.12,22.67L285.85,22.74L286.22,22.07L286.59,20.88L286.96,21.28L287.33,22.01L287.7,21.21L288.06,22.01L288.43,21.48L289.17,22.54L289.54,20.28L289.91,23.07L290.27,22.14L290.64,22.27L292.48,20.95L292.85,21.41L293.22,21.01L293.59,21.68L293.96,21.54L294.33,20.41L294.69,21.54L295.06,20.95L296.17,22.14L296.54,21.94L296.9,22.41L297.27,21.21L299.12,20.81L299.48,22.54L299.85,20.68L300.22,21.08L300.59,21.14L301.69,22.74L302.06,20.75L303.54,21.87L303.9,20.88L304.64,21.61L305.01,20.75L305.75,22.01L306.11,20.81L307.59,21.21L307.96,20.95L308.32,22.01L308.69,21.01L309.06,21.01L310.17,21.14L310.53,20.68L311.64,21.28L312.01,22.01L312.38,21.68L312.74,20.22L313.85,21.28L314.22,20.61L314.59,21.94L314.95,20.48L315.32,21.74L316.06,20.88L316.43,21.21L316.8,20.28L317.17,20.48L317.53,21.28L318.27,21.28L318.64,19.68L319.74,21.68L320.11,21.54L321.22,20.81L321.59,22.34L323.43,20.28L323.8,20.88L324.9,20.35L325.27,20.61L326.01,21.14L326.37,20.22L327.85,21.01L328.22,21.08L328.95,21.34L329.32,19.88L330.43,21.54L330.79,20.15L331.16,21.68L331.53,20.61L331.9,21.54L333.01,20.88L333.37,21.54L333.74,21.28L334.11,22.01L334.85,20.81L335.22,21.34L335.58,21.48L336.69,20.22L337.06,20.41L338.16,21.34L338.53,21.21L338.9,20.41L339.27,20.81L339.64,21.68L340.74,20.55L341.11,21.21L341.48,19.62L341.85,20.95L342.21,20.55L342.95,21.34L343.32,19.49L344.42,20.95L344.79,20.61L345.9,21.01L346.27,21.14L347,20.61L347.37,19.82L348.11,21.74L348.48,20.81L348.84,20.15L349.21,21.34L350.32,20.48L350.69,21.34L351.79,20.22L352.16,20.15L353.63,20.88L354,19.55L354.37,21.68L354.74,20.81L355.11,20.88L355.84,20.95L356.21,21.87L356.58,20.22L356.95,20.68L357.32,20.48L357.69,21.48L358.05,21.14L358.42,19.82L359.16,20.08L359.53,20.75L361.74,20.95L362.11,20.22L363.95,20.22L364.32,21.01L365.79,20.55L366.16,21.28L366.89,19.82L367.26,20.02L367.63,20.55L368,21.28" style="vector-effect: non-scaling-stroke; fill: none; stroke: rgb(140, 86, 75); stroke-opacity: 1; stroke-width: 2px; opacity: 1;"/></g><g class="points"/><g class="text"/></g><g class="trace scatter traceaeab85" style="stroke-miterlimit: 2; opacity: 1;"><g class="fills"/><g class="errorbars"/><g class="lines"><path class="js-line" d="M0,282.98L1.47,219.81L1.84,210.25L3.32,174.49L3.68,174.09L4.79,156.71L5.16,151.26L5.53,152.19L5.89,140.05L6.26,141.78L6.63,140.78L7,132.95L7.37,130.5L7.74,133.68L9.21,121.07L9.58,121.54L10.31,120.68L10.68,114.84L11.05,116.36L11.42,109.79L13.26,106.48L13.63,105.35L15.1,95.79L15.47,96.52L15.84,97.78L16.21,96.92L16.58,95.33L16.94,91.61L17.31,97.72L18.79,86.44L19.16,87.83L19.52,92.21L19.89,84.98L20.26,88.69L20.63,87.03L21,87.3L21.73,86.11L22.1,81.59L22.47,80.47L22.84,81.79L23.21,84.98L23.58,81.73L23.94,81.33L24.31,80.73L24.68,82.72L25.42,76.48L25.79,78.54L26.52,81.99L26.89,78.74L28,75.75L28.36,77.48L28.73,77.41L29.1,74.56L29.84,70.45L30.21,75.55L30.57,75.69L30.94,73.1L31.68,76.42L32.05,73.1L32.42,72.77L32.78,74.16L33.15,69.72L33.52,71.31L33.89,70.64L34.26,71.11L34.63,69.45L34.99,75.22L35.36,71.51L35.73,69.25L36.1,70.45L36.47,70.31L36.84,68.12L37.21,72.17L37.57,67.73L38.31,70.51L38.68,66.66L39.05,66.53L39.42,67.33L39.78,66.2L40.15,68.72L40.89,64.61L41.26,65.6L41.63,65.6L41.99,65.93L42.36,63.68L42.73,68.52L43.1,66.27L43.47,63.61L43.84,67.33L44.2,62.02L44.94,65.93L45.31,62.68L46.05,59.36L46.41,63.68L47.15,64.94L47.52,61.49L47.89,62.22L48.26,60.36L48.62,60.82L48.99,64.87L49.36,60.36L49.73,60.82L50.1,62.22L50.47,63.01L50.83,60.23L51.2,62.02L51.57,59.7L51.94,62.48L52.31,59.43L52.68,62.22L53.05,61.16L53.41,61.02L53.78,61.49L54.15,60.76L54.52,58.9L54.89,59.83L55.26,55.72L56.73,61.75L57.1,59.83L57.47,56.98L57.83,59.63L58.2,58.3L58.57,59.7L58.94,58.5L59.31,57.51L60.04,55.25L60.41,57.57L60.78,60.69L61.15,60.63L61.52,55.52L61.89,55.45L62.25,57.44L62.99,54.52L63.36,57.24L64.1,53.79L64.46,59.7L65.57,56.51L65.94,60.69L66.31,51.93L66.67,56.31L67.04,54.19L67.78,55.58L68.15,52.53L69.25,56.18L69.62,52.66L69.99,54.59L70.36,52.53L71.46,55.32L71.83,53.19L72.2,52.4L72.57,54.52L72.94,52.46L73.31,55.85L74.41,51.53L74.78,53.66L75.52,53.59L75.88,51.87L76.25,53.19L76.62,52.4L76.99,51.47L78.09,48.95L78.46,51.4L78.83,53.72L79.2,51.14L80.3,55.38L80.67,54.19L81.04,50.14L81.41,49.01L81.78,51.6L82.15,50.08L82.51,53.66L82.88,50.34L83.25,51.27L83.62,50.87L83.99,50.54L84.36,54.65L85.09,48.48L85.46,53.19L86.2,49.21L86.57,51.73L86.93,48.68L87.3,49.94L87.67,52.66L88.04,51.47L88.41,47.69L89.88,49.88L90.25,50.8L90.62,50.8L90.99,53.33L92.09,44.5L92.46,46.89L93.93,49.28L94.3,47.09L95.04,50.34L95.41,48.15L95.78,46.23L96.14,47.49L96.51,47.16L97.99,48.35L98.35,47.55L98.72,50.61L99.09,49.28L99.46,45.43L99.83,46.96L100.2,44.04L100.56,44.04L100.93,46.69L101.3,50.87L101.67,49.01L102.04,49.74L102.41,48.68L102.77,49.41L103.14,42.11L104.25,49.01L104.62,45.16L106.09,49.28L106.46,47.22L107.2,43.97L107.56,45.03L107.93,46.36L108.67,45.1L109.04,45.63L109.77,46.96L110.14,46.69L111.25,43.51L111.62,46.03L112.35,46.29L112.72,47.35L114.19,43.77L114.56,42.71L115.67,47.29L116.04,46.43L117.88,42.38L118.25,42.51L118.98,48.08L119.35,45.5L120.09,42.05L120.46,46.49L120.82,46.69L121.19,44.5L121.93,41.25L122.3,43.44L122.67,43.44L123.04,45.23L123.4,43.17L123.77,45.83L124.14,47.62L124.51,44.5L124.88,47.29L125.25,40.98L125.98,41.45L126.35,42.38L127.46,45.7L127.82,44.04L128.19,47.22L128.56,44.7L128.93,41.78L130.03,47.49L130.4,45.5L131.51,41.05L131.88,44.57L132.61,39.46L132.98,40.72L133.35,44.37L133.72,43.77L134.09,45.3L134.82,43.17L135.19,43.9L135.56,41.38L135.93,44.97L136.66,40.25L137.03,40.92L137.4,42.31L137.77,43.31L138.14,42.98L138.51,42.51L138.87,43.97L139.24,42.91L139.61,43.31L139.98,39.26L140.35,41.71L140.72,40.06L141.82,43.31L142.19,43.11L142.56,41.38L143.3,43.84L143.66,41.12L144.77,43.17L145.14,41.45L145.51,40.45L145.87,44.04L146.24,44.04L146.61,42.18L147.72,40.19L148.08,40.72L148.45,41.45L148.82,41.12L149.19,42.71L149.56,45.23L149.93,42.91L150.29,44.5L150.66,45.89L151.03,39.59L151.4,39.33L151.77,40.65L152.14,43.57L152.5,40.19L153.24,43.51L153.61,41.25L154.35,42.91L154.71,38.13L155.08,36.21L155.45,40.39L155.82,40.59L156.19,42.11L157.29,40.92L157.66,40.12L158.03,41.58L158.4,39.92L159.5,38.99L159.87,41.71L160.24,41.71L160.61,39.99L160.98,40.19L161.35,41.71L161.71,43.64L162.08,41.38L162.82,39.19L163.19,39.99L163.56,40.59L164.66,40.59L165.03,41.32L165.77,36.74L166.13,38.66L166.5,37.6L166.87,40.06L167.61,38.93L167.98,40.98L168.34,40.52L168.71,42.31L169.45,36.41L169.82,42.11L170.19,37.27L170.55,39.33L170.92,40.39L171.66,39.19L172.03,41.71L172.4,41.58L172.76,43.37L173.87,36.54L174.24,37.07L175.34,40.92L175.71,39.46L176.82,40.52L177.19,38.46L177.55,36.61L177.92,37.27L178.29,38.93L178.66,38.13L179.03,40.19L179.4,42.71L179.76,38.99L180.13,40.65L180.5,36.54L180.87,36.01L181.24,38.66L181.61,42.18L181.97,41.25L182.34,40.52L182.71,37.2L183.08,41.98L184.18,36.27L184.55,37.8L185.66,41.52L186.03,40.06L186.39,40.65L186.76,39.13L187.13,37.4L187.5,40.12L188.6,30.04L188.97,30.04L190.45,28.18L190.81,29.24L191.18,28.97L191.55,27.25L193.03,26.19L193.39,26.32L193.76,27.45L194.13,25.59L194.87,26.12L195.24,23.6L196.34,26.59L196.71,26.05L197.08,24.53L197.45,26.59L198.18,24.66L198.55,26.59L198.92,23.93L199.29,24.6L199.66,25.19L200.02,24.4L200.39,25.26L200.76,24.79L201.87,23.87L202.23,26.12L202.6,24.4L202.97,24.93L203.34,25.06L204.08,23.4L204.44,24.86L205.92,24.46L206.29,25.06L207.02,23L207.39,23.4L207.76,23.53L208.86,24.99L209.23,23.87L209.97,22.67L210.34,24.46L211.08,22.8L211.44,23.47L211.81,23.2L213.29,23.87L213.65,22.6L214.39,24.4L214.76,23.67L215.13,22.01L216.23,23.67L216.6,23.73L216.97,23.47L217.34,22.01L218.81,23.93L219.18,22.41L219.55,21.87L219.92,22.67L221.02,23.53L221.39,23.53L222.13,21.94L222.49,23.07L222.86,23.33L223.23,21.94L224.34,23.6L224.7,21.87L225.07,21.61L225.44,22.41L225.81,21.34L226.18,21.94L226.55,22.34L226.91,22.6L227.28,21.94L227.65,23.14L228.02,22.41L228.39,21.87L229.13,22.01L229.49,22.21L230.23,21.61L230.6,22.14L231.7,22.6L232.07,20.81L232.44,22.8L232.81,21.68L233.18,21.21L234.28,23.33L234.65,22.47L235.02,23L235.39,22.67L235.76,20.88L236.49,21.28L236.86,21.01L237.97,23L238.33,21.94L239.81,20.95L240.18,21.87L240.54,21.41L240.91,21.94L241.28,22.14L241.65,21.54L242.02,23.67L243.12,20.68L243.49,21.81L244.96,20.75L245.33,22.41L246.07,21.41L246.44,20.81L247.54,21.87L247.91,21.21L248.65,21.14L249.02,21.74L249.75,22.87L250.12,22.07L251.23,20.81L251.6,20.88L252.7,21.28L253.07,21.21L253.44,21.94L253.81,20.35L254.54,20.81L254.91,20.48L256.75,21.87L257.12,21.28L257.86,21.14L258.23,20.55L259.33,21.74L259.7,20.95L260.44,20.95L260.8,20.55L261.17,21.41L261.54,20.68L261.91,20.61L262.65,20.88L263.02,20.48L263.38,21.94L263.75,20.48L264.12,20.81L264.86,21.41L265.23,20.68L266.33,21.34L266.7,20.95L267.07,21.94L267.44,20.68L268.54,21.41L268.91,20.41L269.28,19.95L269.65,20.88L270.38,19.88L270.75,21.14L271.12,19.42L271.49,21.14L271.86,20.88L272.96,20.15L273.33,21.41L273.7,20.55L274.07,21.41L274.43,20.81L274.8,19.88L275.17,20.15L275.54,21.94L277.01,19.88L277.38,20.15L277.75,21.68L278.12,19.62L279.22,21.74L279.59,20.35L280.33,18.89L280.7,20.55L281.8,19.42L282.17,20.88L284.01,19.22L284.38,19.49L285.12,19.88L285.49,19.29L286.22,19.88L286.59,19.15L286.96,19.62L287.33,19.22L287.7,19.02L288.06,19.95L288.43,19.75L288.8,19.49L289.54,18.42L289.91,18.89L290.27,19.15L291.75,20.28L292.12,19.29L292.48,20.15L292.85,19.68L293.22,19.22L294.69,18.96L295.06,19.22L295.8,20.08L296.17,18.76L297.64,20.02L298.01,18.76L299.12,19.15L299.48,19.75L299.85,18.49L300.22,19.75L300.59,19.75L301.33,18.03L301.69,19.15L302.43,19.82L302.8,19.09L303.9,19.55L304.27,18.96L306.11,19.68L306.48,19.02L307.59,19.88L307.96,18.82L308.69,19.62L309.06,18.69L309.43,19.42L309.8,19.02L310.17,19.09L310.9,19.49L311.27,18.49L312.01,20.15L312.38,19.49L312.74,18.76L313.85,18.96L314.22,18.89L314.59,19.42L314.95,18.56L316.06,19.29L316.43,19.29L317.53,18.76L317.9,18.76L318.64,18.56L319.01,19.62L319.74,19.15L320.11,19.55L321.22,18.89L321.59,19.62L323.43,18.82L323.8,19.62L324.53,18.09L324.9,18.82L325.64,19.82L326.01,18.96L326.74,18.49L327.11,18.36L327.85,19.68L328.22,19.35L328.58,18.29L329.69,18.56L330.06,19.22L331.53,18.49L331.9,19.95L333.74,18.82L334.11,18.69L335.58,18.96L335.95,18.36L338.16,19.02L338.53,18.69L340,19.29L340.37,19.35L340.74,18.56L341.11,19.42L341.48,19.02L342.21,18.29L342.58,18.82L342.95,19.62L343.32,18.56L343.69,19.82L344.06,18.89L344.42,18.62L345.53,18.96L345.9,18.89L346.63,19.42L347,18.23L347.74,18.96L348.11,19.02L348.84,19.35L349.21,19.95L349.58,19.55L349.95,18.03L351.79,19.22L352.16,18.49L352.53,18.49L352.9,19.29L353.27,18.49L353.63,19.02L354,18.76L354.37,19.35L354.74,18.96L355.11,18.69L355.84,19.02L356.21,18.42L356.58,18.16L356.95,19.09L357.32,18.56L357.69,18.89L358.05,19.49L359.16,18.49L359.53,18.56L360.26,18.29L360.63,19.35L362.11,18.62L362.47,18.96L363.21,19.22L363.58,18.23L364.68,19.09L365.05,18.62L365.79,18.49L366.16,19.15L367.26,18.82L367.63,19.42L368,19.49" style="vector-effect: non-scaling-stroke; fill: none; stroke: rgb(227, 119, 194); stroke-opacity: 1; stroke-width: 2px; opacity: 1;"/></g><g class="points"/><g class="text"/></g><g class="trace scatter trace05fd6a" style="stroke-miterlimit: 2; opacity: 1;"><g class="fills"/><g class="errorbars"/><g class="lines"><path class="js-line" d="M0,301.03L1.47,270.37L1.84,267.91L2.95,256.7L3.32,253.85L3.68,254.38L4.05,251.79L4.42,246.42L4.79,251.99L5.89,235.93L6.26,236.73L7,228.97L7.37,229.03L7.74,229.7L9.21,221L9.58,221.07L9.95,219.01L10.31,222.66L12.52,211.98L12.89,211.98L13.26,210.39L13.63,211.25L14,205.01L14.37,207.07L14.73,203.88L15.1,206.87L15.47,204.35L15.84,202.49L16.21,201.43L16.58,202.16L16.94,203.35L17.31,206.14L17.68,193.47L18.05,194.79L18.42,200.9L19.16,197.78L19.52,195.19L20.63,192.47L21,195.59L21.73,191.74L22.1,195.72L22.47,196.19L22.84,188.89L23.21,189.55L23.58,191.94L24.31,184.91L24.68,186.96L25.05,186.63L25.42,182.45L25.79,184.24L26.15,182.72L26.89,187.69L27.26,182.05L28,178.54L28.36,180.92L28.73,180.66L29.1,178.4L29.84,176.15L30.21,177.87L30.57,177.34L30.94,178.01L31.31,173.29L31.68,177.81L32.05,175.02L32.42,172.9L32.78,174.55L33.15,171.64L33.52,174.16L33.89,169.45L34.26,172.7L34.63,168.32L34.99,167.32L35.36,171.37L35.73,171.7L36.1,166.26L36.47,166.73L36.84,169.38L37.21,171.57L37.57,167.99L37.94,164.6L38.31,166.46L38.68,165.46L39.78,159.36L40.15,165.73L41.63,159.96L41.99,163.01L42.36,157.17L42.73,164.67L43.47,156.17L43.84,160.02L44.2,154.65L44.57,158.96L44.94,161.15L45.68,153.12L46.05,155.31L46.41,154.78L46.78,152.46L47.15,155.11L47.89,151.4L48.26,152.79L48.62,149.61L48.99,154.85L49.36,154.32L49.73,147.42L50.47,150.4L50.83,148.88L51.2,151.4L51.57,149.01L51.94,149.67L53.05,148.41L53.41,148.35L54.15,146.22L54.52,140.85L55.62,146.82L55.99,144.23L56.36,144.43L56.73,147.08L57.1,144.03L57.47,145.76L57.83,145.03L58.2,141.05L58.57,142.04L58.94,142.84L60.04,136.73L60.41,141.58L61.15,144.23L61.52,138.99L61.89,144.23L62.25,141.38L62.62,134.88L62.99,141.18L63.36,136.93L63.73,137.2L64.1,137.2L64.46,140.38L65.2,138.39L65.57,139.25L66.67,131.96L67.04,140.05L67.78,139.12L68.15,131.89L68.52,133.15L68.88,132.75L69.25,137.99L69.62,136.87L69.99,132.15L70.36,132.49L70.73,130.56L71.83,135.27L72.2,131.03L72.57,128.11L72.94,135.87L74.04,130.89L74.41,130.89L74.78,136.14L75.15,130.23L75.52,129.9L75.88,128.24L76.25,130.63L76.62,126.12L76.99,131.69L77.36,130.1L77.73,127.11L78.09,130.43L78.46,129.57L78.83,129.83L79.2,130.16L79.57,128.04L79.94,130.96L80.3,126.38L80.67,128.11L81.04,127.24L81.41,126.85L81.78,125.25L82.15,128.04L82.51,127.58L82.88,131.03L83.25,125.12L83.62,126.05L83.99,129.63L85.09,120.61L85.46,124.59L85.83,125.19L86.2,123.6L86.93,128.77L87.3,121.87L87.67,128.24L88.04,122.8L88.41,122.8L88.78,126.65L89.15,125.65L89.51,118.42L90.62,124.79L90.99,122.8L91.36,121.47L91.72,124.52L92.46,119.81L92.83,123L93.2,117.96L93.57,122.6L93.93,120.34L94.67,123.4L95.04,121.54L95.41,123.33L95.78,119.15L97.25,123.86L97.62,119.61L98.35,117.16L98.72,118.75L99.09,120.48L99.46,116.43L99.83,117.42L100.2,117.09L100.56,116.76L100.93,116.5L101.3,117.03L101.67,119.28L102.04,117.03L102.41,119.55L102.77,118.68L103.14,114.24L103.51,120.74L103.88,119.28L104.25,117.36L104.62,112.51L104.98,114.31L105.35,112.98L105.72,118.35L106.09,114.44L106.46,115.7L107.2,113.44L107.56,117.16L108.67,112.18L109.04,114.17L109.41,117.36L109.77,113.64L110.88,111.45L111.25,112.12L111.62,113.71L111.98,111.19L112.72,116.56L113.09,111.19L114.19,108.4L114.56,110.06L115.67,114.44L116.04,113.18L116.4,108.2L116.77,110.86L117.14,110.52L117.51,107.54L118.25,109.86L118.61,107.54L118.98,110.92L119.35,109.79L119.72,107.67L120.09,104.95L120.46,111.25L120.82,112.51L121.19,108.73L121.56,103.22L121.93,106.61L122.3,106.41L122.67,108.73L123.04,106.21L124.51,107.94L124.88,106.14L125.25,106.67L125.61,109.66L126.35,101.76L126.72,106.41L127.46,102.76L127.82,104.75L128.19,110.66L128.56,107.8L128.93,104.42L129.3,106.54L129.67,104.09L130.77,106.74L131.14,107.14L132.61,98.91L132.98,102.43L133.35,107.01L133.72,98.71L134.09,104.35L134.45,101.63L134.82,102.03L135.93,105.28L136.3,105.28L137.03,99.84L137.4,104.22L137.77,100.9L138.14,102.96L138.51,101.76L139.98,103.09L140.35,104.88L140.72,99.11L141.09,102.56L141.45,99.91L141.82,99.64L142.19,106.54L142.56,97.92L142.93,102.56L143.3,104.88L144.03,96.79L144.4,100.5L145.14,99.58L145.51,101.43L146.24,102.83L146.61,98.71L146.98,101.17L147.35,99.97L147.72,98.91L148.45,102.36L148.82,97.05L149.56,101.7L149.93,98.12L150.29,102.43L150.66,101.37L151.03,102.1L152.14,96.99L152.5,97.58L152.87,98.12L153.24,103.69L153.61,97.32L154.35,103.69L154.71,95.93L155.08,100.17L155.45,98.45L155.82,98.12L156.92,97.25L157.29,100.97L158.03,100.57L158.4,98.45L158.77,100.5L159.14,94.86L159.5,102.63L159.87,94.93L160.24,95.86L160.98,101.63L161.35,100.7L161.71,96.99L162.82,98.85L163.19,93.4L163.56,98.31L163.92,97.58L164.29,96.79L165.03,97.72L165.4,96.26L166.13,98.38L166.5,95.99L166.87,96.39L167.24,99.97L167.98,97.32L168.34,93.67L168.71,98.91L169.08,95.66L169.45,96.92L169.82,98.12L170.19,92.41L170.55,95.93L170.92,94.86L171.29,93.4L172.76,99.18L173.13,94.53L173.5,101.63L173.87,95.39L174.24,94.53L174.61,92.94L174.97,94.47L175.34,96.59L175.71,95.53L176.08,98.98L177.19,93.07L177.55,95.39L177.92,96.12L178.29,93.87L178.66,94.2L179.03,95.86L179.4,98.18L179.76,97.58L180.13,96.46L180.87,88.83L181.24,94.13L181.61,96.99L181.97,96.39L182.34,95.66L182.71,91.55L183.08,97.05L183.45,90.82L183.82,95.93L184.18,94.66L184.55,96.66L184.92,91.55L185.29,92.54L185.66,96.46L186.76,97.05L187.13,91.21L187.5,95.53L187.87,91.15L188.24,90.02L189.71,82.52L190.08,86.9L191.18,82.79L191.55,86.24L192.29,83.58L192.66,85.11L193.03,81.73L193.39,82.85L193.76,86.84L195.24,79.54L195.6,80.4L195.97,86.7L196.71,80.8L197.08,81.66L197.45,82.99L198.55,84.25L198.92,80.07L199.29,86.04L199.66,81.92L200.02,85.04L200.39,79.27L200.76,82.72L201.13,80L202.23,85.31L202.6,82.06L203.34,84.31L203.71,81.92L205.18,85.51L205.55,82.39L205.92,84.38L206.29,83.25L206.65,83.98L207.39,80.93L207.76,82.26L208.13,82.85L208.5,80.2L209.23,85.57L209.6,82.65L209.97,81.06L210.34,84.31L211.44,80.2L211.81,80.66L212.18,81.46L212.55,78.34L212.92,84.71L213.29,82.99L213.65,79.74L214.39,85.84L214.76,82.65L215.13,80.4L215.5,86.24L216.6,79.47L216.97,83.45L217.71,78.67L218.07,80.53L218.44,83.98L219.55,81.33L219.92,82.52L220.28,80.73L220.65,85.91L221.02,79.54L221.39,80.93L221.76,81.66L222.13,83.05L222.49,79.2L223.6,82.59L223.97,84.31L225.07,81.66L225.44,84.84L225.81,82.99L226.18,76.28L226.91,81.99L227.28,81.06L227.65,82.99L228.02,82.72L228.39,81.33L229.13,79.14L229.49,79.67L229.86,82.99L230.23,83.12L230.6,80.8L230.97,80.6L231.34,79.2L232.44,83.85L232.81,82.12L233.55,81.79L233.91,80.33L234.28,82.99L234.65,79.8L235.39,83.38L235.76,81.53L236.49,81.2L236.86,84.38L237.6,78.74L237.97,83.12L238.33,77.61L238.7,81.99L239.07,83.98L239.44,81.2L239.81,81.99L240.18,81.92L240.54,81.33L240.91,81.79L241.28,77.74L241.65,79.4L242.02,84.78L242.39,84.65L242.75,82.26L243.49,79.4L243.86,79.54L244.23,83.78L244.6,76.88L244.96,82.39L245.33,80.86L245.7,79.74L246.07,79.54L246.44,83.58L246.81,83.25L247.18,79.47L248.28,81.59L248.65,80.73L249.02,84.05L249.39,79.6L249.75,81.99L250.12,81.33L250.49,77.74L250.86,82.26L251.23,81.46L251.6,79.74L251.96,82.65L252.33,82.19L252.7,77.94L253.07,86.04L253.44,81.66L253.81,78.47L254.17,79.2L254.54,78.81L254.91,82.59L255.28,84.65L255.65,82.26L256.02,85.24L256.38,79.74L256.75,81.46L257.12,78.01L257.86,79.47L258.23,78.74L259.7,84.11L260.07,79.87L260.8,82.52L261.17,80.13L261.54,80.33L261.91,82.39L262.28,83.12L262.65,80.4L263.02,82.79L263.38,79.14L263.75,78.21L264.12,81.99L264.86,79.67L265.23,83.38L266.33,80.8L266.7,82.52L267.07,83.25L267.44,82.46L267.8,81.26L268.54,82.59L268.91,81L269.28,82.72L269.65,81.33L270.01,81.92L270.38,76.48L270.75,81.53L271.12,81.79L271.86,80.93L272.22,78.01L272.59,83.38L272.96,79.47L273.33,77.94L274.07,83.92L274.43,80.66L274.8,79.93L275.17,81.92L275.54,84.78L275.91,84.31L276.28,81.73L277.01,78.34L277.38,80.33L277.75,83.45L278.12,81.13L278.49,81.46L279.22,85.04L279.59,81.13L279.96,78.47L280.33,82.46L280.7,81.86L281.07,77.35L282.17,81L282.54,80.47L283.28,77.15L283.64,78.21L284.01,77.74L284.38,77.74L284.75,82.12L285.85,77.68L286.22,78.81L286.59,81.73L287.33,77.35L287.7,80.53L288.06,79.93L288.43,76.68L288.8,77.35L289.17,83.45L289.54,76.28L289.91,77.41L290.27,76.88L290.64,80.13L291.01,78.74L291.38,79.8L291.75,77.28L292.12,80.07L292.85,76.75L293.22,78.61L293.59,77.74L293.96,78.67L294.33,79.34L294.69,80.07L295.06,77.21L295.43,80.73L295.8,78.61L296.17,77.68L296.54,77.35L296.9,78.41L297.64,78.41L298.01,76.48L298.75,78.81L299.12,77.08L299.48,80.13L299.85,78.47L300.22,74.36L300.96,82.19L301.33,77.61L302.43,80.47L302.8,76.42L303.54,80.73L303.9,79.27L304.27,79.14L304.64,78.14L305.01,78.08L305.38,75.95L305.75,82.26L306.11,78.41L306.48,77.48L306.85,79.8L307.22,76.55L307.96,80.33L308.32,79.2L309.06,76.95L309.43,77.55L309.8,75.02L310.17,76.48L310.53,78.28L310.9,76.68L311.27,79.93L311.64,79.4L312.01,80.73L312.38,81.73L312.74,78.21L313.11,77.81L313.48,79.54L313.85,78.61L314.22,79.34L314.59,83.45L315.32,74.96L315.69,77.68L316.06,77.61L316.43,77.88L316.8,76.82L317.17,80.13L317.53,76.95L317.9,77.61L318.27,76.68L318.64,77.48L319.01,77.41L319.38,76.55L319.74,79.14L320.11,80.53L320.48,79.47L320.85,77.94L321.22,81.2L321.59,79.87L321.95,75.42L323.06,79.54L323.43,79.34L323.8,78.28L324.16,78.74L324.53,78.87L324.9,79.6L325.27,82.19L326.37,74.76L326.74,76.88L327.11,75.36L327.48,77.81L327.85,81.53L328.22,80.53L328.58,77.61L328.95,77.41L329.32,79.93L329.69,76.15L330.06,76.35L330.43,78.61L331.16,80.2L331.53,78.21L331.9,77.68L332.27,79.27L332.64,76.55L333.01,79.01L333.37,77.94L333.74,77.88L334.11,83.92L334.85,77.15L335.22,79.87L335.58,76.09L335.95,82.79L336.32,78.54L336.69,79.4L337.06,81.26L337.43,79.8L337.79,79.54L338.16,74.29L338.53,79.67L338.9,77.74L339.27,75.82L339.64,78.87L340,76.62L340.37,78.61L340.74,77.81L341.85,81.53L342.21,78.01L342.58,80.33L342.95,77.35L343.32,77.48L343.69,83.65L344.06,77.61L344.42,78.47L344.79,78.74L345.16,81.2L345.53,77.94L346.63,76.75L347,79.8L347.74,76.88L348.11,78.74L348.48,78.94L348.84,77.94L350.32,79.2L350.69,81.26L352.53,75.82L352.9,75.95L353.63,78.34L354,75.55L354.74,82.46L355.11,80.4L355.48,79.4L356.21,75.49L356.58,80L357.32,75.75L357.69,79.74L358.05,79.07L358.42,75.75L358.79,79.87L359.16,77.94L359.53,76.88L360.63,80.8L361,77.21L361.37,78.01L361.74,74.76L362.47,80.4L362.84,79.34L363.21,77.74L363.58,78.08L363.95,80.8L364.32,77.08L364.68,80L365.05,78.61L365.42,77.28L365.79,77.48L366.16,78.87L366.53,79.27L366.89,76.35L367.63,79.87L368,79.67" style="vector-effect: non-scaling-stroke; fill: none; stroke: rgb(127, 127, 127); stroke-opacity: 1; stroke-width: 2px; opacity: 1;"/></g><g class="points"/><g class="text"/></g></g></g><g class="overplot"/><path class="xlines-above crisp" d="M0,0" style="fill: none;"/><path class="ylines-above crisp" d="M0,0" style="fill: none;"/><g class="overlines-above"/><g class="xaxislayer-above"><g class="xtick"><text text-anchor="middle" x="0" y="403" transform="translate(133.31,0)" style="font-family: 'Open Sans', verdana, arial, sans-serif; font-size: 12px; fill: rgb(68, 68, 68); fill-opacity: 1; white-space: pre;">20</text></g><g class="xtick"><text text-anchor="middle" x="0" y="403" transform="translate(206.98,0)" style="font-family: 'Open Sans', verdana, arial, sans-serif; font-size: 12px; fill: rgb(68, 68, 68); fill-opacity: 1; white-space: pre;">40</text></g><g class="xtick"><text text-anchor="middle" x="0" y="403" transform="translate(280.65,0)" style="font-family: 'Open Sans', verdana, arial, sans-serif; font-size: 12px; fill: rgb(68, 68, 68); fill-opacity: 1; white-space: pre;">60</text></g><g class="xtick"><text text-anchor="middle" x="0" y="403" transform="translate(354.33,0)" style="font-family: 'Open Sans', verdana, arial, sans-serif; font-size: 12px; fill: rgb(68, 68, 68); fill-opacity: 1; white-space: pre;">80</text></g><g class="xtick"><text text-anchor="middle" x="0" y="403" transform="translate(428,0)" style="font-family: 'Open Sans', verdana, arial, sans-serif; font-size: 12px; fill: rgb(68, 68, 68); fill-opacity: 1; white-space: pre;">100</text></g></g><g class="yaxislayer-above"><g class="ytick"><text text-anchor="end" x="59" y="4.199999999999999" transform="translate(0,341.78)" style="font-family: 'Open Sans', verdana, arial, sans-serif; font-size: 12px; fill: rgb(68, 68, 68); fill-opacity: 1; white-space: pre;">20</text></g><g class="ytick"><text text-anchor="end" x="59" y="4.199999999999999" transform="translate(0,275.43)" style="font-family: 'Open Sans', verdana, arial, sans-serif; font-size: 12px; fill: rgb(68, 68, 68); fill-opacity: 1; white-space: pre;">40</text></g><g class="ytick"><text text-anchor="end" x="59" y="4.199999999999999" transform="translate(0,209.08)" style="font-family: 'Open Sans', verdana, arial, sans-serif; font-size: 12px; fill: rgb(68, 68, 68); fill-opacity: 1; white-space: pre;">60</text></g><g class="ytick"><text text-anchor="end" x="59" y="4.199999999999999" transform="translate(0,142.72)" style="font-family: 'Open Sans', verdana, arial, sans-serif; font-size: 12px; fill: rgb(68, 68, 68); fill-opacity: 1; white-space: pre;">80</text></g><g class="ytick"><text text-anchor="end" x="59" y="4.199999999999999" transform="translate(0,76.37)" style="font-family: 'Open Sans', verdana, arial, sans-serif; font-size: 12px; fill: rgb(68, 68, 68); fill-opacity: 1; white-space: pre;">100</text></g></g><g class="overaxes-above"/></g></g><g class="polarlayer"/><g class="ternarylayer"/><g class="geolayer"/><g class="funnelarealayer"/><g class="pielayer"/><g class="treemaplayer"/><g class="sunburstlayer"/><g class="glimages"/><defs id="topdefs-8dacf1"><g class="clips"/><clipPath id="legend8dacf1"><rect width="253" height="162" x="0" y="0"/></clipPath></defs><g class="layer-above"><g class="imagelayer"/><g class="shapelayer"/></g><g class="infolayer"><g class="legend" pointer-events="all" transform="translate(435.36, 60)"><rect class="bg" shape-rendering="crispEdges" width="253" height="162" x="0" y="0" style="stroke: rgb(68, 68, 68); stroke-opacity: 1; fill: rgb(255, 255, 255); fill-opacity: 1; stroke-width: 0px;"/><g class="scrollbox" transform="translate(0, 0)" clip-path="url('#legend8dacf1')"><g class="groups"><g class="traces" transform="translate(0, 14.5)" style="opacity: 1;"><text class="legendtext user-select-none" text-anchor="start" x="40" y="4.680000000000001" style="font-family: 'Open Sans', verdana, arial, sans-serif; font-size: 12px; fill: rgb(68, 68, 68); fill-opacity: 1; white-space: pre;">0_resnet20</text><g class="layers" style="opacity: 1;"><g class="legendfill"/><g class="legendlines"><path class="js-line" d="M5,0h30" style="fill: none; stroke: rgb(31, 119, 180); stroke-opacity: 1; stroke-width: 2px;"/></g><g class="legendsymbols"><g class="legendpoints"/></g></g><rect class="legendtoggle" pointer-events="all" x="0" y="-9.5" width="247.984375" height="19" style="cursor: pointer; fill: rgb(0, 0, 0); fill-opacity: 0;"/></g><g class="traces" transform="translate(0, 33.5)" style="opacity: 1;"><text class="legendtext user-select-none" text-anchor="start" x="40" y="4.680000000000001" style="font-family: 'Open Sans', verdana, arial, sans-serif; font-size: 12px; fill: rgb(68, 68, 68); fill-opacity: 1; white-space: pre;">1_resnet20_q_dorefa_a16w16g32</text><g class="layers" style="opacity: 1;"><g class="legendfill"/><g class="legendlines"><path class="js-line" d="M5,0h30" style="fill: none; stroke: rgb(255, 127, 14); stroke-opacity: 1; stroke-width: 2px;"/></g><g class="legendsymbols"><g class="legendpoints"/></g></g><rect class="legendtoggle" pointer-events="all" x="0" y="-9.5" width="247.984375" height="19" style="cursor: pointer; fill: rgb(0, 0, 0); fill-opacity: 0;"/></g><g class="traces" transform="translate(0, 52.5)" style="opacity: 1;"><text class="legendtext user-select-none" text-anchor="start" x="40" y="4.680000000000001" style="font-family: 'Open Sans', verdana, arial, sans-serif; font-size: 12px; fill: rgb(68, 68, 68); fill-opacity: 1; white-space: pre;">2_resnet20_q_dorefa_a1w1g32</text><g class="layers" style="opacity: 1;"><g class="legendfill"/><g class="legendlines"><path class="js-line" d="M5,0h30" style="fill: none; stroke: rgb(44, 160, 44); stroke-opacity: 1; stroke-width: 2px;"/></g><g class="legendsymbols"><g class="legendpoints"/></g></g><rect class="legendtoggle" pointer-events="all" x="0" y="-9.5" width="247.984375" height="19" style="cursor: pointer; fill: rgb(0, 0, 0); fill-opacity: 0;"/></g><g class="traces" transform="translate(0, 71.5)" style="opacity: 1;"><text class="legendtext user-select-none" text-anchor="start" x="40" y="4.680000000000001" style="font-family: 'Open Sans', verdana, arial, sans-serif; font-size: 12px; fill: rgb(68, 68, 68); fill-opacity: 1; white-space: pre;">3_resnet20_q_dorefa_a2w2g32</text><g class="layers" style="opacity: 1;"><g class="legendfill"/><g class="legendlines"><path class="js-line" d="M5,0h30" style="fill: none; stroke: rgb(214, 39, 40); stroke-opacity: 1; stroke-width: 2px;"/></g><g class="legendsymbols"><g class="legendpoints"/></g></g><rect class="legendtoggle" pointer-events="all" x="0" y="-9.5" width="247.984375" height="19" style="cursor: pointer; fill: rgb(0, 0, 0); fill-opacity: 0;"/></g><g class="traces" transform="translate(0, 90.5)" style="opacity: 1;"><text class="legendtext user-select-none" text-anchor="start" x="40" y="4.680000000000001" style="font-family: 'Open Sans', verdana, arial, sans-serif; font-size: 12px; fill: rgb(68, 68, 68); fill-opacity: 1; white-space: pre;">4_resnet20_q_dorefa_a4w4g32</text><g class="layers" style="opacity: 1;"><g class="legendfill"/><g class="legendlines"><path class="js-line" d="M5,0h30" style="fill: none; stroke: rgb(148, 103, 189); stroke-opacity: 1; stroke-width: 2px;"/></g><g class="legendsymbols"><g class="legendpoints"/></g></g><rect class="legendtoggle" pointer-events="all" x="0" y="-9.5" width="247.984375" height="19" style="cursor: pointer; fill: rgb(0, 0, 0); fill-opacity: 0;"/></g><g class="traces" transform="translate(0, 109.5)" style="opacity: 1;"><text class="legendtext user-select-none" text-anchor="start" x="40" y="4.680000000000001" style="font-family: 'Open Sans', verdana, arial, sans-serif; font-size: 12px; fill: rgb(68, 68, 68); fill-opacity: 1; white-space: pre;">5_resnet20_q_dorefa_a8w8g32</text><g class="layers" style="opacity: 1;"><g class="legendfill"/><g class="legendlines"><path class="js-line" d="M5,0h30" style="fill: none; stroke: rgb(140, 86, 75); stroke-opacity: 1; stroke-width: 2px;"/></g><g class="legendsymbols"><g class="legendpoints"/></g></g><rect class="legendtoggle" pointer-events="all" x="0" y="-9.5" width="247.984375" height="19" style="cursor: pointer; fill: rgb(0, 0, 0); fill-opacity: 0;"/></g><g class="traces" transform="translate(0, 128.5)" style="opacity: 1;"><text class="legendtext user-select-none" text-anchor="start" x="40" y="4.680000000000001" style="font-family: 'Open Sans', verdana, arial, sans-serif; font-size: 12px; fill: rgb(68, 68, 68); fill-opacity: 1; white-space: pre;">6_resnet20_q_ternary</text><g class="layers" style="opacity: 1;"><g class="legendfill"/><g class="legendlines"><path class="js-line" d="M5,0h30" style="fill: none; stroke: rgb(227, 119, 194); stroke-opacity: 1; stroke-width: 2px;"/></g><g class="legendsymbols"><g class="legendpoints"/></g></g><rect class="legendtoggle" pointer-events="all" x="0" y="-9.5" width="247.984375" height="19" style="cursor: pointer; fill: rgb(0, 0, 0); fill-opacity: 0;"/></g><g class="traces" transform="translate(0, 147.5)" style="opacity: 1;"><text class="legendtext user-select-none" text-anchor="start" x="40" y="4.680000000000001" style="font-family: 'Open Sans', verdana, arial, sans-serif; font-size: 12px; fill: rgb(68, 68, 68); fill-opacity: 1; white-space: pre;">7_resnet20_q_xnor</text><g class="layers" style="opacity: 1;"><g class="legendfill"/><g class="legendlines"><path class="js-line" d="M5,0h30" style="fill: none; stroke: rgb(127, 127, 127); stroke-opacity: 1; stroke-width: 2px;"/></g><g class="legendsymbols"><g class="legendpoints"/></g></g><rect class="legendtoggle" pointer-events="all" x="0" y="-9.5" width="247.984375" height="19" style="cursor: pointer; fill: rgb(0, 0, 0); fill-opacity: 0;"/></g></g></g><rect class="scrollbar" rx="20" ry="3" width="0" height="0" x="0" y="0" style="fill: rgb(128, 139, 164); fill-opacity: 1;"/></g><g class="g-gtitle"><text class="gtitle" x="350" y="30" text-anchor="middle" dy="0em" style="font-family: 'Open Sans', verdana, arial, sans-serif; font-size: 17px; fill: rgb(68, 68, 68); opacity: 1; font-weight: normal; white-space: pre;">train_top1</text></g><g class="g-xtitle"/><g class="g-ytitle"/></g></svg>